<svg id="Layer_1" data-name="Layer 1" xmlns="http://www.w3.org/2000/svg" viewBox="0 0 782.12 602.56"><defs><style>.cls-1{fill:#371b0e;}.cls-2{fill:#feeac9;}.cls-3{fill:#f4a25e;}.cls-4{fill:#f6a561;}.cls-5{fill:#f6a460;}.cls-6{fill:#fde9c7;}.cls-7{fill:#cb7e47;}.cls-8{fill:#e89759;}.cls-9{fill:#fed89a;}.cls-10{fill:#f6f1e6;}.cls-11{fill:#bc7038;}.cls-12{fill:#d68447;}.cls-13{fill:#f4c47e;}.cls-14{fill:#f9ddb3;}.cls-15{fill:#faeec9;}.cls-16{fill:#f1ac6e;}.cls-17{fill:#f7d08e;}.cls-18{fill:#d27e41;}.cls-19{fill:#f5eed8;}.cls-20{fill:#a37b4d;}.cls-21{fill:#c36037;}.cls-22{fill:#d08a37;}.cls-23{fill:#3c2211;}.cls-24{fill:#5d5123;}.cls-25{fill:#f3d9b4;}.cls-26{fill:#f5976e;}.cls-27{fill:#f8c16e;}.cls-28{fill:#705137;}.cls-29{fill:#95894f;}.cls-30{fill:#361b0e;}.cls-31{fill:#fef4e2;}.cls-32{fill:#eea061;}.cls-33{fill:#feeccc;}.cls-34{fill:#e99a5d;}.cls-35{fill:#fffefb;}.cls-36{fill:#fffbf4;}.cls-37{fill:#756d61;}.cls-38{fill:#f0b079;}.cls-39{fill:#8a8176;}.cls-40{fill:#eee9e2;}.cls-41{fill:#d3874d;}.cls-42{fill:#f8dbb0;}.cls-43{fill:#f8ead2;}.cls-44{fill:#371d10;}.cls-45{fill:#f7e8ce;}.cls-46{fill:#da894a;}.cls-47{fill:#fdf3e1;}.cls-48{fill:#75614e;}.cls-49{fill:#381c0e;}.cls-50{fill:#52453b;}.cls-51{fill:#fffefd;}.cls-52{fill:#7f7367;}.cls-53{fill:#5b4e21;}.cls-54{fill:#a3995b;}.cls-55{fill:#a69b5d;}.cls-56{fill:#a3995a;}.cls-57{fill:#f5e6cf;}</style></defs><path class="cls-1" d="M653.48,350.41s-4.89,46.42-21.91,75.18,15.92-2.94,15.92-2.94S667,371,667.18,348.3,653.48,350.41,653.48,350.41Z"/><path class="cls-1" d="M742.26,53.66c-1.15-5-4.19-9-9.66-10-5.65-1-10,1.83-13.14,6.15a144.26,144.26,0,0,1-17.59,19.53c-13.54,12.71-29,23.39-40.74,38-17.13,21.28-27.48,44.43-18.34,72.41.47,1.44.75,2.56-.12,4Q628,208.05,613.44,232.5c-1.35,2.28-2.19,2.71-4.56,1.07-6.54-4.52-13.32-8.68-20-13-12.75-8.2-22.83-18.45-26.46-33.8-3.57-15-.11-29.17,5.83-42.86,6.41-14.76,13.64-29.21,16.9-45.12C589.81,76,588.46,54,575,34.16,558.09,9.32,533.26-.24,504.31,0c-28,.24-54.14,8.6-78.93,21.31-38.6,19.79-70.75,47.42-97.3,81.52-42,54-66.23,114.88-69.89,183.5-3.17,59.45,8.87,115.26,40.63,166.15,32.82,52.59,79.15,85.29,140.94,94.94,4,.63,9.38-.21,11.76,2.08,2.83,2.72-1.64,7.24-1.74,11.19a4,4,0,0,1-.1.6c-.94,6.77.49,12.7,6.46,16.69,5.47,3.64,12.32,3.1,18.38-1.18a43.1,43.1,0,0,0,12-12.13c7.25-11.74,17.51-16.85,30.88-20.54C575.57,528.07,615.09,489.67,641,436.2c3.08-6.34,7-11.44,6.73-16.21a8.91,8.91,0,0,0-3.11-6c-1.68-1.62-3.9-1.07-6.07.39-.2.13-.38.26-.57.41a27.53,27.53,0,0,0-7.07,8.45,223.13,223.13,0,0,1-14.33,26.31c-18.81,30.3-43.46,54.31-75.79,69.95-8,3.89-16.49,6.76-26.09,10,2.18-4.31,4.7-7,6.7-10,.12-.17.25-.35.36-.52,7.36-10.63,13.81-21.88,21.29-32.44l.77-1.09.39-.61q9.85-15.33,19.15-31a.42.42,0,0,1,0-.1c1.73-2.87,3.43-5.76,5.12-8.64,15.92-27.22,30.8-55,45.14-83.2,10.79-21.2,21.29-42.62,31.7-64.11,2.42,3.11,2.26,6.31,3.11,9.18,1.11,3.85.33,8.25,3.31,11.57q.19,3.45.36,6.91c1,4.12.21,8.32.47,12.47,0,.25,0,.65,0,1.17,0,.36,0,.71,0,1.08,0,.85,0,1.85,0,2.91a25.8,25.8,0,0,0,.86,7.32v0c.32.89.75,1.48,1.34,1.61.82.06.56-.12,1.38-.07a8.79,8.79,0,0,0,5.23-1.12c4.3-2.65,4.87-9.53,4.69-16.36-.48-19.1-3.23-37.73-11.5-55.2-1-2.11-.61-3.74.32-5.71q15.07-32.06,30-64.21c1-2.25,2.16-3.59,4.57-4.32,16.87-5.14,29.43-16,37.95-31C749,136,751.76,95.53,742.26,53.66ZM471.37,156.94c-24.33,8.92-42.66-10.37-40.42-31,2.59-24,25.34-47,48-46.92,14.71.08,25.83,11.09,26.68,26.43C506.76,125.7,490.34,150,471.37,156.94Z"/><path class="cls-2" d="M653.48,350.41c-.74,3.11-.74,24-5.81,32.15-4.8,25-19.88,7.73-16.88,18,4.81,16.45-5.87,3.48,7.83,13.9a14,14,0,0,0-2.2,2.32,18.63,18.63,0,0,0-4.19,6.48A210.34,210.34,0,0,1,591,485c-21.84,22.66-48.09,37.91-79.3,46.8a63.42,63.42,0,0,1,9.06-13.45c8.18,5,10.18,4.61,15-4.15,10.3-18.78,23.25-35.95,33-55.07,7.58-14.89,16.12-29.27,23.7-44.15,1.24-2.42,3-4.84,2.53-7.73-.92-.5-1.76-.4-2,.07-3.17,7.44-9.94,13-11.25,21.42a9.25,9.25,0,0,1-2.29,4.95c-8.67,9.17-13.94,20.44-19.9,31.34-3.1,5.66-7.42,10.59-9.26,17.05-.71,2.5-3.46,4-6.2,4.47-1,.2-2.07-.15-1.42-1.66,15.05-25.17,30.61-50,44.51-75.87Q617,353.61,644,296.79c.47-1,.49-2.41,2.33-3a97.32,97.32,0,0,1,5.5,24.74c1.23,8.72.92,14,.82,21.63A45,45,0,0,0,653.48,350.41Z"/><path class="cls-3" d="M218,124.55c-2.64-.38-4.74-1.7-5.33-4.77-.73-3.8-1.58-7.58-2.15-11.4-1.32-8.95-6-14.19-15.27-15.62-3.69-.57-9.94.12-9.51-6.18.39-5.63,6.1-4.26,9.78-5.08,10.08-2.26,13.68-5.83,15.63-16.22.56-3,.92-6.06,1.41-9.08.45-2.72,1.95-4.71,4.79-4.69,3.07,0,4.71,2.19,5.25,5.07S223.44,62.2,224,65c2.18,11.88,5.1,14.72,17,16.61a39.52,39.52,0,0,1,4.23.61c2.26.63,4.22,1.78,4.36,4.47.16,3-1.68,5-4.25,5.14-17,.91-21.52,12-22.41,26.46C222.61,122.49,220.79,124.39,218,124.55Z"/><path class="cls-4" d="M632.93,51.51c-6.89,0-11.28-4.19-11.28-10.83,0-6.81,4.72-11.71,11.36-11.81a10.81,10.81,0,0,1,11.36,11A11,11,0,0,1,632.93,51.51Z"/><path class="cls-5" d="M112.24,193.48c-6.62,0-11-4.55-10.91-11.15.13-6.86,4.85-11.56,11.48-11.42s11,4.57,11,11.19C123.73,189,119.1,193.53,112.24,193.48Z"/><path class="cls-6" d="M600.79,244.55c-6.26-3.83-12.4-7.87-18.53-11.91-17.1-11.28-30.23-25.48-34-46.53-3-17,1.23-32.74,7.75-48.2C562.77,122,570.51,106.42,573,89c5.19-36-14.59-65.47-48.06-72.62-20-4.27-39.41-1.91-58.53,3.87-49.22,14.92-88.18,44.89-121.07,83.55-1.19,5.9-3.26,11.32-8,15.38a7.52,7.52,0,0,0-1.89,3.12c-4.72,11.7-12,21.72-20.37,31-2.08,2.31-4.19,4.53-3.83,8,.43,4.31-1.25,8.12-3.48,11.53a74.63,74.63,0,0,0-5.8,10.76q-.27.57-.51,1.14s0,0,0,0c-1.21,2.83-2.29,5.74-3.29,8.77-4.33,13.18-8.89,26.26-12.36,39.7-1.25,4.82-2.84,9.33-6.15,13.15-3.12,3.59-3.87,7.52-1.33,11.83a12.23,12.23,0,0,1,1.23,8.89c-1.83,9-2.27,18.24-2.83,27.37-.54,8.94-1.6,18.06.4,26.88s-4.8,17.84,1.37,26.32c.63.86-.22,2.47,0,3.61,1.53,7.2.56,14.63,3.75,21.81,3.85,8.63,7.26,17.75,6.52,27.65a214,214,0,0,0,23.88,48.06c33.52,50.67,79.64,80.75,141,86.09,4.64.41,5.53-1.69,6.77-4.75,15.87-38.91,33.65-77,52.62-114.46q42.26-83.54,89.29-164.48C604.28,247.83,603.81,246.39,600.79,244.55ZM431,125.93c2.59-24,25.34-47,48-46.92,14.71.08,25.83,11.09,26.68,26.43,1.11,20.26-15.31,44.55-34.28,51.5C447,165.86,428.71,146.57,431,125.93Z"/><path class="cls-7" d="M475.71,556.57c-1.49,3.5-4.51,5.71-7,8.34-1.18,1.22-2.63,2-4.37,1.08s-1.81-2.76-1.41-4.31A118,118,0,0,1,466.47,550c17.72-47,40-91.9,62.62-136.67,8.16-16.2,16.91-32.09,25.48-48.08.73-1.36,1.09-5.07,3.91-1.87,5.54,6.29,13,9.7,20,13.69-10.77,13.81-17.27,30.11-26.17,45-12.66,21.2-23.68,43.38-36.91,64.2-8.64,13.6-15.18,28.51-25.55,41a35.83,35.83,0,0,0-4.42,7.32c-2.88,5.88-5.74,11.77-10.57,16.39C472.57,553.25,472.58,555.13,475.71,556.57Z"/><path class="cls-8" d="M696,92.75c11.43-10.6,24-20.08,33.14-34,3.77,8.8,1.79,17.44,3.71,25.49-2.61.85-2.87-2.11-4.93-3.52-1.12,9.7-2.95,18.62-4.66,27.57-4.68,24.44-16.18,45.41-31.89,64.33a52.43,52.43,0,0,1-8.49,7.87c-3.36,2.59-7.91,4.67-5.27,10.37,0,.06-.24.3-.4.41a.88.88,0,0,1-1.07-.11l-10.56-6.47a174.37,174.37,0,0,0,4-23.32c-4.88,5.61-5.37,11.22-6.11,16.76-.22,1.64,1.3,4.21-2,4.49l-2.1-.38a32.34,32.34,0,0,0-3.08-9.09c-2.73-5.69-3.29-11.73.83-17.32a14.62,14.62,0,0,0,2.14-4.38c5.83-19,17.61-34.25,31.22-48.24C693.34,100.17,696.1,97.26,696,92.75Z"/><path class="cls-9" d="M600.45,354c-1.28,2.73-2.89,5.36-3.78,8.21-1.88,6-5.47,6.47-10.74,4.42-6.89-2.67-13.42-5.76-18.55-11.26-.58-2.81.53-5.14,1.87-7.52,22-39.16,43.29-78.7,66.22-117.33,2.36-4,5-7.47,10.28-7.39,3.67.8,5.93,4.42,9.77,4.88-9.93,10.09-14.19,23.46-20.28,35.71-14.44,29.07-29.11,58-44.58,86.55-1.46,2.7-2.86,5.42-4.15,8.2-.59,1.29-1.36,2.77.07,3.92s3.11.34,4.44-.67a24.61,24.61,0,0,0,5.17-6c1-1.43,1.79-3.33,4.15-2.74.11,0,.22.28.23.43A2.55,2.55,0,0,1,600.45,354Z"/><path class="cls-10" d="M345.36,103.81c.78,3.74,1.3,8.29-1.58,10.54-7.21,5.61-8.76,14.44-13.39,21.47a174.13,174.13,0,0,1-14.79,19.27,9.25,9.25,0,0,0-2.66,7.32c.19,7.34-4.43,13.26-8.83,18.91-1,1.27-2.86,2.26-2.65,4,1,8.28-4.38,14.65-6.48,22-3,10.32-6.2,20.56-8.57,31.05-.83,3.66-3.14,6.65-5.69,9.26-3,3.11-3.72,6-1,9.68,4.42,5.95.79,12.3.35,18.35-1.16,15.73-3.21,31.36-1.18,47.23.58,4.6,2.61,10.15-2.24,14.31-1.63,1.4,0,2.56.89,3.54,2.2,2.4,3.42,5.22,2.84,8.39-.67,3.71-.79,7.18,1.52,10.4a2.85,2.85,0,0,1-.32,3.89c-1.05,1.17-1.57,2.79-.51,3.91,3.76,4,4.67,9.36,6,14.18,1.68,6.17,6.38,12.43,1.77,19.29a262.36,262.36,0,0,1-17.53-96.55c.22-69,22.21-130.88,62.37-186.58C337.17,112.72,341.44,108.39,345.36,103.81Z"/><path class="cls-11" d="M475.71,556.57c-1.69.2-3.61,1.63-4.78-.86-.88-1.86.3-3.06,1.43-4.3,11-12.14,17.85-27.08,26.69-40.66,13.4-20.6,25-42.35,37.27-63.7,8.89-15.52,17.54-31.18,26.29-46.78,3.79-6.74,7.79-13.38,11.22-20.3,1.17-2.37,3.35-1.62,4.69-2.88,1.32.23,2.71.26,3.71,1.36,2.32,2.63,2.38,5.28.63,8.36-4.72,8.3-8.89,16.9-14.5,24.68-2.38,3.3-3.53,7.28-4.71,11.16a692.12,692.12,0,0,1-39,64.13c-6,6.81-10.21,14.84-15.13,22.36-3.92,6-9.63,10.85-11.92,17.93l0-.09a57.33,57.33,0,0,0-6.19,8.66l.06-.09c-5.4,6.92-10.77,13.88-16,21Z"/><path class="cls-12" d="M676.15,191.11c-1.68-6-1.73-6.08,4.58-11.11,18.11-14.41,28.6-33.88,36.3-55.07a159.84,159.84,0,0,0,8.57-40.86,7.39,7.39,0,0,1,.63-2.34c.72-1.55.37-4.27,2.75-4.17s1.11,2.59,1.56,4a4.05,4.05,0,0,0,2.32,2.65c2,31.35-2.45,61.25-20.58,87.78-7.19,10.51-16.87,18.06-29.7,21C679.84,193.57,677.83,193.39,676.15,191.11Z"/><path class="cls-13" d="M600.45,354c-2.28-1.14-2.26,1-2.74,2.08-1.42,3.07-3.85,5.24-6.2,7.5-2.14,2.08-4.43,1.74-6.7.28-2.65-1.71-.86-3.66,0-5.32,5.3-10.35,10.57-20.71,16.1-30.94,9.41-17.37,18.27-35,27-52.74,6.74-13.72,13.62-27.37,20.45-41a10.41,10.41,0,0,1,7.2-5.8c2.91.88,5.8,1.14,3.58,5.84C640.58,273,622,312.24,602.45,350.94A32.86,32.86,0,0,1,600.45,354Z"/><path class="cls-14" d="M542.67,484.87c4,.11,6.7-1.77,7.4-5.64.4-2.25.75-4.43,2.13-6.26,8-10.52,11.9-23.8,20.67-33.44,7.32-8,7.62-19.5,15.66-26.74,1.3-1.18,1.27-3.76,2-5.63,1-2.48,2.93-3.51,5.4-2.46,2.93,1.25,1.42,3.33.55,5.1-6.57,13.3-14,26.13-20.7,39.34-11.39,22.59-26,43.23-38.32,65.19a36.31,36.31,0,0,1-3.1,4.5c-5.9,7.58-9.19,7.45-13.62-.5Z"/><path class="cls-15" d="M645.75,223.09c-8.11,2.76-10.17,10.62-13.91,16.9q-14.52,24.38-28.44,49.09c-11.41,20.4-21.9,41.31-34.07,61.29-1,1.58-.1,3.79-2,5-4.6-2.5-5.09-5.26-2.41-10.17,21.77-39.77,43.92-79.33,67.07-118.32C637.54,217.58,637.45,217.52,645.75,223.09Z"/><path class="cls-16" d="M696,92.75c3.33,4.08.35,6.64-2.3,9.21a146.29,146.29,0,0,0-28.89,38.65c-3.2,6.27-4.46,13.25-8.39,19.42-2.28,3.6-2.65,10,2.17,13.92,3.27,2.65,1.13,5.45.72,8.24-8.29-11.92-7.43-24.78-3.73-37.84a74.11,74.11,0,0,1,14.91-27.19C678.07,108.1,686.31,99.64,696,92.75Z"/><path class="cls-17" d="M657.05,196.88a48.78,48.78,0,0,1,5.77,3.31c2.84,2.16,8.56,2.28,8.58,5.63,0,4.08-3,8.19-4.79,12.27-.56,1.32-1.38,1.78-2.84,1-5-2.66-10.63-4.05-14.71-8.29C650.73,205.58,652.69,200.54,657.05,196.88Z"/><path class="cls-18" d="M661.42,182.57c.84-6.88.8-14,4.76-20.11,1-1.52,1.66-3.74,3.91-3.05,2.41.73,1.6,3.05,1.21,4.69a87.63,87.63,0,0,0-2.4,14.31,8.24,8.24,0,0,1-3.31,6.23Z"/><path class="cls-7" d="M563.65,422.65a15.57,15.57,0,0,1,3.38-12c6.24-7.54,10.41-16.16,15.13-24.56,1.67-3-.69-5.15.07-7.65,4.51-.13,5.79,1.37,3.29,5.61C578,396.8,571.86,410.31,563.65,422.65Z"/><path class="cls-19" d="M657.05,196.88c-2.25,4.87-4.35,9.83-8,13.91-7.27-4.3-5.64-2.47,1-14.7C652.72,191.17,654.8,195.8,657.05,196.88Z"/><path class="cls-7" d="M497.61,527.07c-.28-5,2.73-7.87,5.78-11.55,6.55-7.89,11.65-17,17.47-25.5.91-1.33,1.17-3.79,3.8-3.24C516.22,500.59,507.81,514.44,497.61,527.07Z"/><path class="cls-7" d="M475.53,556.5c3.84-8.12,9.52-14.83,16-21A75.14,75.14,0,0,1,475.53,556.5Z"/><path class="cls-7" d="M491.45,535.64c1-3.65,2.63-6.84,6.19-8.66A20.63,20.63,0,0,1,491.45,535.64Z"/><path class="cls-20" d="M470.08,67.22c-27.27,5.07-49.82,31.71-50.29,59.46-.57,32.34,29,51.95,58.22,38.16,22-10.38,34.57-28.39,37.83-52.24C519.75,83.85,497.43,62.13,470.08,67.22Zm1.29,89.72c-24.33,8.92-42.66-10.37-40.42-31,2.59-24,25.34-47,48-46.92,14.71.08,25.83,11.09,26.68,26.43C506.76,125.7,490.34,150,471.37,156.94Z"/><path class="cls-21" d="M324.2,217.91c-.09-27.52,21.76-50.11,48.69-50.33,23.66-.2,43.71,20.54,43.75,45.25,0,28.07-21.31,50.95-47.76,51.19C343.77,264.24,324.28,244.14,324.2,217.91Z"/><path class="cls-22" d="M406.84,344.62c0,27-21.68,49.81-47.22,49.52-24.27-.28-44.46-20.83-44.63-45.43-.19-26.67,21.81-49.33,48.11-49.55C386.32,299,406.8,320.25,406.84,344.62Z"/><path class="cls-23" d="M463.26,297.11c.19-25.41,21.8-47.42,46.51-47.36,23,.05,42.33,19.63,42.35,42.86,0,26.39-21.53,49.13-46.41,49C481.69,341.48,463.08,322,463.26,297.11Z"/><path class="cls-24" d="M465.94,443.44c.29,25.86-19.22,46.49-44.14,46.67-23,.17-42.6-18.71-43-41.4-.43-25.65,20.21-47.7,44.87-47.92C446.64,400.59,465.67,419.79,465.94,443.44Z"/><path class="cls-25" d="M666.22,467.11a3.86,3.86,0,0,1-3.77,2.63,2.5,2.5,0,0,1-2.46-2.26c-.11-2.62,2.12-1.64,3.47-1.78C664.58,465.59,665.92,465.52,666.22,467.11Z"/><path class="cls-26" d="M333.1,218.43c.07-23.11,17.69-42.22,38.79-42.1,20.12.12,36.46,16.84,35.73,38-.71,20.53-16.39,40.81-41,40.84C348.34,255.18,330.94,234,333.1,218.43Z"/><path class="cls-27" d="M324.46,348.72c-.19-22.78,16-39.52,37.62-40.39,18-.73,36.59,16.22,35.79,36.39-.95,24.15-15.72,40.07-38,40.52C340.64,385.62,324.07,370.83,324.46,348.72Z"/><path class="cls-28" d="M472.89,298.09c-1.06-22.85,19.52-39.16,37.74-38.91,15.33.21,32.49,13.53,32.3,35-.17,19.32-18.48,39.27-38.32,38C487.67,331.2,471.48,316.8,472.89,298.09Z"/><path class="cls-29" d="M457,444.57c0,21-15.81,37-36.61,36.91-17.85,0-33.2-15.75-33.23-34,0-19.35,17.07-37.93,35.1-38.14C442.5,409.09,457,423.79,457,444.57Z"/><path class="cls-30" d="M186,602.53q-72.64,0-145.28,0a56.4,56.4,0,0,1-15.17-1.71C9.67,596.45.19,583.13.18,565.38Q.09,451.68.1,338c0-8.93-.76-18,1.72-26.8,3.87-13.74,13-21.88,27-24.14,4.12-.67,5.08-2.16,5.08-6.15,0-22.59,5.35-27.83,28.25-27.87,9.17,0,18.38-1,27.5.61,11.35,2.06,16.66,8.34,16.84,19.71.2,12.86.2,12.85,13,12.82,11.44,0,22.88-.17,34.32,0,3.33.06,5.05-1,6.57-4,4-7.81,8.47-15.35,12.57-23.1,5.67-10.72,14.29-16.38,26.58-16.35,30.65.07,61.3,0,91.94.07,11,0,19.31,4.61,24.43,14.46,4.22,8.13,8.59,16.21,12.32,24.57,1.6,3.61,3.51,4.88,7.28,4.68a35.41,35.41,0,0,1,12.73,1.34c14.27,4.54,22.87,15.64,23,31.21.29,47.81.26,95.62.29,143.43q0,51.19-.13,102.37c-.12,24.22-13.34,37.53-37.62,37.6C284.49,602.63,235.25,602.53,186,602.53Z"/><path class="cls-31" d="M355.21,366.89a4.63,4.63,0,0,1-3.65,0c-8-2.64-15.9-2.08-24.31-1.59-10.53.62-21.53,2.3-32.14-.92a27.06,27.06,0,0,0-7.3-.71c-3.13-.07-6.27-.54-8.66-2.58-6.24-5.31-13.95-8.53-20-14-5.52-5-12.74-3.79-19.11-5.64-10.58-3.07-21.61-3.68-32.56-4.44-3.22-.23-6.51.63-9.65,1.34-8.48,1.9-17.15,3.05-25.37,6.06-9.66,3.54-18.08,9.32-26.2,15.37-4.14,3.09-7.87,4.81-13.2,4.91-31.46.61-62.92,0-94.37.29-2.46,0-4.84.69-7.32.63-5.61-.13-7.47-1.51-7.65-7.19-.33-10.62-.65-21.26.13-31.86.83-11.17,5.14-15.44,16.21-17.35a60.27,60.27,0,0,1,10.39-.6h71.1c25.73,0,51.35-2.93,77.08-3.14,5.09,0,10.19-.52,15.3-.56,31-.25,62.05-1.32,93.09-1.51,12.7-.08,25.22-.95,37.58,2.65,3.21.93,6.12,2.26,8.1,5.09,1,1.91-.65,2.94-1.43,4.28-3.1,5.33-2.45,7,3.39,9a2.67,2.67,0,0,1,1.34,1.19,10.7,10.7,0,0,1-.08,6.48c-6.45,1.28-8.43,5.53-8.18,11.68.1,2.37-.68,4.8-.75,7.26-.26,9.86-.29,9.86,8.68,12.29A3,3,0,0,1,355.21,366.89Z"/><path class="cls-32" d="M14.65,439c-.06-18.58-.08-37.15-.21-55.73,0-2.68.43-4.13,3.63-4.12,35.73.19,71.46.26,107.2.39.13,0,.26.26.55.58,0,2.33-2,3.69-3.24,5.38-29.89,41.39-29.29,93.64,1.6,134.33,1,1.28,1.79,2.67,2.68,4,0,.2.07.4.09.61.33,2.68,5,3.85,3.44,6.45-1.73,2.88-5.63,1.39-8.56,1.39q-44.73.13-89.46.05c-7.83,0-9.51-1.62-10-9.59a97.7,97.7,0,0,1,.07-10.41c1.42-31.41,1-62.84,1-94.26,0-6.32-1.3-12.57-1.22-18.94.18-15.38,2.3-17.81,17.1-18.47.81-.08-.39-.9,0-.17.16.3,0,.51-.34.46-5.78-.88-11.3,1.34-17,1.35-4.48,0-4.46,3.33-4.47,6.48-.06,14.09.07,28.19-.1,42.28C17.33,433.85,18.4,437.33,14.65,439Z"/><path class="cls-33" d="M352.92,580.42c-5,6.16-11.81,7.55-19.25,7.57-29.2.07-58.39.26-87.58.29q-65.86,0-131.72-.09c-1.6,0-3.19-.31-4.79-.47,3.51-3.14,7.44-.18,11.16-.74a25.43,25.43,0,0,1,6,0c1.41-.06.46-1.27.71-.49.1.3,0,.47-.39.47-29.71-.46-59.43.54-89.14-.61a10.83,10.83,0,0,1-8.45-4.13c-7.09-8.56-8.59-18.24-5.77-28.79a7.19,7.19,0,0,1,5.22-5.47c3.53-1,7.07-2.25,10.78-2.06,10.77.53,21.54.23,32.32.69,7.25.3,14.57-.72,21.89-.72,17.77,0,35.53.19,53.29-.14,4.37-.08,6.56,4.12,10.61,4,17.05,8.12,34.61,13.81,53.87,13.72a108.07,108.07,0,0,0,57.44-16.2,13.21,13.21,0,0,1,7.34-2.36c25.3.12,50.59.18,75.88,0,4.37,0,5.77,1.25,5.3,5.49-.82,7.45,1,15.07-1.3,22.44-3-.36-2.44-2.85-2.65-4.7-.31-2.83,0-5.7-.14-8.56-.16-4.42-4.72-9.42-9-10-2.12-.29-3,.91-3.37,2.68-.5,2.4-.93,4.81-1.32,7.23-1.82,11.21-8.13,18.29-19,21.59-4.47,1.36-9.15,1.89-14.05,3.79,8.28-2.31,16.18-1.24,24-1.33,6.58-.08,13.06,0,18.87-3.87C350.48,579,352.61,577.06,352.92,580.42Z"/><path class="cls-34" d="M287.44,533.42c40.07-39,49.31-103.45,9.33-154h8.68c15.52,0,31,.06,46.57-.08,3.65,0,5.53.56,5.52,4.95q-.23,72-.06,144c0,3.47-.65,5.21-4.66,5.18C331.43,533.34,310,533.42,287.44,533.42Z"/><path class="cls-35" d="M352.77,312.83c-5.76-5.49-12.91-7.27-20.54-7.3-27.48-.09-55-.72-82.44.15-27.64.88-55.39.46-82.9,2.63-39.35,3.11-78.67,1.26-118,2.08-1.63,0-3.29-.16-4.9,0-13.6,1.65-18.17,3.77-18.59,19.31-.25,9.6.12,19.21-.11,28.81-.12,4.74,2,6.23,6.31,5.79,27.09-2.74,54.25-.68,81.38-1.11,8.06-.13,16.14-1.12,24.23-.17,3.05.36,5.51-1.3,7.52-3.47,2.69-2.89,5.46-5.53,9.39-6.84,6.32-2.1,10.1-8.2,17-10,11.65-3.11,23.48-6.37,35.27-7.12,7.62-.49,16.15-.75,24.09,2.32,5.8,2.24,12.18,2.95,18.53,3.2,4.69.19,8.44,2.37,12.37,5.32,9.47,7.08,18,14.77,31.54,16.28,10.06,1.12,20.17-1.68,30,1.52,2.9.95,6-.39,9-1.2,4.87-1.33,9.94-3.64,14.23,1.56,1.32,1.6,4.14.27,5.45,2.29-21.55,1.29-43.12.16-64.68.83a5.13,5.13,0,0,1-3.8-1.54c-17.2-15.49-37.8-23.26-60.35-26.61a112.58,112.58,0,0,0-20.77,0c-19.37,2.26-37.28,8.46-53.28,19.79-.14.11-.47,0-.55.13-6.85,9.87-17.12,7.92-26.91,7.9-33.91-.06-67.83-.1-101.74.08-4.17,0-5.17-1.18-5.08-5.17.27-12.87.11-25.75.19-38.62.11-16.52,7-23.38,23.47-23.38q95.94,0,191.88,0,53,0,106.06,0c6.89,0,12.89,1.78,17.22,7.53,1.65,2.21,2.73,4.54,2.09,7.38l-.8.33A2.64,2.64,0,0,1,352.77,312.83Z"/><path class="cls-36" d="M290.34,508c-15.45,22.57-36.78,36.52-63.7,40.25-51.17,7.09-95.57-22.85-109.14-72.48C103,422.65,138.85,365.88,193.11,355.4c24.12-4.66,46.77-1.56,67.52,11.37,32.23,20.09,52.63,56.33,47,96.66a63.74,63.74,0,0,1-1.53,6.35c-3.78-1.23-2.11-4.21-2-6.61.31-11.38,1.79-22.85-2.87-33.8a16.53,16.53,0,0,0-2.72-7.95c-5-8.1-8.35-17.13-13.27-25.35-2.76-4.6-5.84-8.31-10.77-10.31-2.32-.95-4.51-2-5.87-4.17-6.72-10.85-17.59-14.56-29.2-16.95-1.79-.37-3.62-.61-5.4-1.07-26.15-6.68-50.4-1.78-71.77,14.07-10.93,8.11-22.37,16.62-27.4,30.5-1,2.67-3.25,4.68-4.78,7.09-4.11,6.43-6.44,13.29-3.81,20.9,1.24,3.57-.05,6.16-1.9,9.06-5.5,8.59-1.94,17.39,0,26,.6,2.57,4.21,2.15,6.08,3.7a3.47,3.47,0,0,1,1.09,1.5c.54,3-.94,5.56-1.7,8.27-2.13,7.63-.28,12.58,6.55,16.4a12.82,12.82,0,0,1,6.11,7.19c4.14,11.11,12.61,18.23,23,23,3.53,1.61,7.1,3,10.16,5.38,1.12.89,2.29,2,3.67,2.13,14.47,1.3,28,10,43.21,5.6a35,35,0,0,0,6.37-2c3.45-1.76,7-3.75,10.8-4.15,11-1.18,19.8-6.93,28.61-12.8,6.48-4.12,11.07-10.2,16.24-15.67,1.54-1.63,2.9-4.16,5.94-2.83.09,0,.12.32.09.48A2.52,2.52,0,0,1,290.34,508Z"/><path class="cls-37" d="M299.9,259.09c6.82,7,9.8,16.21,14.25,24.58.77,1.44.12,2.28-1.49,2.35-.61,0-1.22,0-1.84,0L186,285.94a3.84,3.84,0,0,1-.55-4c3.87-10.85,14.68-18.78,26.4-18.62,23.49.32,46.88-2,70.33-2.57a10.27,10.27,0,0,0,4.23-.55A19.27,19.27,0,0,1,299.9,259.09Z"/><path class="cls-38" d="M14.65,439c1.59-2.22.81-4.75.83-7.13.08-15.31.17-30.63,0-45.94-.05-4,.78-5.94,5.34-5.73,7.52.35,15.06.09,22.66,1.32-2.6,0-5.2,0-7.8,0-7.22.1-11.66,4.49-11.53,11.83.32,17.92,1.56,35.81,1.28,53.76-.39,24.7-.29,49.41-1.24,74.12-.36,9.54.29,9.87,9.92,9.87h95.42c1-3.36-5-3.7-2.67-7.27l8.82,8.08-.73,1.42h-29c-28.34,0-56.68-.09-85,.15-5,0-6.58-1.2-6.53-6.4C14.66,497.71,14.59,468.34,14.65,439Z"/><path class="cls-39" d="M299.9,259.09c-16.64,3.76-33.56,4.14-50.51,4.93q-20.71,1-41.41,1c-3.47,0-6.31,1.72-9,3.4-6.58,4.08-10.18,10.52-12.93,17.52h-12.6c5-8.59,9.45-16.77,14.51-24.54,2.48-3.8,7-4.7,11.47-4.71,30.82-.05,61.64,0,92.46-.12C295,256.56,297.18,258.42,299.9,259.09Z"/><path class="cls-40" d="M157.79,549.72c-19.22-5.27-38.84-2.07-58.27-2.38-8.09-.13-16.57-2.08-24.59,1.73-2.8,1.33-5.53-1.34-8.77-1.19-8.38.38-16.82-.41-25.23-.82-4.61-.22-8.53,2.66-13.08,2.76-.73,0-1.72,1.1-2.13,1.92-4.33,8.66-.54,25.16,7,31.54a8.16,8.16,0,0,0,5.62,1.8c20.55.32,41.13,2.51,61.63.93,10-.77,19.69.63,29.54,1.71H109.58C85.47,589,61.34,588,37.23,588c-14.95,0-22.88-8.33-22.72-23.26a140.88,140.88,0,0,0-.1-14.68c-.44-4.6,1.43-5.31,5.51-5.3q63.66.24,127.33,0C152,544.73,154.22,548.23,157.79,549.72Z"/><path class="cls-41" d="M69.63,286.19c-6.1,0-12.2-.16-18.3.06-3.23.12-4.08-1-4.2-4.17-.56-14.76.12-15.59,14.84-15.6,7.73,0,15.46.07,23.19,0,5.08,0,7.32,2.36,7.43,7.43.27,12,.36,12-11.36,12.14-3.87.05-7.73,0-11.6,0Z"/><path class="cls-42" d="M352.92,580.42l-.35-.47c-9.82,7.25-21.19,5.1-32.08,4.95-6.16-.08-12.24,2-20.26.88,6.55-3.62,12.14-4.13,17.41-5.54,18.76-5,19.58-14.56,21.6-27,.35-2.13-.53-4.83,2.22-5.78,2.41-.84,4.37,1,6.52,1.65,9.1,2.75,7.07,9.71,7.27,16.07.07,2.54-1,5.32,1.07,7.6A10.77,10.77,0,0,1,352.92,580.42Z"/><path class="cls-43" d="M302.45,428.12c5.51,12.25,4.16,25,2.73,37.75-.17,1.46-.41,2.84.9,3.91-1.11,14.45-7.34,26.78-15.74,38.22-3.55-1.25-4.14,2.25-5.68,3.83-4.89,5-8.9,10.94-15.28,14.37-2.81-1.4-2.07-3.61-1.23-5.75a21.57,21.57,0,0,1,5.76-7.8c11.35-10.51,17.6-24.25,21-38.62,2.86-12,4-24.87,1.77-37.5a24.88,24.88,0,0,1-.61-6.66c.16-1.8.13-3.91,2.27-4.58C300.7,424.56,301.44,426.66,302.45,428.12Z"/><path class="cls-35" d="M355.21,366.89c0-1.26,0-2.52,0-3.78a5.9,5.9,0,0,1-1.76-5c.56-8.54-2.1-17.31,1.76-25.62v-7.42c-2.2-3.26-2.44-6.51,0-9.76l.14-.12c2.46,1.84,2.08,4.67,2.1,7.11.12,13.79,0,27.57,0,41.36C357.4,365.15,358,367.19,355.21,366.89Z"/><path class="cls-31" d="M202,339.6a43.05,43.05,0,0,1,20.77,0Z"/><path class="cls-44" d="M328.19,349.53c-4.17,3.48-9,.87-13.46,1.41-6.06,2.21-12.35,2.14-18.58,1.34s-8.93-4.51-8.27-10c.22-3.42.36-6.84.66-10.26.52-6,3.77-9.07,9.82-9.21,5.05-.13,10.1-.15,15.16-.22,3.65-2.36,7.27-2.44,10.85.18l6.08,4C335.32,333.82,334.17,345.41,328.19,349.53Z"/><path class="cls-45" d="M355.17,332.5v30.61c-7.07,2.33-10.16-.2-9.95-7.17.16-5.5,1.08-10.9,1.35-16.36C347,331.85,347.46,331.31,355.17,332.5Z"/><path class="cls-31" d="M287.88,342.24c.59,5.89,4.55,8.08,9.76,8.38,5.69.33,11.39.23,17.09.32-7.74,4.65-16,6.1-24.5,2.82C285.6,352,285,347.58,287.88,342.24Z"/><path class="cls-45" d="M355.17,315.32v9.76c-2.34-.74-6.08,3.19-7-1.46-.85-4.24-1.2-9.05,4.62-10.79Z"/><path class="cls-31" d="M328.19,349.53c6.25-7,4.1-14.92,2.26-22.77,2.33,1.25,2.83,1.56,3.27,3.39a30.94,30.94,0,0,1-1.15,17.67C332.08,349.26,330.8,352,328.19,349.53Z"/><path class="cls-31" d="M324.37,322.73l-10.85-.18a4.29,4.29,0,0,0-.36-.48c-.79-.81-2.32-1.85-.29-2.59,4.09-1.5,8.33-3.59,12.23.63C326.45,321.57,326.62,322.42,324.37,322.73Z"/><path class="cls-46" d="M355.19,456.19c0,22.87-.15,45.74.13,68.6.07,5.22-1.57,6.64-6.59,6.42-8.25-.37-8.76-.12-8.14-8.4C344,478,342.72,433.19,343,388.36c0-6.14,4.72-9,10.37-6.64,2.93,1.25,1.79,3.85,1.8,5.87C355.22,410.45,355.18,433.32,355.19,456.19Z"/><path class="cls-47" d="M302.45,428.12c-3.43-2.79-5.36-2.64-4.88,2.45.6,6.22,1.72,12.35,1.41,18.69-.57,11.85-.75,23.65-5.49,34.87-4.95,11.69-10.42,22.9-20.17,31.56-2.87,2.55-6.07,5.74-3.94,10.51-7.5,4.58-13.77,11.28-23.31,12.2-6.29.61-11.87,4.12-17.8,5.86-10.68,3.12-21.89,6-32.43-1.23a6.11,6.11,0,0,0-5.18-1.27c-6.45,2-11.75-.51-16.46-4.4-3.24-2.68-7.36-3.11-10.73-5.08-10.33-6-20.07-12.81-23-25.58a5.71,5.71,0,0,0-3.17-3.53c-10.57-6-12-9.82-8.17-21.4.64-1.93,1.15-3.9,1.72-5.85,10.07-1.3,11.78.54,14.56,12.14,2.45,10.21,9,14.7,16,20,3.57,2.73,7.36,5.17,10,9,.46.67,1,1.58,1.7,1.72,8.71,1.73,16.14,7.34,25.1,8.25.79.08,1.72-.31,2.43,0,11.91,4.78,23.14.36,34.36-2.71,10.91-3,21-7.55,28.51-16.65,2.85-3.48,5.91-6.87,9.74-9.26,4.16-2.6,6.08-6.35,7.05-11,1.21-5.79,2.6-11.56,6.26-16.45,3.26-4.35.8-9.14.75-13.69,0-3.63-.44-6.89,3.42-9,2.44-1.31,1.9-3.29.55-5.19a21.22,21.22,0,0,0-2.64-3.37c-4-3.67-4.61-8-2.61-12.83,1.88-4.56.85-8.13-3.9-9.92-4.23-1.6-5.88-6.2-9.89-7.94-6.44-5.24-11.37-12-18.15-17a64.34,64.34,0,0,0-33-12.69c-2.18-.19-5.1.66-5.69-2.86,2.46-2.25,5.33-1,9.43-.77-12.27-3.7-22.82-2.69-33,2.38a75,75,0,0,1-14.3,4.92c-7.34,2-13.36,7-17.69,13.21a110.63,110.63,0,0,1-17,19.09c-1.62,1.45-2.78,2.91-2.7,5.16a32.77,32.77,0,0,1-4.87,19.14c-1.45,2.29-.51,4.7,0,7.11,2.18,10.25,1.89,20.17-4.32,29.19-8,0-9.65-5.11-9.87-11.77-.17-4.83-3.25-10.42-.53-14.31,5-7.14,4.18-14.26,3.12-21.89a12.9,12.9,0,0,1,2.44-8.7c6.68-9.61,10.13-21.51,19.26-29.28,10.54-9,20-19.61,33.83-24.08a147.05,147.05,0,0,1,29-6.55c14.48-1.61,28.11,2.19,41.48,6.44,7.91,2.52,16.22,5.84,20,14.67a6.32,6.32,0,0,0,4.64,3.57,17.37,17.37,0,0,1,11.18,8.79c4.71,8.77,9.07,17.74,13.6,26.61C300.37,422.23,303.46,424.35,302.45,428.12Z"/><path class="cls-48" d="M310.24,342.29c-2.44,0-4.89-.16-7.31,0-3.68.31-5.55-.63-5.56-4.91s1.53-5.3,5.4-5.12c5.27.23,10.56.13,15.83,0,3.94-.09,4.65,2.12,4.73,5.44s-1.07,4.88-4.57,4.63c-2.83-.2-5.68,0-8.52,0Z"/><path class="cls-49" d="M215.09,376.78c15.7,1.47,30.25,5.86,42.69,16.1,5.7,4.69,10.46,10.21,15.17,15.82,3,2.05,4.55,5.23,6.08,8.28,20.14,40.34,1.68,91-42.45,106.5a74,74,0,0,1-87.12-29.3c-17.35-26.93-18.64-55.31-1.49-83.06,14-22.62,35.45-33.48,61.51-35.94C211.5,375,213.61,374.88,215.09,376.78Z"/><path class="cls-36" d="M215.09,376.78c-23.84.24-44.19,8.31-59.83,26.82-19.48,23-23.11,56.18-9.09,82.52,14.49,27.2,43.29,42.93,72.84,39.79a73.81,73.81,0,0,0,63.73-53.82c6-21.63,3.32-42.17-9-61.19a9.36,9.36,0,0,1-.75-2.2c1.62.21,15.78,11,15.84,12.32a6.93,6.93,0,0,1-.52,3.53c-3.64,6.56-1.83,11.79,3.34,16.67,3.48,3.29,5.79,6.89-1.31,9-2.13.63-2.29,2.29-1.69,4.45,1.07,3.9-.22,8.11,1.45,12.05.69,1.62-.57,3-1.68,4.33-4.23,4.89-5.44,11-6.72,17.09-1,4.62-2.43,8.7-7.18,11.12-4.21,2.13-7.24,6-10.2,9.56-8.27,10-19.3,14.74-31.53,17.34-3.73.8-7.42,1.12-10.75,3.61-3.49,2.62-7.77,1.6-11.74.58-4.62-1.18-9-3-14.08-1.07-2.34.89-4.77-1.71-7.06-3-3.84-2.17-7.56-4.7-12.4-3.85-2.9.51-4.57-1.72-6-3.6C164.92,511,156.41,506.54,148.8,501c-2.27-1.66-3.52-3.19-3.27-5.92.29-3.35-1-6.33-2-9.43-2.08-6.27-6.46-9.13-12.72-9.72h0c3.21-10.71,6.4-21.41,1.59-32.52a4,4,0,0,1,.8-4,26.9,26.9,0,0,0,5-19.71c-.18-1.63-.09-3.34,1.47-4.42,8.47-5.87,13.7-14.61,20.36-22.05,4.88-5.44,10.53-12.11,20.4-12.32,6.09-.13,12.17-4.8,18.1-7.75,6.21-3.09,21.55-1.49,26,3.65Z"/><path class="cls-50" d="M271.83,450.78c1,33.65-26.15,61.59-59.4,61.52-34.75-.07-59.9-25.6-60.84-59.43-1-34.88,26.92-62.63,59.25-62.52C246.37,390.48,271.19,415.69,271.83,450.78Z"/><path class="cls-51" d="M199.86,418.07a15.48,15.48,0,0,1,15.52,16.07c-.21,11.1-10.64,21-21.67,20.58a15.49,15.49,0,0,1-15-16.09C179.2,427.66,189.29,417.85,199.86,418.07Z"/><path class="cls-52" d="M216.88,469.73c-2.14.11-3.95-.25-5.19-2.38a4.72,4.72,0,0,1,.9-6.13A128,128,0,0,1,223.12,452a3.8,3.8,0,0,1,5.07.53c1.6,1.5,3.42,2.86,2.84,5.63C229.79,464.06,223,469.71,216.88,469.73Z"/><path class="cls-53" d="M587.27,349.56c5.27,1.72,10.84.49,16.21,1.93,28.63,7.64,44.88,27.36,53.77,54.44,2.14,6.55,1.44,14.2,8.88,20.61,0-9.18-.06-17,0-24.89a73.32,73.32,0,0,1,.58-11c1.64-10-1.31-17.86-7.75-26.1-29.17-37.35-18.12-89.1,15.21-116.17,9.93-8.07,15.61-7.25,23.81,2.64,22.2,26.76,23.21,70.11,2.39,101.4-4.44,6.66-9.24,13.16-15.41,18.16a17.78,17.78,0,0,0-7.09,15.1c.09,12.59,0,25.18,0,37.56,2.12-2.9,4.41-6.1,5.5-10.66,7.31-30.52,30.49-61.73,68.34-68a43.67,43.67,0,0,1,17,.3c10.81,2.48,14.76,7.41,12.86,18.31-4.81,27.59-21.13,46.21-46.3,57.49-13.59,6.09-28.05,6.84-42.63,5.93-3.11-.2-5,.46-6.54,3-2.61,4.37-5.31,8.69-7.88,13.09-1.31,2.25-1.64,4.59.07,6.87a15.71,15.71,0,0,1-16.19,0c.58-4.35-6.14-19.59-9.38-21.35-1-.55-1.94-.18-2.92.08-25,6.57-48.3,2.5-69.81-11.82-6.58-1.76-10.53-7-14.3-11.88-8.3-10.7-15.6-22.05-15.46-36.46,0-3.68.89-6.93,3.82-9.28a45.85,45.85,0,0,1,32.43-10.24C586.89,348.67,587.11,349.16,587.27,349.56Z"/><path class="cls-30" d="M662.19,449.6h16.19c20.82,0,41.64-.21,62.46,0,14.76.18,24.22,10.93,22,25.44-4.76,31.05-10,62-16.6,92.74-3.8,17.66-14.79,26.62-33.1,28.08a608.73,608.73,0,0,1-79.56.64c-29.09-1.5-38.53-10.18-43.34-38.72q-6.66-39.51-13.32-79c-3.1-18.45,5.89-29.17,24.65-29.23C621.77,449.53,642,449.6,662.19,449.6Z"/><path class="cls-54" d="M704.32,303.26c-1.16,24.5-9.82,45.48-28.68,61.91-2.6,2.26-3.29.94-4.62-.61-12.78-14.92-19.29-32.32-18.15-51.84,1.21-20.67,9.11-38.8,24.52-53.15,7.28-6.78,9.83-6.6,15.06,1.84C700.36,274.15,704.75,288,704.32,303.26Z"/><path class="cls-55" d="M588.67,361.5c31.82-1,54.68,25.91,59.68,52.8.54,2.89-.47,3.3-2.91,3.86-32.91,7.55-67.84-5.55-80.74-41.09-3.1-8.53-2.47-10.17,6-13.05a57.79,57.79,0,0,1,10-2.45C583.33,361.18,586,361.5,588.67,361.5Z"/><path class="cls-56" d="M701.65,416.49c-9.11,0-9.4-.06-6.26-8.7,9.65-26.48,26.15-45.85,55.13-51.81a39.31,39.31,0,0,1,7.89-.68c13.7,0,15.07.39,10.26,14.72C758.92,399.08,733.66,416.35,701.65,416.49Z"/><path class="cls-25" d="M748.38,467.66c2.74,5,.44,10-.43,14.84-4.74,26.67-9.48,53.35-14.54,80-2.47,13-7.13,17.67-20.27,18.9-21.5,2-43.09,2.84-64.68.93,9.47-1.85,19-.15,26.95-.8-14.32-.38-30.24.5-46.16-.55a54.76,54.76,0,0,1-9.62-1.62c-5.38-1.35-9.58-6.39-9.5-11.4.28-17.07-3.11-33.74-5.66-50.46-1.72-11.25-2.58-22.76-6.55-33.62a6.65,6.65,0,0,1,.69-6.47c5.29-6.84,10.93-13.05,20.71-13q58.21.14,116.43,0C740.37,464.3,744.66,464.69,748.38,467.66Z"/><path class="cls-57" d="M748.38,467.66c-.47.53-.41,2.84-1.46,1.27-2.41-3.6-5.74-3.33-9.22-3.32l-118.83,0c-5.7,0-17.78,8.39-19.72,13.78a4.83,4.83,0,0,0-.11,2.91c7.08,22.37,8.61,45.68,11.9,68.71.87,6.1.68,12.12,1,18.18.23,4.92,4.36,8.11,9.11,9.14a113.23,113.23,0,0,0,25.39,2.5c11-.11,22,0,33,1.42H648.46c-8.74,0-17.48.4-26.18-1-9.13-1.47-14.71-6.64-16.37-15.6-4.17-22.61-8.12-45.25-12.13-67.89-1.24-7-2.48-14-3.6-21.07-1.48-9.3,1.7-13.15,11-13.16q69.24-.09,138.48-.1C743.3,463.46,746.56,464,748.38,467.66Z"/></svg>