<svg id="Layer_1" data-name="Layer 1" xmlns="http://www.w3.org/2000/svg" viewBox="0 0 799.3 605.11"><defs><style>.cls-1{fill:#402110;}.cls-2{fill:#feeed3;}.cls-3{fill:#472210;}.cls-4{fill:#e67a37;}.cls-5{fill:#d3b784;}.cls-6{fill:#3d2111;}.cls-7{fill:#3d2010;}.cls-8{fill:#3e2315;}.cls-9{fill:#3a2013;}.cls-10{fill:#eeac61;}.cls-11{fill:#ed8844;}.cls-12{fill:#d8c092;}.cls-13{fill:#f9a361;}.cls-14{fill:#eedebc;}.cls-15{fill:#8c552a;}.cls-16{fill:#fde8ca;}.cls-17{fill:#8c542a;}.cls-18{fill:#8c5429;}.cls-19{fill:#fee8c9;}.cls-20{fill:#7d4920;}.cls-21{fill:#fde7c8;}.cls-22{fill:#703e19;}.cls-23{fill:#8a5227;}.cls-24{fill:#af6e38;}.cls-25{fill:#fbc594;}.cls-26{fill:#885126;}.cls-27{fill:#fbecd1;}.cls-28{fill:#fbeed4;}.cls-29{fill:#fbc99b;}.cls-30{fill:#f8efdb;}.cls-31{fill:#a86936;}.cls-32{fill:#6d3b18;}.cls-33{fill:#aa6731;}.cls-34{fill:#6f3e19;}.cls-35{fill:#f5c289;}.cls-36{fill:#ecdcbb;}.cls-37{fill:#f5cb9f;}.cls-38{fill:#fae5ca;}.cls-39{fill:#f6c184;}.cls-40{fill:#e57532;}.cls-41{fill:#f0ac78;}.cls-42{fill:#8b5f30;}.cls-43{fill:#805528;}.cls-44{fill:#ed7347;}.cls-45{fill:#e45b31;}.cls-46{fill:#f9b08b;}.cls-47{fill:#9b763b;}.cls-48{fill:#d27537;}.cls-49{fill:#c99e58;}.cls-50{fill:#cea45e;}.cls-51{fill:#c69c57;}.cls-52{fill:#f29b5b;}.cls-53{fill:#9c773b;}.cls-54{fill:#dd7439;}.cls-55{fill:#ca9e57;}.cls-56{fill:#caa05a;}.cls-57{fill:#c69b55;}.cls-58{fill:#f59f61;}</style></defs><path class="cls-1" d="M753.29,545.85c-4.41,4-9.63,6.18-15.2,7.6-2.25-2.22-2-5.18-2.08-8-.16-8.35.32-16.69.14-25,.54-18.5.59-37,.83-55.53.36-28.59-.4-57.34-8.12-85.25-6.9-24.92-21.38-43.09-42.9-55.3a164,164,0,0,0-20-9.68c-3.77-1.76-5.63.7-7.75,3.47-19.64,25.8-56.4,36.4-86,25C561,337.73,552,329.9,546,318.42a2.94,2.94,0,0,0-3.88-1.1c-15.8,6.18-30.77,13.82-42.53,27-1.31,10.8-.07,21.49,1.11,32.17,1.43,13,4,25.67,8.67,37.85,3.53,9.12,1.52,14.55-7.08,18.68a107.11,107.11,0,0,1-27.15,8.55c8,5.73,14.82,11.29,20.51,18.15,2.49,3.64,5.27,7.06,7.33,11,11.31,20.06,14.32,42.44,16.54,65.07a197.86,197.86,0,0,1,1.31,25.64c0,5.13-.6,10.29.53,15.38a11.81,11.81,0,0,1,.34,2.21c-.34,4-.41,8.17-2.52,11.81-4.53,1.34-9.19.71-13.79,1-3-5.33-3.14-11.32-3.08-17.2.18-17.44-.13-34.87-2.65-52.12-2.24-15.29-5.14-30.41-13.57-43.67-6.85-10.75-16.06-18.45-26.73-24.51-3.48-2-5-1.77-5.69,2.92-1.5,10.63-6,19.78-14.36,26.24-12,9.24-27.46,7.4-37.52-4.25-1.75-2-2.86-5.21-6.16-1.39-8.45,9.8-19,14.15-31.16,9.67-12.83-4.71-19.49-15.33-21.78-29.16a11,11,0,0,1-.16-2c0-3.89-1.74-3.75-4.4-2.38-10.55,5.41-19.61,12.69-26.42,22.86-9.68,14.48-13.91,31-16.11,48.23-1.75,13.77-3.16,27.59-2.67,41.53.08,2.4.21,4.92-1.68,6.83q-.74,8.78-1.48,17.56c-2.22.58-4.48.28-6.72.29-9.05,0-9.88-.94-9.63-11a13.58,13.58,0,0,1,.41-2.22c1.33-5.72.38-11.54.64-17.3.69-27.67,3.31-55,13.84-80.8,2.62-6.46,1.68-13.56.94-20.28a189.88,189.88,0,0,1-.87-19.79c-.05-5.43,1.15-10.81-.83-16.29-1.21-3.33.55-6.93,1.87-10.19,5.36-13.16,6.73-27.24,8.68-41.19.46-3.26-.83-6-2.42-8.68-10.37-17.3-26.2-26.79-43.67-33.95-3.1-1.28-4.05.26-4.49,3.27a138.51,138.51,0,0,1-14.86,44.7,105,105,0,0,1-17.2,24.3c-5.34,5.51-9.29,6-15.92,2.57-8.14-4.24-15.24-10.08-21.89-16.51-17.11-16.53-31.81-35-42-57.2-1.49-3.52-3.17-6-7.59-4-13.32,6.12-25.81,13.34-36.55,24-15.73,15.63-23.13,35.24-26.57,57.06a24.52,24.52,0,0,1-.63,3.25c-3.85,33.78-4.05,67.7-3.89,101.63-.42,11.14.37,22.27,0,33.4-.1,3.25.66,7.39-4.19,8.08-4.2-2.1-8.89-3-12.72-6A6.25,6.25,0,0,1,42.17,541c2.57-4.77,1.81-9.76,1.87-14.71.27-23.44-.41-46.89.36-70.33.05-21.23,1.55-42.33,6.27-63,4.86-21.26,14.19-40,29.37-55.2,2.25-2.25,4.47-4.51,6.87-6.94C72,321.82,62.21,309,64.2,291.11c1.21-10.93-1.19-18.81-6-27.86C46.37,241.3,47.83,218.48,60.77,198c13.19-20.85,19.14-42.69,21.35-67.7,6.42-72.71,76.61-116.83,140-98.8,12.27,3.49,23.37,9.65,31.72,20.25a7.25,7.25,0,0,0,3.49,2.56C288.5,65,303.64,89.54,309.4,121.8A80.54,80.54,0,0,1,306.58,161c-2.94,9.09-2.17,17.65.83,26.47,4.38,12.88,8.63,25.89,7.46,39.91-1.6,19.28-10.1,34.76-24.21,46.87a11,11,0,0,0-4.31,9.51c.33,14-3.77,26-15.46,34.88,11,7.28,22.08,13.85,31,25.18,1.41-15.21,2.28-29,5.63-42.41,8.15-32.67,24.79-58.21,55.58-71.21,11.15-4.71,22.68-7.19,35-4.91,5.78,1.07,11.71-1.69,17.93-.78,36.68,5.33,59.47,27.76,72,63.36,4.07,11.59,5.8,23.71,7.12,36.77,17.28-14.58,36.65-22.59,56.79-28.88,1.86-.58,3.56-1,3.73-3.65s-.72-3.79-2.93-5c-29-15.89-41.23-43.09-45.32-75.53a264.75,264.75,0,0,1-2.55-36.91c.05-3.26-1.15-5.72-2.8-8.43-12.17-20-18.87-41.43-13.36-65.26,5.54-24,18.89-40.47,42.85-45.52,1.63-.35,3.11-.2,4-2.32,6.66-15.35,19.37-22.54,34.08-25,25.48-4.24,50.64-1.49,74.47,9.31,40.09,18.16,62,57,58.73,103.26-.71,10.11-1.76,20.21-4.71,30a15,15,0,0,0-.11,8.41c6.08,23.79-7.75,52.21-29.66,57.14-2.4.54-3.44,2-4.4,4.1a153.75,153.75,0,0,1-12.73,22c-4,5.81-1.45,12.83-.93,19.24s3.15,10.82,10.14,12.88a149.74,149.74,0,0,1,43.81,21c26.28,18.44,39.91,45.09,45,77.13,6.09,38.08,4.84,76.52,4.46,114.9-.07,7.51-.34,15-.51,22.51C756.12,535.26,755.24,540.56,753.29,545.85Z"/><path class="cls-2" d="M291.24,573.49c0-29.63.68-59.21,12.92-86.74a68,68,0,0,1,39.5-36.94c.38,17.22,6.06,31.2,22.83,36.58,14.14,4.53,24.07-3.07,31.75-15,9.68,13.9,19.7,18.77,31.27,15.4,13.29-3.89,21.28-16.45,23.51-37.33,23.36,9.68,38.17,27.07,44.44,52.54,6.14,25,6.67,50.51,7,76.08.06,4.6-.44,9.26.95,13.76-7.81,1.85-15.74,1.41-23.66,1.53-3.31,0-5-.51-5.81-4.71-1.25-6.39-.52-12.71-1-19-.15-2.3.88-4.91-1.32-6.79-3.25-1.77-2.92-5.1-3-8.11-.18-7.06.1-14.13-.13-21.19-.12-3.59.56-9.54-3.07-9.59-4.24-.06-3,5.83-3.08,9.26-.19,17.44-.05,34.88-.11,52.32,0,3,.45,6.23-1.54,8.92a12.11,12.11,0,0,1-6.64,1.54c-16.9,0-33.8,0-50.71,0-17.18,0-34.36.2-51.54-.11-7-.13-14.11-.62-21-2.56-2.5-2.71-1.87-6.18-1.89-9.41-.09-17,0-34-.1-50.93,0-3.34.78-9-2.75-9-4.06,0-3.33,5.76-3.36,9.26-.18,18.94-2.24,37.84-1.28,56.81a8.55,8.55,0,0,1-.69,4.52c-8.64-.75-17.27-1.55-25.92-2.22-3.44-.26-4.3-2.1-4.4-5.56C292.3,582.39,293.92,577.69,291.24,573.49Z"/><path class="cls-3" d="M401.74,19.28C409.14,10,418.39,3,430.55.82c24.13-4.38,45.15,13.77,45.94,39.68.52,16.8-5.42,31-15.21,43.71-15.1,19.62-34.46,34-54.09,48-3,2.11-6.35,3.54-10,1.06-23.38-16-46.68-32.34-62.15-57.66-9.39-15.36-12.8-32.24-5.77-49.79C340.43-2,373.69-8.67,394.64,12.42,396.9,14.7,399.25,16.88,401.74,19.28Z"/><path class="cls-4" d="M519.17,590.89q.51-6.15,1-12.3a4.25,4.25,0,0,1,3.7-2.08c23.21,0,46.28-2.37,69.33-4.9,19.14-2.09,38.13-5.3,57.1-8.61,4.21-.74,6.85-3,7.7-7.45,2.41-12.66,8.17-24.53,7.85-37.86-.1-3.83.35-3.84,3.62-4.45a6.94,6.94,0,0,1,1,3.11c.54,17.59.36,35.18.1,52.77a7.12,7.12,0,0,1-1.47,4.27c-14.43,4.72-29.44,6.33-44.29,8.59a815.34,815.34,0,0,1-99.37,9.15C523.35,591.18,521.26,591,519.17,590.89Z"/><path class="cls-5" d="M275,578.92c.95,11.88.95,11.88,12.27,12.15.82,0,1.64,0,2.46,0-8.81,2.58-17.78.92-26.57.48-20.47-1-40.93-2.66-61.33-4.77-25.75-2.66-51.41-6.15-76.56-12.86,3.21-6,.89-12.83,2.69-19,1.77-2.73,1.21-6,1.73-9,.35-2-.13-5.22,2.45-5.3,2.32-.07,2.67,3,3.22,5.09.68,2.55,1.11,5.17,1.74,7.73,1.39,5.67,4.56,9,10.21,10.26,21.16,4.69,42.66,6.72,64.09,9.3,14.77,1.78,29.69,1.72,44.42,3.72,7,.95,11.2-1.79,13.87-8.3.69-1.67,1.35-4.41,3.54-3.9s1.53,3.28,1.61,5.16C275,572.74,274.83,575.84,275,578.92Z"/><path class="cls-6" d="M129.13,554.83c-.09,4.8-.3,9.61-.24,14.41,0,2.79-.4,4.79-3.58,4.65l-7.77-1.8c-4.71-3.77-2.45-9.18-3-14,.17-26.66-1.16-53.33.87-80,.81-10.76.11-21.61.22-32.41,0-2.87,0-5.76,1-8.48,1.18-3.12,3.18-5.27,6.56-5.17,3.22.09,4.68,2.55,5.64,5.38a22.09,22.09,0,0,1,.82,6.53c.74,27.32,1.76,54.63,1.32,82C130.86,535.64,130.6,545.27,129.13,554.83Z"/><path class="cls-7" d="M669.09,573.39c-1.33-17.35-.22-34.73-.5-52.09,0-2.86-.1-5.71-.16-8.56-1.8-2.21-1.66-4.93-1.67-7.56q-.09-29.44,0-58.89a30.8,30.8,0,0,1,1.12-8.49c1.07-3.68,2.93-6.47,7.06-6.09,3.85.35,5.27,3.24,5.62,6.81.49,4.82,1.45,9.59,1.46,14.46,0,20.73.17,41.47,0,62.2-.3,15-.17,29.93,0,44.9,0,3.7.68,7.52-1.68,10.82A23.62,23.62,0,0,1,669.09,573.39Z"/><path class="cls-8" d="M322.76,594.62c-2.27-4.35-1.16-9.08-1.1-13.58.25-17.16.88-34.3,1.37-51.45a8.29,8.29,0,0,1,0-1.32c.63-3.54.2-8.62,5-8.4s4.31,5.14,4.34,8.81q.28,32.34.43,64.68C329.79,596.52,326.08,593.87,322.76,594.62Z"/><path class="cls-9" d="M462.71,594.48c0-22.43-.13-44.85-.06-67.28,0-3.27.54-7.43,4.45-7.58,4.54-.17,4.66,4.38,4.91,7.77.9,11.8-.22,23.72,1.63,35.48-.06,7-.16,14.06-.16,21.08C473.46,595.21,473.49,595.21,462.71,594.48Z"/><path class="cls-10" d="M456.15,193.1c-3.49-.71-5.15-3.36-5.21-6.57-.11-7.09-3.1-10.41-9.91-10.25a4.63,4.63,0,0,1-5-4.14c-.32-3.32,2.48-4.23,4.79-5.21a8,8,0,0,1,3.64-.87c4.71.48,6-2.51,6.48-6.56s.17-10.16,4.71-10.2c4.83,0,5.17,6.15,5.41,10.42s1.24,6.44,5.76,6.18c1.93-.11,4,1.07,5.89,2a4.06,4.06,0,0,1,2.37,4.26,4.38,4.38,0,0,1-3.12,3.73,3.53,3.53,0,0,1-1.22.3c-6.65.06-10.56,2.62-10.1,10.59A5.93,5.93,0,0,1,456.15,193.1Z"/><path class="cls-11" d="M680.26,570.9l.12-55.5c3.53,1.31,2.51,4.59,2.56,7.17.18,9,.35,18,0,27-.22,4.91,2.29,8.25,4.3,12,.89,1.67,2.32,1.57,3.82,1.45a61.07,61.07,0,0,0,21.24-5.33c-2.1-2.15-6.65,0-6.82-3.52-.17-3.7,3.95-3.87,6.51-5.07,2.09-1,4.19-2.23,6.42-2.59,11.82-1.94,14.89-11.15,16.63-21.62.36-2.17-.43-5.09,2.78-5.79.81,11.42-1,22.87.31,34.3A247.5,247.5,0,0,1,680.26,570.9Z"/><path class="cls-12" d="M116.18,558.87c.8,4.37-.71,9,1.36,13.22-21.06-3.59-41.3-10.27-61.31-17.82,3.52-.66,2.3-3.61,2.32-5.73.13-12,.12-24,.16-36,2.06,0,2.46,1.8,2.4,3.2-.26,5.86,2.11,11.15,2.91,16.73,1.12,7.8,5.14,12.07,11.92,14.53,3.33,1.21,9.24.64,9,5.32-.27,5.15-6.21.62-9.38,3.35,2.75,2,5.79,2.28,8.69,3,4.9,1.17,9.8,2.38,14.62,3.92,4.17,1.33,8,2.29,10.77-3.09C111,556.84,113.79,556.94,116.18,558.87Z"/><path class="cls-10" d="M356.7,173.67c-.48,3-2.55,4.47-4.8,4.47-2.5,0-4.17-2.09-3.95-4.85s2.11-5.61,4.43-5.37C354.54,168.15,355.58,171.51,356.7,173.67Z"/><path class="cls-13" d="M737.78,519.15c-1.55,5.8-2.18,11.79-4.16,17.57-1.84,5.41-4.69,8.24-9.73,9.81-6,1.89-11.9,4.47-17.83,6.75l.23,1.67c2.37,0,4.73,0,7.09,0,1.27,0,2.67.13,2.86,1.83s-1.16,2.31-2.3,2.71a106.36,106.36,0,0,1-26.07,6c-1.77.15-4.25-.07-2.7-3.31.41-.87.67-2-.13-2.29-5.91-2-3.43-7.16-3.67-11.08-.69-11.11,1-22.31-1-33.39-.65-24.45.35-48.93-1.2-73.37-.1-1.53-.13-3.08-.31-4.61-.31-2.79-1.83-4.46-4.52-4.51a4.18,4.18,0,0,0-4.4,3.86,67.45,67.45,0,0,0-.8,9.19q-.42,33.39-.72,66.78c-.27.59-.83,1.19-.78,1.74,1.18,15.56-5.5,29.4-8.56,44-.77,3.68-2.4,5.2-5.69,5.73-15.82,2.58-31.59,5.49-47.44,7.85-23.11,3.44-46.44,4.54-69.69,6.53-5.33.45-10.73,0-16.1,0a.69.69,0,0,1,0-.72c-1.2-5.28.21-10.69-.78-16-1.27-22-2.44-44-7.91-65.45-2.36-9.25-6.93-17.43-10.11-26.26-1.35-7.73,1.45-15.28.9-23-.17-2.31.29-4.72-1.1-7.56-4.85,6.77-2.2,15.16-6.07,21.46-7.25-7.5-14.63-14.83-25.61-20.54a117.55,117.55,0,0,0,25.91-6.28c3.95-1.47,7.86-3,11.08-6,2.9-2.65,4.51-5.69,2.76-9.89-8.83-21.12-11.13-43.57-11.8-66.3-.08-2.94-2.52-6.63,1.54-8.87,2.25-.34,4.47-.39,6.46-2.08A123.37,123.37,0,0,1,547,317.39c5.68,11.15,14.64,18.5,25.11,24.11,8.49,5.52,18.15,6.22,27.58,6.14,21.63-.18,40.5-7.92,55.32-25.13,1.4-1.62,3.07-3,3.74-5.23,1.17-3.86,4-4.64,7.36-4.33,24.3,9.54,45.59,23,57.85,48.52,7.69,16,11,33.18,12.68,50.73C740,447.79,738.45,483.48,737.78,519.15Z"/><path class="cls-14" d="M116.18,558.87c-3.11,0-6.16-.7-6.41,4.58-.16,3.35-3.81,2.4-5.69,1.95-10.32-2.44-20.54-5.26-30.81-7.93-.88-.23-1.84-.69-1.54-1.58a6.6,6.6,0,0,1,2-2.3c3.25-3.07,7.13,1.09,11.4-.89-5-3.92-10.66-3.73-15.29-6.51-3.48-2.09-5.65-4.37-6.25-8.22-1.2-7.7-5-14.88-4-23,.09-.74-.57-1.58-.88-2.37-.44-33-.5-65.88,3.51-98.65.21-1.71.71-3.39,1.08-5.07-.79.29,1-.34.55.39-.27.44.41.92.48.73,9.69-29.42,23.06-56.06,49.52-72.82,5.18-3.29,10.93-5.44,16.29-8.39,2.42-1.33,4.39-.34,6.39,1,12.28,24.45,28.47,45.55,48.94,62.91a115.74,115.74,0,0,0,13.37,9.8c7.41,4.62,10,4.18,15.9-2.36,18.69-20.7,28.82-45.51,32-74.38,21.21,7.85,40.36,18.58,52.24,40.08a8.86,8.86,0,0,1,.87,5.7c-1.84,15.07-3.72,30.13-9.57,44.24-1.81,4.37-3.18,8.77.6,12.89.39.42.89,1.26.73,1.61-4.72,11-.35,22.11-.54,33.15-.15,8.62-.69,16.68-3.84,25-8.76,23-10.2,47.53-11.26,72-1.3,6.13.44,12.43-1,18.56l0,0c-3-4.06-.35-8.92-2.18-14.76-2.79,15.17-11.63,14.8-22.73,13.74-17-1.63-34.09-2.35-51.07-4.38-18-2.15-35.94-4.43-53.71-8.16-6.07-1.27-8.64-5.59-10-11.21-1-4.2-1.86-8.45-2.88-13.18-2.84,4.69,1.17,10.32-3.33,13.86q-.62-55.2-1.29-110.4c-.06-4.41,1.09-10.87-5.06-10.81s-5,6.49-5.08,10.91Q116.86,501.7,116.18,558.87Z"/><path class="cls-15" d="M239.71,58.19c5.43,5.93,12.36,9,19.32,12.5C279.22,81,290.33,99,295,121.77c3.18,15.37.55,29.81-5.26,44-3.47-28.71-18.4-49.87-38.83-67.54a6.89,6.89,0,0,1-2.25-3.07c-.94-3.41-3-5.42-6.23-5.59-3.6-.18-4.73,3.13-6,5.84-16.74,35.78-43.39,58.66-80.89,64.8-11.78,1.94-16.25,7.11-18.12,17.8-.91,5.19-2.37,7.25-8.48,4.95-21.61-8.11-33.92,15.78-30.88,32.54,2.65,14.65,9.47,26.13,22,33.49,14.36,21.83,10.89,45.48-8.76,60.13-5.28,3.94-10.23,9.32-17.65,8.76-11.79-4.55-19.17-19.17-15.15-31.49,2.81-8.63,1.88-15-3.63-22.81-11.62-16.35-13-34.67-4.42-53.5a134.23,134.23,0,0,1,11.94-20.92c9-12.95,12-27.83,12.49-43.46.22-6.77,0-13.55,2.57-20,2.18-4,3-8.51,4.74-12.7,12-29.52,32.86-49.29,60.82-61.21,5.68-2.41,11.76-3.06,17.74-4,16.2-2.5,32-1.55,47.07,6.13A38.14,38.14,0,0,0,239.71,58.19Z"/><path class="cls-16" d="M622.27,267.65c-28.62,21.21-75.83,16.27-93.62-31-6.66-17.69-7.88-36.36-9.29-55.07-1.06-14-1.09-27.66,4-41,4.92-13,13.7-22.48,23.79-31,2-1.67,3-1.48,4.55.41,22.43,27,51.86,35.79,84.58,35.41,4.51-.06,6,1.35,7.13,5.6,2.6,9.72,5.81,19.26,8.66,28.91.9,3.05,1.87,6,5.17,6.82,3.57.91,5.3-1.83,7-4.38,2.25-3.34,5-6.22,8.88-6.93,4.65-.87,8.13,1.67,10.09,6.07,7.16,16-6.51,41.69-22.8,39.85-3.29-.37-6.07,1.2-7.06,5-4.19-3.25-3.42-8.58-4.53-12.95-3.44-13.41-17-20.71-29.28-15.17a11.22,11.22,0,0,0-2.7,1.66c-8,6.85-9.12,24.94-2.05,32.89,3.77,4.24,7.59,7.94,13.64,8.42,3.48.28,7.18,1.94,8.32,6,1.07,3.81-2.1,5.87-4.11,8.32C629.25,259.68,623.91,261.91,622.27,267.65Z"/><path class="cls-16" d="M260.08,253.26c-15.28,29.49-50.77,40.09-80.51,24-8.76-4.75-17-10.24-23-18.78.14-2.94,1.62-1.77,2.68-.82,2.52,2.25,4.41,5.25,8.56,7.82-.47-.35-.77-1.68-1-.84-.07.22-.27.18-.61-.11-8.6-7.44-8.37-10.89,1.61-16.53a62.63,62.63,0,0,0,13.39-10.77c6.05-6.09,7-15.13,2.82-23.68-5-10.24-9.62-12.91-19.46-11.25-13.45,2.27-18.48,8.86-19,23.62-.13,4.13,2.48,9.26-2.54,12.4-2-1.54-4.25-1.43-6.6-1.27-15.53,1.05-29.09-18.92-23.14-34,3-7.67,10.07-8.94,16.17-2.91,9.44,9.34,11.45,8.87,16.19-4.13,2.31-6.36,3-14,6.88-18.92,4-5.13,12-2.86,18.11-4.65,31.66-9.26,55.73-28.52,71.68-58.87.49-.94,1.1-1.81,1.64-2.68,27.8,23.2,36,53.45,29.65,89.06-1.57.68-2.83-.28-4.13-.9-5.25-2.52-9.71-1.26-13.69,2.92a128.86,128.86,0,0,1-10,10,8.59,8.59,0,0,0-2.77,4.3c-2.19,7.57,3.43,24.2,9.5,29.18C255.28,247.68,259.76,248.32,260.08,253.26Z"/><path class="cls-17" d="M656.08,62.26c19.61,14.2,28.63,34.54,31.67,58.79,1.51,12,.06,23.6-1.64,35.29-.49,3.34-1.6,5-5.75,4.13-6.43-1.35-13-.5-18.52,4.49-2.8-8-5.49-15.59-6.93-23.59-1.37-7.6-4.09-10.27-11.41-10.23-13,.08-25.9-.13-38.5-4-19.79-6-36.77-16.39-49.15-34.31-2.1-3-4-8.69-9.72-5.23-.72.43-1.78,1-1.85,1.69-1.15,10.47-10.58,13.31-16.3,19.44-9.91,10.62-17.53,22.31-19.7,38.63-4.44-5.76-5-11.79-6.23-17.53-4.6-21.9,3.56-44.67,20-55.64a31.66,31.66,0,0,1,19.7-5.33c2.41.51,3.2-1.35,4.21-3.07,7.27-12.38,18.54-17.94,31.65-19.86,16.14-2.37,32-.24,47.75,3.75,8.44,2.14,16.07,6.16,23.78,10.07C651.34,60.89,653.36,62.7,656.08,62.26Z"/><path class="cls-16" d="M332.79,349.9c4.34.42,6.94-1.23,6.18-6.25-1-6.44,2-8.7,7.58-10.73,21.74-8,38-23.44,50.76-44.07,8.87,16.81,20.5,30.2,36.34,39.12,5.52,3.11,11.19,6,17.39,7.34,3.77.82,5.6,2.7,5.44,7-.11,2.9-.5,6.51,3.32,7.68,3.4,1.05,4.8-1.77,6.48-4,2.76-3.65,5.78-4.29,8.87-.54,4.21,5.11,3.93,11,1.91,16.83-2.11,6.07-6,10.6-12.15,12.32-1.5.42-2.27-.73-2.62-2.16-.92-2.36-.26-4.79-.28-7.19,0-2.84-.47-5.33-3.7-5.94A44,44,0,0,0,439.6,353c-8.85-.78-17.65,7-17.5,16.33.21,12.92,4,18.06,15.88,22,2.3.77,5.55-.17,6.79,3.22-19.61,31.94-67.12,35.77-90.7,4.31,4.46-3.47,8.51-7.47,12.9-11,6.88-5.6,6.75-13.5,5.13-21.07-1.55-7.27-6.87-12.18-13.47-14.41-4.69-1.59-8.69,2.16-12.73,4.37-2.15,1.18-3.81,3.62-6.71,2.86-2.5-2.43-4.19-5.64-6.85-7.91A2.08,2.08,0,0,1,332.79,349.9Z"/><path class="cls-18" d="M437.09,246.67c24.19,12.87,36,35.05,41.51,61.76,1.54,7.44,3.32,15,2.46,22.39-9.66-1.4-18.46-5.51-27.52-8.61-19.9-6.8-34.57-20.83-45.51-39.37-1.43-2.43-2.75-4.93-4.07-7.43-4.42-8.34-8.2-8.71-12.93-.38a114.75,114.75,0,0,1-20.66,26.35c-10.15,9.72-21.24,17.82-34.93,21-6.12,1.44-10.05,8.28-17.67,6.9a102.16,102.16,0,0,1,3.61-22.22c2,.42,1.78-1.3,2.1-2.42,6.24-21.6,18-39,35.84-51.6,11.44-8.06,24.44-10.74,38.08-11.14,11.41-.34,22.48.78,33.18,5.16C432.66,248,435,248.63,437.09,246.67Z"/><path class="cls-19" d="M220.78,309.84c1.76,3.83,3.9,7.55,7.73,9.2,4.08,1.76,4.66,4.29,4.06,8.64-3.08,22-11.9,41.13-25.11,58.25-1.71,2.22-2.86,2.38-5.05.67-22.32-17.52-40.76-38.54-53.24-65-.66-1.4-2.61-3.44-.49-4.63,9.37-5.24,12-14.61,14.14-24.4a1.88,1.88,0,0,1,2.19.73c14.69,16.6,32.32,22.57,53.33,16.33A3.28,3.28,0,0,1,220.78,309.84Z"/><path class="cls-20" d="M290.1,182c5.75,16.94,14.91,33,10.13,52-2.31,9.17-6,17.61-12.93,23.69-10,8.8-17,18.27-15.07,33.38,1.19,9.33-6.32,14.71-12.41,20.1-1.38,1.21-2.89,1-4.67.29a140.83,140.83,0,0,0-15.5-5.17c-3-.78-4.91-1.58-5.1-5.33s1-5.66,4.15-7.08c14.53-6.5,25.69-17.31,33.84-31.31,7.73-13.27,11.85-27.93,13.84-43.43C288,206.81,289,194.49,290.1,182Z"/><path class="cls-16" d="M622.27,267.65c-2.48-3.81.38-5.81,2.71-7.39,3.41-2.31,5.93-5.52,8.83-8.35,3.27-3.19,2.59-5.66-1.31-7.43a22,22,0,0,0-5.23-2.06c-9.37-1.52-17.62-10-19.12-20-1.25-8.37,4.19-22.67,9.69-25.44,8.3-4.18,22.46-1.84,28.48,5.37,4.73,5.67,4.25,13.48,6,20.35.31,1.24,0,2.65,1,3.69C647.41,243.83,637.39,257.87,622.27,267.65Z"/><path class="cls-16" d="M143,238.31c2.17-4.13,1-8.61,1-12.89a28.38,28.38,0,0,1,3-13.24c5.39-10.9,20.25-16.13,30.22-9.91,9.71,6,16.49,26.17,5,36.29-4.43,3.92-8.49,8.21-13.87,10.94-9.06,4.6-9.19,6.25-2.47,13.88.5.57.89,1.23,1.84,2.55-5.31-1.11-6.17-7.75-11.23-7.46C150.59,252.82,146.89,245.49,143,238.31Z"/><path class="cls-21" d="M635.87,288.68c1.94,6.06,3.91,11.95,9.35,15.91,3,2.18-.45,3.93-1.55,5.12A65.52,65.52,0,0,1,606.52,330,49.09,49.09,0,0,1,576,326a39.28,39.28,0,0,1-7-4.32c-3.26-2.47-6.6-5.43-7.74-9.35-1.63-5.61,5.65-4,6.83-7.81a7.09,7.09,0,0,1,4.91.23c21.16,7.34,39.23-.48,56.44-12.64C631.41,290.65,632.94,288.14,635.87,288.68Z"/><path class="cls-22" d="M93.71,317.89c9.73-4.65,19.16-9.95,25.85-19,10.64-14.35,9.25-29.63,2-45a11,11,0,0,1-1.44-4.92c9.54,2.06,15.32,8.57,22,16,9.54,10.6,6.7,20.5,4.34,31.47-.83,3.9-3.31,6.15-7.12,7.47-12.89,4.45-25.52,9.63-37.42,16.59C98.25,322.63,96.21,319.53,93.71,317.89Z"/><path class="cls-16" d="M260.08,253.26a10.94,10.94,0,0,0-2.34-2.1c-11.64-5.33-15.29-15.94-16.63-28-.61-5.4-.43-10.4,5-13.77,3-1.85,5.16-5.11,7.69-7.75,7.16-7.48,11.38-7.85,19.79-1.72C273,218.8,270,237,260.08,253.26Z"/><path class="cls-16" d="M444.77,394.51c-7.47-1.45-15.88-2.29-20.07-9.57-7.46-12.93-6.41-23.47,5.54-32.24a9.12,9.12,0,0,1,7.77-1.65c6.38,1.69,13.89-.17,18.82,6.39.26.34,1.21.12,1.83.16,1,4.83.59,9.34-2.62,13.24C452.17,378.67,450.49,387.66,444.77,394.51Z"/><path class="cls-16" d="M339.14,358.87c5.22-2.17,9.32-6.5,14.86-8.16,2.62-.78,4.78-.94,7.12.54,12.73,8.05,16.07,16.85,11.48,32.29-.64,2.14-2.17,3.52-3.87,5-3.2,2.71-7.38,4.44-9,8.86-1.28,3.39-3.95.11-5.62,1.45-7.58-8.15-10.48-18.77-13.84-29.14a11.57,11.57,0,0,1-2.46-5.79C337.63,362,337.64,360.22,339.14,358.87Z"/><path class="cls-23" d="M470,388.12c5.76-1.52,9.49-6.11,14.32-10.65a215.47,215.47,0,0,0,5.74,29c.54,1.89.94,3.84,1.58,5.69,2.8,8.1,2.79,8-5.33,10.33a155.51,155.51,0,0,1-22.58,5.12c-3-4.11-2.35-9-1.57-13.37C463.78,405.3,465.76,396.3,470,388.12Z"/><path class="cls-24" d="M239.71,58.19c-4.69,2.65-8.4-.88-12.13-2.55-26.79-12-52.63-9.16-77.89,4.87C130.62,71.1,116.57,87,106.6,106.84c-3.19,6.36-5.24,13.37-7.82,20.08-.06.14-.27.23-.41.34-.29-.51-.58-1-.86-1.52,1.5-16.08,8.24-30,17.47-42.32,20.42-27.2,47.72-40.73,80.56-40.7C211.61,42.74,227,46.54,239.71,58.19Z"/><path class="cls-25" d="M635.87,288.68c-13.17,12.33-28.6,19.55-46.11,20.9-7.4.57-14.78-1.9-21.7-5.11,1.09-3.47,1.27-8.53,3.53-10s6.77.52,10.29.72c19.37,1.1,36.66-5.1,52.83-17.33C635.14,281.88,635.5,285.28,635.87,288.68Z"/><path class="cls-26" d="M331.54,427.74c-8.46-.48-16.3-3.46-24.1-6.62-2.94-1.2-3.5-2.74-2.15-6,4-9.73,5.37-20.24,7.35-30.56.26-1.4-.57-3.53,1.38-3.84.89-.14,2,1.28,3,2l5.66,4.09c2.62,1.45,3.67,4.07,4.68,6.76a153.06,153.06,0,0,0,6.06,14.48C336.9,415,335.91,421.58,331.54,427.74Z"/><path class="cls-27" d="M441.77,451.29c-.55,7.61-3,16.18-11.15,21.32-9.19,5.82-21.76.07-24.85-10.78-.68-2.37.53-2.58,2-3,9.05-2.85,15.72-8.9,20.78-17.13.42-.69,1-1.59,1.63-1.8C433.82,438.72,441.88,445.47,441.77,451.29Z"/><path class="cls-28" d="M374,475.47c-6-.43-10.3-3.3-13.67-7.81A29.81,29.81,0,0,1,355,453.78c-1.1-7.52,3.06-13.23,10.1-13.8,1.76-.14,2.05,1.18,2.63,2.22,4.65,8.46,11.77,13.58,20.42,16.36,3.29,1.06,3.05,2.19,1.6,4.92C386.12,470.31,380.94,474.43,374,475.47Z"/><path class="cls-29" d="M220.78,309.84c-14.3,11.55-51.83-1.85-58-17.23v-7.52c17,11,34.56,16.77,53.94,14.48,2.53-.3,3.32.58,3.35,3.11S220.54,307.45,220.78,309.84Z"/><path class="cls-30" d="M136.53,329.72c-9.36-.16-16.66,5.54-23.89,10.36a98.6,98.6,0,0,0-33.11,37.05c-3.53,6.77-5.49,14.18-8.8,21-2.4,4.94-7.62,8.54-6.85,15.18-.2-1.49-.39-3-.58-4.47,4-31.93,18.1-57.13,44.94-73.54,6.12-3.74,12.87-6.31,19.07-9.91C132.61,322.33,135.5,323.43,136.53,329.72Z"/><path class="cls-31" d="M437.09,246.67c-1,5.89-4.74,3.08-7.23,2-15.94-6.65-32.35-6.58-48.7-3.16-22.25,4.66-37.11,19.95-48,39.93-3.48,6.39-7.59,12.66-8.24,20.47-.12,1.41-.93,3.71-3.21,3.64a14,14,0,0,1-.32-2.49c7.65-33.94,25.24-59.36,59-66.08C399,237.32,419,235.88,437.09,246.67Z"/><path class="cls-32" d="M331.54,427.74c6.63-15.94-4.77-27.55-8.84-40.93,6.42.2,9.86,3.53,12.71,9.86,4.54,10.11,10.92,19.16,20.8,24.71,4,2.23,5,4.21-.33,7C347.38,433,339.56,431.28,331.54,427.74Z"/><path class="cls-33" d="M656.08,62.26c-2.41,2.65-4.78.83-6.79-.43C632.7,51.45,614.21,47.58,595.5,46.69c-14.41-.68-29.3.35-41.31,11.42-2.87,2.64-5.6,5.2-7.31,8.85-1.07,2.27-2.36,4.49-5.15,1.92a9.48,9.48,0,0,0,3.41-4.62c5.11-12.06,14.05-19.07,26.26-21C601.83,38.47,630.42,43.27,656.08,62.26Z"/><path class="cls-34" d="M470,388.12c-1.07,5.73-1.41,11.65-3.94,17-3.4,7.22-2.26,14.95-2.33,22.54-2.66.51-5.45.62-7.94,1.59-7.41,2.89-13-1.69-20.24-4.21,9.15-7.38,17.52-13.93,22.65-23.78,1.51-2.88,3.26-5.65,4.48-8.66C464.11,389,466.36,387.46,470,388.12Z"/><path class="cls-35" d="M666.12,313c-3,1-4.91,2.52-6.53,5.91-3.31,6.92-9.33,11.75-15.36,16-22.21,15.66-46,18.76-71.08,8.75a4.5,4.5,0,0,1-1.48-1.05c-.09-.09.29-.69.45-1.06,34.88,10.92,64.44,1.63,87.17-27.83C662,310.2,663.77,312.17,666.12,313Z"/><path class="cls-36" d="M325.64,441.29c-9.34,6.14-17.46,12.22-24.45,21.58-1-10.43-1.9-19.78-2.86-29.81C307.11,436.92,315.82,439.17,325.64,441.29Z"/><path class="cls-37" d="M418.59,432.27c-4.75,9.75-11.64,15-20.85,14.76-8.48-.19-15.69-4.18-19.84-14.16C391.72,436.2,404.81,436.56,418.59,432.27Z"/><path class="cls-38" d="M332.79,349.9l0,.82c-2.28,6.85.24,13.65.21,20.49a3,3,0,0,1-.26,1.92c-6.08.62-10.48-2.56-13.58-9.79-2.78-6.49-2-15,1.69-18.53,2.87-2.74,5.46-2.37,8.08.61C330.26,346.9,330,349.9,332.79,349.9Z"/><path class="cls-39" d="M547,317.39c-.79,2-2.44,2.71-4.29,3.4a107.38,107.38,0,0,0-37.41,22.79c-2.55,2.43-4.35,1.69-6.38-.35,11.9-14.43,28-21.57,44.34-28.21C545.75,314,546.76,314.86,547,317.39Z"/><path class="cls-40" d="M495.05,461.1a64.62,64.62,0,0,1,3.24-21.27c.52-1.58,1.11-3.73,3.17-3.52,2.53.26,2.4,2.63,2.39,4.6-.06,9.83.35,19.71-2.53,29.27Z"/><path class="cls-41" d="M456,370.84q1.31-6.63,2.62-13.24c5.49-.41,4.94,3.71,5,7.39.05,2.6,0,5.17-1.38,7.48C460.34,371.36,458.37,370.34,456,370.84Z"/><path class="cls-41" d="M332.77,373.13a9,9,0,0,1-.27-1c-.38-7.64.74-9,6.64-8,.63,1.8,1.44,3.56,1.09,5.57A10.32,10.32,0,0,0,332.77,373.13Z"/><path class="cls-5" d="M275,578.9c.12-6.2-1.28-12.49,1-18.57C275.83,566.53,277,572.8,275,578.9Z"/><path class="cls-4" d="M519.34,561.89c1.71,5.25.55,10.65.78,16C518.37,572.62,519.41,567.23,519.34,561.89Z"/><path class="cls-42" d="M405.94,517.88c-.74,4.63-2.68,8.18-7.83,8.31-4.65.12-8.25-3.89-7.94-8.85.32-5.19,3.31-8.26,8-8.17S405.5,512.68,405.94,517.88Z"/><path class="cls-43" d="M405.93,553.14c-.74,4.1-2.53,7.75-7.85,7.62-5.05-.12-7.66-2.91-7.74-8.18s2.55-8.31,7.34-8.89C401.87,543.19,406,547.85,405.93,553.14Z"/><path class="cls-44" d="M357.75,82.61c-9-9-15.62-19.5-17.87-32.64-2.08-12.12,1-22.49,10.3-30s20.81-7.21,31.19-.23c5.78,3.88,10,9.27,13.69,15.27,4,6.56,7.8,6.58,12,.23a74,74,0,0,1,8.35-10.74c9.45-9.73,22.28-12.61,32.85-7.33,10.83,5.4,15.26,15,14,30.38a85.08,85.08,0,0,1-16.71,29.09A190.72,190.72,0,0,1,405.27,111c-4.1,2.61-8.12,1.81-11.67-1.24C383.05,100.74,371.16,93.57,361,84,360,83.13,359.22,82.07,357.75,82.61Z"/><path class="cls-45" d="M357.75,82.61c.3-1.65.56-3.38,2.58-1.33,9.95,10.09,22.4,16.72,32.73,26.29,4.72,4.38,8.86,3.93,14.47.19a192.59,192.59,0,0,0,33.08-27.88c7.83-8.25,15.78-17,18.12-29.21a3.64,3.64,0,0,1,3.55-3.12c-.54,11.8-6.3,21.24-13,29.89-12.9,16.52-29.8,28.2-45.93,40.77-1.32,1-2.45,1.39-3.93.26C384.85,107.35,369.87,96.82,357.75,82.61Z"/><path class="cls-41" d="M339.14,364.11c-5.71-.55-6.22,3.69-6.64,8-2.12-5.39-2.31-11.06-2.23-16.78,0-2.09.13-4,2.55-4.61,4,1.1,5.24,4.55,6.32,8.15Z"/><path class="cls-46" d="M349,39.63c.16-7.93,4.54-13.82,11.19-15.51,2.8-.71,5.65-.58,7.11,2.49,1.54,3.26-.31,5.63-2.92,7-3.43,1.77-5.28,4.86-7.17,8-1.16,2-.44,5.92-4.28,5.11C348.86,45.86,348.8,42.39,349,39.63Z"/><path class="cls-47" d="M95.62,604.49c-4.35,2.12-6.57-1.73-8.43-3.9C79.11,591.18,68.1,591,57.24,590.1a9.17,9.17,0,0,1-8.06-1.57c-3.14-4.47-2.94-5.27,2-8,2.44-.42,4.84-.54,7,1l15.07,3.21c-6.08-7.64-10.13-15.61-14.23-23.55A100.74,100.74,0,0,1,51.41,543c-1.27-4.43-3.75-5.59-8.07-6C27,535.37,14.12,527.78,5.58,513.49A36.81,36.81,0,0,1,0,494.24c.05-8.08,5-12.09,12.88-10.8,9.2,1.5,15.36,7.61,20.94,14.35,4.08,4.94,6.93,10.71,10,16.39a335.12,335.12,0,0,1-3.13-47.65c0-1.89-1.4-3.11-2.26-4.58-10.62-18.08-16.28-37.12-10.9-58.17a35.55,35.55,0,0,1,3.28-8.16c5.09-9.26,12.91-10.54,20.2-2.8,10.19,10.82,14.09,24,12.93,38.76-1,12-6,22.28-12.88,31.86-1.12,1.56-2.15,2.91-2.22,5.05-.71,21.67,2.41,42.87,7.74,63.8.11.44.59.78,1,1.33a13.83,13.83,0,0,0,.16-9c-4.7-14.88-1.89-28.77,7-41.43,2-2.8,4.31-6,8.29-5.33,4.23.75,5.26,4.71,6.15,8.25,3.48,14-.85,26.3-8.29,37.92-1.87,2.92-4,5.73-5.38,8.87-3.51,7.91-3.69,15.47.64,23.68,7.17,13.62,15.56,26.21,26.21,37.29.69.7,1.52,1.26,3.18,2.63Z"/><path class="cls-48" d="M58.21,581.49l-7.49.11a14.07,14.07,0,0,1-4-2.39,10.41,10.41,0,0,0-6.4-1.85c-3.42.12-6.88,3.18-6.7,6.07.22,3.62,2.5,5.45,6,6.2,3.64.8,6.73-1.18,10.09-1.74l7.56,2.21c-6.63,11.26-22.62,12-29.9,1.33-3.24-4.74-3.29-9.81-.75-14.77a14.16,14.16,0,0,1,12.93-8.14C47.94,568.27,55,573.19,58.21,581.49Z"/><path class="cls-49" d="M56.15,428.65c-.15,10-4.17,19.26-9.55,28.08-1.31,2.15-2.05,1.59-3.1-.38a93.59,93.59,0,0,1-10.28-34c-.81-7.19.83-14.16,3.25-20.83,2.27-6.29,5.09-6.73,9.71-2.05C54,407.41,55.79,417.5,56.15,428.65Z"/><path class="cls-50" d="M44.13,530.76c-13.21-3.94-24.12-8.72-31-19.68a41.43,41.43,0,0,1-5.67-14.37c-.81-4.14,1.58-6.28,5.69-5.2,5.61,1.47,9.76,5.21,13.38,9.39C33.9,509.44,38.35,519.77,44.13,530.76Z"/><path class="cls-51" d="M64,521.53c-3.53-12.09-.88-22.19,4.22-31.92.76-1.45,1.44-3.63,3.51-3.14,1.62.37.78,2.39,1,3.67C74.92,501.65,70.51,511.32,64,521.53Z"/><path class="cls-52" d="M49.68,587.89c-2.58,3.22-6.11,3.49-9.83,3.14-4.76-.46-8.4-4.52-7.77-8.62.59-3.81,5.59-7,9.83-6.37,3.81.54,6.85,2.15,8.81,5.56C47.36,583.2,47.2,585.33,49.68,587.89Z"/><path class="cls-53" d="M710.09,592.48q0-6.24,0-12.48c2.49.46,2.56-1.94,3.56-3.12,8.14-9.58,14-20.54,20-31.56,5.4-10,3.31-18.58-2.62-27-7.39-10.43-12.62-21.49-12.15-34.66a28.45,28.45,0,0,1,2.41-11.1c2.56-5.56,6.7-6.41,11.07-2.14s7.07,9.8,8.79,15.7c3,10.2,4,20.43-.46,30.5-1,2.31.38,4,1,7.17a262.64,262.64,0,0,0,8.46-50.33c.75-10.77-1.77-19.65-7.44-29.11-11.59-19.34-10.52-39.31,2.51-58.16a27.55,27.55,0,0,1,4.48-5c6.38-5.55,13.12-4.69,17.51,2.57,7.13,11.78,7.28,24.68,5.14,37.77-1.79,10.95-6.14,20.93-12.05,30.24a13.65,13.65,0,0,0-2.17,7.79,265.52,265.52,0,0,1-3.3,44.62c3.53-5.77,6.5-11.84,10.82-17.06,4.61-5.58,9.93-10.17,16.78-12.75,11.06-4.15,18.43,1.9,16.63,13.55-2.15,14-9.71,24.18-21.48,31.61A54.26,54.26,0,0,1,753,527.39c-2.45.22-3.76,1-4.53,3.3-5.3,15.46-12.19,30.15-22.4,44.3l16.06-4.51c2.55-1,5.06-.33,7.58.16,3.72,2.32,3.75,4.92.61,7.78-2.54,1.16-5.11,2.24-8,1.43-8.11-.61-15.54,2.65-23.11,4.58C715.58,585.36,713.86,590.51,710.09,592.48Z"/><path class="cls-54" d="M742.34,579.85c2.21-1.37,4.8-1.39,7.21-2.05a28.68,28.68,0,0,1,5.85,1.94c3.3,1.2,7.59-.54,9.37-3.6,1.57-2.7.79-4.94-1.31-6.95-2.88-2.76-6-3.35-9.31-.9a31.09,31.09,0,0,1-4.72,3.16c-2.47,0-5,.55-7.27-1,3.51-12.49,19.92-14.54,26.63-8.67,6.32,5.53,7.46,14.74,2.31,20.9-6.05,7.25-17.53,8.4-24.7,2.38C744.69,583.66,742.93,582.19,742.34,579.85Z"/><path class="cls-55" d="M754.19,447.88c-13.58-16.35-15-40.25-3.07-56.91,1.66-2.32,3.42-4.93,6.41-4.51,3.16.44,4.55,3.43,5.43,6.32,4.13,13.53,3.19,26.85-1.94,39.9C759.06,437.64,756.66,442.42,754.19,447.88Z"/><path class="cls-56" d="M755.33,520.26c6.93-13.51,12.1-27,24.37-35.73,3-2.14,6.43-5.41,10.24-2.81s1.14,6.59.15,9.93C785.07,508.58,772,515.77,755.33,520.26Z"/><path class="cls-57" d="M735.71,511.6c-7.74-10.44-12.13-20.36-9.17-32.33.25-1,0-2.32,1.12-2.7,1.68-.58,1.87,1.15,2.44,2.06,5.14,8.1,8.17,16.68,6,26.47C735.74,506.76,735.88,508.52,735.71,511.6Z"/><path class="cls-58" d="M749.43,571.45c4.58-6.63,9.41-7.88,14.36-3.78,3,2.44,4.49,5.12,2.34,8.92-2,3.54-7.06,6.06-10.39,4.74-2.19-.87-4.51-1.68-6.19-3.53C752.29,575.63,752.39,573.51,749.43,571.45Z"/></svg>