<?xml version="1.0" encoding="UTF-8"?>
<svg id="Layer_1" data-name="Layer 1" xmlns="http://www.w3.org/2000/svg" viewBox="0 0 1103.79 928.94">
  <defs>
    <style>
      .cls-1 {
        fill: #6a8647;
      }

      .cls-2 {
        fill: #6c8948;
      }

      .cls-3 {
        fill: #f9a61e;
      }

      .cls-4 {
        fill: #f2804f;
      }

      .cls-5 {
        fill: #212416;
      }

      .cls-6 {
        fill: #f9a61f;
      }

      .cls-7 {
        fill: #f28050;
      }

      .cls-8 {
        fill: #f37f4b;
      }

      .cls-9 {
        fill: #fcfaf5;
      }

      .cls-10 {
        fill: #6f8b4b;
      }

      .cls-11 {
        fill: #311c0f;
      }

      .cls-12 {
        fill: #6c8949;
      }

      .cls-13 {
        fill: #291911;
      }

      .cls-14 {
        fill: #fbfaf6;
      }

      .cls-15 {
        fill: #6e8a4a;
      }

      .cls-16 {
        fill: #708d4c;
      }

      .cls-17 {
        fill: #71706b;
      }

      .cls-18 {
        fill: #2a1911;
      }

      .cls-19 {
        fill: #747471;
      }

      .cls-20 {
        fill: #fefbf7;
      }

      .cls-21 {
        fill: #fdfbf6;
      }

      .cls-22 {
        fill: #f58e2d;
      }

      .cls-23 {
        fill: #fcfaf4;
      }

      .cls-24 {
        fill: #6f8c4b;
      }

      .cls-25 {
        fill: #f9a320;
      }

      .cls-26 {
        fill: #212516;
      }
    </style>
  </defs>
  <g>
    <path class="cls-6" d="M987.83,251.1c-7.52,14.1-4.34,30.46-11.85,29.56-2.17-.26-3.57-2.31-3.86-4.8-.85-7.27-2.58-14.13-4.86-20.95-2.78-8.31-8.46-13.38-16.5-16.75l-13.67-4.13c-1.78-.54-3.19-2.46-3.16-3.9.14-6.46,15.21-2.19,27.23-13.77,4.61-4.44,7.32-10.43,8.33-16.71l2.48-15.43c.4-2.48,1.99-3.91,4.23-4.41,8.16-1.81,2.68,20.93,14.66,35.35,8.48,10.21,24.47,9.16,28.66,12.92,1.04.93,1.6,3.83.13,4.77-7.07,4.55-23.64,2.9-31.81,18.23Z"/>
    <path class="cls-3" d="M155.05,259.6c-5.93,13.46-3.9,27.06-9.62,27.75-6.85.83-5.01-13.84-11.31-28.71-7.92-18.69-33.71-14.21-33.07-22.47.48-6.28,23.61-2.12,32.05-18.58,7.66-14.94,5.99-27.48,10.08-30.47,1.12-.82,3.83-.87,4.61.79,3.47,7.45,1.26,27.91,15.87,38.12,10.02,7,24,5.23,24.42,10.14.13,1.55-.56,3.5-2.45,4.06l-16.18,4.79c-6.91,2.05-11.53,8.07-14.4,14.58Z"/>
    <g>
      <path class="cls-26" d="M1032.69,486.3c.44,4.67.68,9.51-.29,14.14-.02,16-7.84,30.94-18.45,43.55-6.98,8.29-16.3,13.14-25.79,18.26-3.58,3.31-4.86,9.36-7.16,13.62-7.09,13.12-13.8,25.2-23.14,38.01,4.46-1.7,10.23-1.66,13.85-4.2l10.64-11.5c10.52-9.05,22.35-14.19,36.6-15.5,12.47-1.14,32.44,3.98,34.23,12.55.79,3.79.04,7.68-2.12,10.85-9.35,13.71-24.66,21.15-41.32,21.7-12.12.4-23.01-3.44-33.73-9.04-4.99-2.61-21.45,2.73-26.88,7.19l-14.17,15.97-22.43,22.36-15.76,13.42,16.34-.63c23.2-20.81,61.97-23.43,82.1-.72,2.38,2.69,4.17,4.62,4.58,8.11,1.31,11.16-22.09,21.65-39.14,22.21-14.16.46-27.8-4.92-39.45-13.15-3.51-2.48-6.19-8.18-11.1-8.77-7.81-.77-19.31-1.09-26.13,2.98l-30.67,18.3-11.54,6.48c-2.12,1.19-3.86,1.17-5.2-.81-1.08-1.6-1.23-3.84,1.24-5.3l27.76-16.39,4.25-16.86c-8.11-8.21-12.26-18.06-13.74-28.75v-10.19c1.72-11,5.53-22,15.46-28.84,3.84-2.64,9.16-2.32,12.71,1.54,7.05,7.68,9.74,18.53,9.5,29.26-.23,10.26-3.99,20.15-9.57,28.73l-6.78,7.23c-2.65,2.82-1.94,7.68-2.36,11.58l26.62-20.3,9.96-8.99,9.99-9.93c2.59-2.57,2.46-6.68,3.04-10.04l1.05-6.04c.34-3.72.53-7.47.07-11.18-.65-2.4-1.16-3.93-3.23-5.94-19.6-19.03-21.87-54.27-5.42-73.14,4.75-5.45,12.76-6.93,18.03-1.23,19.24,20.8,16.96,55.47-2,76.52-.1,5.03-.32,9.98-.67,14.85-.07,1.16-.35,2.38.45,4.2l17.4-21.28c11.87-16.75,22-33.93,30.4-52.85l-3.26-16.94c-2.42-28.91,11.07-56.67,36.59-70.16,4.97-2.63,11.51-2.65,14.8,1.61,3.04,3.93,2.8,9.35,3.84,13.43Z"/>
      <g>
        <path class="cls-15" d="M987.26,554.95c-8.01-28.83,1.62-58.82,26.26-75.22,3.07-2.04,6.21-3.18,9.85-2.22,7.52,30.76-6.13,62.79-36.11,77.44Z"/>
        <path class="cls-15" d="M993.47,685.38c-21.48,21.51-53.77,17.17-74.56-3.91,23.92-18.16,55.17-19.76,74.56,3.91Z"/>
        <path class="cls-10" d="M1046.23,599.59c-13.34,23.6-43.82,26.36-67.02,12.5,26.87-34.95,70.92-19.38,67.02-12.5Z"/>
        <path class="cls-2" d="M930.9,543.11c14.7,18.4,13,45.4-1.9,64.4-17.57-16.82-20.98-44.13-6.87-64.33.97-1.39,2.87-2.37,4.04-2.62,1.52-.32,3.45.93,4.73,2.55Z"/>
        <path class="cls-1" d="M880.36,613.55c10.48,16.82,7.11,37.55-7.03,52.46-13.48-15.07-13.2-37.29-.78-52.53.96-1.18,2.6-2.09,3.58-2.33,1.46-.36,3.23.79,4.24,2.4Z"/>
      </g>
    </g>
    <g>
      <path class="cls-5" d="M138.11,551.38c.9,5.13.86,10.9.01,15.99,0,5.52-1.3,10.96-2.35,17.06,7.68,17.33,19.24,31.4,31.79,45.41,13.2,14.73,27.45,27.53,43.82,38.41-4.25-11.07-7.48-20.06-8.5-30.85-17.87-10.63-26.73-37.05-24.43-57.55,1.73-15.41,9.3-36.71,21.98-36.29,3.57.12,6.82,2.29,9.44,5.07,10.87,11.55,15.16,26.55,15.95,41.71-.33,3.64-.47,7.34-.4,11.1-2.18,12.93-7.04,25.16-15.51,35.79,1.39,9.28,4.01,17.35,7.47,25.71l5.56,13.44c15.29,10.27,30.89,18.88,47.69,26.21,5.74,2.5,10.44,5.86,16.16,6.49l-4.58-11.46c-22.3-14.5-28.88-45.15-18.64-68.7,2.47-5.68,9.34-11.17,15.44-7.57,21.39,12.62,25.96,43.27,15.36,67.31-1.27,2.87-4.41,5.17-4.24,8.6.21,4.4,3.18,8.36,4.46,12.21,1.19,3.59,2.55,4.47,5.79,5.56l24.5,8.26c2.49.84,3.66,3.29,2.95,5.23-.66,1.81-2.38,3.26-4.64,2.55l-25.33-7.95c-4.8-1.51-10.68,2.97-15.09,4.79-3.32,22.5-20.37,40.89-42.51,42.34-7.62.5-14.99.1-20.92-4.29-2.62-1.94-2.69-6.61-2.27-9.79,3.47-25.97,36.49-43.3,62.51-35.1l7.14-2.94c-19.09-7.62-36.38-16.43-53.83-25.97-5.59-.8-11.25-.67-16.83.15-2.37,0-7.17-.57-9.04,1.88-5.66,7.42-10.7,15.11-18.55,20.34-7.67,5.11-15.73,9.39-24.25,10.09-5.71.47-11.43.45-17.13-.06-5.94-1.2-11.22-3.31-17.01-6.14s-9-8.75-5.52-14.77c16.41-28.35,53.83-34.1,81.64-17.14,4.34-1.39,8.32-1.38,13.25-1.2-1.24-3.73-4.42-5.02-7.36-7.05-15.73-10.88-30.54-22.23-43.66-36.23-9.28-2.85-18.26-4.39-28.16-3.55-9.83,11.81-23.33,18.44-38.05,20.16-4.4.58-8.76.49-13.07-.26-16.3,0-39.61-13.59-38.82-23.94.86-11.33,22.98-22.12,37.81-22.11,3.99-.71,8.02-.81,12.1-.3,14.83,2.05,29.46,7.35,39.92,18.3,3.93.48,7.95.72,12.07.74,1.65.54,4.15.76,6.39.68-11.96-14.13-22.03-27.81-30.02-43.51-36-10.18-55.35-45.9-50.75-82.01.75-5.91,2.1-12.5,6.74-16.3,3.64-2.99,9.69-1.38,13.73.42,22.08,9.87,39.82,38.75,39.84,61.08Z"/>
      <g>
        <path class="cls-17" d="M164.16,724.6l-9.07.75c-3.17.26-5.69-.34-8.06-.82l17.13.06Z"/>
        <path class="cls-12" d="M123.02,524.89c8.93,17.84,11.56,37.47,5.63,56.11-34.99-12.17-52.69-51.98-40.37-85.5,13.41,1.24,28.43,16.8,34.73,29.39Z"/>
        <path class="cls-2" d="M205.23,554.28c18.24,22.03,17.42,53.32.36,77.1-22.04-19.12-26.66-52.39-10.68-76.93,1.24-1.9,3.12-2.92,4.7-3.1,2.18-.25,4.02,1,5.62,2.93Z"/>
        <path class="cls-16" d="M60.9,639.4c-1.82-1.58-2.81-3.31-3.01-4.66-.9-6.24,29.22-24.71,60.88-10.15,5.92,2.72,11.39,5.58,15.34,10.26-19.37,20.87-51.85,23.05-73.21,4.55Z"/>
        <path class="cls-10" d="M199.39,691.19c-23.9,41.7-70.98,23.2-68.46,17.14,9.47-22.73,45.23-31.1,68.46-17.14Z"/>
        <path class="cls-24" d="M258.75,755.93c-13.63,10.47-32.88,8.34-34.34,4.27-.4-1.12-.58-3.25-.05-4.82,6.94-20.61,28.9-32.82,51.25-28.11-1.57,10.96-7.56,21.52-16.86,28.67Z"/>
        <path class="cls-15" d="M276.94,628.35c18.02,12.86,20.13,42.58,8.11,62.21-18.66-12.83-23.31-39.94-14.17-60.18.55-1.22,1.52-2.09,2.19-2.44,1.06-.54,2.65-.46,3.86.4Z"/>
      </g>
    </g>
    <g>
      <path class="cls-18" d="M314.83,559.84c-.31-3.34-.41-6.74-.3-10.18-31.52-11.25-50.87-31.87-55.92-65.07-2.17-14.29,3.2-31.87,8.86-46.15-14.27-13.68-24.79-30.37-27.17-49.99l-.08-17.96c1.47-14.94,8.06-28.71,17.57-40.11,3.59-4.3,8.14-7.33,10.28-12.46-9.32-20.57-12.7-41.2-5.07-62.22,3.35-9.23,7.27-17.89,14.15-24.95,2.4-2.47,4-5.02,6.77-7.25,9.42-7.56,19.19-13.99,30.91-17.88l.25-19.01c4.76-37.57,32.65-66.36,70.67-69.24,5.57-.42,10.44-1.25,16.34.96l7.16-17.29c3.74-9.02,10.14-16.87,17.43-23.36,24.51-21.84,55.93-24.24,85.86-11.31l11.61-11.18c12.55-12.08,39.18-21.75,54.88-18.9,6.87,1.25,13.93,1.68,20.34,4.8,12.21,5.93,26.14,14.49,33.3,25.7,10.67-4.17,20.72-7.32,31.99-8.33,22.43-2,45.21,7.06,60.17,24.1,8.77,10,14.42,21.87,18.56,34.69,25.49-3.15,52.56,5.11,69.21,25.36,10.36,12.6,17.12,26.89,18.65,43.29l.53,19.17,12.72,5.53c36.89,16.03,53.19,59.23,38.81,96.84l-4.2,11.98c3.53.73,4.42,3.48,6.18,5.23,5.14,5.1,8.99,10.3,12.64,16.51,19.65,33.4,11.03,69.85-17.06,96.38,12.47,29.15,13.07,58.4-6.52,83.91l-13.3,13.33c-8.26,6.37-17.11,10.78-26.62,14.14,2.46,40.34-21.88,75.81-61.96,83.87l38.13,127.23,22.79,78.21c.59,2.02.2,4.26-.81,5.49-1.07,1.31-3.84,2.12-6.11,1.42l-58.69-18.23-43.28-13.94-14.9,14.16-14.98,14.02-16.98,15.98-16.85,16.11c-1.88,1.8-4.33,2.94-5.89,5.13-1.87,2.62-4.45,3.28-7.65,2.75-2.43-.4-3.81-2.74-4.72-6.02l-40.01-144.45-5.05-19.5c-4.86,1.36-9.53,3.02-14.7,3.06l-17.25.12-14.93,54.76-20.06,71.81-9.55,35.4c-.79,2.92-2.82,6.05-6.04,5.6-4.1-.57-6.75-3.76-9.53-6.35l-16.61-15.42-17.98-16.98-17.96-16.94-13.21-12.59-56.56,17.82-47.36,14.49c-2.03.62-3.96-1.27-4.74-2.44-1.31-1.94-1.1-4.07-.31-6.72l43.81-147.77,16.04-53.22c-22.17-2.22-40.46-9.12-55.44-25.78-12.43-13.71-19.35-31.55-20.27-50.16Z"/>
      <path class="cls-19" d="M314.83,559.84c-.55-.57-.94-1.32-.94-2.38l.64-7.79c1.1,2.99.12,6.49.3,10.18Z"/>
      <path class="cls-4" d="M650.53,871.73l-11.12-38.52-34.41-124.13c12.92-5.62,23.26-13.9,33.01-23.79,15.27,6.63,31.49,9.81,48.23,7.56,32.03-5.56,52.94-27.36,63.36-57.87l15.04-.6,38.96,129.76,21.21,72.47-96.74-30.66c-3.02-.96-5.58-1.5-8.09.71l-69.46,65.07Z"/>
      <path class="cls-7" d="M544.3,762.46l-30.56,109.82-68.51-64.37c-2.21-2.33-4.74-3.21-7.84-2.04l-98.45,31.35,39.76-134.08,20.37-67.38c1.16-.35,2.59-.42,3.56-.05,12.61,37.95,42.89,63.19,83.86,57.97,10.1-1.29,19.25-4.55,29.3-7.98,11.42,13.18,25.16,22.32,42.32,26.6l-13.8,50.16Z"/>
      <g>
        <path class="cls-8" d="M608.34,698.48c-25.02,13.35-55.18,9.59-76.36-8.32l-9.78-9.31c-2.74-2.61-5.92-4.21-9.57-2.7-30.53,12.63-62.65,11.62-84.99-13.7-8.68-9.83-13.85-21.36-18.23-33.78-1.11-3.15-5.32-3.7-8.53-3.43-23.55,1.99-46.28-6.25-61.42-24.42-12.53-15.05-17.91-33.96-16.84-53.4.22-3.97-2.12-6.09-5.5-7.25-10.05-3.47-18.97-8.05-26.94-15.02-14.99-13.1-24.12-31.47-23.57-51.7.34-12.54,3.99-24.15,8.88-35.36,1.2-2.74.11-4.64-1.72-6.45-8.42-8.37-15.55-17.63-20.4-28.48-13.52-30.22-2.08-60.06,21.92-81.24,1.99-1.75,2.01-4.38,1.01-6.73-4.86-11.38-8.98-22.87-9.22-35.54-.62-32.09,20.37-59.04,50.75-68.18,3.48-1.05,5.41-3.02,5.1-6.8-1.09-13.14.26-25.75,5.06-37.98,11.72-29.85,41.99-47.39,73.86-42.97,2.28.32,6.83-.06,7.56-2.39,3.94-12.73,8.83-24.37,17.65-34.4,14.75-16.75,36.3-24.97,58.54-21.83,8.64,1.22,16.64,3.86,24.58,7.18,3.73,1.56,6.9.12,9.39-2.79,8.74-10.18,19.07-18.47,31.76-23.11,28.39-10.39,55.89.39,74.93,22.8,2.68,3.15,5.78,4.59,9.87,2.9,30.45-12.54,61.38-10.7,83.29,14.93,7.82,9.15,13.01,19.68,16.48,31.34,1.09,3.65,3.84,5.54,7.71,5.07,18.62-2.28,37.33,1.47,52.42,12.83,20.66,15.56,30.13,40.69,27.65,66.4-.35,3.58.24,6.8,3.93,7.83,30.29,8.42,52.68,35.16,52.81,67.03.1,23.16-12.97,39.52-8.88,42.99,23.13,19.62,35.7,48.76,24.99,78.14-4.54,12.47-12.24,22.95-21.61,32.17-2.62,2.58-2.78,5.55-1.43,8.67,4.15,9.6,7.26,19.27,7.96,29.93,2.06,31.38-17.38,58.71-46.9,69.07-3.35,1.18-7.71,2.81-7.58,7,.42,12.91-1,25.32-6.12,37.09-11.92,27.39-38.37,43.57-68.36,42.05-2.68-.14-7.75-.2-8.98,2.47l-9.79,21.29c-20.24,33.45-55.64,43.35-91.09,28.02-4.23-1.83-7.99-1.74-11.18,1.65-6.75,7.17-13.8,13.45-23.1,18.41Z"/>
        <g>
          <circle class="cls-21" cx="574.27" cy="376.8" r="273.84"/>
          <circle class="cls-22" cx="574.28" cy="376.88" r="257.08"/>
          <circle class="cls-20" cx="574.28" cy="376.88" r="248.65"/>
          <g>
            <g>
              <path class="cls-23" d="M458.13,394.23l-18.98.29.06-26.07,18.33.22c7.37.09,12.24,5.59,12.49,12.36.24,6.59-4.03,13.07-11.89,13.19Z"/>
              <path class="cls-14" d="M455.99,350.05l-16.77.49v-23.99s15.49.06,15.49.06c6.23.02,10.52,4.91,11.05,10.59s-3.03,11.55-9.77,12.86Z"/>
            </g>
            <path class="cls-9" d="M739.74,469.91c.43,7.08-3.4,12.83-9.93,12.88l-12.46.1-.06-23.99,12.08-.1c6.02-.05,9.99,4.7,10.38,11.11Z"/>
            <g>
              <path class="cls-13" d="M574.04,258.99l-29.39,15.6c-1.77.94-4.21.38-5.75-.54-1.29-.77-2.63-3.07-2.2-5.44l5.98-32.44-20.71-20.69c-1.86-1.85-3.1-3.44-2.35-6.25.42-1.58,1.99-3.77,4.53-4.17l30.93-4.94,12.26-25.81c1.16-2.44,1.94-4.39,4.63-5,1.78-.4,4.89-.35,6.09,2.1l14.06,28.69,31,5.02c2.23.36,3.71,2,4.22,3.52.59,1.77.54,4.13-.98,5.68l-21.96,22.25,6.14,31.27c.46,2.35-.25,4.47-1.58,5.63-1.39,1.22-4.23,2.37-6.24,1.27l-28.68-15.75Z"/>
              <polygon class="cls-25" points="574.07 250.19 545.39 265.28 551.24 233.65 529.7 211.99 560.04 207.12 573.58 179.64 587.16 207.16 617.47 212.24 596.02 234.28 602.13 265.5 574.07 250.19"/>
            </g>
          </g>
        </g>
      </g>
    </g>
  </g>
  <g>
    <path class="cls-11" d="M444.21,387.24l-.11-1.47,4.18-77.06,1.02-1.02,17.74-.34,16.5,1.58,7.8,1.81,3.73,1.81,3.39,3.84,3.16,4.97,1.58,4.18v9.38l-2.26,3.95-3.05,3.73-5.2,3.05,3.96,2.26,5.99,6.67,2.03,3.73.45,2.03v7.8l-1.24,4.86-1.69,4.07-2.37,2.71-4.52,4.18-3.28,1.81-2.94,1.02h-13.22l-6.1-.45-24.18,2.03-1.36-1.13ZM469.63,370.97h8.81l2.03-.9,1.69-1.36,1.24-2.71v-4.52l-.9-1.81-2.26-2.26-3.28-1.02h-5.08l-2.26.45v14.12ZM470.65,339.89l4.52-2.26,2.94-2.6,1.02-1.47.45-2.82-.68-3.96-1.69-2.26-2.71-1.24h-3.84v16.61Z"/>
    <path class="cls-11" d="M515.28,385.65v-1.47l-.56-5.76v-21.69l2.82-47.23.56-.68,6.89-.79,37.96.34,1.69.34,3.05.23.79,8.25v14.24l-.79.79-28.47-1.02-.34,9.83,4.97-.57h12.77l1.36.79.68,1.36v8.36l-.56,8.02-.68,2.37-1.24.57-12.88-.57-3.16-.56-.79,7.34,28.02.68,1.24.68.56,2.26.45,12.99.23.45v.68l-.34,1.47h-38.42l-15.25-1.02-.56-.68Z"/>
    <path class="cls-11" d="M588.83,385.2l-9.72-1.47-3.5-1.24-.9-.79v-5.2l2.71-14.8.79-1.81h4.86l5.54.34,8.81,2.83,3.96.56,3.73-.45,3.73-.79.45-1.24-.45-2.03-1.36-2.03-7.91-.45-14.01-4.52-6.33-3.39-2.82-3.28-1.24-5.76.56-8.02.79-3.95,2.26-5.76,4.41-5.76,3.05-2.26,5.08-2.6,6.33-2.03h9.83l12.88,1.92,5.42,2.26,1.02,1.02,4.18,1.47.9.79v2.71l-3.5,8.93-1.13,6.1-1.02,1.02-4.52-.34-4.41-1.81-8.93-2.83h-3.5l-1.36,1.36-.9,4.75,1.36,1.36,3.05,1.24,9.49,1.58,5.65,1.36,5.54,3.62,2.6,3.96,2.03,3.95,1.13,4.18v10.51l-1.02,4.63-1.58,3.05-1.58,1.69-6.44,4.18-6.44,2.49-7.34,1.81h-11.64l-3.73-.68-4.86-.34Z"/>
    <path class="cls-11" d="M659,382.83l-.56-14.69.68-18.19.9-8.36v-6.78h-7.23l-6.78,1.02-4.75-.34-.45-2.37.79-20.22.45-1.92.79-.9,4.52-.79,17.85,1.02,38.19-.9,8.47.79,1.02.56.45,1.13-.34.79-.45,23.73-.68,1.24h-10.73l-7.46.45-3.5-.45-2.82-.68-.11,46.55-.68,1.24-1.02.45h-3.96l-1.36-.34h-13.11l-4.18.68h-2.6l-.79-.34-.56-2.37Z"/>
    <path class="cls-11" d="M399.3,482.05l-9.72-1.47-3.5-1.24-.9-.79v-5.2l2.71-14.8.79-1.81h4.86l5.54.34,8.81,2.83,3.96.56,3.73-.45,3.73-.79.45-1.24-.45-2.03-1.36-2.03-7.91-.45-14.01-4.52-6.33-3.39-2.82-3.28-1.24-5.76.56-8.02.79-3.95,2.26-5.76,4.41-5.76,3.05-2.26,5.08-2.6,6.33-2.03h9.83l12.88,1.92,5.42,2.26,1.02,1.02,4.18,1.47.9.79v2.71l-3.5,8.93-1.13,6.1-1.02,1.02-4.52-.34-4.41-1.81-8.93-2.83h-3.5l-1.36,1.36-.9,4.75,1.36,1.36,3.05,1.24,9.49,1.58,5.65,1.36,5.54,3.62,2.6,3.96,2.03,3.95,1.13,4.18v10.51l-1.02,4.63-1.58,3.05-1.58,1.69-6.44,4.18-6.44,2.49-7.34,1.81h-11.64l-3.73-.68-4.86-.34Z"/>
    <path class="cls-11" d="M454.1,482.5v-1.47l-.56-5.76v-21.69l2.82-47.23.56-.68,6.89-.79,37.96.34,1.69.34,3.05.23.79,8.25v14.24l-.79.79-28.47-1.02-.34,9.83,4.97-.57h12.77l1.36.79.68,1.36v8.36l-.56,8.02-.68,2.37-1.24.57-12.88-.57-3.16-.56-.79,7.34,28.02.68,1.24.68.56,2.26.45,12.99.23.45v.68l-.34,1.47h-38.42l-15.25-1.02-.56-.68Z"/>
    <path class="cls-11" d="M526.07,483.52l-6.1-.23-1.36-.68-.34-4.07v-37.63l2.03-34.8.56-1.02,6.67,1.02h6.89l7.57-.79,4.97.79,1.13,1.13-1.13,8.02v39.43l22.49.57,1.02.45.34,1.02.45,24.18-1.02,1.13-3.84,1.02-7.23.34-12.09-.34-2.15-.45-10.96,1.58-5.88-.45-2.03-.23Z"/>
    <path class="cls-11" d="M586.4,483.52l-6.1-.23-1.36-.68-.34-4.07v-37.63l2.03-34.8.56-1.02,6.67,1.02h6.89l7.57-.79,4.97.79,1.13,1.13-1.13,8.02v39.43l22.49.57,1.02.45.34,1.02.45,24.18-1.02,1.13-3.84,1.02-7.23.34-12.09-.34-2.15-.45-10.96,1.58-5.88-.45-2.03-.23Z"/>
    <path class="cls-11" d="M639.51,482.5v-1.47l-.56-5.76v-21.69l2.82-47.23.56-.68,6.89-.79,37.96.34,1.69.34,3.05.23.79,8.25v14.24l-.79.79-28.47-1.02-.34,9.83,4.97-.57h12.77l1.36.79.68,1.36v8.36l-.56,8.02-.68,2.37-1.24.57-12.88-.57-3.16-.56-.79,7.34,28.02.68,1.24.68.56,2.26.45,12.99.23.45v.68l-.34,1.47h-38.42l-15.25-1.02-.56-.68Z"/>
    <path class="cls-11" d="M733.06,456.29h-4.07v5.88l1.92,18.42-.45,1.13-1.02,1.02-2.71.79-19.32-.9-1.92-.68-.45-22.94-1.36-15.37v-31.07l.45-1.58,4.41-1.02,6.55-.9,2.71-.68,8.7-1.24,4.41-.9,8.47-.45h9.6l5.99,1.47,3.73,1.81,4.29,3.5,3.5,4.63,2.37,4.63,1.13,5.2v7.23l-.56,3.62-1.36,3.16-3.39,5.2-4.07,3.16-2.71,1.7,11.64,28.59v1.69l-3.28,1.7h-19.66l-2.94.45-1.81-.45-8.81-26.78ZM733.17,436.97l4.86-.68,4.52-.23,4.97-1.36.68-4.18v-3.28l-.23-1.02-1.24-1.13-3.16-.68h-8.14l-10.85,1.02,1.13,11.53h7.46Z"/>
  </g>
</svg>