<?xml version="1.0" encoding="UTF-8"?>
<svg id="Layer_1" data-name="Layer 1" xmlns="http://www.w3.org/2000/svg" viewBox="0 0 924.67 725.26">
  <defs>
    <style>
      .cls-1 {
        fill: #969b53;
      }

      .cls-2 {
        fill: #f39e64;
      }

      .cls-3 {
        fill: #939952;
      }

      .cls-4 {
        fill: #7b4c28;
      }

      .cls-5 {
        fill: #f59c63;
      }

      .cls-6 {
        fill: #f69864;
      }

      .cls-7 {
        fill: #fbe5c6;
      }

      .cls-8 {
        fill: #4b2b13;
      }

      .cls-9 {
        fill: #f9e3c5;
      }

      .cls-10 {
        fill: #fad0a7;
      }

      .cls-11 {
        fill: #969c55;
      }

      .cls-12 {
        fill: #fed4ac;
      }

      .cls-13 {
        fill: #492a13;
      }

      .cls-14 {
        fill: #979c54;
      }

      .cls-15 {
        fill: #969b54;
      }

      .cls-16 {
        fill: #f39859;
      }

      .cls-17 {
        fill: #f49967;
      }

      .cls-18 {
        fill: #fdd3aa;
      }

      .cls-19 {
        fill: #f69c68;
      }

      .cls-20 {
        fill: #fed3ab;
      }

      .cls-21 {
        fill: #fdd4ac;
      }

      .cls-22 {
        fill: #949853;
      }

      .cls-23 {
        fill: #4c2b13;
      }

      .cls-24 {
        fill: #f79869;
      }

      .cls-25 {
        fill: #fed4ab;
      }

      .cls-26 {
        fill: #7a4c28;
      }
    </style>
  </defs>
  <path class="cls-24" d="M690.65,114.25c-10.21,21.54-42.65,28.34-66.42,33.45-2.26.49-7.11,1.96-8.63-.58-6.63-11.08-11.78-22.57-16.54-34.51-6.73-16.88-9.39-36.96,2.18-50.72,8.94-10.64,23.86-12.57,34.87-4.34,7.92,5.92,11.48,14.71,12.27,24.49,11.28-8.76,24.98-9.09,35.09-1.32s12.88,21.54,7.19,33.55Z"/>
  <path class="cls-17" d="M525.77,215.94c-.23,3.35-1.84,5.22-4.36,5.27-3.01.06-4.62-2.3-4.37-5.61l2.3-30.86c.21-2.77,1.9-4.48,4.26-4.53,2.09-.04,4.51,1.71,4.32,4.45l-2.15,31.28Z"/>
  <path class="cls-19" d="M495.67,220.47c1.64,2.57,1.27,4.87-.13,6.17-1.93,1.8-5.34,1.59-6.81-.77l-13.43-21.57c-1.32-2.13,0-4.88,2.01-5.88,1.45-.72,3.96-.55,5.34,1.63l13.02,20.43Z"/>
  <path class="cls-6" d="M553.05,231.02c-2.04,2.32-5.14,1.41-6.27.17-1.83-2.02-1.33-4.48.45-6.48l15.98-17.99c1.56-1.75,4.1-1.37,5.55-.27s2.39,3.97.86,5.72l-16.57,18.86Z"/>
  <path class="cls-16" d="M418.09,681.7c-17.88,11.8-45.77,17.04-67.98,20.66l-13.21,2.15c-33.2,5.4-66.27,5.26-99.91,2.45-49.42-4.13-106.66-18.25-147.3-46.96-.98-2.82-.76-5.45-2.57-7.31-.19-2.85,1.12-5.65,3.92-8.41,13.41-12.58,19.68-69.59-10.2-47.15l-2.28-.39c-1.06-1.13-1.15-2.47-1.22-4.12l-.9-20.37c-.34-1.39-.09-3.01.76-4.87.76-44.54,2.21-89.17,6.14-133.45,2.68-30.19,11.94-61.87,31.16-85.59,19.55-24.13,49.03-40.86,78.13-50.79,9.3,18.2,21.29,32.56,38.75,43.55,26.38,16.62,76.67,26.86,83.22-14.16,1.19-1.86,1.53-1.92,3.71-2.03,3.14-.17,31.99,18.31,34.3,20.28,8.8,7.53,16,16.83,21.71,26.88,2.99,5.26,8.39,15.4,9.3,21.03.28,1.73.42,2.87-.87,4.11l-67.36,46.1c-4.94,3.35-10.14,6.17-15.59,8.48-32.99-21.74-63.85-44.92-92.58-69.53-3.06-.81-4.46,1.63-1.82,3.94,30.57,26.66,61.94,50.78,94.93,71.29,11.01-5.69,21.81-12.36,32.4-20.01,29.86-21.02,59.34-41.14,88.44-60.38,16.83,11.47,32.3,28.6,45.46,44.68,6.36,5.63,9.2,11.53,8.54,17.68-36.39,45.7-78.83,94.36-128.59,125.67-17.66,11.11-36.5,16.76-57.4,14.05-60.34-7.82-119.06-57.41-162.34-97.39-2.59.02-3.55,2.64-1.52,4.57,40.48,38.46,96.2,83.38,151.61,95.49,22.42,4.9,44.62,3.03,64.81-8.6,2.23-1.05,3.24-.08,4.49,1.63l-4.18,123.56c.41,1.32,3,1.91,4.02.8,1.85-43.7,3.67-87.53,5.44-131.47,19.17-13.24,36.93-27.6,53.3-43.07,4.13-.48,5.41,1.08,4.96,6.48,6.13,48.32,8.86,97.04,9.19,145.7.67,2.05.38,3.66-.87,4.83Z"/>
  <path class="cls-8" d="M804.8,695.84l-2.04-.81-.94-19.55c-4.44,9.81-10.01,19.53-18.37,26.46l-4.49,1.43c-13.63,10.54-31.3,12.02-47.54,6.8-9.04.5-17.75-5.28-25.12-10.24-14.1-9.48-26.19-22.13-36.33-35.68-22.25-3.77-50.65-35.45-30.51-55.43-1.83-8.96,5.45-16.25,12.2-20.95,3.48-13.11,16.77-18.64,28.02-10.95,21.61-6.98,35.45,22.15,35.68,40.29,2.94,2.12,5.92,3.79,8.94,5l8.14-40.48c.81-3.77,2.6-6.16,5.38-7.18,1.99-3.98,7.12-.58,8.13,3.18l-8.91,44.74c25.1,4.73,50.67,9.67,74.54,18.66l-.7-2.8c4.47-27.6,6.12-57.88-5.44-84.01-2.38-5.38-12.88-21.55-17.66-23.55-.41-.17-6.98,2.22-8.44,2.8-16.2,6.37-23.75,21.39-30.96,36.26-3.24,2.89-9.65,1.58-8.55-3.46l-1.47-2.24c5.88-18.02,19.01-33.72,36.06-42.18-5.5-3.18-11.02-6.15-16.55-8.9-18.5,36.37-98.73,47.7-93.55-8.37-3.03-.86-5.19-2-6.45-3.42-22.54,24.27-35.53,55.61-41.69,87.88s-9.83,65.91-12.48,99.2l-1.55,4.49-4.22,1.44c-2.23.74-4.45-1.97-4.32-4.79,1.69-38.06,6.12-75.42,14.39-112.72-17.15-12.74-33.33-25.78-47.9-41.11-1.92-2.02-2-5.04-1.5-7.47l4.8-14.59c-28.84-30.15-44.26-64.69-56.23-104.03-.71-2.33-1.67-4.08-4.41-5.08-5.16,9.96-13.21,17.55-22.85,23.81,4.34,5.94,3.33,11.9-.84,17.44-19.54,25.94-41.45,49.38-64.43,72.58,3.87,25.23,6.92,49.08,7.79,74.18l2.99,86.03c-.34,2.11-1.6,3.07-2.88,3.37-1.5.35-3.22-.12-4.43-.2-.69-1.56-1.12-2.94-1.14-5.23-.38-50.59-3.24-100.41-9.95-151.06l-27.15,23.93c-8.41,7.41-16.97,13.64-26.87,19.48l-4.31,128.08c-.09,2.73-1.15,4.37-3.12,4.82-1.58.36-5.58-.54-5.49-3.33l4.17-124.28c-37.86,22.03-74.42,11.23-111.48-6.35-40.27-20.28-76.07-48.07-108.38-79.47-1.69-1.65-2.62-3.66-1.92-5.69.55-1.61,3.84-4.08,5.85-2.13,40.24,39.07,100.51,85.61,155.79,95.92,20.16,3.76,39.22.06,56.69-10.11,16.77-9.76,31.22-21.26,45.83-34.25,31.36-27.88,59.71-58.23,85.48-91.26,2.54-3.26,1.84-5.8-.36-8.89-10.78-15.1-23.33-28.31-36.87-41.01-4.49-4.21-8.21-8.63-13.77-11.99l-41.23,28.57c-24.5,16.97-48.12,33.81-73.51,49.36-1.63,1-5.08,3.39-6.96,2.44l-33.75-22.3c-21.92-14.48-41.01-31.83-61.05-48.78-2.18-1.84-3.59-3.48-1.84-6.43.86-1.46,3.84-2.57,5.98-.82l29.21,23.87c19.96,16.32,40.14,31.28,62.16,45.28l13.61-8.01,68.48-46.86c-7.46-23.64-23.2-46.77-45.38-58.35l-20.22-10.55c-.35,13.31-8.73,24.12-21.41,28.49-36.84,12.7-88.8-18.3-102.99-55.68-72.95,29.24-101.54,66.69-107.78,144.7-3.31,41.38-4.4,82.17-5.22,123.71-.05,2.64-1.27,3.75-2.76,4.75-2.77.36-5.65-1.23-5.61-4.73.51-39.55,1.45-78.31,4.23-117.81,1.23-17.43,3.15-33.36,7.12-49.97,14.44-60.52,59.2-91.74,115.31-111.66,4.98-12.27,7.76-24.36,10.03-37.48-6.93-8.66-11.79-17.7-15.46-28.35-12.68-3.24-22.33-12.14-27.21-24.49-5.57-14.1-4.33-29.68,4.66-41.87-10.93-35.95-7.74-72.88,17.19-100.54,14.15-15.7,33.13-24.72,54.3-23.51C261.5,6.77,294.61-.4,325.31,8.39c13.13,3.76,24.79,10.21,35.77,18.14,9.78,7.06,20.87,10.57,33.05,9.33l13.89-1.42c8.57-.88,15.31,4.51,17.71,12.55,2.72,9.07,1.86,18.19-.7,27.56l9.42,3.58c7.46,2.84,12.59,8.64,14.64,16.61,5.06,19.65-1.72,40.38-16.9,53.94-.95,19.68-10.21,36.71-25.69,48.06-6.58,32.15-14.77,62.97-37.22,87.01-13.62,14.59-31.1,23.96-50.53,27.13-1.03,2.48-1.55,4.78-1.08,6.91,36.13,14.92,58.4,34.3,71.77,71.8l24.24-16.38c4.06-2.74,8.32-3.26,13.35-1.35l14.3-38.03c9.3-24.73,21.69-55.84,38.86-75.08,4.5-5.05,10.05-8.23,16.82-8.57,5.12-.25,7.32,2.91,10.8,5.67,2.24,1.77,6.2,1.96,7.5,6.04,15.58-6.45,23.37,13.1,28.31,29.34,8.66,28.46,12.32,57.33,13.28,87.23,13.29,25.13,28.25,48.08,46.95,69.65,4.9.21,7.92,2.49,13.17,5.78-3.01-11.78-4.41-23.07-3.08-35.35,1.24-11.51,5.16-21.93,7.92-33l5.93-23.77c-8.67-16.03-8.43-35.19.46-50.97,6.74-11.97,17.61-20.09,31.09-23.01,37.37-37.14,114.93-24.15,143.49,19.22,12.2,1.82,23.05,7.13,32.26,15.61,34.51,31.76,31.61,87.61,1.21,122.1-6.58,6.97-13.58,12.38-21.72,17.46-5.9,10.71-15.3,18.84-27.4,21.4-9.43,6.12-19.44,10.15-30.52,11.52-.61,2.36-.66,4.58.04,6.81,32.7,12.33,57.05,30.88,64.7,66.39,5.45,25.3,4.14,51.13-.95,76.46-.93,4.62-4.57,7.05-9.53,6.8l2.16,40.99c.11,2.07-1.49,3.5-2.72,4.01-1.88.78-3.96-.37-5.57-.73Z"/>
  <path class="cls-4" d="M401.42,99c1.48,30.13-70.72,45.37-120.01-5.71-1.16-1.2-2.41-1.74-3.73-1.61-1.13.11-3.34,1.05-3.73,2.87-4.63,21.82-18.07,39.84-39.95,45.81-3.82,1.04-4.2,3.88-4.79,7.23-1.46,8.34-4.4,16.01-7.59,24.21-3.04-7.28-5.63-14.35-11.38-19.19-9.7-8.17-22.04-9.63-33.4-2.63-10.09-34.64-4.5-71.55,22.55-94.91,11.93-10.3,25.99-15.81,41.7-14.48,2.59.22,4.79-.81,6.3-2.76,10.83-14.01,26.69-21.84,44.49-23.69,22.34-2.32,43.68,4.53,61.79,17.81,30.57,22.43,52.47,7.33,60.19,12.17,7.29,4.57,5.42,19.01,2.43,29.63-1.13,4,.44,8.03,4.42,9.24l9.91,3c15.94,4.83,13.86,32.27,4.05,47.08l-10.72,11.52c-.14,14.32-4.27,27.99-15.12,38.36,4.1-23.23,3.34-45.29-3.98-66.89,4.88-6.74,7.65-16.16,2.1-22.76-1.93-2.29-5.66,3.26-5.54,5.68Z"/>
  <path class="cls-21" d="M289.21,347.65c-33.26,7.53-75.43-18.94-89.03-50.63,2.23-1.85,4.52-3.29,5.54-5.86,4.8-13.58,8.63-27.13,10.73-41.42-4.62-9.91-8.03-19.52-9.32-30.17-.25-2.04.04-3.84-1.63-4.95-2.56-1.71-21.07,3.42-31.26-17.27-5.3-10.76-5.9-22.92.34-33.2,3.26-5.38,8.28-9.08,13.91-9.92,6.22-.92,12.6,1.08,17.15,5.79,10.05,10.4,6.69,22.27,15.88,21.82,2.34-.12,4.43-1.55,5.87-4.03,5.09-9.53,8.07-19.5,10.68-30.07,20.91-6.25,35.57-22.46,42.07-43.9,31.18,29.07,81.06,43.57,117.97,19.11,4.06,13.34,5.66,26.17,4.57,39.7-2.13,26.38-7.81,51.87-16.78,76.69-11.12,30.76-35.2,58.03-68.21,62.7-23.11,3.27-45.63-3.26-64.56-16.48-2.3-1.6-3.97-2.05-5.61-.9-1.77,1.25-2.73,4.79-.77,6.29,18.25,13.96,39.92,21.1,62.86,20.76-2.15,7.71-1.69,14.05-3.02,20.62-1.66,8.15-9.73,13.59-17.35,15.32Z"/>
  <path class="cls-12" d="M488.8,332.24c4.97-13.04,10.27-25.63,17.02-37.73.84-1.5,3.52-2.37,4.68-2.1,3.73.87,3.86,9.6,2.35,16.97-4.14,20.19-6.53,39.91-8.5,60.39-2.13,22.04-11.2,40.45-29.79,51.59-12.4-15.79-25.4-29.76-40.72-43.24l14.27-37.55c7.02-18.47,13.92-36.23,23.39-53.54,7.12-11.33,17.36-31.81,28.45-27.63-4.11,3.43-6.63,6.77-9.28,10.84-9.79,15.03-17.79,30.72-24.59,47.42-.88,2.15.09,4.39,1.99,5.25,1.26.57,3.66.31,4.61-1.76,8.31-18.23,16.9-36.08,28.57-52.26,1.32-1.83,3.51-2.74,5.29-2.5,4.24.58,3.9,9.53,1.69,17.37-4.41,1.23-7.63,4.07-9.88,8.16-6.82,12.43-12.24,25.32-16.97,38.75-.66,1.87,1.38,3.46,2.51,3.78,1.71.48,4.08-.01,4.92-2.23Z"/>
  <path class="cls-10" d="M538.26,304.5c-7.05-3.2-13.03.07-17.23,6.58,1.19-9.55,2.25-17.7-4.01-24.8,1.06-5.04-.26-11.34,2.06-15.75,1.61-3.05,6.36.06,7.67,2.42,5.54,10.04,8.76,20.32,11.51,31.55Z"/>
  <path class="cls-20" d="M760.95,477.2l-11.8,12.22c-2.54,5.77-.81,12.85-.54,19.12-12.68,18.29-35.53,27.73-57.35,23.13-12.76-2.69-19.97-13.94-16.16-26.22,12.54,3.02,24.85,3.45,37.02.23,1.98-.52,2.67-3.06,2.61-4.48s-1.65-3.59-3.73-3.28c-38.79,5.79-75.23-11.25-85.99-49.26-4.33-15.28-3.29-30.87.94-46.28l8.61-31.35c3.34-12.18,8.07-23.36,16.09-32.85,9.8,6.37,20.65,6.74,31.35,3.25,11.91,21.24,35.09,30.41,58.75,27.93,3.66,10.13,10.47,17.14,19.38,21.96-1.83,12.97-.84,24.98,3.5,36.78-.07,2.33,1.3,4.3,2.57,5.06,5.97,3.58,9.71-6.32,21.91-7.63,10.36-1.11,19.24,5.94,20.58,16.53,1.83,14.5-7.53,28.28-21.46,32.6-13.07,4.06-18.5-4.44-23.02-2.59-1.85.75-2.2,2.45-3.24,5.14Z"/>
  <path class="cls-26" d="M764.61,383.99c-17.37-7.22-15.62-25.17-22.48-23.48-6.21,1.53-11.92,1.08-18.15.11-16.43-2.57-30.46-12.64-36.9-27.99-.93-2.21-2.68-2.88-4.37-3.11-2.4-.33-2.85,2.43-4.36,3.4-7.91,5.08-18.03,2.24-24.94-3.66-2.03-1.74-3.16-2.77-5.48-2.43-2.99.45-2.7,3.67-3.98,5.48-4.28,6.01-7.88,11.36-11.58,18.81-8.28-24.28,5.35-52.48,32.38-55.85,9.51-10.55,21.74-16.75,36.01-19.13,35.31-5.88,77.7,7.22,97.22,38.73,33.94,3.81,54.82,36.37,53.2,69.74-1.27,26.03-12.36,49.78-34.14,65.33,1.83-12.63-3.09-23.74-13.25-29.56s-22.68-4.45-32.99,3.79c-3.82-11.09-3.88-22.41-1.64-33.58.75-3.74-1.5-5.33-4.54-6.59Z"/>
  <path class="cls-18" d="M531.85,451.3c-7.82-16.62-13.25-32.78-18.59-49.78l-6.1-5.32c3.38-11.1,5.58-22.21,6.63-33.86,1.21-13.41,9.18-15.97,9.49-25.78.33-10.4,3.24-25.29,9.27-25,8.39.4,4.37,27.45,8.94,32.08.71.72,2.4.56,4.16.27l2.83,36.5c13.52,26.46,29.66,51.51,49.92,74.37-12.66,15.43-22.37,32.17-30.99,50.3-15.37-16.18-26.14-33.9-35.56-53.79Z"/>
  <path class="cls-9" d="M804.8,695.84c-7.38,3.92-18.46,8.62-25.84,7.53,11.77-9.1,18.92-22.27,24.44-37.12l1.4,29.59Z"/>
  <path class="cls-25" d="M799.72,647.76c-6.65,31.07-25.04,63.76-60.48,55.47-26.18-6.12-47.46-26.99-63.45-48.54-15.87-2.6-29.35-13.28-32.78-28.98-.98-4.49.73-8.17,4.74-9.4,6.19-1.89-.52-8.73,3.29-14.72,1.05-1.65,3.57-4.42,6.27-3.19,1.53,1.22,2.74,3.98,5.09,2.93,2.11-.94,3.46-3.67,2.02-6.21s-2.78-4.85-1.63-7.31,3.93-4.39,7.3-4.07c4.28.41,7.31,3.62,9.92,6.9l6.66,8.34c1.21,1.52,3.12,1.41,4.17.92,5.22-2.41.48-8.11-4.88-14.41,10.04,3.87,15.51,13.34,17.75,23.48l1.83,14.16c12.22,8.32,24.54,15.72,37.81,22.13,1.75.85,3.83-1.53,4.17-2.73,1.38-4.9-4.35-5.03-5.68-8.47l57.87,13.69Z"/>
  <path class="cls-2" d="M650.12,495.51c-20.26,19.93-31.36,45.13-39.79,72.04-16.24-11.31-29.76-23.7-43.26-37.27,7.99-25.52,22.18-52.57,40.28-72.76l17.19,11.82c6.38,10.49,14.61,18.99,25.58,26.17Z"/>
  <path class="cls-23" d="M835.41,694.3c-1.98,1.92-4.61,2.03-6.19.67-1.12-.97-1.96-4.04-.32-5.63,8.85-8.59,16.49-17.69,22.82-29.03-7.19-7.75-12.72-16.18-16.28-26.12-4.86-13.6-4.26-33.19,6.69-36.15,12.49-3.37,23.31,16.48,24.29,33.03,3.92-7.89,6.34-15.88,8.67-24.38-8.54-16.62-10.11-35.49-3.97-52.97,3.96-11.27,11.62-22.14,22.26-20.32,2.82.48,6.38,3.05,8.25,6.66,11.06,21.39.34,52.64-18.55,68.54l-6.81,21.33c11.71-10.66,34.01-16.92,41.32-7.29,6.59,8.68-1.23,20.92-10.8,28.79-13.14,10.79-30.35,14.54-47.09,12.52-7.09,11.15-14.7,21.03-24.31,30.34Z"/>
  <path class="cls-3" d="M880.49,600.75c-7.61-18.86-6.99-39.39,3.83-55.91,1.6-2.44,6.16-5.28,8.49-3.15,3.51,3.21,4.35,8.73,4.76,13.31,1.52,17.02-5.03,33.01-17.08,45.76Z"/>
  <path class="cls-22" d="M908.99,637.56c-10.35,14.28-26.03,18.8-44.01,18.92,6.12-11.36,16.47-22.58,28.21-27.75,5.4-2.38,12.7-4.61,17.81-.85,2.28,1.79-.45,7.53-2.01,9.69Z"/>
  <path class="cls-1" d="M855.91,652.72c-10.89-11.58-18.9-29.28-14.01-44.23.65-1.43,1.75-2.39,2.9-2.66s2.65.24,3.47,1.51c4.55,3.54,6.67,8.37,8.38,13.84,2.6,10,2.62,20.29-.75,31.54Z"/>
  <path class="cls-7" d="M739.83,566.38c1.81,2.47,1.78,7.54-2.01,8.18-.66,2.68-2.89,4.84-3.57,8.24l-8.65,43.16-12.23-7.63c-.28-14.7-5.89-28.65-17.53-37.35-4.99-4-10.7-4.45-16.12-1.48-5.11-4.39-11.61-5.39-17.32-2.31-5.75.55-6.75,8.56-9.31,12.07-6.8,5.08-13.09,10.55-11.9,20.27-6.9,5.58-8.19,14.83-5.06,23.08,5.77,15.19,18.83,26.28,34.94,30.07,15.81,20.6,35.91,39.65,60.36,47.5-2.87,1.24-5.84,1.4-9.47,1.63-30.82,1.95-61.22-.68-91.23-7.64-9.69-2.25-23.27-5.74-28.58-11.33,1.44-31.91,4.55-63.66,10.42-95.62,6.63-36.12,18.41-71.36,44.73-97.6l9.56,3.95c-2.61,10.97-.31,22.46,8.63,29.64,22.98,18.45,65.54,4.83,81.9-21.78,7.76,2.78,14.86,6.23,21.86,11.48-18.14,4.48-35.41,27.18-39.41,43.47Z"/>
  <path class="cls-5" d="M737.82,574.56l2.01-8.18c-.06,2.16,6.14,4.07,6.99,2.29,9.69-20.35,18.46-35.35,41.43-39.7,9.71,7.75,16.26,17.44,20.8,28.63,9.77,26.23,8.3,57.3,3.1,84.95-25.73-7.84-51.01-13.72-77.43-18.7l9.23-45.42c.55-2.69-4.13-4.1-6.13-3.88Z"/>
  <path class="cls-13" d="M78.54,596.73c4.19-5.33,11.72-8.82,17.84-6.16,2.61,1.14,4.88,4.05,6.13,7.74,6.15,18.14-2.92,39.94-15.41,54.37l-5.41,6.26c8.11,11.79,18.13,21.74,29.37,30.62,2.09,1.65,1.79,4.11.89,5.52-1.06,1.66-3.89,2.64-5.64,1.3-14.33-10.94-25.89-24.01-36.39-39.12-23.16,7.09-55.4-.61-65.36-21.01-3.03-6.2-1.25-13.28,4.8-16.36,15.54-6.51,32.19.55,44.69,10.42l-9.59-23.25c-20.93-13.3-34.56-40.32-28.54-64.46,1.1-4.39,3.66-7.83,6.84-9.07,10.64-4.18,20.72,5.52,26.53,16.93,8.54,16.75,8.47,35.98,2.58,53.83,4.64,11.97,9.37,22.99,15.8,33.76-.64-15.41,1.76-29.77,10.85-41.32Z"/>
  <path class="cls-14" d="M43.36,556.33c5.54,13.22,6.35,28.05,2.07,41.93-17.22-11.9-29.15-41.63-20.31-56.74,2.76-4.72,13.29,3,18.24,14.81Z"/>
  <path class="cls-15" d="M63.21,650.48c-19.07,3.75-40.6-.97-51.16-16.78-.83-1.68-1.21-3.6-.54-5.1,2.38-5.29,18.83-3.89,28.63,1.95,8.94,4.76,16,11.49,23.07,19.93Z"/>
  <path class="cls-11" d="M95.49,601.24c4.68,17.19-5,36.05-17.7,49.88-4.36-18.32-3.46-40.03,10.18-52.54,1.2-1.1,3.04-1.37,4.47-1.07,1.24.26,2.52,1.79,3.05,3.74Z"/>
</svg>