<svg id="Layer_1" data-name="Layer 1" xmlns="http://www.w3.org/2000/svg" viewBox="0 0 753.49 625.19"><defs><style>.cls-1{fill:#412210;}.cls-2{fill:#f8bb4a;}.cls-3{fill:#f8b444;}.cls-4{fill:#f7b445;}.cls-5{fill:#e48e50;}.cls-6{fill:#e59052;}.cls-7{fill:#fff;}.cls-8{fill:#4a2811;}.cls-9{fill:#bc622a;}.cls-10{fill:#e48d4e;}.cls-11{fill:#e28b4d;}.cls-12{fill:#c86c30;}.cls-13{fill:#ec9f62;}.cls-14{fill:#c76c31;}.cls-15{fill:#c96e30;}.cls-16{fill:#c76e32;}.cls-17{fill:#fac64a;}.cls-18{fill:#f6ba2f;}.cls-19{fill:#fbce59;}.cls-20{fill:#fbd366;}.cls-21{fill:#fae6a0;}.cls-22{fill:#f9e69e;}.cls-23{fill:#eca723;}.cls-24{fill:#efac24;}.cls-25{fill:#492710;}.cls-26{fill:#ecaa23;}.cls-27{fill:#f9e090;}.cls-28{fill:#ce7437;}.cls-29{fill:#f1eeec;}.cls-30{fill:#bc642a;}.cls-31{fill:#f4c48e;}.cls-32{fill:#f4b77b;}.cls-33{fill:#eea165;}.cls-34{fill:#d07437;}.cls-35{fill:#fad7a6;}.cls-36{fill:#fbd59e;}.cls-37{fill:#fad19c;}.cls-38{fill:#fbd198;}.cls-39{fill:#fbd39b;}.cls-40{fill:#fad092;}.cls-41{fill:#f8c98f;}.cls-42{fill:#f8d39d;}.cls-43{fill:#fcd5a0;}.cls-44{fill:#facb94;}.cls-45{fill:#f5cc9d;}.cls-46{fill:#cc7337;}.cls-47{fill:#f2b47a;}.cls-48{fill:#f2b87e;}.cls-49{fill:#f2b87d;}.cls-50{fill:#f5bf84;}.cls-51{fill:#f4be82;}.cls-52{fill:#f2b97e;}.cls-53{fill:#f4bc7f;}.cls-54{fill:#f3ba7e;}.cls-55{fill:#f2b97d;}.cls-56{fill:#f3ba7d;}.cls-57{fill:#f1b87c;}.cls-58{fill:#f5ba7e;}.cls-59{fill:#f4b77e;}.cls-60{fill:#f5bc7f;}.cls-61{fill:#f5b97e;}.cls-62{fill:#f4b779;}.cls-63{fill:#f6be86;}.cls-64{fill:#f0b886;}.cls-65{fill:#f8c48d;}.cls-66{fill:#f58b66;}.cls-67{fill:#f9c753;}.cls-68{fill:#fbe7a1;}.cls-69{fill:#f8a588;}.cls-70{fill:#f8a78a;}.cls-71{fill:#ecac25;}.cls-72{fill:#eeb028;}.cls-73{fill:#f1b72e;}.cls-74{fill:#ed9f64;}.cls-75{fill:#e2a027;}.cls-76{fill:#efb32e;}.cls-77{fill:#f8d97a;}.cls-78{fill:#f8e39a;}.cls-79{fill:#f7e092;}.cls-80{fill:#f3bb34;}.cls-81{fill:#fae698;}.cls-82{fill:#f9e399;}.cls-83{fill:#f8da7a;}.cls-84{fill:#f4c33f;}.cls-85{fill:#f8bd83;}.cls-86{fill:#f9e18f;}.cls-87{fill:#efc046;}.cls-88{fill:#f0db91;}.cls-89{fill:#f7df8d;}.cls-90{fill:#efba2a;}.cls-91{fill:#ce9037;}.cls-92{fill:#c9952c;}.cls-93{fill:#f9d19b;}.cls-94{fill:#fbdaa9;}.cls-95{fill:#f9d39b;}.cls-96{fill:#f9d19a;}.cls-97{fill:#f6c48b;}.cls-98{fill:#f5c389;}.cls-99{fill:#f8cd98;}.cls-100{fill:#f5c28c;}.cls-101{fill:#f7c58c;}.cls-102{fill:#f7c189;}.cls-103{fill:#facb95;}.cls-104{fill:#f7c088;}.cls-105{fill:#f8c490;}.cls-106{fill:#f7be82;}.cls-107{fill:#f6bd84;}.cls-108{fill:#fab695;}.cls-109{fill:#dc9529;}.cls-110{fill:#845020;}.cls-111{fill:#fbdc80;}.cls-112{fill:#c47d2a;}</style></defs><path class="cls-1" d="M678.12,510.18c-2.86-34.74-7.11-69.33-11.49-103.9-4.33-34-9-68-13.93-102-2.39-16.62-4.27-33.38-9.84-49.39-5.76-16.59-17.24-26-34.72-28.15-10.22-1.26-20.52-.88-30.78-1.54-2.59-.18-4.21-.11-2.6-3.57a36.3,36.3,0,0,0,2.85-17.79c-.88-13.5-5.86-24.55-19.58-29.58-2.47-.9-2.13-2.65-2.38-4.39-3.5-24.26-9.58-47.77-19.84-70.11-39-85-128-117.09-208.93-90.8-46.56,15.13-79.3,47.16-101.11,90.61a222.68,222.68,0,0,0-20.12,60.6c-.69,3.83-1.8,6.06-6.14,6.9-6.2,1.21-10.72,5.52-14.24,10.62-7.27,10.54-9.17,22.17-6.31,35-3.29,0-6,0-8.65,0-23.69-.4-40.12,10.09-49.18,32.22-4.87,11.93-7.77,24.35-10.42,36.85-5,23.4-9.39,46.88-12.51,70.62-1.14,8.72-.49,17.57-2,26.16-6,34.51-12.58,68.9-17.9,103.53-3,19.64-6.62,39.24-6.67,59.19-.05,19.38,6.59,35.71,23.47,46.53,11.64,7.46,24.91,10,38.41,11.35,50.3,4.91,100.76,7.83,151.17,11.34,35.29,2.47,70.6,4.68,105.91,6.85,39,2.38,78,4.72,117.06,6.78,20.51,1.09,41.07,2.62,61.41-2.13,29.54-6.9,56-21,82.22-35.47,16.11-8.89,24.62-23.34,27.19-41.51C680.14,533.3,679.08,521.77,678.12,510.18ZM502.66,170.73c.16,1.48.64,2.88-1.43,3.7-14.71,5.87-20.18,25-17,41.11,1.34,6.84,1.37,6.78-5.83,6.57q-76.06-2.3-152.14-4.57c-13.8-.44-27.6-1.25-41.42-.83a9,9,0,0,0-1.86-.38l-.15,0a59.36,59.36,0,0,0-10.24-.28c-2.93.05-2.71-1.35-2.3-3.26,4.62-13,4.32-25.44-4.39-36.81-1.31-1.7-3-3.63-4.85-4.3-5.3-1.86-5.14-5.33-4.14-9.8,7.55-33.68,21.56-63.8,48.19-86.82C329.44,54,358,45.33,389.87,48.54c55.27,5.56,96,45.88,109.27,102.83A162.65,162.65,0,0,1,502.66,170.73Zm26.6,45.54a16.86,16.86,0,0,0-5.64-2c-3.62-.31-4.25-3.08-3.89-5.31.39-2.42,3-.52,4.62-.84a12,12,0,0,1,2.93.2c3.91-.11,8.32.23,12.45-1.5,2.7-1.12,2.81.38,2.53,2.34C541.5,214.36,533.86,218.5,529.26,216.27Zm-314-16.71a9,9,0,0,0,6.09,1.19c5,.86,10,1.3,15,0,.17,5.49-4.49,8.77-9.88,7l-13.89-1.9a24.91,24.91,0,0,1-.72-4.3C211.9,199.24,212.86,198.07,215.26,199.56Z"/><path class="cls-2" d="M652,181.18c-1.84-.29-2.23-1.69-2.54-3.25-.74-3.79-1.68-7.54-2.34-11.35-3.2-18.46-14.86-27.85-32.71-30.65-.5-.08-1-.08-1.5-.2-1.59-.4-3.59-.41-3.68-2.69s1.91-2.51,3.5-2.86a103.48,103.48,0,0,0,14.58-3.91c8.77-3.28,14.54-9.39,17.68-18.15,2-5.57,2.92-11.39,4.15-17.15.4-1.88.2-4.56,2.95-4.57s2.64,2.41,2.94,4.46c.41,2.82,1.19,5.58,1.68,8.39,2.91,16.43,12.45,26.36,28.88,29.6,2.31.45,4.55,1.21,6.83,1.77,1.21.3,2.34.67,2.43,2.12.11,1.74-1.23,2.24-2.56,2.61-3.24.9-6.49,1.75-9.74,2.62C669,141.59,661,150.48,657.76,163.9c-1.09,4.56-2,9.17-2.86,13.77C654.56,179.44,654.13,181,652,181.18Z"/><path class="cls-3" d="M29.09,291.79A2.18,2.18,0,0,1,31,293.25a19.74,19.74,0,0,1,.73,3.43C34,312.06,37.92,316.32,53,320.33c1.69.45,4.66-.24,4.6,2.78,0,2.59-2.66,2.3-4.3,2.55-13.88,2.18-19.84,11.27-21.5,24.24-.25,2,0,4.68-2.6,4.8-2.74.12-2.31-2.77-2.8-4.61-.56-2.11-1.15-4.22-1.59-6.36-2.1-10.33-8.68-15.9-18.77-17.82-1-.18-1.94-.53-2.93-.7C1.53,325-.17,324.82,0,322.7c.16-1.77,1.72-1.78,3.06-2,.49-.07,1-.27,1.46-.38,15-3.53,19.12-7.91,21.78-23.13C27,293.2,27.72,291.82,29.09,291.79Z"/><path class="cls-4" d="M753.49,212.9c-.41,1.64-1.7,2-3.08,2.13-12.55,1.55-18.29,9.38-19.62,21.28-.21,1.87-.33,4.22-2.64,4.2-2,0-2.16-2.33-2.35-4-1.41-12.17-7.66-19.78-20.12-21.68-1.32-.2-2.95-.38-2.87-2.17s1.68-1.82,3-2c12.41-1.47,18.5-9,20.18-20.88.23-1.62-.33-4.35,2.29-4.36s2.21,2.63,2.38,4.31c1.22,12.18,7.58,19.38,19.93,20.95C752,210.92,753.35,211.1,753.49,212.9Z"/><path class="cls-5" d="M579,375.81c-1.23,17.26-5.12,33.79-13.36,49.14-1.6,5.91-5.39,10.45-9.68,14.48-12,11.33-26.49,17.66-42.86,19.54-15.74,1.8-31.5,1.32-47.3.36-9.71-.59-19.47-.74-29.2-1.23-8.21-.41-16.4-1.5-24.66-1.15a5,5,0,0,1-4.52-1.75c-1.65-5.26-.82-10.62-.57-15.94.29-6.31-1-12-6-16.32a6.38,6.38,0,0,1-1.5-2c-3.84-9.38-11.62-12.71-20.91-13.32q-20.16-1.32-40.32-2.34c-8.75-.46-17.49-.92-26.24-.83-9.64.1-16.27,4.7-19.84,13.66-2.15,5.41-2.64,11.12-3,16.85-.13,2,0,4-.3,6.05-.85,5.66-2.1,6.67-7.92,6.93-7.27.32-14.42-1.37-21.68-1.2-8.39.2-11.83-5-13.44-12.24-.34-2.17,2.64-1.69,2.85-3.51-1.65-2.09-3.94-1-6-1.22a5.15,5.15,0,0,1-3-1.74c-6.68-8-15.84-10.73-25.64-12.13-8.52-1.19-9.58-2.38-9.73-11.21-.11-6.11,2-11.94,2.46-18,.44-5.52,1.5-11,.72-16.59-.4-2.85-.25-5.76,1.43-8.29C216,351,216.21,339,214.52,326.76A21.57,21.57,0,0,1,216,314.63a79.5,79.5,0,0,0,6.16-35.52c-.17-3.21.26-6,2.23-8.52,2.21-2.87,3.15-6.27,4-9.73.39-1.55.09-4.06,3.06-3.54a10.92,10.92,0,0,0,5.34,1.35c9.62-.31,19.18.8,28.77,1.06,25.92.71,51.85,1.24,77.76,2.24,19.68.75,39.38.93,59.05,1.9,21.69,1.07,43.4,1.8,65.12,2a10.15,10.15,0,0,1,4.42.83,2.34,2.34,0,0,1,.72,3.51c-1.63,2.58.26,3.92,1.62,5.63,1.78,2.25,3.3.55,4.89-.07,3.36-1.3,6.51-1.63,9.29,1.32a7.16,7.16,0,0,0,5.89,2.36c1.53-.1,3.38,0,4.1,1.43,1.31,2.63,2.86,3,5.6,2.15,2.13-.69,3.19,1.36,4,3.08a5,5,0,0,1-1.23,6.42,10.79,10.79,0,0,1-8.45,2.55c-2.2-.17-4.87-.31-3.2,3.43,1.15,2.59-1.45,3.38-3.17,5.63,8-2.51,5.21,5.27,9.11,8.71-.82-5,.2-8.12,3.69-10.22,1.29-.78,1-2.76,1.36-4.22.47-2,.72-4,2.07-5.64,2.09-2.51,4.71-3.35,7.63-1.65,3.54,2.06,1.08,4.54-.25,7.09,2.57-1.11,3-3.15,3.92-4.92,1.5-2.88,4-4.36,7.11-2.82a29.27,29.27,0,0,0,7.64,2.36c2.71.53,5.68,1.78,5.5,5-.19,3.38-3.41,3.05-5.93,3.14a3.46,3.46,0,0,0-1.91.45c2.24,4,1.78,7.83-2.06,10.88-1.27,1-2.93,1.94-4.09.66-4.44-4.91-7.07.11-10.35,1.24,0,1,.42,1.29.9,1.49,2.26,1,5.47,1.35,5.2,4.58-.25,3.07-3,4.76-5.48,6.2-2,1.21-3.64.37-5-1.69-3-4.38-4.66-4.21-6.77.58-1.84,4.19-6.26,5.73-9.08,9-1.81,2.1-5.34-1.47-8.09-2.5-1.09-.42-1.37-1.91-3.48-2.87.83,3.74,3.31,5.47,5.37,7.19,2.44,2,5,3.16,4.17,7.53-.64,3.25-1.4,5.59-5.14,6.89,4,2.66,6.95-.14,10-.58,1.28-.18,2.4-1.3,3.77-1.34,2.68-.08,5.11,1.82,3.62,3.85-3.31,4.47-.6,7,2.21,10.48a9.69,9.69,0,0,1,7.05-6.31c2.22-.56,2.48-2.16.2-3.45a34.68,34.68,0,0,0-3-1.86c-3.06-1.35-4-3.2-2.19-6.34s.4-8.43,5.52-10a1.15,1.15,0,0,0,.58-1.31c-.69-3.1-.35-5.47,3.06-7,2.58-1.17,4.76-3.24,7.92-1.94a2.25,2.25,0,0,0,2-.19c6.27-4.16,14.14-4.24,20.52-8.1a9.13,9.13,0,0,0,2.81-2.86c1-1.48,1.78-3.65,4.18-2.62,2.16.93,4.33,2.17,5,4.66.61,2.19-.82,3.46-2.62,4.32-1.32.62-1.59,2.16-2.4,2.93-3.1,3-6,5.86-7.87,10-.66,1.48-4.25.77-6.31,2.38-2.55,2-5.49,3.1-4.47,7.38.45,1.86-1.42,3.37-3.31,3.94-2.05.63-2.61-1-3-2.48a4.18,4.18,0,0,0-2.46-3c-2.65-1-2-2.67-1.11-4.4-3.08.71-6.22,1.28-8.79,3.26,2.47,1.33,4.71,3,8,1.37,2.09-1,2.39,1.17,2.35,2.69-.06,2-.56,4-.74,6-.45,4.77.34,6,4.89,5.82,3.17-.11,5.38-.27,4.44,4.15-.44,2.09,4.08,4,6.88,2.65a20.86,20.86,0,0,1,9.74-2c4.62.09,6.43-1.84,7.12-6.61.36-2.49.36-2.49,2.64-3.46a7.21,7.21,0,0,1,.88,3.81,5.68,5.68,0,0,0,.84,3.56c1.74-1.69,1.38-3.72,1.6-5.58s-.38-4.09,1.86-5.28c4.78,5.33,3.93,11.73,3.3,18-.19,1.87-1.84,2.29-3.5,2-3.85-.76-6.43.8-8.34,4.1-.92,1.59-2.71,2.51-3.91,3.9a8.37,8.37,0,0,0-1.42,9.77c2.3,4.74,2.24,5-2.67,7.45-2.55,1.27-4.38,3.62-7.21,4.54-1.83.6-1.46,1.83-.33,3.1,3.15,3.56,7.37,5.82,10.84,9a1.94,1.94,0,0,0,2.76,0c1.21-1.12.66-2.46.27-3.76-.57-2.28.61-4.25,1.34-6.22,1.19-3.18,0-4.15-3-4-2.48-4.37,2.55-6.19,3.21-9.49a3.93,3.93,0,0,1,2.82-.54c5.32,1.08,7.66-2.65,10.24-6.19,1.32-1.8,2.08-4.71,5.39-3.78.06,0,.1.26.07.39A1.6,1.6,0,0,1,579,375.81Z"/><path class="cls-6" d="M478.35,608.46c-21.35-1.15-42.71-2.2-64.06-3.48-24-1.45-48.07-3.1-72.1-4.66q-61-4-122-8c-30.25-2-60.5-4-90.63-7.42-8.38-.94-16.6-2.78-24.22-6.65-15.18-7.7-20.61-21-20.9-37-.33-17.43,3.13-34.49,5.78-51.59,3.84-24.76,8.12-49.44,12.25-74.15a29.94,29.94,0,0,1,1-3.37c.35-.13.81-.2.93,0,3,5.58,6.55,10.91,8.65,17-.62,4.64-4,9.11-.92,14,0,3.61-.09,7.2-1.75,10.52-3.86,7.29-3.55,15.28-4.18,23.16,2.81-2.42,1.6-6.34,3.83-8.89,2.45-1.11,2.45,1.13,2.82,2.31,8,25.27,25.49,43.51,44.5,60.7a118.23,118.23,0,0,0,17.76,13.26c5.33,5.77,11.47,6.41,18.32,3,23.42-11.73,42.24-28.52,56.05-50.84,4.19-6.76,5.54-14.42,6.89-22,.82-4.63,3.2-6.19,7.62-5.92,5.69.35,11.44-.53,17.09.84,2,.48,4,.82,4.52,3.34.47,3.12.16,6.29.78,9.44,1.26,6.32,4.09,11.57,9.31,15.45a11.62,11.62,0,0,1,3.79,3.91c3.46,5.84,8.69,8.82,15.33,9.31,21,1.55,41.94,3.37,63,3.14,15.7-.18,24.36-7.71,26.45-23.37.36-2.67.68-5.35,1.08-8,.57-3.76,2.71-5.15,6.32-4.88,16.61,1.24,33.2,2.8,49.87,3a15.28,15.28,0,0,1,6.36,1.45c1.93,5.78,8.88,6.7,11.36,12.43.67-2-.7-2.49-1.19-3.4-1.7-3.16.32-7.22,3.76-6.69,3.23.51,5.81-.39,8.7-1.32,4.2-1.34,7.14.21,8.07,3.67.61,2.28.56,4.44-1.93,5.62-3.63,1.74-2.52,3.77-.44,5.86,4.45,4.47,4.27,6.23-1.22,9.27-1.54.86-2.49,2.21-3.72,3.34-3,2.76-6,5.05-10.74,4.22-4.39-.78-5.56,1.2-3.52,5.19,1,1.94,1.83,3.56-.15,5.39-1.35,1.26-.6,2.5.6,3.38,1.5,1.1,2.49.08,3.34-1.07a5.8,5.8,0,0,0,1.25-2.72c.93-7.43,6.24-10.3,12.58-11.9,3.25-.83,11.68,3.69,12.64,6.47.4,1.17-.27,1.94-1,2.62-1.45,1.29-2.17,3-2.92,5.34,2.24-1.29,4.52-1.3,6.47-2.33,3.06-1.62,3.54-4.13.93-6.37a10.25,10.25,0,0,1-3.26-5.47,13.43,13.43,0,0,0-4.71-7.53c-3.93-3-3.82-5.18-.09-8.31,1.3-1.09,2.3-2.47,3.62-3.52a3.71,3.71,0,0,1,4.24-.6c1.63.85,1.63,2.41,1.37,4-.23,1.33-.88,2.55-1.15,3.87-1.1,5.34,1.56,10.07,7.18,13.11,1.57.85,4.21.34,4.65,2.5a21.77,21.77,0,0,1,.27,9.48c-1.13,4.89-4.11,9.2-4.34,14.37-.07,1.53-1.39,2.13-2.81,2.48-3.24.81-3.35,3.12-2.11,5.48,2,3.76,3.77,7.5,4,11.84.13,2.26,1.82,3.46,3.6,4.56,2.53,1.56,3.58,0,4.67-2a2.32,2.32,0,0,1,3.11-.86,3.17,3.17,0,0,1,2.22,3.1c-.15,4.34,1.92,9-2,12.88-1.18,1.16-1.78,3.67.19,4.37,6.07,2.16,4.4,7,4.57,11.35a4.29,4.29,0,0,1-1.45,3.27c-3.07-.4-6.1-1.39-9.28-.6-1.2.3-2.74-.11-3-1.27-.73-3.9-2.78-2.34-4.77-1.4-3.27.76-6.6.32-9.89.47a8.42,8.42,0,0,0-5.07,1.73c-5,.36-7.81,3.84-9.45,7.81-1.7,4.13-4.2,5.41-8.29,4.75C481.32,608.63,479.78,609.06,478.35,608.46Z"/><path class="cls-7" d="M282.81,216.31c-3.59-.31-7.09,1.4-10.72,1-4-.42-4.24-1.87-1.82-4.58-.41,1.91-.63,3.31,2.3,3.26A59.36,59.36,0,0,1,282.81,216.31Z"/><path class="cls-8" d="M571,440.64a3,3,0,0,0-.23.38c-.06.1-.11.21-.16.31a29.54,29.54,0,0,1-2.83,3.47h0l-.24.23c-.34.38-.69.75-1,1.12-16.77,17.82-38.16,25.24-62.12,26-26.92.83-53.8-.53-80.64-2.81-5.52-.46-11.08-.12-16.62-.92-4.6-.66-5.82.48-5.75,5.23a44.65,44.65,0,0,1-4.49,20.5c-4.39,9-11.72,13-21.4,13.5-11.31.61-22.55-.63-33.78-1.26-12.24-.68-24.53-1-36.7-2.79a13.3,13.3,0,0,1-5-1.3,0,0,0,0,1,0,0h0a5,5,0,0,1-1.4-1.19C287.44,495,284,485,284.59,473a19.11,19.11,0,0,0,0-2.27c-.15-2.55-.7-5.09-.53-7.68.14-2.08-1.26-2.74-3.15-3.15-7.82-1.68-15.82-.35-23.66-1.61-2.6-.41-3.49,1.61-3.71,3.82-2.25,22.91-16,39-31.86,53.87a161.45,161.45,0,0,1-34.54,25.29c-2.39,1.28-4.88,2.3-7.32,3.42a7.08,7.08,0,0,1-3.49.81,4,4,0,0,1-2.2-.94c-10-4.77-17.73-12.6-25.64-20.07-13.36-12.63-25.44-26.3-32.9-43.41-1.89-4.34-3.31-8.91-4.93-13.38l-.08-.21a14.5,14.5,0,0,1-2.4-8.47v0a15.15,15.15,0,0,1,1.24-5.34q.94-5.58,1.9-11.2a7.47,7.47,0,0,1-.1-1c-.14-3.43,1.76-6.19,3.32-9.07.07-.11.15-.22.22-.34a2.66,2.66,0,0,0,.21-.33,37.48,37.48,0,0,0,3.6-8.48l7-8.82.29.07c5.51,1.35,10.1-1.84,15.08-3.17.28-.08.56-.16.85-.22l.33-.07a19.91,19.91,0,0,1,3.08-.27h.46c1.06,0,2.12,0,3.19,0h0a44.92,44.92,0,0,1,7.43.22c3,.43,4-.37,3.26-3.52-2-9.18-1.52-18.06,3.92-26.15a6.3,6.3,0,0,0,.56-6.2c-3.86-10.25-2.31-20.18,2.07-29.85,2.09-4.61,3.42-9.49,5.18-14.21.88-2.39.32-4.56-.59-6.83-5.61-13.89-2.6-26.72,5.39-38.67,1.75-2.62,2.73-4.87,1.54-7.87-2.43-6.15-2.06-12.53-1.44-18.91l.09-.39.06-.26c.89-3.8,1.49-7.68,2.84-11.37.05-.16.11-.32.16-.49l.45-1.28c1.66-4.78,3.6-9.43,7.46-13,1.18-1.08.9-2.41,1-3.7.92-3,1.44-6.31,5.17-7.36a1.89,1.89,0,0,1,2.25.41c3.23,3.4,6.86,3.81,10.88,1.6-.34,3.3,2.53,4.8,4,7.09,1.11,1.25.4,2.35-.29,3.46a6,6,0,0,1-.59.82,5.58,5.58,0,0,1-1.27,1.14c-2.2,1.4-4.87.63-7.5.09l-.5.06a10.35,10.35,0,0,0-1.51.31,8.65,8.65,0,0,0-5.61,4.69c-4.52,9.25-7.39,18.82-6.43,29.11,0,.51.1,1,.16,1.53,0,0,0,0,0,0,.06.48.13.95.21,1.44a18.75,18.75,0,0,0,2.42,3.81c1.89,2.25,3.63,3,6.28.67,3.16-2.75,4.09-3,5.54-.09h0c.17.34.36.71.54,1.14s.27.61.41.95c.39,2.91-.47,5.63-1.19,8.38a4.38,4.38,0,0,1-.4.62,2.6,2.6,0,0,1-.27.38c-1.75,2.28-4.1,2.33-6.88,1-1.85-.88-3.77-1.77-5.88-.87h0l-.22.1a6.84,6.84,0,0,0-.65.37,11.19,11.19,0,0,0-4.83,6.49c-2.32,7.68-4.75,15.4-2.05,23.51,0,.13.08.26.13.39l.12.25c1.95,3.95,4.64,6.11,9.48,4.48a3.4,3.4,0,0,1,4.24,1.38,2.54,2.54,0,0,1,.16.28,5.27,5.27,0,0,1,.33.9c.71,5.95-.57,11.63-2.32,17.25-.14.22-.28.41-.42.59a1.92,1.92,0,0,1-.14.15h0c-1.67,1.88-3.84,1.73-6.11.8a10.12,10.12,0,0,0-2.9-.79,5.07,5.07,0,0,0-1.4.05,5.28,5.28,0,0,0-1.51.51c-4.56,2.42-5.61,6.76-6.38,11.34a50.28,50.28,0,0,0-.81,9.77c0,.25,0,.49,0,.74a.91.91,0,0,0,0,.17,8.43,8.43,0,0,0,4.06,7,3.43,3.43,0,0,0,4.6-.42c1.49-1.38.54-2.48-.13-3.95-2.71-5.91-1.64-11.83,1.27-17.27,1.71-3.19,4.53-3.38,6.88-.75s4.6,2.21,7,.27A11.45,11.45,0,0,0,200,347a47.51,47.51,0,0,0,2.06-23.29c-.56-3.17-2.12-5.65-5.31-6.8a4.17,4.17,0,0,0-2.54-.09,8.27,8.27,0,0,0-.85.27h0c-3.65,1.39-6.49,0-6.65-3.8-.23-5.83-.09-11.76,3.54-16.89,1.37-1.94,3.12-3.06,5.54-2.66a3.9,3.9,0,0,1,3.64,3.55s0,0,0,0a4.84,4.84,0,0,1,.06.78v.22a6.88,6.88,0,0,1-1.5,3.6l-.77.65a5.34,5.34,0,0,0-1.36,1.37l0,0a1.34,1.34,0,0,0-.14.36h0c-.12.53.13,1.08,1,1.71l.44.3,0,0a1.6,1.6,0,0,0,.19.11l0,0a7.24,7.24,0,0,0,1.94.83,4.47,4.47,0,0,0,4.68-1.4,18.19,18.19,0,0,0,3.73-7.59c1.95-6.69,3.88-13.46,2-20.36a17.22,17.22,0,0,0-.56-1.77h0c-.09-.26-.19-.53-.3-.8a9.37,9.37,0,0,0-5.16-3.2l-.15,0a4,4,0,0,0-1.88-.18,14.39,14.39,0,0,0-2.84.85c-2.65.93-4.14-.06-4.61-2.88A39.58,39.58,0,0,1,198.14,245c2.68-5.3,4.42-5.87,9.29-2.73,2.81,1.83,5.33,1.3,7.28-.85A31.48,31.48,0,0,0,223.34,220c0-2.79-.71-4.09-2.57-4.37a5.66,5.66,0,0,0-1.27-.06h0a19.1,19.1,0,0,0-2.51.36c-1.5,1-.76,3.87-3.24,4.13-.17-2.54.53-5.43-3.76-5.48-1.88,0-1.29-1.94-.64-3.13,1-1.89,2.17-3.71,3.26-5.57l13.89,1.9c-1.19,3.5,0,5.49,4,5.94a80.43,80.43,0,0,0,8.51.12c3.55-.73,7.16-.28,10.72-.41l1.36,0h1.06c6,0,6.22-.75,8.69-8.06.41-1.24.54-2.7,2.25-3l7.17,10.36c-.41,1.91-.63,3.31,2.3,3.26a59.36,59.36,0,0,1,10.24.28l.15,0c.62.1,1.24.23,1.86.38-2.81-.23-5.11,0-5.31,3.76a11.62,11.62,0,0,1-1.56,4.2c-1.44,2.9-4.3,3.16-6.89.74-7.92-7.46-16.73-12.26-28.25-8.85,2.79,5.05,4.39,11.39,11.31,13.42-.76,3.33-3.65,3-6,3.26-3.51.38-7.07,0-10.6.18-6,.23-9.14,3.84-8.6,9.83.83,9.32-.22,18.2-6.44,25.74-1.65,2-1.67,4.21-1.55,6.65.5,10.3,1,20.88-4,30.17-3.69,6.82-4.89,12.82-3.39,20.7A38.7,38.7,0,0,1,207,356.38c-1.27,1.83-1.26,3.63-.83,5.73,2.41,11.73,1.34,23.08-4.26,33.79a6.78,6.78,0,0,0-.48,5.35,24.4,24.4,0,0,1,1.4,8.44c-.28,4,2,4.86,5.26,4.95h0c2.16.06,4.35-.36,6.49.31,11.55.57,20.72,5.86,28.32,14.28a5.67,5.67,0,0,1,1.14.49h0a4.21,4.21,0,0,1,1.95,3.41.68.68,0,0,1,0,.15,12.6,12.6,0,0,1,1.23,2.74c1.46,8.3,7.59,9.34,14.43,9.57q10.61.38,21.18,1.15c2.79.2,3.87-.67,4-3.54.33-5.87.79-11.76,1.6-17.58,2.14-15.52,10.71-23.25,26.18-22.72,21.53.74,43.05,1.91,64.55,3.28,10.54.67,18.59,5.51,22.15,16.14a4.05,4.05,0,0,1,1.71,3.08,12.81,12.81,0,0,1,.08,1.39c.14,5.89.69,11.85-.23,17.66-.75,4.69-.37,8.21,4.19,10.1.2.1.42.17.63.25,6.94,1.58,14,.93,21,1.32,23.69,1.32,47.36,3,71.11,2.44,27.3-.66,50.33-9.55,65.62-33.61l8,9.37C574.68,437.26,572.24,438.69,571,440.64Z"/><path class="cls-9" d="M615.16,242.28c9.2,3.24,13.48,10.65,16.13,19.32,4.93,16.11,6.73,32.83,9.21,49.41,2.32,15.6,4.37,31.24,6.47,46.87,2.27,17,4.57,33.91,6.68,50.9,2.73,22,5.66,43.94,7.81,66,1.89,19.38,4.77,38.69,4.65,58.26-.1,15.92-4.13,29.87-17.47,39.88-1.31,2.61-3.86,3.69-6.25,4.84-2.61,1.27-3.89.15-3.5-2.65.41-3,2-5.7,2.34-8.74.43-2.48,1-4.92,1.52-7.39,2.36-13.93.84-27.87-.13-41.77-1.27-18.3-3.1-36.55-4.61-54.83-1.55-18.79-3.45-37.55-5.35-56.31-2.63-26-4.95-52-7.76-77.9q-1.67-15.31-3.25-30.65a21.63,21.63,0,0,0-1.85-7.31,2.85,2.85,0,0,0-3.23-1.86c-1.49.28-1.51,1.68-1.63,2.8-.66,6.6.71,13.09,1.24,19.63,2.19,27,5.41,53.93,7.78,80.93,2.81,31.86,6,63.68,8.62,95.55,1.69,20.27,4.09,40.54,3.27,61-.8,4-.82,8-1.31,12-1.28,4.72-1.26,9.92-5.06,13.71-5.39,14.64-19.34,18.19-31.41,24.09-2.32,1.14-4.72,2.57-8.13,2.46,10.26-16.77,9.2-35.21,9.2-53.44,0-38.07.32-76.14-.41-114.2q-.79-41.67-.52-83.33a212.4,212.4,0,0,1,11.38-66.29c1.33-4,2.2-9.35,8.73-8.33,1.32.2,1.8-.81,1.72-1.91a8.62,8.62,0,0,0-.66-2.93c-2-4.46-4.63-8.07-1.37-13.89,2.72-4.83-3.4-8.15-10.77-5.77C607.46,245.34,611.57,244.06,615.16,242.28Z"/><path class="cls-5" d="M615.16,242.28c-2.61,2.74-6.28,4.43-7.92,8.12-9.52,7.57-13.48,18.26-16.12,29.51-4.49,19.19-6.71,38.72-8.25,58.36-1,12.54-2.59,25-3.92,37.54-3.73-.24-3.62,3.44-5.27,5.28-2.72,3-4.88,6.89-10,4.7-1.05-2.34.06-4.57.31-6.85.2-1.93.94-3.92-.87-6.1-2.22,4.3-1.77,8.81-2.5,13.07,1,1.46,1.15,2.86-.68,3.72-2.54,1.18-2.46,3.28-2.19,5.51,1.1,1.88,0,3.59-.51,5.29-.63,2.22.26,3.51,2.12,4.43,3.11,1.58,2.49,3.35.51,5.52s-3.26,1.11-5-.41c-3.69-3.31-7.58-6.39-11.38-9.58-2.13-1.79-3-3.87.59-4.43,4.3-.67,6-5.46,10.68-5.7,1.71-.09,1.44-2.55.18-4.12a9.38,9.38,0,0,1,1-12.14c1.95-1.76,4-3.21,5.22-5.87s4.45-3.19,7.07-2.41c3.47,1,3.38-.63,3.62-3.18.5-5.32-1.09-10.26-2.15-15.32-1.69-1.43-.66-3.85-2.11-5.63-3.62,1.9-1.29,6.61-4.1,8.76-1.09,1.1-.78,2.51-.82,3.83-.18,5.52-3.75,8.5-9.38,7.67-2-.31-4.38-.43-5.77.8-3.32,2.94-6.21,2.08-9.57.27-2-1.1-4.89-1.29-1.18-3.93a1.91,1.91,0,0,0,.18-1.79,1.45,1.45,0,0,0-2.21-.33c-1.19.84-2.14.58-3.57.3-4.12-.79-5.79-2.15-4.07-6.61,1-2.54.73-5.54,1.17-9.49-5.23,6.53-8.14-.93-13.59-.38a53.06,53.06,0,0,1,15.93-6.29c.4,1.47-.53,1.76-1.13,2.28a14.74,14.74,0,0,0-1.42,1.43c-.47.57-.4,1.78,0,1.67,5.15-1.28,2.76,6.13,6.29,5.6,2.25-.34,3.1-2.79,1.51-5.24-.78-1.19.1-3,.8-3.09,3.92-.4,5.29-6.07,10.22-4.58,1.8.55,2.84-1.09,2.17-3.33-1.07-3.55-.53-5.88,4.07-4.37.53.17,1.23-.2,1.85-.32-1.67-4.76,3-4.59,4.87-6.74,2.45-2.87-1.74-3.5-3.07-5.06s-2.42-1.68-3.21.57c-1.08,3.08-3.11,5-6.59,5.29-1.56.11-2.73,1.18-3.83,2.27-.71.7-2,2-2.26,1.81-5.41-3.46-7.82,3.22-12.08,3.53-.72.05-1.54,1.1-2.27.45-4.35-3.9-6,2.41-9.46,2.51-1.24,0-1.06,2.25-.06,3.41,1.37,1.57.85,3.46-.63,3.71-6.93,1.18-2.87,8.62-6.78,11.44-.57.4-.11,1.38.62,1.53,2.09.43,3.38,2.16,5.17,3,1.29.6,3.56.29,3.28,2.32a4.37,4.37,0,0,1-4.14,3.81c-3.72.06-5,2.12-5.5,5.28-.15,1-.33,2.08-1.53,2.31-.32.06-1.1-.56-1.09-.84.13-3-3.2-4.13-3.74-6.87-.39-2-2.58-4,1.19-5,1.24-.33,1.2-1.51.62-2.48-.7-1.17-2.13-1.81-3-.95-2.65,2.65-6.54,1.62-9.45,3.7-2.54,1.83-4.72-.82-5.58-2.5-1.16-2.25,1.32-2.51,3-2.59,2.11-.1,1.92-1.45,2.35-3,1.83-6.74-4.68-8-7.4-11.68-.77-1-2.22-1.79-2.29-3.14s.09-3.3,1.6-3.88,2,1.09,2.32,2.13c1.25,3.8,5.89,2.44,7.78,5.22.1.14.92,0,.93-.05.68-5,7.07-4.86,8.31-9.36.57-2.1,1.12-4.57,4-4.42,2.43.12,4.5,1,5.11,3.94s2.46,2.24,4.17,1.05a22.42,22.42,0,0,0,2.09-2.15c1.07-1,2.89-1.67,2.27-3.5-.53-1.55-2.27-1.91-3.7-2.36s-3.72.46-3.78-2.21,1.83-2.82,3.76-3.14a5.92,5.92,0,0,0,3.64-2.5c1.26-1.59,2.63-2.17,3.71.39.7,1.66,1.82,4.08,3.91,2.45,2.34-1.83,5.32-4,3.62-7.94a9.94,9.94,0,0,0-1.58-1.95c-.55-.67-1.08-1.4-.71-2.28.6-1.44,1.66-.38,2.55-.42,2.43-.11,6.43,1.85,6.64-1.9.16-3-3.65-3.91-6.68-3.88A7.7,7.7,0,0,1,527,292c-2.84-2.18-5.75-.94-6.75,2.58-.14.48,0,1.05-.15,1.5-.92,2.38-3.6,4.17-5.15,4.17-3.14,0-.57-2.18-.26-3.39.16-.58.84-1,1.3-1.52.9-1,1.44-2.13.1-3-1.55-1-3.28-1.62-5.2-.6-3.42,1.82-3,5.35-3.76,8.34-.39,1.58.23,3.7-1.75,4.35-3.46,1.13-5.09,2.61-2.34,6.05,1.12,1.41-.26,2.15-1.15,2.8a2.28,2.28,0,0,1-3.49-.71c-1.55-2.23-2.63-4.57-.74-7.05-1.54-1.09-2.57-.19-3.66.09a2.76,2.76,0,0,1-3.75-2.33c-.42-2,1.07-1.75,2.53-1.89,2.08-.22,2.44-1.63,1.06-3.2-3.89-4.4.34-4.09,2.71-4.46,1.77-.28,3.88.67,5.41,0,2.16-.89,5.05-1.32,5.66-4.41a5.51,5.51,0,0,0-1.91-5c-2.33-2.29-3.61,1.6-6.41,1.32-.13-4.73-2.91-6.06-7.54-4.84-1.6.42-2.58-1.45-3.54-2.52-2.65-3-5.7-2.69-9-1.54-1.73.6-3.05,3.82-5.39.83s-6.35-5.49-1.17-9.29a5,5,0,0,1,4.08-1.44c7.27,0,14.55-.49,21.81.28,3.54,3.16,7.44,1.64,11.29.81,7.48.53,15-.55,22.45.34,3.73,1.11,7.55.58,11.35.55,10,.14,20.07.14,30-1.48,2.49.9,2.3,3,2.12,5-.14,1.64-.68,3.31,1.12,5.72,2.24-6.8,4.89-12.77,6.46-19.42-2.89-.17-4,2.68-6.25,1.81a92.74,92.74,0,0,0-17.59-1.73c-25.1-.05-50.15-1.58-75.2-2.87-9.92-.51-19.88-.67-29.79-.85-16.16-.31-32.33-.95-48.48-1.51-20.68-.71-41.42-.62-62-2.7a54.31,54.31,0,0,0-5.56-.13c-25.78.17-51.5-1.64-77.25-2.33-9-.24-18.19.1-27.2-1.3-3-1.77-2.27-4.08-.78-6.36a9.65,9.65,0,0,1,7.55-4.33,46.5,46.5,0,0,0,21.51-7.37q42.15,1.14,84.3,2.3c15,.42,29.95.95,44.93,1.38q43.41,1.25,86.83,2.45c4.54.13,9.07.48,13.6.6a4.89,4.89,0,0,1,3.94,1.75c4.81,5.49,11.09,8,18.2,8.73a34.38,34.38,0,0,0,26.31-4.54,43.38,43.38,0,0,1,8.18-3.71c14.89-.52,29.73.62,44.59,1.18.27,2.19-1.52,3.18-2.65,4.55s-2.88,2.7-2.61,5.43c4.57-2.49,6.88-6.69,10.14-9.88C603.82,239.78,609.69,239.82,615.16,242.28Z"/><path class="cls-6" d="M567.72,443.4c.74-.95,1.48-1.9,2.23-2.84,3.47-.05,4.52,2.37,5.1,5.14a31.27,31.27,0,0,1,.2,7,94.81,94.81,0,0,0,9.45-14.3c2,.5,1.7,1.66,1.7,2.55q0,61.38,0,122.74a5.2,5.2,0,0,1-.3,1.47c-.19,11.53-1.93,22.62-9.18,32.14-3.64,1.68-5.41,5.7-9.13,7.3-1.79-2.71-6.51-1.94-7.34-7.23-2.1,7.37-9.32,7.8-12.89,12.48-1.9,1.08-4.35-.06-6.12,1.55l-7.1,0c-1.68-5.2-.6-8,4.21-9.73,2.31-.86,3.3-2.73,4.54-4.5a3.08,3.08,0,0,1,2-.67,4.45,4.45,0,0,1,2.62,1.27c1.24,1.08,2.42,2.45,4.32,1.39a2.55,2.55,0,0,0,1.42-2.44c-.15-2.27-2.13-2.17-3.63-2.68-2.79-1.2-5.54-.37-8.35,0s-5.44,1.83-8.22.22a2.31,2.31,0,0,1-.89-2.71c1.53-3.94.42-6.07-3.74-7.34-3.79-1.16-2.53-4.5-.76-6,4.42-3.8.84-8.61,2.27-12.7.32-.93-.6-1.92-1.64-2.27a1.42,1.42,0,0,0-2,.88c-.45,1.87-.11,4.67-3.26,3.64-2.81-.92-6.45-2.15-6.81-5.27-.59-5.08-1.49-9.64-4.94-13.69-1.64-1.92,1.31-6.17,4.16-6.41.93-.07,2-.27,1.85-1.2-.71-5.93,3.28-10.45,4.58-15.76.66-2.68-1.49-5.14-.32-7.91.35-.85-1.07-.74-1.84-1-7.93-2.27-13.19-8.77-9.76-17.53.6-1.54,1.86-3.35-.08-4.47s-3,.95-4.43,2c-5.1,3.76-6.75,6.8.21,10.31,1.28.64,1.68,3.16,2.36,4.86,1.05,2.63,1.31,5.29,4.46,7.14,3.37,2,1.06,7.9-3.51,8.4-2.86.31-4.94,1.83-8.2,3,2-3.66.93-8.11,6.69-9.72-3.15-1.24-5.46-1.86-6.53-4.51-1.17-2.88-4.24-1.86-6.3-1.5a14.78,14.78,0,0,0-11,7.66c-1.06,2.07-.44,4.92-2.1,7.2-1,1.39-1.86,2.28-3.57,2.1-2.07-.22-2.44-2.08-3.3-3.47s-.66-2.46,1-3.15c2.16-.91,1.54-2.07.32-3.44-1.63-1.82-2.94-4-1.16-6.29,1.62-2,4.11-2.29,6.47-1.32s3.91-.28,5.92-1.33c3.46-1.79,4.45-6.35,9.15-7,1.84-.25,3.38-4-.4-5.6-2.86-1.18-3.41-3.22-3.36-6,.06-3,1.77-2.41,3.69-2.5,1.42-.07,1.64-1.72,1.29-2.84-.51-1.64-.3-4-2.66-4.37-1.78-.25-4.25-.58-5.36.36-2.6,2.2-4.75,2.48-7.68.84-1.86-1-2.44,1.16-3.38,2.21-1.21,1.34-.8,2.5.63,3.28,1.65.9,2.65,2.05,2.27,4a2.21,2.21,0,0,1-1.5,1.86,1.65,1.65,0,0,1-2-1.1c-1.73-4.58-5.46-6.81-9.67-8.68-2.68-1.19,1.15-2.57.18-4,1.9-1.87,4.35-1.5,6.65-1.52,7.54-.07,15.08-.13,22.61,0a131.93,131.93,0,0,0,36.33-4,11.37,11.37,0,0,1,3.47-.44c5.13,2.58,11.57,2.1,15.84,6.85,1.07,1.19,2.47.09,2.83-1,1.9-5.52,6.89-10,5.85-16.53,5.85-4.36,7.14-9.85,4.53-16.62A6.77,6.77,0,0,1,567.72,443.4Z"/><path class="cls-10" d="M141.87,412.1c-3.4,1.38-7.13,2-10.19,4.14s-4-1.5-6.06-1.86c-14.88-14.08-17.72-32.13-15.72-51.15a626.62,626.62,0,0,1,20-104.9c3.6-12.74,9.54-24.68,23.29-30,1.56-.61,3-1.57,4.82-1.24.07,3.07-3,5.07-3.21,8.91a19,19,0,0,0,7-6.37c1.78-2.43-2.14-1.36-2-2.9,9.56-.84,19.18-2.6,28.48,1.5.37,1.2,3.64,1.64.88,3.65-5,3.62-6.56,9.28-8.69,14.6-4.94-1.33-10-.85-15-.86-5.34,0-10.67.09-15.92-1-4.41,3-5.39,7.79-6,12.56-.39,3.27,1.75,1.77,3.2,1.24a63.2,63.2,0,0,1,30.65,0c-.61,7.42-.84,14.82,2.52,21.76,1,2-.11,3-1.18,4.39-9.69,12.5-12.49,26.06-5.84,40.9a5.57,5.57,0,0,1,.32,4.76c-2.18,5.45-4.22,11-6.36,16.42-3.93,10-5.37,20.11-.4,30.19.88,1.78.4,2.72-.64,4-6.91,8.27-7.56,17.66-4.54,27.53,1.19,3.9,1.23,5.53-3.79,4.35-4-.93-8.35-.49-12.54-.66-1-.83,3.5-1.79-.37-3.06s-6.63-4.5-9.51-7.37c-1.25-1.24-2.19-3.06-4.74-3.11,1.13,4.43,4.66,6.49,7.64,9C139.54,408.76,142.18,409.22,141.87,412.1Z"/><path class="cls-11" d="M219.85,182.38c-5.79-10.24-1.52-20.3.82-30.24,7.61-32.47,21.4-61.91,43.85-86.92,1.11-1.24,2.42-2.3,3.64-3.45,1.33-.2,2.64-.5,3.92.28,1.55,1,2.7.24,4.09-.7C291,51.23,305.71,40.83,322.51,33.86c30.63-12.7,61.82-15.3,93.88-6.39,7.14,2,14.44,3.4,21.07,6.92.84.45,1.86,1,2.81,0-.15-1.66-1.55-2.15-2.72-2.6-9.74-3.71-18.75-9.4-29.16-11.2-7.44-1.28-15.1-1.07-22.53-2.69-2.4-.52-4.76-1-4.31-4.33,26.05.2,51,5,73.75,18.27a13,13,0,0,0,5.09,6.68c26.9,20.41,47.42,45.9,59.4,77.59,7.69,20.37,13,41.46,13.81,63.41a15.25,15.25,0,0,1-.65,6c-1.48,4-4.45,5.33-8.65,3.92-.17-3.85-1.32-7.55-4.12-10s-3.69-5.63-4.2-9.24c-5.26-36.69-17.63-70.32-44.66-96.8C436.92,39.64,395.64,28.55,348.63,38c-2.8.56-5.57,1.21-8.36,1.81-27.22,5.79-49.53,19.92-67.48,40.8-21.31,24.79-33.32,54-38.8,86-.74,4.32-1.48,8.66-2.64,12.88C229.76,185.31,224.45,186.57,219.85,182.38Z"/><path class="cls-12" d="M524.3,189.43c6.11-.33,7.72-2.07,8-7.85.47-8.83-1.44-17.32-3-25.9-3.56-19.41-9.11-38.16-18.09-55.79a162.87,162.87,0,0,0-29-40.37C474.82,52,467.42,44,458,38.35c-1.92-1.14-5.23-3-2.73-6.52,7,2.59,13,6.9,18.92,11.29,27.5,20.48,45.66,47.68,57.08,79.74,6.12,17.22,9.64,35,11.82,53.05a3.88,3.88,0,0,1-.72,3.3c-3.32,3.83-4.34,8.35-5.22,13.33-.84,4.75-6.15,3.63-9.72,3.65C522.36,196.22,524.6,192.07,524.3,189.43Z"/><path class="cls-13" d="M381.55,13.56c.81,1.22,1.21,2.72,3.11,3,4.64.58,9.26,1.9,13.89,1.9,11.42,0,21.64,3.51,31.44,9,3,1.69,6.67,2.21,9.83,3.71,1.66.79,4.12,2.32,3,4.53-1,2-3.65,1.38-5.41.44-11.73-6.27-24.72-7.88-37.45-10.69-9.35-2.07-18.7-2.28-28.05-1.74C342,25.42,315.1,35.78,290.84,53.17A46.36,46.36,0,0,1,280.91,59c-.62.24-1.52.42-1.75.89-2.82,5.83-6.67,5.21-11,1.86,22-24,49.3-38.45,80.84-45.36A137.83,137.83,0,0,1,381.55,13.56Z"/><path class="cls-14" d="M219.85,182.38c7.13,2.76,9.73,1.54,10.87-5.54a262,262,0,0,1,8.47-37.66A169.41,169.41,0,0,1,269.71,82.3c12.67-15.44,27.84-27.74,46.13-35.74,7.7-3.37,15.44-7.58,24.43-6.73-13,5.06-25.63,11-36.79,19.61-23.1,17.93-39.18,40.93-49.73,68-5.21,13.36-9.35,27-10.91,41.32-.25,2.31-1.93,3.4-3.32,4.84-3.74,3.89-6.4,8.18-4.7,13.93,1.26,3.38-1.54,3.49-3.46,4.11-3.51,1.13-6.49-.77-9.57-2C218,188.07,220.42,184.83,219.85,182.38Z"/><path class="cls-15" d="M262.25,229.1c-4.23,5.5-10.27,7.15-16.76,8-3.26.42-6.73.29-9.53,2.51-2.08,1.65-3.45,3.67-3.15,6.49-.92,3.64.48,7.73-2.09,11.06-1.38,6-2.42,12.16-6.94,16.88a2.8,2.8,0,0,0-.59,2.34c1.39,15-1,29.36-8,42.82-.63,1.2-.07,2.23.14,3.38,2,11,2.43,22-1.48,32.8a14.73,14.73,0,0,1-2.46,4.93c-3.23,3.65-2.75,7.78-2.46,12.3.54,8.69-1.12,17.29-2.7,25.84,0,.16-.13.31-.17.47-.85,3.84-.13,7.59.18,11.45.54,6.57,6.21,2.05,8.38,4.58-3.83.34-8.28,1.68-11.37.7-4-1.29-.62-6.8-2.15-10.2-2-4.58-1.12-8.32,1-13.22,4.43-10,6.06-21,1.91-31.81-.69-1.81-.12-2.72.86-4,8.78-11.35,9.32-24.11,5.67-37.26-.88-3.19-.82-5,1.44-7.5,5.65-6.33,6.78-14.49,7.51-22.55.48-5.31,1.1-10.74-.55-16-.5-1.59.18-2.55,1.15-3.56,7.47-7.74,8.42-17.24,7.12-27.24-.6-4.69,4-10.24,8.64-10.32,6.12-.11,12.47,1.54,18.21-2A14.41,14.41,0,0,1,262.25,229.1Z"/><path class="cls-6" d="M543.45,597.3c.29,2.76-1.53,5.35-3.47,5.4-6.64.15-4.88,5.06-5.63,8.62-18.68-.55-37.37-1.1-56-2.86,6.91,1.71,10.39-2.12,13.36-7.65,1.57-2.93,3.33-7.09,8.3-4.63,4.06-.92,7.88,1.25,12,.87,2.63-.25,4.17-.91,4.1-3.75,1-2.46,3.38-2.23,6.22-3.16-3.14,5.26-1.68,6.38,3.21,5.17,2.31-.57,5.08-.73,6.73,1.94A26.86,26.86,0,0,1,543.45,597.3Z"/><path class="cls-16" d="M586.11,565.12q-.09-46.39-.17-92.8c0-10.93,0-21.85,0-33.4-3.1,6.32-6.37,11.76-11.56,16.37-1.81-5.16,2-11.57-4.43-14.73.75-2.35,3.2-3.71,3.62-6.24,6.22-7.49,8.86-16.72,12.11-25.88,1.7,1.13,1.08,2.4,1.08,3.42q.06,45.63.06,91.27,0,28.27-.08,56.56C586.73,561.51,587.11,563.41,586.11,565.12Z"/><path class="cls-17" d="M511.05,187.2a7.31,7.31,0,0,1,1,8.4c-3.44,7.34-2.8,14.59.13,21.86.47,2.61,2.2,4.39,3.95,6.2s3.65,3.7,2.32,6.54c-1.24,2.65-3.57,3.86-6.39,4.18a10.82,10.82,0,0,1-4.46-.2c-5.56-2.34-8.92-6.66-11-12.15,3.94-3.29,4.11-7.36,3.42-12.19-1.07-7.5,1.7-14.18,6.38-20C507.57,188.43,508.91,187,511.05,187.2Z"/><path class="cls-18" d="M206.56,222.87c-2.08,4.42-5.28,3.67-8.54,1.68a44.66,44.66,0,0,1-4.59-3.69c-1.33-1.9-2.82-3.71-3.42-6,3.75-2.42,4.21-5.88,4.33-10.16.2-7.15,1-14.44,6.25-20.19,1.7-1.87,3.3-3.83,6.08-4.05a11.46,11.46,0,0,1-.85,10.47c-5,8.48-4.42,16.71,2.09,24.16C211.26,218.91,205.94,220.14,206.56,222.87Z"/><path class="cls-19" d="M554.54,224H542.33a73.29,73.29,0,0,0,5.3-5.95c4.87-6.94,4.84-14.35,1.77-22-1.74-4.3-1.67-8.16,2.89-10.79,2.23-.44,3.33,1.14,4.46,2.58,6.3,7.94,7.24,23.24,2.08,32A12.52,12.52,0,0,1,554.54,224Z"/><path class="cls-20" d="M250.12,214.74c-3.73-.06-7.53.87-11.1-1,2.44-3.56,6.79-5.86,7.13-10.8.49-4.66-1.16-9.17-1-13.82-1.4-3.6.58-7.65,4.78-9.76a8.06,8.06,0,0,1,4.39,3.17c5.15,6.92,4,24.57-2.13,30.79A10.33,10.33,0,0,1,250.12,214.74Z"/><path class="cls-21" d="M206.67,180.44c-10.13,7.48-11.93,18.18-10.79,29.59.56,5.59-4.23,2.88-5.87,4.81-4.5-10.75-3.54-21.13,2.3-31.08a15.56,15.56,0,0,1,7.34-6.57C203.26,175.63,205.81,176.15,206.67,180.44Z"/><path class="cls-22" d="M511.05,187.2c-7.8,6.56-11,14.75-9.32,24.94.71,4.29,1.21,9-5.08,9.89a36.6,36.6,0,0,1-1.86-26.31,19.49,19.49,0,0,1,7.38-10.46C505.76,182.68,509,182.58,511.05,187.2Z"/><path class="cls-23" d="M554.54,224c8.09-12.17,8.5-24.49,1.25-35.22a8.92,8.92,0,0,0-3.5-3.5c3.19-2.49,5.79-.62,8,1.46,7.45,7.06,8.2,16.08,7,25.54a29.67,29.67,0,0,1-1.32,4.84C563.46,225.16,563,225.42,554.54,224Z"/><path class="cls-24" d="M250.12,214.74c6.3-8.13,7.31-17.19,5.15-27-.78-3.59-3.4-5.64-5.31-8.31,5.41-1.2,10.65,3.1,12.24,10.08a55.38,55.38,0,0,1,.9,12.92c-.25,1.11-.52,2.23-.76,3.35C260.49,214.31,259,215.41,250.12,214.74Z"/><path class="cls-25" d="M642.51,566.88c-1,3.3-2,6.61-3.09,10.36,3.82-.27,6.08-3.32,9.22-4.35.65,3,2.85,4.77,4.92,6.66a2.25,2.25,0,0,1,.94,2.18c-.28,1.25-1.37,1.37-2.38,1.29-4.47-.33-9-.57-13.39-1.17-2.24-.31-2.79-2.48-3.62-4.38-1-2.28-1.78-5.54-5.63-3.53q2-6.63,3.94-13.28C637.34,561.44,639.84,564.28,642.51,566.88Z"/><path class="cls-8" d="M245.17,189.17a15.27,15.27,0,0,1,1,13.82c-.78-5.57-5.87-5-8.88-4.71-8.55.73-8.49,1.19-13.19-6a22.43,22.43,0,0,0-2.29-2.6c2.84.12,5.58,1.27,8.47.78,1.93-.33,4.2-.14,4.56-2.92C238.78,184.86,241.76,188.35,245.17,189.17Z"/><path class="cls-26" d="M507.63,234.18c.95-.28,1.89-.59,2.85-.83,9.06-2.22,9.62-3.8,3.25-10.24-1.75-1.77-2.33-3.41-1.52-5.65,2.77,3.25,5.6,5.95,10.5,5.87,4-.06,5.94,3.29,6.19,6.78s-2.32,6.15-5.76,6.57C517.83,237.33,512.38,237.58,507.63,234.18Z"/><path class="cls-27" d="M213.74,220c1.36-1.48-.06-4,1.93-5.23,4.67-.56,6.69.83,6.1,5.06a42.15,42.15,0,0,1-5.93,17c-1.47,2.32-3.77,5.42-6.85,3.37-2.91-1.93-.47-4.8.63-7.15l.93-3.1C212.06,226.78,213.45,223.57,213.74,220Z"/><path class="cls-6" d="M547.5,609.35a4.11,4.11,0,0,1,2.8-3.85c4.28-1.55,7.65-3.89,9.17-8.44.26-.81,2.33-1.46,2.22-1-1.24,5.29,6.28,3.94,6,8.24.6.4.64.87.13,1.39-6.86,4.26-14.49,5.49-22.39,5.58-.12-2.1,1.52-1.13,2.45-1.4.3-.08.63.13.92-.07A1.68,1.68,0,0,1,547.5,609.35Z"/><path class="cls-28" d="M118.6,423.2c2.47,4.19-2,6-3.06,9.05a3.65,3.65,0,0,1-3-3,119.16,119.16,0,0,1-9.11-17c.13-1.93-.26-4,1.35-5.78C109.11,412.3,112.33,419,118.6,423.2Z"/><path class="cls-29" d="M236.37,200.76c-5,1.29-10,.85-15,0A57.65,57.65,0,0,0,236.37,200.76Z"/><path class="cls-30" d="M548.54,238.06a50.49,50.49,0,0,1-22.61,10.46c-3.72.65-7.9-1.39-11.88-2.21,3.16-.05,6.32-.08,9.48-.14,4.06-.07,7.89-1.45,10-4.74,2.91-4.53,6.48-4.94,11-3.68A20.08,20.08,0,0,0,548.54,238.06Z"/><path class="cls-31" d="M598,239.34c-1.09,5.2-5.75,7.56-8.91,11.1a1.72,1.72,0,0,1-2.66.08,2.51,2.51,0,0,1-.26-2.82c1.37-3.59,4.61-5.66,7-8.46Z"/><path class="cls-32" d="M159.78,226.71l4.68.34c-1.41,4.52-5.16,6.89-8,9.94a1.71,1.71,0,0,1-2.63.22,2.08,2.08,0,0,1-.46-2.71c1.48-2.53,2.4-5.42,4.7-7.43Z"/><path class="cls-6" d="M567.87,605.7c0-.47-.09-.93-.13-1.39,2.78-2.72,4.42-6.93,9.19-7A19.46,19.46,0,0,1,567.87,605.7Z"/><path class="cls-8" d="M236.37,200.76c-5,1.29-10,.85-15,0Z"/><path class="cls-6" d="M547.5,609.35h3.56c-2,1.67-4.35.21-5.58,1.93l-4,.08C542.76,608.55,545.33,609.57,547.5,609.35Z"/><path class="cls-33" d="M230.72,257.16c.87-3.65-1.5-7.92,2.09-11.06,15.79.35,31.61.34,47.38,1.15,21.14,1.09,42.3,1.36,63.43,2.15,16.94.64,33.87,1.39,50.81,2,20.3.73,40.61,1.34,60.92,2,17.94.59,35.9,1.21,53.83,2,18.62.86,37.22,1.8,55.86,2,4.63,0,9.7-.41,13.8,2.89.83,4.93-.16,7.07-3.76,8.14-10.42,2.53-21,2-31.61,2-3.62-1.38-7.52.33-11.14-1l-23.26,0c-2.92-1.43-6.33,1.67-9.12-1l-27.31,0c-1.33-1.53-3.13-.95-4.75-1-18.41-.36-36.85-.22-55.24-1.15-20.62-1-41.25-1.34-61.86-2.09q-32.21-1.17-64.4-2c-17.25-.43-34.49-1.89-51.77-1.79C232.24,260.39,230.64,259.91,230.72,257.16Z"/><path class="cls-34" d="M407.81,454.79c-7.46,0-7.49-.11-6.65-7.55a103.37,103.37,0,0,0,.28-24.92c6.31,3.09,7.08,9.5,6.93,15C408.22,443.09,408.31,449,407.81,454.79Z"/><path class="cls-35" d="M563.49,350.35c.5-2.6.36-5.26,1.14-7.88.57-1.89,1.17-3.18,3.18-3.1,2.73.11,1.76,2.34,1.9,3.82s0,2.69,0,4c-1.71,2.95-.45,6.31-1.3,9.35-.45,1.62-.31,4.13-3,3.83-2.5-.27-1.73-2.46-1.81-4C563.45,354.39,563.5,352.37,563.49,350.35Z"/><path class="cls-36" d="M447.12,445.35c-2.34,0-4.69.08-7,0-1.61-.08-3.12-.92-3.13-2.62,0-1.47,1.44-2.28,2.87-2.29,4.69,0,9.38,0,14.07.18a3,3,0,0,1,3.07,2.78c0,2-1.76,2.13-3.31,2.15-2.18,0-4.36,0-6.54,0Z"/><path class="cls-37" d="M509.14,446.29c-2.3.07-3.59-.34-4-1.88-.44-1.69.7-2.57,2.09-2.9,4.39-1.05,8.8-2.05,13.24-2.92a2.92,2.92,0,0,1,3.22,2c.77,1.91-1,2.32-2.18,2.64C517.16,444.39,512.74,445.4,509.14,446.29Z"/><path class="cls-38" d="M554.54,416c-1.49,4-3.45,8.08-7.35,10.8A2.33,2.33,0,0,1,544,423.5c2-3.09,4-6.18,6.07-9.24a2.29,2.29,0,0,1,3-1A2.55,2.55,0,0,1,554.54,416Z"/><path class="cls-39" d="M481.28,446.39c-2.51,0-5,.1-7.55,0a2.42,2.42,0,0,1-2.43-2.17,2.26,2.26,0,0,1,2.38-2.17c5,0,10,.22,15,.54a2.18,2.18,0,0,1,2,2.53c-.17,1.18-1.25,1.49-2.31,1.5-2.35,0-4.7,0-7.06,0Z"/><path class="cls-40" d="M560.63,385.91c-2.77-4.61.79-9.05.4-13.62-.09-1,1.21-1.6,2.27-1.53,1.65.09,2.26,1.33,2.36,2.77a32,32,0,0,1-2,12.26Z"/><path class="cls-41" d="M271.27,430.49c2.32,0,4.73-.48,6.92.75,1,.59,2.24,1.15,1.87,2.6-.28,1.06-1.3,1.4-2.38,1.51-4.24.41-8.32-.84-12.49-1.2a1.79,1.79,0,0,1-1.71-2.09,1.81,1.81,0,0,1,1.75-1.54C267.24,430.42,269.26,430.49,271.27,430.49Z"/><path class="cls-42" d="M559.37,404.86c-2.83,1.36-4.4.8-3.64-2.64.53-2.39,1.34-4.72,2-7.08,1.33-.77,2.23-3.05,4.13-1.79,1.53,1,.32,2.67.15,4.09C561.71,400.14,560.23,402.38,559.37,404.86Z"/><path class="cls-43" d="M415.52,443.73c-2-1.29-6.42,1.76-6.32-2.43.09-3.94,4.29-1.78,6.56-1.89,2.49-.13,7-1.52,6.79,2.53C422.36,445.13,418,442.87,415.52,443.73Z"/><path class="cls-44" d="M531.23,438.53c-.48-.29-1.3-.5-1.44-.94s.22-1.21.51-1.75a3.46,3.46,0,0,1,1-1.07c2.2-1.63,4-4.27,7.3-3.3.85.25,1.56,1.1,1,1.9C537.74,436.34,534.61,437.46,531.23,438.53Z"/><path class="cls-45" d="M246.08,433.27l-3.12-4a2.56,2.56,0,0,1,2.7-.9c2.2.21,5,.53,5.11,3C250.88,434.59,247.7,432.62,246.08,433.27Z"/><path class="cls-16" d="M539.39,477.82c-23.22,7-47.1,4.74-70.8,5.09l-51.17-3.09a12.63,12.63,0,0,1-1.51-.05c-10.79-2-8.64-2.06-9.88,8.44-1.92,16.23-9.73,27.37-28.92,27.21-21.49-.18-42.88-1.83-64.29-3.31-6-.41-10.53-4.1-14.29-8.66-.68-.82-.11-1.57.06-2.35,17.81,2.84,35.81,3.36,53.78,4.19,6.22.29,12.44.57,18.65,1,18.81,1.27,26.76-10.57,28.59-26.85.19-1.68.17-3.37.24-5.06.34-8.09.34-8,8.37-7.43,12.75.95,25.5,2,38.27,2.61,17.5.8,35,1.47,52.54,1.35,26.57-.18,50-7.8,68.69-27.5.27,5-.67,10.16,3,14.46.92,1.08-.48,1.75-1.1,2.35-2.27,2.21-4.64,4.34-7,6.49-3.46,5-9.21,6.44-14.29,8.77C545.62,476.73,542.78,478.56,539.39,477.82Z"/><path class="cls-46" d="M174.15,544.55c8.71-1,15.71-5.88,22.64-10.48,15.34-10.19,29.26-22.11,40.55-36.8,8.11-10.56,14-22.11,15-35.72.2-2.84.62-5.19,4.63-4.81,8.36.81,16.75,1.32,25.14,1.75,2.55.13,3.74.87,3.45,3.55-.4,3.64.46,7.39-1,10.94-1.69-3.74-5.4-2.76-8.21-3.06-4.82-.52-9.74-.06-14.61-.21-2.56-.08-3.2,1-3.77,3.4-1.81,7.78-2.61,15.86-6.88,23a129.73,129.73,0,0,1-27.84,32.73c-9.29,7.8-19,14.86-30,19.92C185.15,552.43,179.3,551.15,174.15,544.55Z"/><path class="cls-47" d="M109.45,453.66q.57,6.9,1.16,13.81c-.7,3.41-1.33,6.84-2.15,10.23a2.4,2.4,0,0,1-2.56,2,1.27,1.27,0,0,1-1.34-1.22C104.88,469.94,104.8,461.33,109.45,453.66Z"/><path class="cls-48" d="M410.7,592.29c-2.49-.17-5-.2-7.46-.58-1.06-.16-2.35-.78-2.21-2.29a2.27,2.27,0,0,1,2.35-2.18c4.34,0,8.68,0,13,.26,1.33.09,3.3.79,3.2,2.61-.12,2.33-2.23,2-3.86,2.07s-3.34,0-5,0Z"/><path class="cls-49" d="M377.12,590.06c-2.19,0-4.38.05-6.56,0-1.61,0-3.34-.64-3.41-2.33s1.53-2.5,3.17-2.61a51.47,51.47,0,0,1,14,1.1c1,.22,1.93.79,1.88,2a1.94,1.94,0,0,1-2,1.85c-2.35.11-4.7,0-7.05,0Z"/><path class="cls-50" d="M308.64,581c2.48.28,5.38-.52,8,1,.89.49,1.89,1,1.82,2.12-.09,1.44-1.25,1.93-2.47,1.94-4.49,0-9,.33-13.4-.9-1.33-.38-2.81-.65-2.51-2.41.22-1.32,1.5-1.67,2.73-1.69C304.67,581,306.5,581,308.64,581Z"/><path class="cls-51" d="M343.26,588c-2.18,0-4.37.08-6.55,0a2.37,2.37,0,0,1-2.57-2.51,2.28,2.28,0,0,1,2.26-2.28c5.06-.62,10,.68,15,1.19a1.66,1.66,0,0,1,1.44,1.8,1.93,1.93,0,0,1-2,1.87c-2.51.1-5,0-7.56,0Z"/><path class="cls-52" d="M476.41,596.21a22.86,22.86,0,0,1-6.52-.9c-1.3-.36-2.9-.43-2.86-2.17s1.57-2,3-2c4.17,0,8.37-.37,12.47.87,1.3.39,3,.46,2.86,2.17-.12,2-1.94,2-3.45,2C480.52,596.24,479.18,596.21,476.41,596.21Z"/><path class="cls-53" d="M277.08,584c-2.65-.14-5.39.43-7.88-1-.88-.5-1.82-1-1.6-2.26a2.09,2.09,0,0,1,2.15-1.75c4,0,8,0,12,.34,1.36.11,3.32.81,3.22,2.61-.13,2.31-2.26,2-3.9,2C279.76,584.07,278.42,584,277.08,584Z"/><path class="cls-54" d="M244.49,577a42.52,42.52,0,0,1,6,.51,2.53,2.53,0,0,1,2.22,2.9c-.28,1.36-1.56,1.69-2.78,1.63-4-.17-8,.6-12-.78-1.26-.44-2.86-.69-2.62-2.45s1.75-1.79,3.14-1.81Z"/><path class="cls-55" d="M443.81,594a59.21,59.21,0,0,1-6.53-.06,2.86,2.86,0,0,1-2.66-2.63c-.05-1.74,1.45-2.14,2.85-2.1,4,.14,8.06-.58,12,.79,1.29.45,2.86.7,2.58,2.46s-1.82,1.73-3.19,1.75c-1.68,0-3.36,0-5,0Z"/><path class="cls-56" d="M516.07,593.3c.49,1.18,2.35,1.8,1.67,3.4s-2.44,1.47-3.94,1.5c-4.7.07-9.41.16-13.79-2,.15-2.72,2-3.07,4.17-3C508.14,593.21,512.11,593.25,516.07,593.3Z"/><path class="cls-57" d="M543.45,597.3a15.21,15.21,0,0,1-11.22,0l1-3.09a121.38,121.38,0,0,0,12.23-2.25c2.22-.63,3.46.25,4.94,1.3.39,3.94-2.74,3.42-5,4Z"/><path class="cls-58" d="M158,571c2.17,0,4.35-.1,6.52,0a3.16,3.16,0,0,1,3.17,2.72c.16,2-1.66,2.14-3.21,2.21-4.37.2-8.6-.77-12.83-1.64-.86-.17-2.27-.13-2.21-1.51S150.75,571,152,571c2-.07,4,0,6,0Z"/><path class="cls-59" d="M101.34,496.58c-.43-3,.58-6,1.38-9a2.61,2.61,0,0,1,2.49-2.13c1.62.15,1.2,1.72,1.24,2.81a42.36,42.36,0,0,1-1,11.38c-.44,1.83-.66,4.16-2.92,3.75s-2-2.62-1.36-4.52A9.84,9.84,0,0,0,101.34,496.58Z"/><path class="cls-60" d="M211.53,575.13c2.32.08,4.74-.64,7,.39,1.05.49,2.1,1.27,1.92,2.66a2,2,0,0,1-2.16,1.72q-6.48-.49-12.94-1.26a1.6,1.6,0,0,1-1.42-1.79,1.76,1.76,0,0,1,1.6-1.68C207.51,575.05,209.52,575.13,211.53,575.13Z"/><path class="cls-61" d="M98.34,546.36c0-2.7-.27-4.72,2-5s1.82,1.8,2.26,3.13q1.52,4.53,3.19,9c.43,1.14,1.05,2.33-.08,3.23-1.66,1.32-2.32-.59-3.19-1.36C99.52,552.69,98.81,549.05,98.34,546.36Z"/><path class="cls-62" d="M127.64,566.81a61,61,0,0,1,6.23,1.34c1.28.4,3.45.62,3.08,2.58-.3,1.59-2.28,2.07-3.7,2a23,23,0,0,1-6.86-1.17c-1.64-.58-4.83-.25-4.22-3.16C122.63,566.21,125.24,567.05,127.64,566.81Z"/><path class="cls-63" d="M98.27,518.34c.21-2.8-.64-5.71,2.19-7.52.75-.49,1.88-.71,2.28,0,1.33,2.51.89,5.31.22,7.84-.57,2.16.12,6.26-3.28,5.74C97.08,524,98.72,520.33,98.27,518.34Z"/><path class="cls-64" d="M112.53,429.21c1,1,2,2,3,3q-2.1,5.1-4.19,10.21c-.75.17-1.82.67-1.79-.66C109.65,437.41,109.56,432.94,112.53,429.21Z"/><path class="cls-65" d="M184.72,572.87a15.4,15.4,0,0,1,3,.18,4.35,4.35,0,0,1,2.08,1.14,1.78,1.78,0,0,1,0,2.68c-3,2-6-.18-9-.27a1.93,1.93,0,0,1-1.71-2.13c.38-1.62,1.93-1.54,3.26-1.59C183.06,572.85,183.89,572.88,184.72,572.87Z"/><path class="cls-61" d="M101.36,535.66c-.09,1.48,0,3.5-1.9,3.47-2.68,0-2.1-2.49-2.1-4.2,0-1.35-.51-3.45,1.89-3.17C101.43,532,101.34,534,101.36,535.66Z"/><path class="cls-66" d="M233.91,435.39c8.65,10.35,9.73,22.25,6.26,34.63-4.4,15.66-15.14,27.11-26.68,37.84-9.65,9-20.51,16.3-31.66,23.25-4.32,2.69-7.75,2.61-11.74-.81-13.43-11.52-26.37-23.46-36.09-38.45.09-.82-.35-2,.35-2.4,5.15-2.8,2.1-6.05.62-9.22-4.66-10-7.78-20.12-3.67-31.18,5-13.47,18.1-19.35,31.52-14a11.32,11.32,0,0,0,3.8,1.29c1-2.11-.33-5.05,2.53-6.22,3.2,2.08,5.25,5.15,7,8.42a11.36,11.36,0,0,0,4.34,4.74c.55,1.83.12,3.68.11,5.52,0,1-.24,2.18.81,2.72s1.91-.37,2.6-1.05c2.18-2.12,4.75-3.8,6.91-5.9,9.81-9.57,21.43-11.2,34.15-7.88C228.28,437.5,231.29,438.13,233.91,435.39Z"/><path class="cls-67" d="M388.62,420.06a7.84,7.84,0,0,1,3.17,5.91c.32.61.6,1.38.18,1.91-5.59,7.1-4,15.68-4.84,23.73-1,9.2-.88,18.49-2.2,27.67-1.08,7.48-6.37,12.48-13.87,13.07-3.19.25-6.4.08-9.6.11-2,0-3.93.1-5.51,1.86-2,2.21-4.64,1.14-7.08.82-14-.45-28.07-.91-42-2.89-4.27-.6-8.06-2.18-10.11-6.39,5.74-3.81,5.46-9.59,5.54-15.56.16-11.94,1.83-23.79,3.49-35.6,1.14-8.16,6-12,14.19-11.93,17.81.07,35.64.57,53.31,2.88C379.75,426.5,384.18,423.75,388.62,420.06Z"/><path class="cls-68" d="M388.62,420.06c-2.74,7.07-8.5,7.89-14.93,7.1C356,425,338.2,424.8,320.43,424c-8.56-.39-12.93,5-13.59,12.69-1.24,14.19-3.95,28.28-3,42.62.32,5.05-4.25,4.84-7,6.55-3.85-5.9-2.19-12.46-1.84-18.7.7-12.59,2.07-25.15,3-37.73,1-12.76,6.57-17.69,19.27-16.94,20.16,1.17,40.33,2.27,60.49,3.43C381.77,416.15,385.8,416.54,388.62,420.06Z"/><path class="cls-69" d="M169.15,430.09c-1.87,2.77-.58,5.75-.14,9.2-4.77-2-8.64-4.68-13.39-5-18.94-1.21-27,16.23-24.52,30.17a66.11,66.11,0,0,0,7.28,19.68c1.2,2.25,2.92,4.88-1.91,4.87-1.86,0-1.44,2.06-2.47,2.82-9.75-13.36-15.87-27.81-12.46-44.77,4.17-20.69,24.17-30.48,42.51-21C166,427.11,167.94,428.14,169.15,430.09Z"/><path class="cls-70" d="M233.91,435.39c-.54,3.78-2.34,4.4-6,3.28a48.21,48.21,0,0,0-18.28-2c-10.19.82-16.31,7.76-23.37,13.47-1.9,1.55-3.73,4.91-6,3.73s-1-4.85-.78-7.4c.09-1-.22-2.42,1-3.21,2.2-1.05,3.57-3,5.11-4.75,11.46-13.2,27.82-16.73,41.62-9C229.86,431,232.34,432.67,233.91,435.39Z"/><path class="cls-71" d="M348.87,495.14c2.37-.69,6.39,1.4,6.27-3.69A10.64,10.64,0,0,1,358,491c4.37,0,8.75.09,13.12-.06,6.31-.21,11.89-5.08,12.48-11.12.84-8.49,1.8-17,1.9-25.53.08-6.57,1.61-13,1.16-19.57-.29-4.19,4.13-5.46,5.16-8.79,2,7.68,0,15.36-.28,23-.45,11.42-1.54,22.82-2.74,34.19-.88,8.45-5.33,12.94-13.81,13.15C366.28,496.51,357.51,496.81,348.87,495.14Z"/><path class="cls-72" d="M209.62,233.06a3.35,3.35,0,0,0,0,1c.67,1.94-2.71,4.63.27,5.68,2.44.86,4.1-2.11,5.15-4a49.12,49.12,0,0,0,5.49-16c.56-3.35-1-5.52-4.86-5,6.55-2.41,9.77-.52,9.34,6a38,38,0,0,1-8.59,21.15c-3.31,4.19-7.4,4.15-10.91.34-1.89-2.06-3.52-1.37-4.49.34-3.74,6.59-6.9,13.5-5.5,21.35.35,2-.53,3.57-.35,5.39.25,2.52.86,4.27,3.61,2.1,2.1-1.66,4-1.24,6,0-3.63,1.29-.8,5.61-3.47,7.35-.9-2.31-1.6-4.71-4.52-1.48-3.75,4.16-5.34,4-8.56-.49a38,38,0,0,1-2-3.46c1.32-10.5,5.62-20.15,8.66-30.16,1.13-3.71,2.65-7.26,6.51-9.07C204.25,234.57,207.32,236.71,209.62,233.06Z"/><path class="cls-73" d="M197.53,315.92c6.29,1.9,6.35,7.49,6.51,12.32a50.37,50.37,0,0,1-3,19.79,11.42,11.42,0,0,1-4.87,6.24c-2.94,1.62-6.33,3.42-8-1.65-.75-2.2-2.05-1.75-3.5-.83-3.43,2.15-5.38,14.74-2.65,17.76.71.79,1.91,1.12,3,1.72-1.86,2.39-2.63,6.48-6.86,5.32s-6.7-4.27-6.77-8.89a14.79,14.79,0,0,0,4.49-9.2c.52-4,2.63-7.52,4.21-11.18.65-1.51,2.7-3.05-.93-3.18a5.38,5.38,0,0,1,6.87.19c1.86,1.45,3.72,1.11,5.57,0,1.21,2.05,2.59,3.56,3.74.08a56.34,56.34,0,0,0,2.8-20.14c-.11-2.81-2.6-3.66-4.2-5.25C192.06,314.37,195,315.33,197.53,315.92Z"/><path class="cls-74" d="M148,243.23c.37-.32.88-1,1.07-.9,8.7,3.64,17.81,1,26.68,1.81,1.88.16,4.25-.68,4.73,2.32l-3,11.87c-8.16,0-16.32.08-24.47-.06a14.44,14.44,0,0,0-7.08,2.05c-1.55-2.87.51-5.1,1.41-7.5C148.46,249.66,150.12,246.6,148,243.23Z"/><path class="cls-75" d="M197.53,315.92c-2.18-.09-4.27-.08-3.08,3.13,1.51,2.66,2.5,5.24-.93,7.27a2.73,2.73,0,0,0-3.5-1.13c-6.09,3.33-8.61-.77-11.1-5.09,3.61-2.86,4.37-6.62,4.19-11.07-.21-5.37.42-10.74,3.12-15.61,1-1.88.45-4,.81-5.93,2.51-1.86,5-.58,6.92.71,2.67,1.76,4.58,1.25,6.5-.87,2.43,5,1.89,8.43-1.8,11.52,0-2.28-.71-3.9-3.25-4.27-2.24-.33-3.35,1-4.39,2.64-3.11,5-3.35,10.56-3.07,16.07.11,2.17.86,6.34,4.92,2.35C194.16,314.36,196,314.87,197.53,315.92Z"/><path class="cls-76" d="M183.19,408.26c-1-.68-1.74-2-3.3-.4-4.66,4.66-5.95,4.48-10-.86-.39-8.32.18-16.51,3.44-24.32,1.73-1.9,3.81-.06,5.71-.52,1.11-.27,2.59-.23,3.07,1,.59,1.58-1.22,1.67-2,2.38-2.65,2.39-4.69,12.56-2.9,15.51,2.45,4.06,3.44-.65,5.17-1C185.55,402.54,185.25,405.31,183.19,408.26Z"/><path class="cls-77" d="M198.66,298.85c2.09-3.61,2.2-7.52,1.8-11.52q.43-4.27.86-8.53a14.73,14.73,0,0,0,.07-4c-.82-3.25,1-3.55,3.39-3.38a5.67,5.67,0,0,1,4.7,3.12,1.82,1.82,0,0,1,.58,1.81,169.14,169.14,0,0,1-6.43,26.24,7.6,7.6,0,0,1-1,1.74c-1.39,2.08-3.31,4.05-5.76,2.59-2.77-1.65-.44-3.74.51-5.55C197.19,300.24,198.19,299.68,198.66,298.85Z"/><path class="cls-78" d="M201.41,234.14c-4.93,6.34-7,13.86-9.11,21.41-1.7,6-4,11.89-6.05,17.82-2.23-4.31-1.23-8.86-.64-13.24a67.58,67.58,0,0,1,5.51-18.7C193.11,237,196.22,234.08,201.41,234.14Z"/><path class="cls-79" d="M187,287.49c1.7,2.24,1.9,4.25.29,6.9-3.24,5.34-3.17,11.54-3,17.48.16,4.44-.8,7.34-5.45,8.23C175.19,308.54,179.06,293,187,287.49Z"/><path class="cls-80" d="M197.38,301.4a21.8,21.8,0,0,1-.42,2.44c-.28,1-.74,2.06.4,2.65s2.27-.18,3-1.14c1.81-2.42,3.74-5.05,4-8,.58-7.89,4.12-15.05,5.16-22.79a5.31,5.31,0,0,1,2.09,4.36c.44,9.36-1,18.36-5.51,26.67-1.93,3.51-8.34,4.5-11,1.87C193.11,305.51,194.18,302.7,197.38,301.4Z"/><path class="cls-73" d="M189.2,373c-4-2.24-2.14-5.59-1.52-8.61.31-1.5,1.71-1.71,2.8-1.08,2.13,1.23,5.89-1.78,6.74,2.35a37.15,37.15,0,0,1-3.52,25.74c-.9,1.7-2.12,2-3.55.5-.24-4.19-.23-8.33,1.24-12.39,1-2.87.91-5.9.3-9.29C190.24,370.76,190.39,372.57,189.2,373Z"/><path class="cls-81" d="M193.52,326.32c1.84-2.23.61-4.85.93-7.27,3.48-.4,5.14,1.52,5.17,4.65,0,7.43-.66,14.8-3.28,21.83-.61,1.62-1.17,4.13-3.54,3.56-2.63-.63-.86-3.14-1.24-4.77Q192.55,335.32,193.52,326.32Z"/><path class="cls-82" d="M179.12,344.14l3.6.44c-3,6.21-6,12.17-6.5,18.95-.24,2.94-2.54,3.6-4.87,4.17a42,42,0,0,1,1.89-16.63A10,10,0,0,1,179.12,344.14Z"/><path class="cls-83" d="M189.2,373c.47-2.11-.46-5.68,2.47-5.59,2.1.06,1.81,3.53,1.78,5.66-.09,6.44-2,12.59-3.3,18.83-7,0-7.15-.11-3.32-6.22C189.37,381.64,187.18,377,189.2,373Z"/><path class="cls-84" d="M183.19,408.26c0-2.74.67-5.55-.82-8.14,7-.7,10.4,1.86,10.88,8.87.37,5.42,1.13,11.32-5.87,13.73-1.83-1.81-1.11-4-.86-6.1a46.13,46.13,0,0,0,.06-12.49c-1.88,2.74.56,6.58-3.21,8.06Z"/><path class="cls-85" d="M141.87,412.1c-3.81-3.75-8.82-6.2-11.86-10.76-.86-1.31-3.11-2.73-.65-4.63,2.09-1.62,3.1.27,4.13,1.4,4.56,5,9.59,9.33,15.88,12.25-1.45,1.33-3.33.22-4.4,1.58Z"/><path class="cls-86" d="M183.37,412.19c1.73-2.41.65-5.17,1-7.76.17-1.43-.29-3.28,2-3.34s1.91,1.78,2,3.23c.52,6.18-.61,12.27-1,18.4a9.92,9.92,0,0,1-4.82,3.37C182.84,421.28,183.11,416.74,183.37,412.19Z"/><path class="cls-87" d="M213.3,251.1l6.19-5.13a25.29,25.29,0,0,1-5.74,17.7c-2.44,3-6.46,2.18-9.32.66s.67-1.92,1.24-2.88C211.65,260.16,212.09,259.56,213.3,251.1Z"/><path class="cls-88" d="M173.32,382.68c2.79,1.81-.29,3.34-.48,4.91-.61,5-2,9.78-1.81,14.87.06,1.54.74,3.42-1.15,4.55C165.5,398.57,167,388.35,173.32,382.68Z"/><path class="cls-89" d="M213.3,251.1c2.15,3.59.23,6.63-1.59,9.44-1.45,2.22-3.71,2.7-6,.91.71-1.72,1.41-3.44,2.12-5.15-.09-2.72.4-5,3.84-5Z"/><path class="cls-90" d="M180.5,337.87c-1.78.37-2.06-.74-1.6-2,.56-1.54-.86-4.58,1.5-4.38,1.69.14,5.18.29,5.36,3.3C186,338.55,182.26,336.72,180.5,337.87Z"/><path class="cls-91" d="M211.63,251.31c-2.61.63-3.08,2.92-3.84,5-.56-2.32-2.37-1.11-3.65-1.23-1.59-.16-1.87-1.14-1.72-2.41s.61-2.92,2.38-2.29C207.06,251.16,209.36,251,211.63,251.31Z"/><path class="cls-92" d="M171.33,417.76c2.64-.53,4.52,0,4.74,3.32C173.53,420.86,172.64,419,171.33,417.76Z"/><path class="cls-25" d="M634.58,548.65c-.27-28.81-3.27-57.42-5.94-86.07-2.32-24.94-4.16-49.93-6.47-74.88-2-22.09-4.68-44.13-6.62-66.23-.9-10.21-2.46-20.39-2.27-30.68,0-1.9-.64-4.73,2.23-4.79,2.57-.06,5.37,0,6.26,4.06,2.67,12.21,3.09,24.66,4.52,37,2.26,19.36,4.09,38.77,6,58.17,1.51,15.23,2.89,30.47,4.3,45.71,2.25,24.43,4.83,48.85,6.62,73.32,1.27,17.41,3.6,34.85,1.37,52.38a25.45,25.45,0,0,1-.88,3.35C641.53,555.51,639.7,550.75,634.58,548.65Z"/><path class="cls-1" d="M634.58,548.65c3.14-.52,8.37,4.3,9,8.33a27.44,27.44,0,0,1,.13,3c.52,2.46-1,4.56-1.19,6.89-.31.12-.77.44-.9.33-2.75-2.15-5.47-4.35-8.19-6.55C633.58,556.64,632.83,552.52,634.58,548.65Z"/><path class="cls-5" d="M575.78,294.63c-.13,1.85.34,2.54,2.53,2.29,2.78-.32,4.29.79,2.31,3.85a9.31,9.31,0,0,0-.79,3.33c-1.74,9.16-3.31,10.43-12.53,10.52-1.84,0-2.7-1.19-3.59-2.31-1.12-1.43-.16-3,.53-4.17,1.21-2.17,3-.1,4.48-.27,5-.35,3.7-4.63,4.71-7.49C574.12,298.43,572.48,295.51,575.78,294.63Z"/><path class="cls-93" d="M575.08,268.46c2.95-1.93,2.66-5.36,3.76-8.14a32.68,32.68,0,0,1,1.84-3,2.33,2.33,0,0,1,4,2.27c-2,5.88-4,11.76-6.1,17.61-.41,1.14-1.06,2-2.66,1.53s-2.3-1.33-2.07-2.9C574.21,273.36,574.66,270.91,575.08,268.46Z"/><path class="cls-94" d="M575.78,294.63c-1.53,3.69-.95,7.76-2.06,11.51-.82,2.79-1.81,5.56-5,1.73a43.55,43.55,0,0,1,2-13.68c.46-1.62.57-3.89,2.45-3.82C575.33,290.45,575.69,292.72,575.78,294.63Z"/><path class="cls-95" d="M571.84,323.69c-.18,1-.47,2.46-.73,3.95-.34,2-1,3.85-3.48,3.19s-2-2.82-1.76-4.62c.13-1.14.76-2.23.87-3.37.21-2,.18-4.53,2.85-4.41C572.53,318.56,571.68,321.27,571.84,323.69Z"/><path class="cls-5" d="M501.75,341.06a4.79,4.79,0,0,1-4,3.58,2.13,2.13,0,0,1-2.45-2c-.13-2.45,2.14-2.69,3.8-3.2C500.43,339,501.23,340,501.75,341.06Z"/><path class="cls-5" d="M533.83,311.17c1,1.55,3.85,1.05,4,3.13.11,1.55-1.78,1.69-3.14,1.64s-2.93-.07-2.68-2C532.14,312.88,532.14,311.48,533.83,311.17Z"/><path class="cls-5" d="M504.08,333.5c1.14.28,1.93,1.06,1.54,2.1s-.11,3-1.77,3.12-1.88-1.55-1.8-2.9A2.17,2.17,0,0,1,504.08,333.5Z"/><path class="cls-5" d="M520.6,285.54c-1.26-.08-2.26-1-2.36-2.75,0-.86.18-2,1.15-1.76a4.57,4.57,0,0,1,3.38,3.3C523,285.3,522,285.57,520.6,285.54Z"/><path class="cls-5" d="M500,268.44c3,.38,6.26-1,9.12,1C506,269.05,502.41,274.16,500,268.44Z"/><path class="cls-5" d="M506.48,360.16c-1.64-1.42-3.1-2.3-1.49-4,.61-.65,1.66-1,2.2-.33C508.39,357.27,506.92,358.47,506.48,360.16Z"/><path class="cls-5" d="M532.33,269.44c3.7.48,7.58-1.12,11.14,1C539.77,269.93,535.88,271.57,532.33,269.44Z"/><path class="cls-6" d="M539.39,477.82c8-3.21,16-6.46,23.28-11.12,2,2.74,1.7,5.09-.8,7.48-3.07,2.94-2.16,7.94-5.64,10.94-1.79,1.54-2.4,1.74-3.7-.18-2.44-3.6-6.22-4.92-10.29-4.77C540.09,480.24,539.56,479.55,539.39,477.82Z"/><path class="cls-6" d="M535.09,566.06c-.25-2-2.09-2.85-3.25-4.21-.91-1.06-1.88-2-.62-3.44,1.14-1.3,2.25-1.91,3.82-.53a6.2,6.2,0,0,0,4.12,1.27c2.39.11,4.86,1,3,4.44-1.17,2.1.41,3.36,1.91,3.9,3.8,1.37,1.76,2.73.12,4a9.64,9.64,0,0,1-3.56,1.82c-1.72.38-2.85,3.51-5.15,1.18a5.27,5.27,0,0,1-1-6.42A18.44,18.44,0,0,0,535.09,566.06Z"/><path class="cls-6" d="M567.74,581.05c.56,2.83,2.16,5.64-.7,8.33-2.31,2.17-4.71,2-7.39,1.27-3.19-.86-5.75-2.31-4.94-6.16.76-3.59,1.52-7.48,6.8-6.51a11,11,0,0,0,2,0c1.14,2.53-1,3.84-2,5.58-.42.73-.88,1.52.12,2.08.64.36,1.2-.17,1.75-.55C565,583.93,565,581,567.74,581.05Z"/><path class="cls-96" d="M568.63,523.4c.23-1.63.18-3.75,2.41-3.7,2.63.06,1.7,2.47,1.72,3.88q.11,7.47-.26,14.93c-.06,1.2-.57,2.82-2.34,2.7s-1.14-1.74-1.57-2.72A65.65,65.65,0,0,1,568.63,523.4Z"/><path class="cls-97" d="M572.63,556.76c-.5,3.53-.92,7-1.53,10.47-.22,1.28-.67,2.74-2.49,2.61-2-.13-1.83-1.66-1.78-3,.16-3.65-.54-7.34.86-10.94.56-1.46.72-3.24,2.64-3C572.54,553.11,572.3,555.22,572.63,556.76Z"/><path class="cls-98" d="M568.78,473.86v-5.54c0-1.54.53-2.62,2.27-2.63a2.22,2.22,0,0,1,2.47,2c.24,4.17.68,8.37-.45,12.48-.31,1.12-1,2.34-2.36,2.21-1.76-.15-1.87-1.65-1.9-3,0-1.84,0-3.69,0-5.53Z"/><path class="cls-99" d="M573.82,500c-.6,3.06.24,7.78-3.26,7.66-3.67-.13-.87-4.7-1.79-7.13a.85.85,0,0,1,0-.5c.65-2.08-1.71-6,2.39-5.89C574.89,494.18,573.15,498,573.82,500Z"/><path class="cls-100" d="M567.74,581.05c-1.51,2-3,4-4.55,5.87a1.84,1.84,0,0,1-3,.21c-1-1-1.81-2.07-.52-3.41a13.89,13.89,0,0,0,3.85-5.75c.63-2.48,2.74-2.48,4.2-1.68C569.94,577.52,567.54,579.43,567.74,581.05Z"/><path class="cls-6" d="M536.21,535.44c.21-2.09-2.63-5.47,1.57-5.52,4,0,3.86,4.09,4.4,6.87.43,2.14-1.43,2.74-3.29,2.74C535.75,539.54,535.13,537.94,536.21,535.44Z"/><path class="cls-6" d="M545.42,597.17c1.6-1.42,4.32-1.41,5-4,2.16-.23,3.81,0,4.56,2.64s-1.13,3.77-2.65,4.81c-1.87,1.28-3.45,0-4.79-1.43C546.88,598.52,546.14,597.86,545.42,597.17Z"/><path class="cls-6" d="M538.47,496.12c-3.21-.62-5-2.36-6.74-4.21-1-1-1.81-2.07-1-3.55s2.14-1.43,3.51-1.38,2.64.64,3,2.19C537.69,491.45,538.05,493.75,538.47,496.12Z"/><path class="cls-6" d="M550.52,524.51c.3,3.25-2.44,3.61-4.43,4.47a1.54,1.54,0,0,1-2.25-1.69c.55-2.4,1.66-4.91,4.16-5.66C549.72,521.12,550.4,522.9,550.52,524.51Z"/><path class="cls-6" d="M521.2,545.58c1.17,0,2.35,0,3.51.17.72.08,1.36.68,1,1.36-1.45,2.47-4.59,1.42-6.59,3-1.17.93-2.19-.07-2.78-1.19-.37-.7-1-1.54-.3-2.31C517.45,545,519.46,545.89,521.2,545.58Z"/><path class="cls-6" d="M537.94,496.18c2.56.11,5.31,1,3.26-2.93-.47-.9-1.18-2-.16-2.63,1.32-.86,2.06.55,2.76,1.37,1.76,2.07,1.93,4.42-.2,6.14C541,500.21,539.56,498.2,537.94,496.18Z"/><path class="cls-6" d="M536.23,505.07a3.93,3.93,0,0,1-4.17,1.34c-1.25-.37-2.78-1-2.31-2.68.42-1.53,1.89-1.74,3.3-1.48C534.68,502.55,535.5,503.73,536.23,505.07Z"/><path class="cls-6" d="M568.63,523.4q0,7.54,0,15.09A26.54,26.54,0,0,1,568.63,523.4Z"/><path class="cls-6" d="M542,517c-.13,1.08-.91,1.22-1.79,1.2s-1.65-.47-1.63-1.46.72-1.42,1.69-1.29A2,2,0,0,1,542,517Z"/><path class="cls-101" d="M124.42,336.59c1-4.2,2-8.59,3-13,.33-1.33,1-2.65,2.71-2.42,1.86.26,1.76,1.89,1.58,3.17-.72,5.11-1.52,10.22-2.44,15.3-.24,1.29-1,2.72-2.74,2.23C123.72,341.11,125,338.62,124.42,336.59Z"/><path class="cls-102" d="M120.39,375.36c.36-1.65.54-3,1-4.23s1-2.31,2.41-2.14,1.75,1.38,1.89,2.6c.48,4.32.88,8.65,1.49,13,.19,1.34.18,2.39-1.15,2.91a2.23,2.23,0,0,1-3.16-1.61C121.87,382.31,121.15,378.7,120.39,375.36Z"/><path class="cls-103" d="M148,243.23c2.79.16,3.32,1.66,2.47,4.06-1.54,4.34-3.05,8.69-4.57,13-3.05,1.94-4.51,1-4-2.47C142.71,252.51,144.4,247.46,148,243.23Z"/><path class="cls-104" d="M135.83,304.4c-.47,1.56-1,3.64-1.7,5.67-.42,1.21-1.32,2-2.69,1.52a2.22,2.22,0,0,1-1.49-2.8c.45-1.94,1-3.85,1.51-5.78.36-1.38.19-3.31,2.39-3.09C136.42,300.18,135.48,302.33,135.83,304.4Z"/><path class="cls-105" d="M136.61,277.08c.46-2.65.26-5.7,3-7.47.55-.35,2.11-.19,2.31.2,1.39,2.67-.36,5.1-1,7.58-.42,1.62-.44,4.23-3.06,3.72C135.92,280.72,136.88,278.58,136.61,277.08Z"/><path class="cls-106" d="M126.76,354.9a18,18,0,0,1-.23,3.16c-.36,1.42-.7,3.32-2.59,3.14s-1.35-2-1.41-3.26a17.79,17.79,0,0,1,0-3c.23-1.85-.72-4.89,1.94-4.95C127.78,349.91,126.31,353.17,126.76,354.9Z"/><path class="cls-107" d="M133.69,290.77c.38-1.92-.15-4.59,2.86-4.86a1.93,1.93,0,0,1,1.93,2.75c-.9,2.06.28,5.7-3.31,5.81C133.08,294.54,134,292.2,133.69,290.77Z"/><path class="cls-108" d="M137.81,451.3c0-6.12,8.81-11.41,14.36-8.55,2.56,1.32,2,3.65,1.21,5.73-1.27,3.25-4,5.33-6.58,7.49a6.38,6.38,0,0,1-7.08,1.22C137.5,456.08,137.83,453.48,137.81,451.3Z"/><path class="cls-109" d="M318.9,447.42c14.73.73,29.46,1.43,44.19,2.21a28.88,28.88,0,0,1,4.42.9c.19,4.38-.55,8.69-1.11,13-1,7.94-2.07,9.06-9.93,8.66-10.73-.56-21.52-.51-32.16-2.35-5.74-2-6.05-2.29-5.19-8.14C319.83,456.89,318.91,452.18,318.9,447.42Z"/><path class="cls-110" d="M323.93,468.59c11.75.73,23.49,1.42,35.24,2.21,3.45.23,4.79-.88,5.5-4.62,1-5.21-.74-10.94,2.84-15.65,5.39-1.09,6.3-.5,6.05,4.52-.28,5.88-.69,11.77-1.3,17.62-.45,4.26-2.74,6.68-7.39,6.46-4.2-.2-8.42-.11-12.62-.15a4.41,4.41,0,0,1-3.67,1.25c-5.62-.5-11.25-.83-16.88-1.15a3.25,3.25,0,0,1-2.54-1.41c-3.4-1.09-7-.66-10.43-.87-2.5-.16-4.57-.84-5.91-3.08-.47-4.7,3.18-5.12,6.27-5.62A9.26,9.26,0,0,1,323.93,468.59Z"/><path class="cls-111" d="M329.16,477.67,352.25,479c.89,4.65-.77,6.57-5,6.16-7.12-.69-14.27-1.07-21.38-1.88-2.05-.23-5.39-.1-4.74-3.69.53-2.92,3.3-1.27,5.06-1.66A21.15,21.15,0,0,1,329.16,477.67Z"/><path class="cls-112" d="M323.93,468.59c-4.49,0-8.75.51-11.11,5.13-1.67-1.46-1.15-3.43-1.06-5.19.27-5.85.63-11.69,1.12-17.52.32-3.81,2.13-5.56,6-3.59,3.37,4.64,2.43,9.95,1.41,14.81C319.48,466.14,320.65,467.64,323.93,468.59Z"/></svg>