<svg id="Layer_1" data-name="Layer 1" xmlns="http://www.w3.org/2000/svg" viewBox="0 0 747.95 647.84"><defs><style>.cls-1{fill:#342112;}.cls-2{fill:#583114;}.cls-3{fill:#fdc271;}.cls-4{fill:#5f5751;}.cls-5{fill:#5c544d;}.cls-6{fill:#4c453f;}.cls-7{fill:#514a43;}.cls-8{fill:#f9a050;}.cls-9{fill:#fcc663;}.cls-10{fill:#6d645d;}.cls-11{fill:#fcba45;}.cls-12{fill:#6d655d;}.cls-13{fill:#f6b33e;}.cls-14{fill:#f9a624;}.cls-15{fill:#4e2d13;}.cls-16{fill:#553013;}.cls-17{fill:#534b43;}.cls-18{fill:#502e14;}.cls-19{fill:#f38f37;}.cls-20{fill:#f4aa27;}.cls-21{fill:#fef5e3;}.cls-22{fill:#fdf5e3;}.cls-23{fill:#f68a5e;}.cls-24{fill:#f8ddb9;}.cls-25{fill:#f6d8b0;}.cls-26{fill:#f6dab3;}.cls-27{fill:#f0cb9e;}.cls-28{fill:#f48256;}.cls-29{fill:#f48054;}.cls-30{fill:#e26e3f;}.cls-31{fill:#d9683b;}.cls-32{fill:#d6663a;}.cls-33{fill:#fbe8cc;}</style></defs><path class="cls-1" d="M400.77,457.34c-20.83,4.72-41.93,7.64-63.27,6.92-54.82-1.84-106.49-15-153.08-44.94-12.81-8.24-24.17-18.19-32.44-31.25a36.2,36.2,0,0,1-5.8-20.21c.22-30.45.1-60.91.3-91.36,0-3.53-.88-5.67-4.25-6.68a11.91,11.91,0,0,1-1.8-.87c-8.73-4.33-9.51-4-13.77,4.95a34.25,34.25,0,0,0-2.9,14.05c-.87,31.61-.25,63.23-.33,94.84a4.91,4.91,0,0,0,2.37,4.48c19.35,14,18.24,39.73,6,51.61-1.17,1.13-1.75,1.89-.58,3.67,12.33,18.77,18,40,22.93,61.59,4.58,20.1,7.08,40.55,9.79,61a13.31,13.31,0,0,1-3.67,11,27.46,27.46,0,0,1-7.06,5.48,96.12,96.12,0,0,1-55.46,12.33c-6-.45-12.1-.59-17.7-2.64-8.6-3.16-17.69-5.1-25.51-10.31-6.84-4.57-10-10-8.74-18.85,3.62-25.53,7.57-51,14.6-75.83,4.27-15.06,9.79-29.7,18.21-43,1.28-2,1-2.86-.53-4.42C63.48,423.55,68,398.72,84.1,387.65c2.47-1.69,2.33-3.68,2.33-6,0-28.62,0-57.25.11-85.87,0-13.15.46-26.29,5.83-38.66.93-2.13,1.7-4.46,3.15-6.19,3-3.58,2.25-5.06-1.9-7.16-26.23-13.27-52.3-26.87-78.39-40.42a29.15,29.15,0,0,1-9.83-7.53c-8.82-11.18-6.7-25.21,5.35-33.93,7.85-5.67,16.86-9.29,25.46-13.58q82-40.93,164.15-81.49Q261.14,36.79,322.07,7C341.48-2.44,361-2.23,380.71,7,447.23,38.15,513.81,69.16,580,101c27.36,13.17,54.57,26.65,81.85,40,4.8,2.35,9.38,5,13.15,8.87A24.24,24.24,0,0,1,675,184c-7.35,7.49-16.89,11.77-25.86,16.74q-46.2,25.63-92.79,50.6c-3.24,1.74-3.49,3.88-3.35,6.79,1.48,31.9,1.83,63.83,2.85,95.75A38.91,38.91,0,0,1,546,381.74c-9.28,10.84-20.47,19.44-32.08,27.55-.51.37-1.26.44-1.3,1.27.33,2.18-1.59,2.14-2.77,2.8-11.11,6.14-23,10.74-33.83,17.43-11.42,6.4-23.83,10.46-36,15.15-10.35,3.4-20.59,7.13-31.1,10C406.28,456.68,403.68,458,400.77,457.34Z"/><path class="cls-2" d="M475.51,429.65c10.34-6.54,22-10.54,32.39-16.94,1.52-.94,3.75-.15,4.73-2.15,4.54.32,8.27-2.19,12.28-3.65,8.27-3,16.57-5,25.35-2.52,2.37.66,4.15-.84,6-1.66C591.11,387.88,626,373.14,660.62,358c18.28-8,35.65-8.26,52.26,3.85a69.74,69.74,0,0,1,17.55,18.26c16.87,25.9,22.44,53.7,12.83,83.61-5,15.74-15.25,27-31.06,32.77L622.63,529c3.07,3.32,5.94,6.39,8.78,9.49,10.46,11.4,21,22.76,31.33,34.22,5,5.57,3.12,12.2-4.17,14.28-6.9,2-14.07,2.58-21.19,3.07-3.4.24-4.4,1.61-5.09,4.6-1.49,6.48-3.3,12.88-5.16,19.27-2.38,8.21-10.07,10.28-16,4.07-11.89-12.34-22.71-25.63-33.8-38.68-.5-.57-.74-1.52-2.08-1.45a575.49,575.49,0,0,1-17.59,59.3c-.51,1.4-.94,2.84-1.51,4.22-3,7.1-10.34,8.74-15.52,3a162.94,162.94,0,0,1-12.85-16.51c-1.92-2.78-3.48-3-6.46-1.89-6.71,2.42-13.55,4.57-20.46,6.37-8.76,2.3-13.81-3-10.88-11.64,4.75-14,9.92-27.86,14.91-41.78.38-1.05.74-2.11,1.47-4.19-9.45,4-18.09,7.53-26.67,11.2-32.37,13.85-64.64,28-96.29,43.37-26,12.64-50,5.76-67-12.05-26.61-27.86-34.89-61.39-25-98.64,5.71-21.43,20.06-34.76,41.89-40.53,22.64-6,45-13.06,67.48-19.66,11.76-4.28,23.86-7.54,35.66-11.68,1.4-.49,2.79-1,4.17-1.52,9.12-3.07,17.53-7.51,26.67-10.51C470.55,433.65,472,431.93,475.51,429.65Z"/><path class="cls-3" d="M744.35,268.82c-.25,2.09-1.76,2.88-3.36,3.38a50,50,0,0,1-6.28,1.53C720,276.3,713,285.94,710.47,299.81c-.5,2.77-.86,5.57-1.33,8.35-.37,2.24-1.09,4.52-3.77,4.48s-3.43-2.28-3.83-4.51c-.46-2.6-.77-5.24-1.21-7.85-2.84-16.61-10-24-26.51-27.36-2.9-.59-7.3.06-7.37-4.19s4.57-3.38,7.29-4.42a36.8,36.8,0,0,1,4.82-1.16c11.3-2.66,18.3-9.53,20.67-21,.91-4.39,2-8.72,3-13.09.42-1.86,1-3.88,3.21-3.8s3.44,2,3.61,4.12c.36,4.67,1.9,9.08,2.82,13.62,2.42,12,10.67,17.8,21.77,20.58,2.58.64,5.2,1.09,7.75,1.8C743.12,265.85,744.38,266.91,744.35,268.82Z"/><path class="cls-4" d="M222.93,72c18.39-9.26,36.76-18.56,55.19-27.76,9.95-5,19.93-9.89,30-14.63,10.34-4.88,20.29-10.7,31.43-13.76s21.61-1.71,31.91,3.16q59.28,28,118.63,55.79c27.4,12.78,54.75,25.68,81.94,38.91q43.47,21.16,87.07,42.08a17.84,17.84,0,0,1,5.33,3.58c4.91,5.12,4.09,11.37-1.94,15-22.41,13.67-45.74,25.72-68.72,38.38q-56.31,31-112.76,61.74c-24.37,13.25-48.91,26.2-73.36,39.31C396.09,320,384.59,326.35,373,332.5c-2.3,1.22-4.44,3-7.24,3.09a9.61,9.61,0,0,1-4.59-1.8,11.19,11.19,0,0,0-10.06-1.37c-13.76,4.28-26.8,1.43-39.19-4.43-18.46-8.74-36.86-17.64-54.81-27.41a51.38,51.38,0,0,0-6-2.58c-5.72-2.27-11.36-4.52-16.09-8.77-6.37-5.71-15.22-6.26-22.6-10-2.95-1.49-6-2.76-8.87-4.49-7.52-4.56-15.73-7.74-23.62-11.57-4.32-2.1-9.15-3.25-11.82-7.82-1-1.66-2.43-1.29-4-.78-3.08,1-5.31,3.37-8,5l-8.66-4.9c8.39-4,16-7.88,23.74-11.34,25.75-11.48,51.84-22.16,78-32.55q36.29-14.39,72.6-28.72a11.86,11.86,0,0,1,7.21-.36c14.48,3,28.24,1.73,39.42-9.15,11.9-11.57,9.48-30.39-5-38.66-16.28-9.28-32.35-8.14-47.85,2.19-3.57,2.38-5.78,5.95-7.63,9.68a7.61,7.61,0,0,1-4.56,4.17c-29.06,10.35-57.68,21.86-86.31,33.33a53.6,53.6,0,0,1-5.2,1.53l-.48-.14c-1.85-.48-4.37.94-5.53-1.09-1.35-2.37,2.52-2.73,2.5-5.3-6-.1-9.84-5-15.17-7-1.06-.39-2-1.34-3.18-1.29-3.61.15-5.32-1.13-4.4-5.05.49-2.11-1-2.1-2.46-1.61-1.94.65-2.83,2.2-3.43,4a12.86,12.86,0,0,1-1.4,3.72c-1.12,1.57-2.65,2.87-4.61,2.18-2.23-.78-2-2.95-1.47-4.69,1-3.39,2.44-6.57,5.34-8.81,2.13-1.64,3.5-3.15,1.95-6.24-1.78-3.52.46-5.57,3.71-6.73s6.62-2.33,7.59-6.79a11.12,11.12,0,0,1-8.32-3.89c-2.58-3-5.06-6-9.92-5.5-2.47.25-4.72-8.23-2.56-10.59a6.39,6.39,0,0,0,1.68-5.32c-.34-6.28,2.7-8.52,8.45-6.24,1.26.49,2.36.85,2.91-.54,1-2.44,2.77-4.51,2.92-7.33.21-3.85,2.94-5.4,6.3-3.56,1.74,1,3.3,2.21,5.34,2.56,5.19.9,8-2.2,5.82-7-1.49-3.19-1.36-4.65,2.13-5.92,2-.74,2.76-3.28,3.59-5.23a7.16,7.16,0,0,1,6.05-4.61C218.91,76.52,221.12,74.72,222.93,72Z"/><path class="cls-5" d="M429.76,431.58c-15.31,6.51-31.34,10.61-47.58,13.82a208.61,208.61,0,0,1-49,3.93,289.65,289.65,0,0,1-60.29-8.84c-23.08-5.91-45.43-13.68-66.38-25.11-15.55-8.49-30-18.43-40.94-32.72-3.62-4.74-5.74-9.77-5.58-16,.36-14.64.15-29.28.17-43.93.92-5,1.22-5.22,5.89-2.89,14.58,7.28,28.66,15.49,43,23.18,10.71,5.74,21.64,11,32.45,16.53,23.84,12.18,47.61,24.56,73.21,32.78a77.59,77.59,0,0,0,53.66-1.72c19.91-7.79,38.13-18.74,56.88-28.72,25.82-14.8,51.64-29.6,76.51-46a20.24,20.24,0,0,1,2.6-1.48c3.53-1.64,5.15-.68,4.94,3.1-.76,13.76-2.69,27.06-7.32,40.4-6.28,18.11-16.86,32.66-30.14,45.68-11.26,11-24.44,19.37-38.68,26.07A21.73,21.73,0,0,0,429.76,431.58Z"/><path class="cls-6" d="M429.76,431.58c3.55-4.69,9.33-6,14.05-8.81,12.07-7.17,23.2-15.37,32.78-25.62,8.65-9.24,16.5-19.23,21.13-31,5.58-14.24,10.93-28.7,9.91-44.49a4.76,4.76,0,0,0,0-1c-.53-2,2.47-4.66,0-5.88-2-.95-4.13,1.49-6,2.7-17.34,11.3-34.9,22.23-53,32.31-7.64,4.26-14.94,9.14-22.87,12.91-3.16-.77-7.09,1.13-9.69-3.1-.23,2.81.13,5.45-2.15,7.31-2.67,2.17-4.91.89-7.69-1.49,2.65,5.93-1.42,10.76-8.21,10.82a6.78,6.78,0,0,0-5.25,2.09c-2.22,2.18-10.4,1-12-1.58-1.28-2.12-.37-3.41,1.89-4,1.84-.49,3.49,1,5.77.31-1.11-4.15-2.19-8.3-4.72-11.76-2.23-3-2.9-6.67-4.55-9.9a3.1,3.1,0,0,1,.65-3.7c7.73-5.52,16.46-9.25,24.74-13.76,34-18.49,68-36.74,102.08-55.07,9.49-5.12,19-10.14,28.5-15.33,3.1-1.7,4.47-2,4.57,2.47.46,19.42.69,38.85,1.15,58.26.23,9.77.16,19.59.88,29.33.65,8.82-3.06,15.43-8.84,21.25a177.32,177.32,0,0,1-38.48,28.83c-18.78,10.68-38.67,19-58.89,26.52A50.87,50.87,0,0,1,429.76,431.58Z"/><path class="cls-7" d="M379.8,347.64c.46,5,3,9,5.41,13.19,2.25,3.88,3.43,8.41,4.89,12.71.51,1.54-.84,2.11-2.08,1.9-.92-.16-1.68-1.05-2.6-1.35-1.53-.49-3.58-1.34-4.24.79-.58,1.9,1.54,2.35,2.9,2.6,3.47.61,7.42,3.22,9.72-2.13.36-.84,2.05-1.75,3-.9,2.29,1.94,3.82.49,5.71-.64,6-3.59,6.06-3.9.72-8.76,2-.53,3.65-.71,5.28.18,1.23.67,1.61,3,3.94,1.35a5,5,0,0,0,2.28-5,20,20,0,0,1,.14-5c2,5.37,7.55,3.49,10.84,6.16-5,3-9.76,6.24-14.9,8.86-11.91,6.06-23.43,12.92-35.83,18-11.67,4.74-23.54,8.53-36.47,8.2-16.1-.42-30.59-6.21-45.23-12-12.83-5.07-25-11.41-37.45-17.3-15.45-7.32-30.59-15.31-45.72-23.27s-30.09-16.16-45-24.46c-3.06-1.7-4.18-.75-4.94,2.06,0-13,0-26-.1-38.94,0-2.88-.13-4.31,3.67-2.37,35.49,18.16,71,36.27,106.76,53.93,14.11,7,28.11,14.23,42.76,20.12,18.13,7.28,35.86,6.34,53.45-1.71C371.11,351.73,375.13,349,379.8,347.64Z"/><path class="cls-8" d="M122,451.59c8.17,12.52,12.3,26.67,16.08,40.88,6.19,23.24,9.81,46.95,12.33,70.85.34,3.21-.4,5.15-3,6.47-3.66,1.82-6.68,5.31-11.37,4.54-4.79-21.69-4.88-44.24-11.22-66.05-2.45,1.45-2,3.06-1.85,4.43,1.89,15.35,2.62,30.82,4.51,46.16.62,5-1.91,9.83-.43,14.79.46,3.87-1.24,5.48-5.14,5.88-4.26.44-8.46,1.37-12.77.8-.7-12.3-3.42-24.47-2.47-36.9.22-2.9.19-5.9-2-8.5-.89,7-1.94,13.86-2,20.87,0,2.9.76,6-1.41,8.58,0,1.91-.09,3.82-.13,5.74-1.18,3.32.4,6.89-.89,10.21a46.15,46.15,0,0,1-17.16-2,37.41,37.41,0,0,1,.06-11l.18-3.86c1.6-5.72-.29-11.47.26-17.27,1-10.91,2.08-21.82,3-32.74.12-1.45.52-3-.78-4.69-2,1.67-2.11,4-2.61,6.11-2.85,12-4.62,24.16-6.4,36.33-.26,1.77,0,3.74-1.78,5a84.23,84.23,0,0,0-1.84,15.59c-.07,2.58-1,3.31-3.34,2.1-.58-.3-1.25-.44-1.86-.7-9.13-3.81-9.77-5-8.54-14.65,3.61-28.37,8.38-56.48,18-83.54,2.81-7.94,5.7-15.92,10.66-22.89,6.73,6.72,19.45,7,29.61,1.42C119.05,452.78,120.14,451.26,122,451.59Z"/><path class="cls-4" d="M222.93,72c-1.13,4.89-2.18,5.93-6.38,5.79a5.69,5.69,0,0,0-5.62,3.07c-1.78,3-1.82,7.62-7,7.6-.81,0-1,1.46-.33,2,4.22,3.29,2.34,7.76,0,9.72-2.85,2.38-7.48,1.27-10.64-1.16-1.6-1.22-2.5-2-4.64-1.27-3.45,1.19.3,2.57-.34,3.75-1.62,3-3.1,6-4.86,8.91-.93,1.5-2.17,1.32-3-.33-1-2-2.63-2.56-4.56-1.63a4.65,4.65,0,0,0-2.85,4.35c.12,3.06,2.33,6.17-2.21,8.48-2,1,1.76,3.4,1.15,5.79-1.23,4.74,2.07,2.1,3.73,2.06,3.52-.08,4.83,2.86,6.95,4.83,2.49,2.32,4.42,5.92,9.12,4.26,1.66-.59,2.51.67,1.25,2.74-2.05,3.4-4.47,5.93-8.49,6.9s-6.09,2.81-2.23,6.75c2.33,2.38-.56,3.75-1.84,4.63a18,18,0,0,0-6.43,8.57c-.63,1.54-1.43,3.83.22,4.44,1.92.72,3.71-.74,4.16-3.11.71-3.68,1.53-7,6.38-7.6,2.82-.37,3.69-.58,2.8,2.62-.69,2.46-2.36,5.1,3.33,4.61,3-.26,7.69,2.5,10.64,5.53,1.46,1.5,3,2.84,5.13,2.33,1.68-.4,3.56-1.29,4.19.87.54,1.82-.67,3.47-2.55,4.3-.57.25-1.37.2-1.52,1.46,1.79.49,4.24-.66,5.5,1.55l-9.93,4.09c-2.37-.39-3.83-2.88-6.58-2.64-1.11.09-1.82-1.22-1.85-2.57-.15-6.61-6.9-10.42-13-7.64-3.25,1.48-6.52,2.72-10.5,1.35-3.68-1.26-7.25,1.48-11,2.14-4.32.77-6.32.56-7.43-3.75-.94-3.69-2.89-4.84-6.27-4.87-1.32,0-2.64-.3-4-.33-3.33-.08-5.19-2.27-4.75-5.13a12.6,12.6,0,0,0-1.83-9c-.78-1.31-1.12-2.95.11-4.18s2.43-.07,3.58.5c4.35,2.18,9.13,1,13.68,1.74.88.14,1.92-.92,1.57-1.51-1.51-2.56,2.05-5.62-1.64-8.44-2-1.56-1.9-6.3-.91-9.37,1-3.22,3.7-.09,6.07-.71-1.08-2.94-1.18-5.87,2.53-7.36a1.34,1.34,0,0,0,.56-1.75c-1.63-4.26.88-7.26,3-10.45s2.67-3.32,5.52.33a10.24,10.24,0,0,0-2.05-3.52c-1.38-1.28-2.77-1.48-3.52.49-1.36,3.53-3.43,5.18-7.57,2.57,2.6,5.64,2.52,5.53-2.58,8.85-2.23,1.45-4.27,3.17-6.95,3.73-2.07.44-1.79,2-1.85,3.5s-.35,3.2-2.21,3.43c-1.61.2-2.23-1.23-2.64-2.52s-.95-2.42-2.65-2.45c-3.14-.05-9.48,7.86-8.56,10.8.49,1.55,1.43,2.73,3.24,2.47,2.13-.3,4.55-1.28,5.68,1.38,1,2.38-.32,4.62-1.88,6.34-1.83,2-4.18,2.65-6.72,1a2.28,2.28,0,0,0-1.25-.34c-.56,1.93.26,4.25-1.12,6.05-2.53,3.31-4.81,6.8-10,5.06-3.37-1.11-7.64,2.39-10.48-2.15,2.18,4.76,2,5.07-3.06,5.72-3,.37-5.6,2.82-9,.86-1.34-.77-1.41,1.39-1.35,2.45.33,6.06-3.29,9.56-8.1,11.95-3.82,1.9-4.58,6.4-8.11,8.51-1.4.83-1.63,3.54-4.08,2.87s-1.51-3.09-2.37-4.59c.13-.65-.89.08-.24-.05.15,0,.16.11.09.42-.86,3.76-4.07,5.53-6.94,7-2.4,1.25-3.11-3.16-6.37-3.12,5,3.43,8.67,7.56,14,9.56,8.65,3.25,15.51,9.89,24.84,12.29,4,1,7.43,3.89,12,2.64.31-.09.8-.08,1,.13,3,4,8.42,5.77,10,11-.85.51-2,.81-2.51,1.55-4.16,6.2-8.74,4.17-14,1.42-26.92-14-54.15-27.37-80.75-42-8.83-4.85-9.07-11.31-.3-16.38,16.67-9.63,34.32-17.4,51.39-26.27,7.63-4,15.18-8.08,23.23-11.14,4.79,2.35,4.79,2.35,5.14-2.83q19.49-9.87,39.14-19.39c6.85-3.31,13.58-6.83,20.62-9.74a2.1,2.1,0,0,1,2.27.37c4,2.93,7.19,1.83,10-1.8-2.12.11-4.57,1-5.07-2.33Z"/><path class="cls-4" d="M118.05,227.66c-2.24-3.91-7.63-4.57-9.29-9.29-.74-2.11-3.14-.69-4.43-.26-2.31.78-4.51.78-6-.82-3.15-3.29-7.35-3.48-11.28-4.4-2.88-.67-3.93-3.51-6.29-4.68-5-2.48-10.14-4.79-15.1-7.41-4.37-2.3-7-7-11.86-8.81,2.76-1.06,5.5-3.81,6.87,1.24.53,2,2.23,1.8,3.33.11.92-1.41,1.75-2.85,3.48-3.38s1.71-1.26.36-2.31c-.74-.58-1.82-1.43-.59-2.33,1-.74,2.09-.44,2.91.8,1.93,2.91,3.37,3,6.11,1.39a7.77,7.77,0,0,0,3.93-4.85A3.48,3.48,0,0,1,82.71,180c6-1.93,8.78-5.85,8.31-11.92-.12-1.5-.09-2.57,1.16-3.43s2.11.07,3,.79c.62.49,1.88,1.29,2,1.16,2.54-2.77,6.1-1.94,9.08-2.18.3-1.43-.49-1.58-1-1.87-1.22-.68-2.36-1.44-1.89-3.06a2.13,2.13,0,0,1,1.27-1.29,2.46,2.46,0,0,1,3.26,1.52c.83,2.67,2.19,2.55,4,1.1.91-.72,1.81-.3,2.81-.17,8.3,1.1,11.17-1.52,10.83-9.85,0-.9,0-1.69.78-2.16,1.3-.74,1.77.39,2.27,1.18,1.46,2.36,3.44,1.63,5.2.73,2.3-1.17,2.64-3.83,2.81-5.86.13-1.71-2.1-2.1-3.47-1.09-3.49,2.57-5.05-.42-6.05-2.47a5.65,5.65,0,0,1,1.87-7c1-.81,2.74-.94,3-2.42.68-4,3.66-3.55,6.49-3.73,3.87-.25,1.24,3,2.33,4.18.41.46.73,1,1.24,1.68.48-.58.95-.88,1-1.26.77-3.88,2.14-4.94,6.05-7.62,2.54-1.74,4.94-3.43,8.41-4.14-1-1.47-1.81-2.79-2.77-4-.61-.74-1.82-1.34-.89-2.39s2.15-1.85,3.47-.64c3.77,3.46,4.25.53,4.83-2.39.76-3.82,3.38-2.92,5.1-1.38s2.58,3.81,3.62,5.88c.41.8.56,2.14-.66,2.53s-1.63-.75-2-1.69c-.53-1.3-.49-3.39-2.4-3.26s-.23,2.59-1.25,3.24c-4.1,2.59-4.18,5.87-2.22,9.81.7,1.42-.14,2-1.65,2.17-3,.24-4.41,1.35-2.12,4.34.64.84,1.62,1.92.61,3.11s-2.18-.23-3.2-.06c-1.48.25-2.29-2.54-3.84-.83-1.13,1.26,0,2.51.5,3.68a3.49,3.49,0,0,1,.09,2.88,4.39,4.39,0,0,0-.34,1.91c.29,2.7,5-1.2,4.29,2.75-.34,1.79-3.67,2.86-1.22,5.43a1.75,1.75,0,0,1-.4,3c-1.2.66-2.17,2.63-3.84,1.4-2.67-1.95-5.68-.35-8.53-1-1.74-.43-3.74.59-5-1.69-.36-.67-1.42-1.27-2.07-.61a2.35,2.35,0,0,0-.18,2.27c2.15,3.36,4.48,6.48,2.2,10.9-.32.63.83,3.69,3.85,3.29,2.53-.33,5.21.23,7.8.6,1.91.27,3.08,1,3.17,3.53.17,4.77,2.29,4.26,6.69,4.41,4.63.16,8.56-5.32,13.76-1.11,1.13.92,6-.19,8.32-2.59,1.65-1.69,2.92-1,5.1-.69,5.22.67,6.19,6.85,11.11,6.66.27,2.1-1.59,1.51-2.28,2.27s-1.14,1.36-.51,2.16c.36.46,1.26,1,1.58.88,3.68-1.78,4.48,1.22,5.81,3.37-8.07,4.55-16.93,7.27-25.39,10.94C156.81,208.44,136.76,216.65,118.05,227.66Z"/><path class="cls-9" d="M106.16,381.47c-8.08.46-8.13.46-8.12-7.76,0-28.77.36-57.54.09-86.3-.23-24.3,10.77-41.73,31.58-53.09,23.36-12.76,48.13-22.48,72.72-32.54C235.59,188.22,268.9,175,302.5,162.57c.77-.29,1.59-.46,2.38-.68,1.78-1,2.28.25,2.81,1.53,1.37,3.33,2.9,6.6,3.19,10.27-24.83,9.79-49.73,19.41-74.47,29.42-30,12.15-60,24.17-89.18,38.33a99.51,99.51,0,0,0-23.09,15.43c-5.9.36-8.29,4.87-9.79,9.38-3,9.13-5.78,18.38-5.75,28.19.08,21.12,0,42.23.07,63.35,0,4.3-.49,8.22-3.56,11.55-2.11,2.28-2.29,4.59.37,6.86C107.11,377.6,107.78,379.47,106.16,381.47Z"/><path class="cls-10" d="M156.19,259.58c1.78-5.22,6.95-5.54,11-7.51.36-.18,1.55.34,1.61.68,1.26,6.88,7.63,7.13,12.3,9.47,7.42,3.7,15.34,6.57,22.29,11a74,74,0,0,0,18.37,8.38,51.39,51.39,0,0,1,18.18,10c2.24,1.81,5.3,2.73,8.11,3.69,7.23,2.47,13.64,6.6,20.46,9.9,14.6,7.08,29,14.56,43.64,21.62,10.59,5.11,21.82,7.38,33.61,5.87,2.09-.27,4-1.45,6.13-1.85,5.51-1.07,10,1.07,13.91,4.82-17.85,11-36.08,10.49-54.54,1.76-39.11-18.5-77.51-38.43-116.25-57.66C181.93,273.21,169.11,266.29,156.19,259.58Z"/><path class="cls-11" d="M82.34,421.49C78.21,414,85.15,400.4,93,396.1c13.88-7.63,31-.57,34.23,14.41A41.54,41.54,0,0,1,116,423.67c-6.43,4.83-17.77,4.05-25.53-1.84C87.55,419.64,85.19,418.39,82.34,421.49Z"/><path class="cls-12" d="M318.84,150.91a13.56,13.56,0,0,1,6.26-6.8c10.62-6,21.33-6.05,32-.3a11.25,11.25,0,0,1,5.8,7.07c.84,2.74-1,4.39-2.65,5.93-8.44,7.79-18.32,8.54-28.81,5.49a29.21,29.21,0,0,1-9.85-4.68C319.46,155.93,317.61,154.05,318.84,150.91Z"/><path class="cls-13" d="M106.16,381.47c.12-2.07.1-4-2.28-5-4.08-1.65-3.11-4.76-1-6.71,4.37-4,4.36-8.84,4.33-14.06-.1-21.29-.44-42.6.17-63.88.32-11.37,2.6-22.69,9.15-32.47,1.62-2.43,3.53-6.39,7.59-2.5-8.6,9.82-12.1,21.36-12.06,34.3.08,28.37-.19,56.74,0,85.11C112.09,381.09,111.06,383.05,106.16,381.47Z"/><path class="cls-14" d="M82.34,421.49c1.76-5.27,2.85-5.38,7.71-1.6,11.91,9.27,25.6,7.55,33.14-6.28,1-1.81,2.53-2.26,4-3.1a21.09,21.09,0,0,1-7.13,22.76c-8.14,6.26-17.08,6.9-26.28,2.44A20,20,0,0,1,82.34,421.49Z"/><path class="cls-15" d="M127,573.66c-.9-10.39-1.76-20.78-2.73-31.16-.91-9.73-1.93-19.44-2.89-29.17-.1-1-.16-2-.19-3-.07-2.06.1-4.46,2.49-4.73,2.17-.25,2.8,2.19,3.19,3.87A320,320,0,0,1,133,545.2c1.07,9.7,2.91,19.33,3,29.13-1.47-1.29-.58-3.11-1.13-4.84-2.5.38-5.46,2.72-7.46-2C127.27,570.16,127.15,571.91,127,573.66Z"/><path class="cls-16" d="M75,556.22a309.54,309.54,0,0,1,7.34-44.05,29.83,29.83,0,0,1,1.15-3.81c.47-1.24,1.14-2.69,2.67-2.53,1.8.19,2.31,1.82,2.2,3.37-.28,4-.75,7.9-1.08,11.86-1.12,13.36-2.2,26.73-3.33,40.1a13.51,13.51,0,0,1-.63,2.36v-8.88c-.74,4.24-1.5,8.42-2.1,12.61-.19,1.32,1.1,4-1.8,3.46-2.18-.37-4.78-1.43-4-4.59a20.83,20.83,0,0,0,.71-8.33C76,557.22,75.35,556.74,75,556.22Z"/><path class="cls-17" d="M318.84,150.91c-.31,2.74,1.39,4.41,3.38,5.64,9.4,5.85,19.4,8.17,30.11,4.06,4.72-1.81,8.64-4.79,10.62-9.73,2.38,5.25.2,9.47-3.52,12.84-10,9-29.94,8.13-38.73-1.44C317.58,158.88,316.82,155.13,318.84,150.91Z"/><path class="cls-18" d="M101.23,564.39c-.54-9.65.74-19.24,1.11-28.85.07-1.82.28-4.07,2.65-4.11,2.52,0,2.51,2.38,2.58,4.11.57,14.93,1.05,29.87,1.56,44.8-2.11-3.4-.19-7.35-1.93-10.87,0,1.29,0,2.57,0,3.85,0,2,.24,4.49-2.62,4.37s-2.2-2.69-2.41-4.62C101.84,570.18,103.2,567.1,101.23,564.39Z"/><path class="cls-19" d="M122,451.59c-8.29,7.91-21.28,9.14-31.68,4.5-1.84-.83-2.24-2.24-2.31-4,1.19-4.26,3.77-4.86,7.82-3.67,6.1,1.78,12.51,2.21,18.52-.12C118.5,446.74,120.81,447.35,122,451.59Z"/><path class="cls-20" d="M310.88,173.69c-3-2.82-2.46-7.14-4.41-10.43-.46-.79-.76-1.25-1.59-1.37,1.64-.67,3.28-1.37,4.93-2,.93-.36,2.44-.78,2.64.23.67,3.34,3.52,5,5.18,7.59,1.1,1.7.67,3.17-1.23,4S312.72,173,310.88,173.69Z"/><path class="cls-4" d="M167.19,99.14c1.65,1,3.24,3.57,5,.1.45-.88,1.13-.39,1.47.2a2.5,2.5,0,0,1-.34,2.76c-3.07,5-7.47,5.24-13.36.7C162.12,101.14,164.7,100.22,167.19,99.14Z"/><path class="cls-4" d="M100.23,132c.32,1.84,3.41,3.72.5,5.44-2.58,1.53-4.46-.18-5.64-2.61Z"/><path class="cls-16" d="M83.11,567.38q0,5.49,0,11A14.31,14.31,0,0,1,83.11,567.38Z"/><path class="cls-18" d="M100.21,580.34c.11-3.42-.22-6.88.89-10.21C100.93,573.54,102.23,577.08,100.21,580.34Z"/><path class="cls-21" d="M394.64,579.26c1.11-27.36-6-52.18-22.91-73.94a59.7,59.7,0,0,0-22.82-18.48c7.69-2.23,14.7-4.3,21.73-6.29,37.72-10.65,74.91-22.94,111.94-35.75a8.59,8.59,0,0,1,6.65.17,44.21,44.21,0,0,1,15.06,10.43c15.24,16.28,23.06,35.75,24.52,57.88a2.8,2.8,0,0,1,.23,1c-.38,16.6,3.41,12.76-12.44,19.28q-51.62,21.24-103.41,42c-4.95,2-9.64,4.45-14.41,6.8C394.56,584.42,394.3,584.18,394.64,579.26Z"/><path class="cls-22" d="M604.69,489.56c-2.37-27.58-12-51.88-32.21-71.4-2.12-2.05-4.5-3.84-7-6,20.84-8.91,41.35-17.73,61.91-26.45,14-6,28.2-11.64,42.2-17.71,14.71-6.39,27.78-3.24,39.28,6.89,16.59,14.62,24.2,33.66,25.6,55.44.76,2.75-.41,4.66-1.83,7.14-8.22,14.25-22.28,19.61-36.37,25.32-21.69,8.78-43.27,17.85-65.08,26.32-6.81,2.64-13.73,5-20.55,7.6-5.24,2-5.56,1.73-5.65-3.77A7.67,7.67,0,0,0,604.69,489.56Z"/><path class="cls-23" d="M541.77,516.51c-1.7-23.22-8.45-44.58-23.19-63A79.64,79.64,0,0,0,507,441.85a54,54,0,0,0-13.83-8.06c-.67-1,0-1.2.39-1.33q21.06-8.35,42.15-16.65c5.95-2.33,11.45-.43,16.76,2.18,10.2,5,17.55,13.14,23.48,22.48,11.6,18.25,17.48,38.2,16.38,60-3.82,5.29-9.27,8.64-14.94,11.24a209.9,209.9,0,0,1-26,9.88c-.47.14-1,.24-1.44.36C543.26,523.49,542.48,523,541.77,516.51Z"/><path class="cls-24" d="M355.75,523.62c-11.95-10.37-25.11-3.65-30.48,5.63-5.13,8.88-6.13,18.35-4.54,28.37,1.83,11.54,5.76,22.15,12.85,31.43,12.87,16.83,24.27,19.38,43.19,9.59-2.88,7.2-6.64,13.3-12.56,17.84-6.11,4.68-12.83,5.63-20.21,3.11-14.58-5-24.13-15.5-31.35-28.42-12.36-22.13-16.16-45.47-8.79-70.1a41.36,41.36,0,0,1,12.61-20c7.47-6.41,15.84-8,25-4.3a47.74,47.74,0,0,1,23.08,19.67C362.91,520.43,361.05,524.16,355.75,523.62Z"/><path class="cls-25" d="M394.64,579.26l.46,3.42c20.23-10.39,41.5-17.81,62.29-26.34q33.06-13.58,66.17-27c3.8-1.54,5.84-3.68,5.15-8.11-.4-2.57,0-5.28.1-7.93a61.34,61.34,0,0,1-5.41,36.77c-1.87,3.85-5.21,6-9.29,7.69-44,18-87.64,36.82-130.54,57.35a11.87,11.87,0,0,1-2.14.43C389.66,604.38,392.56,592,394.64,579.26Z"/><path class="cls-26" d="M604.69,489.56c1.71,2.16,0,4.92,1.44,7.55,9.38-3.52,18.88-6.88,28.22-10.62q36-14.39,71.78-29.07c9.94-4.09,19.08-9.36,24.26-19.48,1.31-2.55,4.93-3.85,4.09-7.56,1.23,14.4-.68,28.15-8.82,40.48A33,33,0,0,1,709.17,484q-53.05,19.39-106.07,38.87c-.61.23-1.24.4-2.79.88C604.69,512.29,604.85,500.94,604.69,489.56Z"/><path class="cls-27" d="M379.89,581.4a70.93,70.93,0,0,1-10.51,8.22c-6.93,4.18-13.45,3.62-19.83-1.21-12.74-9.64-20.66-32.55-16.4-47.85.9-3.2,2.06-6.33,4.87-8.45,3.19-2.41,6.69-3.4,10-.7,3.07,2.5,5.67,1.89,8.46-.12,2.6-1.55,4.41,0,6.08,1.65a25.14,25.14,0,0,1,5.87,9.09c4.41,12.1,7.32,24.66,11.27,36.91A11.07,11.07,0,0,1,379.89,581.4Z"/><path class="cls-28" d="M563.51,573.43a487,487,0,0,1-17.1,59.76c-4.52-6.25-8.66-11.58-12.35-17.2-2.71-4.13-5.6-5.43-10.42-3.46-6.57,2.67-13.41,4.69-21.31,7.39l11.39-29.48a29.73,29.73,0,0,1,7.51-2.44c13.84-3.27,27.58-6.82,39.94-14.26A2.37,2.37,0,0,1,563.51,573.43Z"/><path class="cls-29" d="M621.55,546.19c9.9,9.48,18.93,19.76,28.85,30.52-7.79.9-14.47,1.83-21.18,2.38-3.79.32-5.71,2.17-6.41,5.72a191.21,191.21,0,0,1-5.67,21.85c-11.36-12.1-21.74-24.47-31.66-37.25-.3-2,1.49-2.09,2.51-2.44,11.18-3.9,19.88-11.69,29.26-18.42C618.59,547.59,619.84,546.47,621.55,546.19Z"/><path class="cls-30" d="M541.77,516.51c.63,5.21,3.52,5.65,7.89,4.13,14.35-5,29.32-8.62,40.85-19.52.44-.41,1.22-.45,1.84-.67a60.37,60.37,0,0,1-6.21,26.84,20.28,20.28,0,0,1-10,9.93c-13.09,5.84-26.42,11.06-40.79,16.47C541.23,541.23,541.76,528.91,541.77,516.51Z"/><path class="cls-31" d="M563.51,573.43c-11.33,8.36-24.76,11.43-38,14.82-3.83,1-7.58,3.09-11.8,2.19,2.25-6.74,4.51-13.48,6.72-20.24a3.3,3.3,0,0,1,3.28-2.57c12.06.83,21.85-5.93,32.54-9.64,3.67-1.27,7.23-2.9,11.58-4.67A122.47,122.47,0,0,1,563.51,573.43Z"/><path class="cls-32" d="M621.55,546.19c-9.23,7.6-18.21,15.57-29.5,20.19-2.23.91-4.38,2-6.57,3-6.68-6.44-8.11-12.47-4.79-20.29a2.9,2.9,0,0,1,.81-1.2c8.28-6.09,17.15-11,27.09-13.92a2.34,2.34,0,0,1,2.61.84C614.71,538.57,619,541.62,621.55,546.19Z"/><path class="cls-33" d="M379.89,581.4c-5.07-9.74-6.4-20.7-10-30.93-1.76-5-3-10.16-6.31-14.46-1.8-2.35-3.54-4.93-7.09-4.72,2.06-2.78-.08-5.15-.75-7.67,4.39-.59,5.85-4.81,8.85-7.13,13.19,18.28,18.34,38.8,17,61.11C381.56,579.06,381.53,580.62,379.89,581.4Z"/><path class="cls-4" d="M154,164.85c1.34-2.07-2.54-4.15-.64-6.19s4.38.85,6.6.1a4.76,4.76,0,0,0,2-1.41c1.68-1.95,2.64-.87,3.06.84.75,3-.15,6.61,3.77,8.39.82.37.78,2.57-.15,3.66s-2,0-3.07-.34c-3.21-1-5.74-4-10.06-1.56C152.62,169.92,153.49,166.75,154,164.85Z"/><path class="cls-4" d="M161.25,141.08c0-2.84,5-5.88,7.54-4.88.76.29,1.4,1.94,2.24.41.67-1.23,1.42-2.18,2.52-1s3.08,2.63,2.26,4.63a91.2,91.2,0,0,1-4.45,8.69,1.53,1.53,0,0,1-1.23.64c-2.25-.36-2-4.32-6.11-3.12C160.73,147.39,163.3,142.21,161.25,141.08Z"/><path class="cls-4" d="M57.76,183.59c-1,.16-1.16-1.5-1.95-2.45-.92-1.11-1.57-2.5-3.46-.69s-4.29.32-5.48-1,1-2.41,1.86-3.51a19,19,0,0,0,1.68-1.83c3.61-6.31,3.43-6,9.54-2.64,2.72,1.5,2.17,2.66,1.22,4.6C60,178.43,59,180.8,57.76,183.59Z"/><path class="cls-4" d="M40.29,183.74c2.62-.11,5.06.61,7.38-.46a3.09,3.09,0,0,1,3.68.47c1,.95.29,1.66-.4,2.47-1.08,1.27-1,4-3.47,3.46C44.26,189,41.15,188,40.29,183.74Z"/></svg>