<svg id="Layer_1" data-name="Layer 1" xmlns="http://www.w3.org/2000/svg" viewBox="0 0 803.49 637.84"><defs><style>.cls-1{fill:#532e16;}.cls-2{fill:#522e16;}.cls-3{fill:#462814;}.cls-4{fill:#fff7ea;}.cls-5{fill:#ef8955;}.cls-6{fill:#d39156;}.cls-7{fill:#ed8753;}.cls-8{fill:#d09257;}.cls-9{fill:#f79e6e;}.cls-10{fill:#f89e70;}.cls-11{fill:#3e2313;}.cls-12{fill:#fcc9aa;}.cls-13{fill:#fccaaa;}.cls-14{fill:#fbcbac;}.cls-15{fill:#fcdfca;}.cls-16{fill:#f9dec8;}.cls-17{fill:#fadec9;}.cls-18{fill:#cc884b;}.cls-19{fill:#ce8b4e;}.cls-20{fill:#563017;}.cls-21{fill:#542f17;}.cls-22{fill:#4f2c15;}.cls-23{fill:#df8250;}.cls-24{fill:#df8450;}.cls-25{fill:#fed9a0;}.cls-26{fill:#fed89f;}.cls-27{fill:#ffd9a1;}.cls-28{fill:#fed89e;}.cls-29{fill:#fed99f;}.cls-30{fill:#fdd8a0;}.cls-31{fill:#fedaa3;}.cls-32{fill:#e1a96b;}.cls-33{fill:#502e18;}.cls-34{fill:#fdddb1;}.cls-35{fill:#fff9dc;}.cls-36{fill:#fffced;}.cls-37{fill:#b0aa71;}.cls-38{fill:#c3bb87;}.cls-39{fill:#fcc596;}.cls-40{fill:#553016;}.cls-41{fill:#f08b56;}.cls-42{fill:#ada669;}.cls-43{fill:#f18f59;}.cls-44{fill:#aca367;}.cls-45{fill:#a69f63;}.cls-46{fill:#c96932;}.cls-47{fill:#fbb884;}.cls-48{fill:#978d50;}.cls-49{fill:#c2b884;}</style></defs><path class="cls-1" d="M732.79,202.27c19.85,19.89,39.13,40.4,59.75,59.46,14.37,13.27,14.71,33.28.37,46.6-7.73,7.18-15.08,14.07-26.51,14-4.91,0-9.4-1.63-14.59-3.31v32.06q0,132.2,0,264.39c0,14.78-5.42,20.26-20.3,20.27q-175,.08-350,.05-38.67,0-77.35,0c-15,0-20.31-5.18-20.31-20q0-145.51.05-291v-7.7c-9.24,5.1-18.64,7.47-28.06,3.35-15.5-6.77-34.66-27.41-24.57-47.53a32.66,32.66,0,0,1,6.27-8.64q79.23-79,158.42-158,47.33-47.2,94.67-94.4c15.88-15.75,34.48-15.72,50.2-.09q44.51,44.24,89,88.51c.77.76,1.82,5.2,4.1.9s.81-9.13,1-13.69c.25-7.37,0-14.77.08-22.16.07-12.06,6.06-18.4,18.28-18.65,13.71-.29,27.44-.12,41.16,0,2.14,0,5.15-.74,5.5,2.64a6.66,6.66,0,0,1-4.06,7.2c-2,.89-4.14.71-6.24.72q-16.47.08-32.93,0c-3.5,0-6.64.62-9.37,3-3,2.65-5.62,5.11-2.59,9.54,1.3,1.9.81,4.51.86,6.83.27,14.13-.51,28.27.44,42.39.26,3.83-1.73,6.39-5.25,7.78-4.37,1.27-6.52-2.1-9-4.54q-41.14-41-82.21-82.16c-2.23-2.23-4.47-4.46-6.73-6.66-4.11-4.25-8.27-8.46-12.54-12.56-8.32-8-18.39-8.45-27.47-1.37a54.52,54.52,0,0,0-5.1,4.75Q373.8,148.12,249.86,272.08c-8.87,8.86-9.48,13.11-3.41,22.67.51.67-.13-.17.37.51,12.52,16.84,22.59,17.66,37.32,2.94Q393.06,189.32,501.94,80.41c1.49-1.5,3-3,4.49-4.48,7.48-7.22,11.36-7.24,18.67.06q43.71,43.67,87.4,87.37c45.59,45.51,92.14,90,137.27,136a36.85,36.85,0,0,0,9.55,7.24c5.39,2.74,10.78,2.59,15.59-.95,7.12-5.24,14.69-10.32,14.55-20.81a13.9,13.9,0,0,0-4.07-10.27c-29.12-29.13-57.83-58.7-87.57-87.19-15.1-14.47-29.7-29.42-44.76-43.91-1.52-1.47-3-3-3.59-5.13-2.19-8.64-2.09-8.94,4.43-13.63,2.92-.09,4.46,2.12,6.21,3.86q22.57,22.49,45.08,45a22.54,22.54,0,0,1,4.86,6.56c3.28,3.38,6.09,9.81,10.58,8.38,3.21-1,1.27-8.05,1.28-12.38q.15-53.46.06-106.93c0-4.61,0-9.19-6.35-9.61-2.54-.15-5.23.37-7.31-1.72.25-1.79,1.61-3.06,1.54-5.22-.17-5.37,1.52-6.56,6.94-6.07,8,.72,14.43,7.19,14.49,14.9.16,21.53.5,43.07.45,64.59-.05,22.13-.27,44.27-.4,66.41C731.31,195.85,731.07,199.21,732.79,202.27Z"/><path class="cls-2" d="M234.94,635.72c-9.43.08-11.2-1.3-13.61-10.55-1.63-6.25-1.63-6.26-8.17-6.26q-74.85,0-149.72-.09c-3.63,0-5.32,1.12-5.75,4.53a6.5,6.5,0,0,1-.12.77C54.68,636.22,51,636.63,38,635.33c-3.66-.37-6-2.84-6.71-6.73a19.61,19.61,0,0,1-.61-5.05c.38-4.09-.3-7.06-4.63-9.44-5.72-3.13-8.07-9.2-8.75-15.53-1-9-1.66-18-2.17-27.05-.13-2.34-1.52-3.12-3-4.16-14.84-10.58-16.33-31-3.11-43.31a25.64,25.64,0,0,1,13.83-6.95c2.77-.41,4-1.48,3.88-4.55a148.48,148.48,0,0,1,.31-19.68c1.9-17.86,15.3-29.89,34-30q77.62-.37,155.25-.06c17.12.07,29.53,9.87,33.18,25.22,1.91,8,1.12,16.2,1.1,24.31,0,3.34,1.29,4.2,4.14,4.68,11.82,2,19.3,9.23,22.55,20.39,3.3,11.32-1.06,22.39-10.86,29.32a7.68,7.68,0,0,0-3.68,6.3c-.74,9.4-1,18.85-2.63,28.16a19.71,19.71,0,0,1-10.2,14.6,3.17,3.17,0,0,0-1.83,3.44c.1,2.1,0,4.21,0,6.31-.17,6.49-3.57,9.94-10,10.13C237,635.74,236,635.72,234.94,635.72Z"/><path class="cls-3" d="M654.06,125c-3.74,3.58-5.62,7.73-4,13a16.56,16.56,0,0,1-11.38-11.34c4.9-2.11,5.84-5.28,5.45-10.86-.93-13.25-.3-26.6-.32-39.91,0-1.68-.1-3.37-.21-5-.17-2.59-5.5-3.84-2-7.43,4-4,7.49-8.3,14.27-8,11.39.47,22.81.13,34.22.13a34.45,34.45,0,0,0,4.43-.1c3.28-.44,3.85-3.26,3.93-5.68.11-3.24-2.81-1.72-4.25-1.73-13.52-.15-27-.22-40.56,0-12.6.16-17.46,5.3-17.47,17.9,0,11.41-.05,22.81,0,34.22,0,2.4-.25,3.38-2.32,1.15-.13-12.67-.53-25.33-.31-38,.18-9.85,7.95-17.4,18.06-17.53q31.67-.37,63.35,0c10.49.13,18,7.17,18,17.36.11,46.45-.12,92.9-.23,139.35-2.46-2.22-2.81-5.19-2.71-8.2.53-16.21.5-32.46.6-48.64.16-28.54-.48-57.11-.72-85.67-.06-6.48-6.59-11.94-13.29-11.89-1.93,0-4.67-1-5.36,1.87-.55,2.34-1.25,5.22,2.65,6-1.74,1.68-4.16.17-5.46,1.95-2.44,2.77-5.77,2.11-8.82,2.13-13.83.11-27.66,0-41.49.08-3.78,0-7.67,0-10,3.83a9.77,9.77,0,0,0-1.33,5.41c.12,14.87-.28,29.74.24,44.58a11.45,11.45,0,0,0,2.33,4.06C651,120.18,654.25,121.45,654.06,125Z"/><path class="cls-4" d="M299.25,623.31c-2.38-2.08-3.11-4.62-3.1-7.83q.14-152.49,0-305a10.67,10.67,0,0,1,3.46-8.29Q403.28,199.16,506.79,96c9.15-9.1,9.19-9,18.24,0Q630,200.43,735.11,304.71a13.28,13.28,0,0,1,4.26,10.49q-.17,149-.1,298c0,9.87-.21,10.1-9.83,10.11-8,0-16.08-.19-24.09.16-4.37.19-5.59-1.41-5.16-5.48a83.57,83.57,0,0,0,.11-9.5c-.13-9.48-2.81-13.37-12.1-15.75-4.14-1.06-2.64-3.82-2.65-5.91-.11-23.25-.06-46.5-.06-69.75,0-23.88.44-47.77-.13-71.64-.67-27.66-12.29-49.65-36.35-64.22-31.57-19.12-75.93-9.16-96.67,21.53-2,6.22-6,11.49-8.13,17.72a81.79,81.79,0,0,0-4.41,26.61q.09,68.39,0,136.78c0,8.52,0,8.52-8.37,10.69-4.54,1.17-7.76,5.66-8.06,11.64-.22,4.43-.09,8.87-.06,13.3,0,3.73-1.69,5.45-5.38,5.32-1.27-.05-2.54,0-3.8,0q-103.22,0-206.44,0C304.86,624.79,301.74,625.65,299.25,623.31Z"/><path class="cls-5" d="M638.68,126.57a73.52,73.52,0,0,0,11.38,11.34Q706.9,194.43,763.76,251q11.24,11.16,22.51,22.3a16.57,16.57,0,0,1,1.16,22.84c-.54.65-1.17,1.22-1.76,1.83-15.69,16.37-23,16.35-39.22.24Q634.4,186.58,522.28,75.06c-4.88-4.86-7.62-4.77-13.28.85q-50.56,50.27-101.08,100.6-62.18,62-124.3,124a58.57,58.57,0,0,1-6.62,5.88c-7.16,5.24-15.45,5.1-22.18-.54-3.54-3-7-6.12-9.33-10.22-1.89-6.05,1.65-10.52,4.56-15.07,1.47-2.29,3.74-4,5.68-5.94q118-118,236-236.1c4.34-4.35,9.08-8.19,13.71-12.19a16.38,16.38,0,0,1,16-3.53c7.8,2.23,16.06,3.72,22.25,9.75l63.9,63.26Z"/><path class="cls-6" d="M559,413.38c10.69-15.32,24.49-25.51,43.42-28.89,35.26-6.29,70,20.73,70.52,56.69.65,49,.09,97.93.16,146.9,0,3.78-1.06,5.21-5,5.2-37.57-.15-75.14-.15-112.71-.19-1.91,0-3.83.13-5.24-1.54-2.09-1.81-1.46-4.29-1.46-6.53q-.06-68.4,0-136.81c0-11.11,2-21.82,7.46-31.67C556.91,415.27,557.34,413.76,559,413.38Z"/><path class="cls-7" d="M654.06,125l-5.19-6c-.06-.83-.58-2,0-2.42,5.35-3.87,4.49-9.51,4.5-14.94,0-8-.19-16,.07-24.07.26-7.79,3.82-11.91,11.49-11,13.08,1.59,26.11.14,39.15.64,5.73.23,11.91.82,16.35-4.38,2.71,1.41,1.94,4,1.94,6.19q.09,57,0,114.07c0,2.45.66,5.55-2.38,6.59-2.69.92-4-1.88-5.54-3.42-2.07-2.05-4.66-3.72-5.64-6.7Z"/><path class="cls-8" d="M607.75,629.52c-20.15.78-43.37-.84-66.6-.51-6.27.09-7.95-2.22-7.92-8.17.12-19.35-1.33-17.68,17.85-17.68q63.69,0,127.4,0c9.7,0,10.36.68,10.16,10.52,0,.64,0,1.27,0,1.9,0,14,0,14-14.41,14Z"/><path class="cls-9" d="M543.73,32.54A81.55,81.55,0,0,1,530.64,27C517,20.25,507,25.11,497.55,34.86c-12.06,12.42-24.45,24.51-36.69,36.75Q357.2,175.27,253.5,278.92c-4.71,4.71-6.9,10.38-8,16.7-6.47-8.24-6.05-15.5,1.91-23.51,18.92-19,38-37.89,57-56.84L498.76,21.42c11.66-11.63,22.37-11.71,34-.23C536.46,24.9,540.06,28.76,543.73,32.54Z"/><path class="cls-10" d="M720.25,62.79c.32,4.34-1,5.52-5.94,5.59-15.39.21-30.73,1.68-46.17-.13-10.78-1.26-12.91,1.16-12.9,12.11,0,5.9.16,11.8,0,17.69-.27,7.48,2.74,16-6.32,20.9L646,116.2c-.4-17.68-.28-35.36-.06-53,1.52-4.26,4.73-5.28,9-5.27,17.88.06,35.76-.09,53.64-.16l7.64.09C719,58.25,720.83,59.52,720.25,62.79Z"/><path class="cls-11" d="M299.25,623.31q109.29,0,218.56.09c3.52,0,4.34-1.19,4.2-4.36-.2-4.22-.07-8.45,0-12.67.15-7.86,4.15-12.8,11.87-13.42,4.88-.39,4.47-3.19,4.47-6.46q0-69.69,0-139.38c0-16.22,4.24-31.16,14-44.35,1.92,1.25.74,2.34,0,3.65A80.77,80.77,0,0,0,541,449.15c.3,45.44,0,90.87.27,136.3,0,6.59-1.8,9.72-8.46,10.31s-7.59,5.92-8.1,11.06a91.09,91.09,0,0,0-.06,12c.18,5.06-2.06,7.36-7.18,7.29-9.72-.13-19.44,0-29.16,0q-91,0-181.94-.1C304,626,300.11,628.07,299.25,623.31Z"/><path class="cls-11" d="M559,413.38c-6.95,11.77-9,24.43-8.91,38.09.41,46.69.1,93.39.07,140.08-1,1.08-2,.82-2.3-.44a21.88,21.88,0,0,1-.46-5c0-46.47-.18-92.94.13-139.41.07-11,2.28-21.77,8.28-31.34C556.51,414.31,556.41,411.48,559,413.38Z"/><path class="cls-3" d="M720.25,62.79c-.2-2.63-2.39-3.61-4.11-5,5.18.34,7.56,3.2,7.57,9.39q0,31,0,62c0,18.57,0,37.14,0,55.71,0,2.42,1,5.52-1.87,6.86-3.35,1.57-5-1.68-6.56-3.62-2.24-2.79-6.88-3.9-6.41-8.67l9,10.59c3.18-1.59,3-3.12,3-4.55q0-60.51,0-121A5.55,5.55,0,0,0,720.25,62.79Z"/><path class="cls-12" d="M238.06,480.77c3.54,4.21,4.73,9.27,5,14.55.28,6.3.22,12.61.4,18.9.06,1.79-.3,2.75-2.25,3.39-15,5-22.68,15.51-23.54,31.77,0,.52,0,1,0,1.57-.08,2.09-.15,4.18-.23,6.26-1.85-.45-3.67-1-5.54-1.32a36.28,36.28,0,0,0-5.11-.21q-67.58,0-135.14,0c-2.51,0-5.1-.11-7.38.88-3.42,1.47-3.61-.19-3.46-2.87a44.49,44.49,0,0,0-1-12.12c-2.54-11.53-9.57-19.22-20.31-23.74a7.71,7.71,0,0,1-1.94-5c-.09-5.52-.16-11,1.13-16.45C41.5,484,48,477.92,60.56,476a43.82,43.82,0,0,1,6.67-.38q74.25,0,148.5.05C223.49,475.69,231.22,476.45,238.06,480.77Z"/><path class="cls-13" d="M269.59,538.31c3.33,9-.36,18.7-9.59,23.87a7.58,7.58,0,0,0-4.35,6.78c-.6,8.89-1.43,17.77-1.94,26.67-.58,10-5.94,15.48-15.9,15.49q-97.83.11-195.66.14c-5.66,0-11-.69-14.54-5.93-2.81-6.67-2.14-13.87-3.29-20.78-1-6.1.12-12.32-1.53-18.32-.57-2.25-2.29-3.35-4.15-4.46C14,559,10.37,555.36,9.1,549.84c-.22-.92-.56-1.89,0-2.66,2.38-3.33,3.36-7.43,5.88-10.66,4.88-6.29,13.21-8.54,20.91-6.15,7.9,2.45,17.88,14.19,17.09,23.68-.82,9.77-.21,19.68-.17,29.52,0,5.69,3.33,9.1,9,9.11q77.4.06,154.8,0c6.09,0,8.53-2.86,8.83-9a288.51,288.51,0,0,1,4.31-36.27c1.63-9.21,7-15.73,16.75-17.68a17.07,17.07,0,0,1,8.94.47,23.5,23.5,0,0,0,4.47,1.5C264.35,532.24,267.8,534,269.59,538.31Z"/><path class="cls-14" d="M217.41,573.83C218,585,218,585,207,585q-66.49,0-133-.05c-1.31,0-2.61-.11-3.92-.16-1.4-1-3-.72-4.58-.71-2.57,0-4-1.1-4-3.7-.08-3,0-6,0-9.06a3,3,0,0,1,2.78-3.22,28.15,28.15,0,0,1,5.11-.25H208.8c1,0,2.1,0,3.15,0,3.07,0,5.14,1,4.82,4.61A1.64,1.64,0,0,0,217.41,573.83Z"/><path class="cls-15" d="M238.06,480.77c-10.6-3.52-21.52-4.07-32.61-4-46.48.17-93,0-139.44.09-18.67,0-25.52,9.56-27.35,26.18-.4,3.63.3,7.4-.22,11-.24,1.7,2.49,2.17,1,3.81-5.36-.22-5.52-.31-5.33-5.64.23-6.28-.44-12.58.5-18.86C36.71,479,46.3,470.49,60.82,470.47q47.25-.06,94.5,0c20.61,0,41.22-.09,61.82.06C225.64,470.58,233.05,473.36,238.06,480.77Z"/><path class="cls-16" d="M269.59,538.31c-1.14.15-1.26.16-1.34-.34-.55-3.45-2.95-4.27-6-4.42a8.09,8.09,0,0,1-3-.79c-14.41-7-27.49,2.42-29.07,17.89-.81,7.9-1.9,15.78-2.74,23.68-.42,3.93-1,7.89-1.31,11.89s-4.36,7.17-9,7.25c-5.9.1-11.81,0-17.72,0H63.19c-7.65,0-11.19-3.62-11.19-11.36,0-10.37,0-20.74,0-31.12,0-5.26-7.78-16.73-15.87-19.48a18.06,18.06,0,0,0-19.67,4.93c-2.09,2.27-3,5.14-4.21,7.92-1,2.33-3.62,4-1.93,7.22s3.62,6.3,6.84,8.39c2.47,1.59,5.62,2.53,6.48,5.91a.91.91,0,0,1-1.44,0,13.3,13.3,0,0,0-4-3.64c-10.07-6.31-13.54-17.63-8.37-27.13a22.4,22.4,0,0,1,28.54-9.52C48.58,530.18,53,538.7,53.38,549.44c.36,11.14.12,22.31.16,33.47,0,6.37,2.66,9.16,9,9.16q77,0,154,0c5.66,0,8.31-2.87,8.35-8.57.07-12.46-.7-25,.45-37.38C227,528.64,245,518.53,260,526.54A19.63,19.63,0,0,1,269.59,538.31Z"/><path class="cls-17" d="M217.41,573.83c-.36.5-.71,1-1.06,1.52-.82-6.28-.82-6.3-7.61-6.3q-71,0-142-.1c-3.7,0-5,1.08-4.47,4.64a14.23,14.23,0,0,1,0,2c0,6.6,0,6.62,6.32,7.71a1.63,1.63,0,0,1,1.54,1.48c-9.41.5-9.41.5-9.36-8.81.08-11.91,1.31-13.11,13.39-13.11l129.54,0h3.54C214.44,562.94,219,565.56,217.41,573.83Z"/><path class="cls-18" d="M234.35,618.58h.79c5.94-.07,7.27,1.65,5.86,7.57-.09.38-.14.87-.39,1.08-2.61,2.2-5.74.75-8.61,1.15-1.73.24-2.56-.77-3.15-2.28C225.94,618.69,225.92,618.7,234.35,618.58Z"/><path class="cls-19" d="M44.48,618.61h.39c7.2.06,7.13,0,5.1,6.94-.57,1.93-1.43,3-3.51,2.83-.78,0-1.56,0-2.35,0-6.07,0-8-2.54-6.3-8.46a1.67,1.67,0,0,1,2-1.37c1.57,0,3.14,0,4.71,0Z"/><path class="cls-1" d="M645.9,63.15,646,116.2c-1.85-4-.91-8.26-.81-12.35C645.48,90.28,644,76.68,645.9,63.15Z"/><path class="cls-20" d="M421.73,514.33h-46.9c-10.13,0-14.11-4-14.11-14.2q0-43.1,0-86.19c0-22.62,15.15-40,37.62-41.4,17.83-1.15,35.94-2.77,53.62,1.1,19.07,4.18,30.91,19.8,31,39.43.15,29.37.13,58.73.11,88.1,0,9.05-4,13-13.23,13.08-16.05.07-32.11,0-48.16,0Z"/><path class="cls-21" d="M516.1,308.38q-23.12,0-46.25,0c-10.1,0-13.92-3.62-14-13.56-.11-16.68.52-33.4-.23-50.05-1.55-34.11,24.77-64.5,66.81-60.79,32.65,2.87,53.86,26.18,53.94,58.88q.06,26,0,52c0,9.48-4,13.55-13.41,13.57C547.36,308.41,531.73,308.38,516.1,308.38Z"/><path class="cls-22" d="M659.13,501.39a14.9,14.9,0,0,1-15,14.76c-8.61,0-15.57-6.75-15.48-15a15.83,15.83,0,0,1,15.5-15.29C652.34,485.72,659.19,492.84,659.13,501.39Z"/><path class="cls-23" d="M103.88,517.05a7.42,7.42,0,1,1-14.82-.63,7.27,7.27,0,0,1,7.64-7.23A7.71,7.71,0,0,1,103.88,517.05Z"/><path class="cls-24" d="M174.51,524.18a7.34,7.34,0,0,1-7.36-7.1,7.36,7.36,0,1,1,14.7-.45A7.28,7.28,0,0,1,174.51,524.18Z"/><path class="cls-25" d="M415.87,476.72c0,6.54-.12,13.09,0,19.63.09,3.62-.92,5.42-5,5.35-11-.21-21.95-.15-32.93-.11-3.74,0-5.34-1.69-5.33-5.38q.06-19.95-.05-39.89c0-3.3,1.13-5.13,4.77-5.1,11.4.09,22.8.11,34.2,0,3.48-.05,4.3,1.57,4.25,4.63-.11,7,0,13.93,0,20.9Z"/><path class="cls-25" d="M470.85,477c0,6.33-.1,12.67,0,19,.08,4-1.56,5.76-5.63,5.72-10.57-.12-21.13-.15-31.69,0-3.85.05-5.24-1.48-5.2-5.27q.21-19.95.07-39.92c0-3.68,1.18-5.39,5.13-5.32,10.56.17,21.13.22,31.69,0,4.66-.1,5.83,2,5.73,6.16-.16,6.54-.05,13.1-.05,19.65Z"/><path class="cls-26" d="M449.71,438.59c-5.49,0-11-.12-16.48,0-3.54.11-4.88-1.27-4.84-4.83.14-15,.15-30,.11-45,0-3.39,1-5.15,4.77-4.81s7.63,0,11.38.54c16.24,2.19,25.7,12.61,26.26,28.94.23,6.54-.1,13.1.1,19.65.12,4-1.18,5.81-5.45,5.58-5.27-.28-10.56-.07-15.85-.07Z"/><path class="cls-27" d="M415.88,411.14c0,7.59-.12,15.18.05,22.76.08,3.58-1.28,4.8-4.82,4.75-11.17-.14-22.35,0-33.52,0-2.45,0-4.94-.1-4.92-3.39,0-8.42-.7-17,.56-25.22,2.54-16.55,13.14-25.62,29.94-25.92,15.24-.28,12.29-2.13,12.65,11.84.13,5.05,0,10.12,0,15.18Z"/><path class="cls-28" d="M543.58,254.88c5.08,0,10.15.16,15.22,0,3.63-.14,5.42.79,5.33,4.91-.25,10.34-.23,20.7-.1,31.05,0,3.81-1.44,5.36-5.21,5.34-10.57-.06-21.13-.09-31.69.12-4.07.08-5-1.8-4.93-5.42.17-10.14.26-20.29.06-30.43-.09-4.15,1.35-5.71,5.48-5.53,5.27.23,10.56,0,15.84,0Z"/><path class="cls-29" d="M489.09,255c3.38,0,6.75,0,10.12,0,10.45.06,10.5.07,10.56,10.82.05,8.23-.26,16.46,0,24.67.15,4.52-1.56,5.82-5.89,5.7-9.69-.25-19.4-.23-29.09,0-4.8.12-7-1.4-6.82-6.49.32-9.9.38-19.81.26-29.72,0-3.77,1.09-5.35,5.06-5.14,5.25.27,10.53.06,15.8.06Z"/><path class="cls-30" d="M543.14,242.64c-5.28,0-10.56,0-15.84,0-3.3,0-5.11-1.08-5.07-4.75q.16-18.69.06-37.37c0-3.37,1.07-4.39,4.59-3.73,19.73,3.65,34.53,18.95,36.89,38.25.64,5.26-.12,8.57-6.71,7.78-4.58-.54-9.28-.1-13.92-.1Z"/><path class="cls-31" d="M509.74,219.64c0,5.9-.23,11.81.06,17.69.21,4.27-1.52,5.42-5.54,5.35q-15.47-.31-30.95,0c-4,.08-4.94-1.47-4.84-5.23.53-19.53,17.47-38.15,36.95-40.66,3.56-.46,4.45.59,4.37,3.87C509.64,207,509.75,213.32,509.74,219.64Z"/><path class="cls-32" d="M650.11,500.94c-.76,3.28-2.43,5.77-5.8,5.71s-6-2.32-6-5.89c0-3.2,2.2-5.44,5.62-5.6C647.93,495,649.08,498,650.11,500.94Z"/><path class="cls-33" d="M132.05,288.23H206c9.3,0,12.72,3.34,12.72,12.45q0,60.21,0,120.41c0,7.39-3.69,11.18-11.15,11.18q-75.33,0-150.64-.13c-7.75,0-11.28-3.69-11.28-11.49q0-60,0-120c0-8.63,3.82-12.41,12.51-12.42q37,0,73.93,0Z"/><path class="cls-34" d="M197.22,423.13c-14.41.06-28.81.16-43.22.18q-46.73,0-93.44,0c-2,0-4.49,1-5.63-1.85-.18-39.27,0-78.55-.07-117.83a8.05,8.05,0,0,1,.59-4.08c1.37-1.91,3.42-1.86,5.45-1.86q71.3,0,142.6,0c4.95,0,5.78.81,5.78,5.63q.06,56.67,0,113.33c0,4.88-.8,5.54-5.71,5.71C201.44,422.44,199.21,421.89,197.22,423.13Z"/><path class="cls-35" d="M197.22,423.13c1.46-3.29,4.36-1.53,6.52-1.58,3.33-.07,4.71-1.09,4.7-4.58q-.13-56.91,0-113.8c0-3.41-1.21-4.62-4.62-4.62q-72,.1-144,.05a7.46,7.46,0,0,0-4,1,1.19,1.19,0,0,1,0-1.81.61.61,0,0,1,.72-.27,10.37,10.37,0,0,1,3.68-.27q72,0,144,0c1.36,0,2.79-.36,4.09.44,1.95.9,1.76,2.65,1.76,4.36q0,58,.06,116c0,4.06-1.42,5.67-5.44,5.28C202.18,423.08,199.69,423.18,197.22,423.13Z"/><path class="cls-36" d="M55.79,297.77l0,1.81q0,58.07,0,116.12c0,1.92.79,4-.85,5.75-1.1-1.36-.66-3-.66-4.48q0-57.15,0-114.31C54.28,300.9,53.72,298.91,55.79,297.77Z"/><path class="cls-34" d="M208.25,297.68l-148.51,0c-1.08,0-2.16-.15-3.23-.22,1.38-1.06,3-.53,4.48-.53q71.69-.06,143.37,0C205.66,296.94,207.16,296.33,208.25,297.68Z"/><path class="cls-4" d="M71.65,388.11c-1.51-1.16-1-2.82-1-4.31,0-22,.09-44-.08-66.05,0-4.23,1.53-5.22,5.46-5.21q56.3.15,112.57,0c3.92,0,5.2,1,5.11,5.32-.35,17.67-.31,35.36-.05,53,.08,5.18.59,10.29-1.1,15.31-3.2.49-5.06-1.89-7.21-3.51-5.56-4.19-10.84-8.74-16.61-12.64-7.48-5-13.66-5-21,.26-5.28,3.77-10.27,8-15.42,11.89-2.79,2.14-5.52,4.7-9.57,3.61-4.8-2.47-9.32-5.42-14-8-6.48-3.61-12.9-3.64-19.32.07a131.83,131.83,0,0,0-11.58,7.6C76,386.73,74.28,388.57,71.65,388.11Z"/><path class="cls-37" d="M122.87,385.05c2.71.55,4.77-.75,6.75-2.32,4.49-3.55,9-7.06,13.47-10.61,11.78-9.33,17.86-9.38,29.77-.6,6.58,4.86,12.64,10.42,19.68,14.65,3.06,2.94,1.71,6.71,1.74,10.12.1,12.45,1.17,11.19-11.17,11.18q-52.47,0-104.93-.13c-.85-1-.33-1.73.54-2.25a5.54,5.54,0,0,1,3.62-.63c8.45,1.25,15.32-2.58,22.15-6.67C110.9,393.94,117.24,390,122.87,385.05Z"/><path class="cls-38" d="M122.87,385.05c-.51,4.09-4.38,5.07-7,7-4,3.05-8.51,5.44-12.86,8-6.4,3.78-13,6.77-20.78,5.6-1.41-.21-3.58-.94-4.09,1.66-8.2.38-8.53.22-8.3-7.83.11-3.82-1.5-8,1.77-11.4,5.91-3.9,11.75-7.92,17.77-11.67,5.64-3.52,11.75-3.93,17.63-.87A108.4,108.4,0,0,1,122.87,385.05Z"/><path class="cls-39" d="M111,355.49c-8.71-.05-14.38-5.87-14.31-14.7.06-8.27,6.46-14.36,15-14.25s14.83,6.49,14.72,14.64C126.29,349.92,120.25,355.54,111,355.49Z"/><path class="cls-40" d="M309.8,557.94c-.73-4.76-3.37-8.34-5.21-12.27-.71-1.48-1.7-1.33-3.1-1.09-25.49,4.26-47.4-19.85-46.21-46.56.24-5.35,2.45-7.12,7.84-7.21,26.91-.4,47.25,22.4,44.58,46.73-.37,3.35,1.82,5.06,3.71,7.47,0-3,0-6,0-8.93-.08-9.76-.18-19.51-.25-29.27,0-1.72,0-3.18-2-4.28-17.39-9.42-25.71-33-19.14-54.68,2.35-7.76,5.79-14.89,11.29-20.88,4-4.41,6.7-4.62,11.4-.85,21.12,16.95,29.49,52.07,6.81,75-1,1-2,1.78-1.95,3.49.08,13.77,0,27.54.72,41.38,2.45-2.66,3.84-5.16,3.34-9-3.16-24.31,19.55-48.11,43.8-46.23,4.06.31,6.33,2.83,6.57,7.74,1.29,26.78-18.49,49.79-43.52,46.21a2.48,2.48,0,0,0-2.94,1.58c-1.89,3.59-5.5,7.5-4.44,10.92.68,2.19,6.52.68,10,.74,8,.13,16,0,24.08.06,7,0,10.46,3.52,10.57,10.41.05,3.93,0,7.86.05,11.8.05,2-.09,4.2-1.46,5.32-6.77,5.52-5.13,13.62-6.56,20.71-1.25,6.14-1.63,12.44-3.78,18.41-2.91,8.08-9.61,13.09-18.22,13.16q-18.16.13-36.35-.06c-14.83-.17-21.8-6.32-24-21q-1.75-11.87-3.29-23.76c-.21-1.64-.51-3-2.05-4-3.59-2.21-4.65-5.8-4.82-9.7-.15-3.3-.08-6.61,0-9.91.17-7.89,3.67-11.41,11.7-11.48C287.9,557.87,298.75,557.94,309.8,557.94Z"/><path class="cls-41" d="M350.81,590a229.9,229.9,0,0,1-4.21,29.79c-1.11,5.82-5.52,9-11.6,9q-19.33.1-38.67-.05c-6.72-.06-10.35-3.37-11.58-10a256.84,256.84,0,0,1-3.81-26c-1.05-2.66.53-3.23,2.68-3.54a95.72,95.72,0,0,1,22.94-.36,109.68,109.68,0,0,0,20.58,0C335.05,588.13,343,588,350.81,590Z"/><path class="cls-42" d="M310.12,494.77c-12.43-9.38-16-22.37-14.49-37.06a47.2,47.2,0,0,1,9.15-23.35c1.6-2.14,3-2.95,5.27-.78,16.65,16.22,21.33,41.92,6.95,60.07-2.87-.61-2.09-3-2.29-4.85-.82-7.43-1.52-14.88-3.6-22.15-.35,5.69-.75,11.37.07,17a53.83,53.83,0,0,1,.52,8.87C311.68,493.54,311.88,494.92,310.12,494.77Z"/><path class="cls-43" d="M279.2,583.34c-1-.29-2.19,0-3-.87-.27-.57-.9-1.16-.81-1.66a20.61,20.61,0,0,0-.74-10c-.64-2.07.95-3.49,3.29-3.53.62,0,1.25,0,1.88,0q35.77,0,71.54,0a30.77,30.77,0,0,1,5.52.83c1.23,3.94.46,8,.37,11.94-.05,2.53-2.47,2.85-4.45,3.3a5.16,5.16,0,0,1-3.11.85c-22.1-.63-44.2-.16-66.3-.25A13.3,13.3,0,0,1,279.2,583.34Z"/><path class="cls-44" d="M300.93,532.49c.11,5-1.58,6.14-7.66,5.25-14.49-2.1-25.53-12.34-29.16-27.16a59.53,59.53,0,0,1-1.18-7.41c-.56-5.08-.3-5.16,5-4.38,17.25,2.54,28.11,12.16,32.49,29.06a18,18,0,0,1,.52,2.29A20.43,20.43,0,0,1,300.93,532.49Z"/><path class="cls-45" d="M364.17,500.19c1,18.67-9.71,33.37-27,37.2a4.45,4.45,0,0,1-.45.13c-8.8,1-9,1.17-8.16-8.08a25.89,25.89,0,0,1,1.4-4.9c1.64-.93,1.51-2.77,2.12-4.21,5.28-12.46,15.26-18.62,28.06-21A4.24,4.24,0,0,1,364.17,500.19Z"/><path class="cls-46" d="M279.2,583.34c1.69-1.09,3.6-.9,5.47-.9q30.57,0,61.15.06a58.9,58.9,0,0,1,7,.81c-.66,2.24-1.31,4.48-2,6.72-3.23,1.6-6.46.11-9.69,0-6.75-.28-13.46.63-20.18.7-10,.11-20.06-.34-30.08-.8-3-.14-5.8,1.25-8.85.69-1.25-.23-.79,1.38-1.07,2.17C279.51,589.79,280.84,586.29,279.2,583.34Z"/><path class="cls-47" d="M356.86,568.07c-1.93,2.27-4-.07-5.94,0-20.53.29-41.06.22-61.59.24-3.45,0-6.9,0-10.34,0-1.48,0-3.44-.43-3.48,2,0,1.47-.94,3.34,2.33,3.23,2.25-.08,1.52,2.73.39,3.46-2.26,1.48-2.35,3.34-2.05,5.54-1.31.1-1.88-.58-1.93-1.82a64.76,64.76,0,0,1,0-12.53c1-2.11,2.87-1.55,4.52-1.55q36.76,0,73.52,0C353.94,566.58,355.83,566.06,356.86,568.07Z"/><path class="cls-48" d="M310.12,494.77c1.37-5.74-1-11.32-.77-17,.15-3.76,0-7.54,0-11.31,0-1.23-.29-3,1.16-3.24,1.81-.31,2.18,1.71,2.37,2.92,1.22,7.54,2.71,15.05,3.09,22.71.08,1.63-.73,3.51,1,4.82C315.16,496.82,313,498.16,310.12,494.77Z"/><path class="cls-49" d="M364.17,500.19c-13.38-.2-27.47,8.47-31.61,21.56a11.2,11.2,0,0,1-1.72,3.81c-.51.61-.55-.64-.85-1,3.11-13.75,16.73-25.31,30.75-26C362,498.46,364.11,497.43,364.17,500.19Z"/><path class="cls-43" d="M274.24,568.12q0,6.27,0,12.53A28.49,28.49,0,0,1,274.24,568.12Z"/></svg>