<svg id="Layer_1" data-name="Layer 1" xmlns="http://www.w3.org/2000/svg" viewBox="0 0 792.04 604.46"><defs><style>.cls-1{fill:#8d6a2f;}.cls-2{fill:#c69c55;}.cls-3{fill:#c69c54;}.cls-4{fill:#c39a53;}.cls-5{fill:#c29951;}.cls-6{fill:#a57d39;}.cls-7{fill:#ae8640;}.cls-8{fill:#867b3b;}.cls-9{fill:#e97e47;}.cls-10{fill:#aca15a;}.cls-11{fill:#aa9f59;}.cls-12{fill:#aaa05a;}.cls-13{fill:#f89b66;}.cls-14{fill:#3c2513;}.cls-15{fill:#fef5e6;}.cls-16{fill:#f89c5e;}.cls-17{fill:#f5e2c8;}.cls-18{fill:#fdfdfd;}.cls-19{fill:#fdc16b;}.cls-20{fill:#fdc36e;}.cls-21{fill:#faaf76;}.cls-22{fill:#fce2b0;}.cls-23{fill:#fbe1b0;}.cls-24{fill:#faae74;}.cls-25{fill:#fbbd87;}.cls-26{fill:#fab078;}.cls-27{fill:#3e2613;}.cls-28{fill:#f68b5e;}.cls-29{fill:#ef7e4c;}.cls-30{fill:#ee7d4b;}.cls-31{fill:#feebdb;}</style></defs><path class="cls-1" d="M704.11,472.94a391.59,391.59,0,0,0,18.22-63.06c.52-2.62-.93-4.42-1.78-6.47C712.2,383.36,709,362.78,714,341.34A56.79,56.79,0,0,1,722.14,322a30.13,30.13,0,0,1,8.79-8.81c8.57-5.43,17.37-3.71,22.85,4.82,6.52,10.13,7,21.49,5.57,33-2.74,22.16-11.81,41.34-27.76,57.13a6.94,6.94,0,0,0-1.84,3.8,466.77,466.77,0,0,1-18.12,63.61c1.77-.44,2.41-1.68,3-3.09,7-17.24,17.62-31.65,33.41-41.81,8.79-5.67,18.42-8.93,29.07-7.74,11.39,1.27,17.51,10.61,13.93,21.47-3.47,10.54-11.32,17.58-20.25,23.38-14.72,9.54-31.11,13.37-48.51,13-3.14-.08-5.36,1.07-7.79,2.81-6.42,4.6-10.38,10.66-13.47,17.92a251.21,251.21,0,0,1-19.38,36.7c2.86-.28,3.66-2.1,4.88-3.59,14.57-17.73,32.67-28,56.32-25.88,6.59.59,12.62,2.87,17.13,8.12,4.87,5.67,5.41,12.43,1.37,18.74-4.15,6.5-10.44,10.18-17.45,12.79-16.42,6.11-32.81,4.82-49.18-.23-11.05-3.41-17.68-1.2-24.7,8.16-3,4-6.13,8-9.21,12-1.73,2.25-3.88,3.92-6.55,1.8s-1.24-4.64.49-6.74c15.36-18.73,26.88-39.78,37.81-61.27,4.79-9.43,5.5-18.74,4-28.82a17.81,17.81,0,0,0-6-11.24c-15.57-14.57-24.79-32.32-25-54.07a33.24,33.24,0,0,1,3.07-14.69c5.92-12.53,18.74-14.42,28-4.12,6.72,7.45,9.69,16.58,11.22,26.22a90.14,90.14,0,0,1-4.69,47.14C701.81,465.93,704.09,469.38,704.11,472.94Z"/><path class="cls-2" d="M718.29,362.93c.38-11.29,1.68-20.89,5.74-30a35.47,35.47,0,0,1,8.66-12.24c6.11-5.48,12.9-4.22,16.6,3.18,2,4.06,2.46,8.51,2.83,12.94,1.71,20.69-5,39-16.24,55.9-1.82,2.74-3.51,5.58-6,7.84-1.63,1.47-2.41,1.47-3.42-.59-4.31-8.78-6-18.23-7.15-27.78C718.84,368.64,718,365.1,718.29,362.93Z"/><path class="cls-3" d="M702,428.8c0,9.92-.34,18.2-3.58,26.1-1.19,2.89-2.11,3.47-4.59,1-13.35-13.58-21.2-29.47-21.33-48.79a29.27,29.27,0,0,1,2.9-12.07c2.68-6,9.18-7.16,14.31-2.87s7.72,10.33,9.53,16.57C701.33,415.74,702.65,423,702,428.8Z"/><path class="cls-4" d="M724.33,467.87c9.18-17.63,21.35-32,41.42-37.57a27.84,27.84,0,0,1,11.53-.44c6.11.88,9.28,6.84,6.92,12.67a34.45,34.45,0,0,1-10,13.87c-13.88,11.53-30,17.13-48,17.42-.37-2.43,1.65-3.15,3.11-4.11,5.41-3.57,10.69-7.32,16-11,.95-.66,2.85-1.31,1.88-2.76-.85-1.27-2.42-.15-3.48.48-5.32,3.14-10.91,5.87-15.72,9.83C727,467.09,726.07,468.47,724.33,467.87Z"/><path class="cls-5" d="M697.7,531.87c8.66-8.15,18.5-14.27,30.41-16,7.49-1.07,15.16-1.77,22.36,2.08s8.54,10.45,2.79,16.51-13.27,8.79-21.07,10a73,73,0,0,1-38-4c.26-2.37,2.37-2.18,3.85-2.56,7.79-2,15.54-4.08,23.4-5.73,2.47-.52,5-1,7.22-2.73-1.82-1.13-3.38-.56-4.9-.33-7,1.07-13.86,2.29-20.69,4C701.22,533.59,698.84,534.9,697.7,531.87Z"/><path class="cls-6" d="M697.7,531.87c1,1.28,2.4,1,3.57.61,7.4-2.27,15-3.34,22.63-4.59,2.38-.39,6.11-1.74,6.78,1.17.59,2.56-3.49,2.86-5.55,3.41-9.64,2.61-19.4,4.8-29.13,7.11-.71.17-1.41.25-1.85.91C691.91,536.2,694.77,534,697.7,531.87Z"/><path class="cls-7" d="M724.33,467.87c5.38-4.81,11.67-8.26,17.84-11.89a27,27,0,0,1,3.09-1.54c1.42-.61,2.93-.79,3.81.75,1,1.75-.4,2.5-1.65,3.35-6,4.11-12,8.3-18.1,12.4-1.2.81-2.48,1.47-3.08,2.88C722,473.54,721.6,472.42,724.33,467.87Z"/><path class="cls-8" d="M74.49,382.87a215.09,215.09,0,0,0,1.25,71.77,245.8,245.8,0,0,0,8,31.74c.31.92.69,1.81,1,2.71,4.27-8.9,1.35-17.67.38-26.52-1.67-15.16,1-29.52,8.94-42.76a30.38,30.38,0,0,1,9.51-9.86c9.14-6.05,18.59-2.5,21.57,8.09,1.93,6.87,1.27,13.69-.53,20.47-4.24,16-14.49,27.59-27.13,37.43a9.71,9.71,0,0,0-3.81,6.4,96.17,96.17,0,0,0-1.32,22.79A19.06,19.06,0,0,0,95,512.86c9.59,18.56,21.07,35.7,37.29,49.25a9.82,9.82,0,0,1,1.85,1.79c1.28,1.84,1.46,3.86-.06,5.56s-3.42,1.3-5,0c-2.15-1.69-4.25-3.45-6.27-5.28a112.93,112.93,0,0,1-13.84-14.83,8.17,8.17,0,0,0-3.74-2.65c-5.39-2.21-10.22-1.76-15.6.83-14.84,7.14-30.43,9.37-46.62,5.09a36.45,36.45,0,0,1-11.37-5.11c-12.79-8.72-12-23.71,1.74-30.82,13.52-7,27.27-6.21,40.72.23,8.65,4.14,16.39,9.63,21.61,18,1,1.53,2.33,1.93,4.21,1.81-8.8-14-16.45-28.48-21.81-44-.87-2.54-3.25-3.56-4.76-5.42-7.37-9.07-16.48-13.34-28.47-14.87-18.91-2.41-33-13.38-41.77-30.68a28.78,28.78,0,0,1-2.72-8.62C-2,417.71,8.82,408.29,23.74,413c12.4,3.89,21.46,12.18,28.36,22.82a77.06,77.06,0,0,1,12,30.7c.68,4.51,5.38,6,8.1,9.23-7.4-30.69-10-61.56-5.6-92.86C69.21,380.33,71.85,380.17,74.49,382.87Z"/><path class="cls-9" d="M74.49,382.87a12.76,12.76,0,0,0-7.92,0c-11.35-1.31-21.82-4.85-30.78-12.19A42.29,42.29,0,0,1,24.89,358c-3.15-5.9-3.75-11.94.59-17.43,4.13-5.24,10-6.44,16.34-5.35,2,.34,3.9,1,6.29,1.61-.68-3.51-1.45-6.91-2-10.34-.95-6.31-1.06-12.63.85-18.81,1.79-5.77,4.86-10.67,11.22-11.94,6.72-1.34,11.75,2,15.53,7.21,4.06,5.54,6,12,7.44,18.69.21,1,.36,1.93.68,3.62,3.06-4,5.61-7.49,9.25-10.06,11.74-8.32,23.32-3.18,24.77,11.11,2.5,24.68-15.43,50.06-39.42,55.82A14.87,14.87,0,0,0,74.49,382.87Z"/><path class="cls-10" d="M52.91,466c-8.18.81-15.49-1.53-22.26-5.27-11.78-6.49-20.46-15.66-23.56-29.26-1.83-8,3.46-13.52,11.6-12.29,13.68,2.08,21.71,11.43,28.68,22.07a59,59,0,0,1,8.53,19.48c-7-4.32-11.21-11-17.57-15.26-1.09-.73-1.94-2.61-3.5-.83-1.29,1.48-1.39,2.91.28,4.45C41.11,454.67,47,460.36,52.91,466Z"/><path class="cls-11" d="M86.63,533.58c-6.88-.3-13.27-1.8-19.85-2.17-2.42-.13-4.86-.32-7.29-.4-1.49,0-3.2.06-3.27,2s1.71,2,3.11,2.28c8,1.46,16,2.86,24,4.34,1.35.25,2.66.77,4.8,1.4-6.67,3.19-12.85,5.37-19.38,6-10.74,1-21.58,1.81-31.46-4.11a19.94,19.94,0,0,1-3.18-2.19C27,534.2,27.84,528.3,36,523.1c11.73-7.43,29.64-4.63,40.36,2.84C79.88,528.38,83.22,531,86.63,533.58Z"/><path class="cls-12" d="M96.56,467.79l7.1-19.28c.45-1.21,1-2.4,1.32-3.64.4-1.53.91-3.44-.92-4.2s-2.25,1.32-2.87,2.46a174.2,174.2,0,0,0-9,20.42,36,36,0,0,1-.63-12.06c.67-9.94,2.62-19.58,8.26-28.12a35.71,35.71,0,0,1,6.72-7.26c4.31-3.7,9.63-2.33,11.95,2.86,3.05,6.84,1.43,13.66-.73,20.17C114.1,450.12,106.63,459.88,96.56,467.79Z"/><path class="cls-13" d="M92.2,366.58c-12.88,12.74-31.27,11.88-47.61,2-6.71-4.05-12.08-9.24-14.69-16.83-1.81-5.28.91-8.86,6.48-9.41,6.74-.67,12,2,16.77,6.3,1,.93,2,3.32,3.72,1.62,1.4-1.41,3.14-2.88,1.69-5.92a60.59,60.59,0,0,1-6.05-30.47,19.67,19.67,0,0,1,2.14-7.41c2.4-4.87,8.62-5.18,12.2-1,5.2,6.06,6.64,13.5,8.17,21,1,4.85.8,9.72.85,14.6,0,2.1-.49,4.7,2.14,5.54s2.4-2.39,3.87-3.32c4.85,3.85,9.49,7.81,9,14.9C90.62,361.08,92.09,363.72,92.2,366.58Z"/><path class="cls-13" d="M92.2,366.58a10.46,10.46,0,0,1-2.45-7.94A11.44,11.44,0,0,0,85.46,348c-1.48-1.25-2.4-3.15-3.58-4.76C83.17,333,89.12,325.53,97,319.59c4.63-3.5,9.73-1.26,11.47,4.38a22.43,22.43,0,0,1,.5,12.3c-2.33,9.3-5.67,18.08-11.71,25.67A25.21,25.21,0,0,1,92.2,366.58Z"/><path class="cls-14" d="M672.54,326.13V544.52c0,18.56-6.39,34.24-21,46.19-12,9.8-26,13.6-41.09,13.63q-82.87.17-165.76.07c-87.69,0-175.38.17-263.07-.15-24.35-.09-43.89-10-55.69-32.34-4.45-8.42-5.72-17.66-5.72-27q0-217.92.07-435.84c0-23,8.54-42,28.92-54.45,9.82-6,20.68-8.18,32.05-8.2,12.42,0,24.84-.18,37.25.06,3.92.07,5.43-.68,5.2-5-.44-8.54-.07-17.06,4.55-24.75A33.52,33.52,0,0,1,265.87,1.09c14.26,3.57,24.36,16.46,24.82,31.73a67.25,67.25,0,0,1-.05,9.31c-.41,3.69,1.12,4.32,4.46,4.28,12.72-.18,25.45,0,38.18,0l158.32,0c10.45,0,10.53,0,10.51-10.27,0-7.12,1.27-13.85,5-20A33.78,33.78,0,0,1,545.45,1.35c14.06,4,23.57,16.85,23.79,31.92.06,4.25-2.07,9.92,1,12.36,2.61,2.07,8,.64,12.19.68,11,.11,22.07-.36,33,.35,34.4,2.24,57,26.57,57,61.09q.07,109.19,0,218.38Z"/><path class="cls-15" d="M653.71,198.35c.06,2.48.19,5,.19,7.43q0,169.14,0,338.27c0,14.62-4.47,27.08-16.75,35.93a15.43,15.43,0,0,1-2,1c-3.93.12-7.35,2.15-10.85,3.47a36.44,36.44,0,0,1-13.13,2.28q-214.93,0-429.86,0c-7.63,0-15.19-1.17-21.18-6.77a6.38,6.38,0,0,0-2.35-1.5c-7.19-2.25-8.64-8.08-9.38-14.54-1.17-10.22-.93-20.46-.93-30.69V216.55a164,164,0,0,0-.69-19.06c-.26-2.23-1.4-5.43,2.33-6.51,1.46,5.49,5.83,5,10.06,5q241.39,0,482.8,0c2.33,0,4.65-.07,7,.08C650.83,196.15,652.68,196.42,653.71,198.35Z"/><path class="cls-16" d="M639,71.85c10.44,8,14.52,19.21,14.79,31.67.47,21.22.18,42.45.15,63.68,0,1,.86,2.61-1.16,2.92a33.45,33.45,0,0,0-5.57-.15H179.23a12.83,12.83,0,0,1-2.32,0c-1.85-.33-4.27,1.12-5.44-1.05-.66-1.21.75-2.55,1.74-3.54,1.73-1.73,3.68-2.83,6.26-1.93,2,.69,3.29,3.38,5.71,2.51,2.25-.81,1.45-3.55,2.47-5.23a4.12,4.12,0,0,1,3.33-2.23c3.83-.27,4.88-2.74,4.92-6.06,0-.93,0-1.86,0-2.79.15-7.15.47-7.75,7-10.23,3.33-1.26,5.2-2.92,4.18-6.92-.79-3.08.53-6.16,1.46-9.09a12.22,12.22,0,0,0-.63-9.89,45.36,45.36,0,0,1-4.83-16.86c-.4-4.1-2.57-7.92-3.55-12-.4-1.67-1.1-3.31-.73-5,.88-4.11-1.4-4.73-4.7-4.64-3.72.11-7.45.08-11.18,0-1.84,0-3.76.06-5.24-1.4.88-2.89,3.42-2.31,5.4-2.34,11.46-.14,22.91,0,34.37-.07,3.61,0,6,1.1,5.94,5.16.71,9-.38,17.93.76,26.89,2.19,17.07,16,29,33.57,29,16.9-.06,31.21-12.57,32.51-29.53.87-11.4.28-22.91.44-34.36,0-1.61-.72-3.4.69-4.84a4.49,4.49,0,0,1,1.17,2c1.51,5.74,1.51,5.71,7.29,5.71q97.23,0,194.46,0c2.58,0,5.33-.5,7.55,1.47.76,10.5-.61,21.06.92,31.52,2.54,17.32,17.46,29,35.81,28,16.29-.86,30.06-15,30.5-31.8.29-10.83,0-21.68.14-32.52,0-1.43-.74-3.09.7-4.33a4.27,4.27,0,0,1,1.13,2c1.39,5.77,1.39,5.75,7.18,5.75,12.22,0,24.45-.23,36.67.08C622.91,71.51,630.91,72.66,639,71.85Z"/><path class="cls-16" d="M177.81,73.56c6.51,0,13,.08,19.55,0,3.06-.05,4.72.85,3.12,4-2.31,4.58.74,8.85,2.12,12.18,1.81,4.33,1.75,8.59,2.71,12.82a19.59,19.59,0,0,0,2.48,6.86c3.91,5.85,3.71,12,1.14,18.36-.89,2.21-1.21,4.26.09,6.61,1.23,2.2.58,4.07-2.26,4.88-2.2.63-4,2.24-6.49,2.37s-2.78,2.19-2.85,4.08c-.11,2.94.05,5.9-.06,8.84-.13,3.42-1.88,6-5.42,5.37-3.94-.71-3.94,1.63-3.67,3.89.24,2-.15,3.22-1.89,4.19s-3.06.23-4.32-.65c-5.66-3.94-5.64-4-10.24,1.6,1.79.94,3.63.5,5.35.5l470.61.06c1.65,0,3.42-.52,5,.59q-48.65.09-97.3.16-202.53,0-405.06,0c-.77,0-1.55-.07-2.32-.11-.1-.23-.2-.45-.31-.67s0-.5,0-.74c.05-.93,0-1.86,0-2.79.06-5.42.69-5.84,5.91-4.11,3.19,1.05,6.43,1.3,9.48-.29,2.81-1.48,3.13-4,.49-5.29-3.52-1.72-5.84-4.49-8.17-7.37a5.56,5.56,0,0,0-2.42-2.12c-5.5-1.55-5.48-5.76-5.42-10.29.14-10.21,0-20.42,0-30.63-.06-1.39.09-3.1-1.28-3.74-5.86-2.74-5.87-7.44-4.56-12.68a24.55,24.55,0,0,1,6-11.24c2.6-2,5-3.65,7.38.48,1.41,2.42,3.43,1.15,5.18,0A35.12,35.12,0,0,1,172.55,73C174.35,72.62,176.2,72,177.81,73.56Z"/><path class="cls-17" d="M653.71,198.35c-2-1.25-4.21-.87-6.35-.87l-492,0c-6.41,0-6.41,0-6.47-6.52-1.12-1.24-.88-2.46,0-3.67,26.22-.09,52.43-.24,78.65-.24q210-.06,419.89-.06c6.44,0,6.45,0,6.39,6.28C653.86,195,653.77,196.65,653.71,198.35Z"/><path class="cls-18" d="M149,187.26c0,1.22,0,2.45,0,3.67-1.76,2.21-1.21,4.93-.75,7.15,1.21,5.71.75,11.43.75,17.14q.06,168.34.22,336.7c0,7.3-1,15.31,4,22,.27.36.26,1.13.56,1.23,9,3.28,15.59,11.07,26.57,11,70.47-.43,141-.22,211.43-.22q109.2,0,218.41-.07c4.59,0,9.84,1.71,13.33-3.24,4.22,1.75,7.45-4,11.76-1.54-5.86,2.77-11.53,6.13-18.35,5.89-1.65.65-3.37.33-5.06.33H180.86c-1.68,0-3.41.34-5.05-.36-19.28-1.36-33-14.48-36.2-33.4a59.57,59.57,0,0,1-.69-9.72q-.07-174.72-.06-349.43c0-7.39,0-7.4,7.32-7.32C147.1,187,148,187.17,149,187.26Z"/><path class="cls-19" d="M550.52,26a11.69,11.69,0,0,1,1.85,7c0,21.73.09,43.45,0,65.17,0,8-4,13.83-10.31,16.19-7,2.61-13.56,1-18.51-4.47,4.15-6.4,3.07-13.6,3.09-20.61,0-16.75,0-33.49,0-50.24,0-10.37,4.09-14.42,14.33-14.4C544.21,24.67,547.53,24.23,550.52,26Z"/><path class="cls-20" d="M272,26.2a12.41,12.41,0,0,1,1.74,7.07c0,21.69.22,43.38,0,65.07-.16,14.26-13.54,21.71-25.3,14.45-.52-11-.27-22-.17-33,.13-13.8-.61-27.59-.09-41.39.4-10.57,6.08-15.28,16.49-13.11C267,25.75,269.43,26.43,272,26.2Z"/><path class="cls-21" d="M501.85,72.64q-103.89,0-207.78.11c-2,0-2.79-.21-2.67-2.32.13-2.31,0-4.64,0-7,3.09-.11,6.18-.31,9.27-.31q97.46,0,194.92,0c6.54,0,6.55,0,6.46,6.72C502,70.79,501.92,71.72,501.85,72.64Z"/><path class="cls-22" d="M272,26.2c-1.84,3-4.23,1.24-6.42.66-5.13-1.35-10-2.05-13.81,3a10.9,10.9,0,0,0-2.24,6.88c0,10.78,0,21.57,0,32.35,0,12.85.09,25.7,0,38.55,0,1.75.76,3.79-1.14,5.16-5.91-3.11-8-8.53-8-14.66q-.21-32.07,0-64.13c.07-8.79,5.71-15.41,13.72-17C261.83,15.54,268.4,18.91,272,26.2Z"/><path class="cls-23" d="M550.52,26H539.08c-7.1,0-11,3.93-11,11.19,0,20.59-.1,41.19.07,61.78,0,4.48,0,8.55-4.57,10.93-3.58-3.51-4.48-8-4.5-12.74,0-20.58-.11-41.16,0-61.74,0-13.46,10.29-21.59,22.28-17.84A13.78,13.78,0,0,1,550.52,26Z"/><path class="cls-24" d="M177.81,73.56c-6.46,0-12,2.47-17,6.31-2.94,2.27-5.45,2.68-6.91-1.16-1.83-4.8-4.13.71-6-.52,6.94-9.31,16.56-14.08,27.83-14.57,15-.66,30-.3,45.06-.49,2.31,0,2.94.85,2.83,3-.17,3.39-.14,6.8-.2,10.2-.91-2.68-2.37-3.87-5.6-3.79-11.88.28-23.77.09-35.66.13C180.67,72.66,179,72.16,177.81,73.56Z"/><path class="cls-25" d="M141.84,89.44c.15.27.14-.55.09-.33-1.24,5.33,1.09-11,6.6-9.07,1.41.51.24,23.79.36,25.14-1,10-.2,20.07-.4,30.11-.08,4.13-.32,8.24,1.37,12.31a13.55,13.55,0,0,1,.16,8.72,68.37,68.37,0,0,0-1.91,13.17l-.12.12a23.71,23.71,0,0,1-9.08,0c-.56-20.39-.35-40.79,0-61.19C139,102,139.14,95.49,141.84,89.44Z"/><path class="cls-26" d="M639,71.85c-1.28,2.22-3.47,1.81-5.42,1.7-20.44-1.14-40.89-1-61.35-.76C570,72.82,570,72,570,70.47c0-2.33,0-4.66,0-7,17.15-.27,34.33-1.3,51.44.62A32.66,32.66,0,0,1,639,71.85Z"/><path class="cls-15" d="M175.81,586.89c8.69,0,17.38-.09,26.07-.09H613.07c1.24,0,2.48.07,3.72.12-2.35,1.1-4.87.74-7.33.74q-213.18,0-426.35,0C180.67,587.66,178.15,588,175.81,586.89Z"/><path class="cls-16" d="M138.91,169.58l9.08,0c0,.18,0,.37.07.55C145,170.2,141.88,171.08,138.91,169.58Z"/><path class="cls-27" d="M396.45,295.52a89.76,89.76,0,0,1,27.11-25.67c42.71-25.89,97.65-7.4,116.34,39.43,11,27.59,8.82,55.17-1.34,82.58-9.47,25.54-26.37,45.79-45.72,64.2a465,465,0,0,1-88.56,66.7c-4.75,2.73-9.18,3.38-13.95.46-38.63-23.68-74.57-50.77-105.52-84-16.7-17.95-29.39-38.45-35.5-62.4-6.92-27.06-6-53.62,8.73-78.22,30.46-51,102.7-53.5,136.9-4.93C395.3,294.13,395.71,294.6,396.45,295.52Z"/><path class="cls-16" d="M148.11,169.49c.95-20.13-.54-40.26-.07-60.39,0-1.35-.32-2.81.86-3.92,0,11.75.06,23.49,0,35.24,0,2.13,0,3.69,2.92,4.15,2.32.35,4.07,2.46,5.54,4.52,1.85,2.58,3.52,5.17,7.29,5.82,3.06.52,3.47,4.21,1.14,6.54-2.75,2.76-9.24,3.93-13,1.49-4.45-2.91-3.77-.15-4,2.71C148.74,166.88,150.65,168.71,148.11,169.49Z"/><path class="cls-28" d="M383.56,498.56c-10.83-6.4-20.71-14.14-30.67-21.75-21.61-16.52-42.38-34-60.09-54.79-15.72-18.47-26.93-39.21-29.68-63.57-3.24-28.73,3.61-54,29.14-70.77,28.8-18.89,73.27-15,95.08,24.8a46,46,0,0,1,2.73,5.38c1.2,3.11,3.35,4.91,6.63,4.87s5.07-2.35,6.4-5.25a75,75,0,0,1,26.72-31.54c32.92-22.15,79.43-7.84,93.67,28.81a13.62,13.62,0,0,0-1.64,5.76c.42,28.86-9.32,54.41-25.34,77.92-12,18-26.74,33.82-42.67,48.34-19.95,18.19-40.9,35.2-65.42,47.11A10.9,10.9,0,0,0,383.56,498.56Z"/><path class="cls-29" d="M383.56,498.56c-.49-2.17,0-3.57,2.3-4.66,23.13-11,43.05-26.57,62.05-43.47,17.16-15.26,33.2-31.51,46.12-50.63a6.27,6.27,0,0,1,1.42-1.15c1.13.83,1.38,2.58,2.78,3,4.27,1.35,4.4,4.22,3,7.71A6.6,6.6,0,0,0,502,416c.69,1,1.53,2,1,3.4l-2.21,2.52c-3.77-2-7.6-3.31-11.94-1.64-1.84.71-4.45-.13-4.44,3.29s1,5.53,4.41,6.6c1.3.41,3.41-1.38,3.92,1.3-5.28,5.22-9.87,11.12-15.74,15.74-.79.4-1.19,0-1.2-.71,0-1.16.83-1.94,1.48-2.8,1.09-1.44,2.76-2.82,1.19-4.83a1.67,1.67,0,0,0-2.5,0c-1.65,1.53-3.81,2.9-2.51,5.77.62,1.35,2,2.46,1.46,4.21l-8.19,7.66a1.2,1.2,0,0,1-1.29,0c-2.56-1.92-5.12-1.94-7.51.16s.24,4.2.36,6.3c-3.3,3.83-7.31,6.84-11.25,9.94A495,495,0,0,1,401,505.12c-3.14,1.95-5.47,2-8.3-.18S386.6,500.68,383.56,498.56Z"/><path class="cls-30" d="M503,419.37c-3.25-3.67-5.26-7.44-2.22-12.38.77-1.25.76-3.6-1.9-3.63-3.37,0-3.55-2.23-3.44-4.71,3.54-6.14,7.38-12.12,10.55-18.44,9.47-18.88,15.3-38.72,14.63-60.12-.07-2.24-.62-4.91,2.86-5.34,5.14,9.84,6.87,20.58,6.83,31.38C530.22,373.78,520.23,398,503,419.37Z"/><path class="cls-30" d="M492.75,431.44c-7.09.4-9.36-1.81-9.5-8.39-.06-2.69,1-3.34,3.24-3.6a36.78,36.78,0,0,0,7.67-1.5c3.57-1.21,4.21,3,6.64,3.94A49.37,49.37,0,0,1,492.75,431.44Z"/><path class="cls-30" d="M474.93,448.83c-2.52-3.32-5.47-6.4-.51-10.38,1.9-1.53,3.49-2.29,5.16-.81s1.13,3.52-.08,5.44c-.85,1.34-3.57,1.61-2.49,4.1C476.52,448,476.05,448.81,474.93,448.83Z"/><path class="cls-30" d="M458.3,463c-2.37-1.82-4.19-4-1.87-6.85,2.73-3.32,6.59-3,10.31.37C464.12,458.92,461.94,461.9,458.3,463Z"/><path class="cls-31" d="M276.48,339.7c.69-22,13.72-40.3,34.23-47.91a26,26,0,0,1,6.32-1.36c3-.31,5.73.49,6.26,4s-1.55,5.25-4.54,6a39.19,39.19,0,0,0-17.7,9.68c-8.35,7.94-13,17.51-13.51,29.09-.08,2-.28,4-.55,6-.38,2.92-2,5.2-4.95,5.3-3.16.11-5-2.26-5.51-5.27A34.23,34.23,0,0,1,276.48,339.7Z"/><path class="cls-30" d="M487.3,412.84a1.25,1.25,0,0,1,1.52,1.29c.07.73.15,1.65-.89,1.79s-1.38-.6-1.57-1.34A1.25,1.25,0,0,1,487.3,412.84Z"/></svg>