<svg id="Layer_1" data-name="Layer 1" xmlns="http://www.w3.org/2000/svg" viewBox="0 0 747.58 629.93"><defs><style>.cls-1{fill:#442612;}.cls-2{fill:#7d3319;}.cls-3{fill:#df732d;}.cls-4{fill:#b29b55;}.cls-5{fill:#552c15;}.cls-6{fill:#b79f59;}.cls-7{fill:#b39c59;}.cls-8{fill:#b49c57;}.cls-9{fill:#673b1a;}.cls-10{fill:#a08636;}.cls-11{fill:#532814;}.cls-12{fill:#9b8336;}.cls-13{fill:#a08737;}.cls-14{fill:#9d8536;}.cls-15{fill:#a38a3b;}.cls-16{fill:#a18839;}.cls-17{fill:#9e8538;}.cls-18{fill:#826127;}.cls-19{fill:#e58c4a;}.cls-20{fill:#826229;}.cls-21{fill:#81602a;}.cls-22{fill:#815e27;}.cls-23{fill:#7f5e26;}.cls-24{fill:#806127;}.cls-25{fill:#7a5623;}.cls-26{fill:#dd7f36;}.cls-27{fill:#fce7c1;}.cls-28{fill:#fac09c;}.cls-29{fill:#b56f2e;}.cls-30{fill:#fce8c4;}.cls-31{fill:#f9c377;}.cls-32{fill:#cb8945;}.cls-33{fill:#c68342;}.cls-34{fill:#a35f27;}.cls-35{fill:#fce5be;}.cls-36{fill:#c07c38;}.cls-37{fill:#f6b78e;}.cls-38{fill:#fac277;}.cls-39{fill:#f9c785;}.cls-40{fill:#f3dac3;}.cls-41{fill:#f7d1b5;}.cls-42{fill:#ce8d4a;}.cls-43{fill:#eed9c3;}.cls-44{fill:#f3c774;}.cls-45{fill:#f0d8bd;}.cls-46{fill:#efd6ba;}.cls-47{fill:#f27645;}.cls-48{fill:#f5a873;}.cls-49{fill:#c25928;}.cls-50{fill:#af9954;}.cls-51{fill:#b19a54;}.cls-52{fill:#b7a05a;}.cls-53{fill:#e6a165;}.cls-54{fill:#fed6a2;}.cls-55{fill:#fcd59e;}.cls-56{fill:#c68544;}.cls-57{fill:#fdd29d;}.cls-58{fill:#6e3b18;}.cls-59{fill:#f7b791;}</style></defs><path class="cls-1" d="M411.43,629.93c-17.18-.18-34.33-.55-51.5-1.65-16.16-1-32.44-.08-48.63-1.69-31.07-3.09-61.25-9.66-89.51-23.4-38.47-18.7-61.09-49.13-67.25-91.61a147.26,147.26,0,0,1,8-74.52c1.43-3.77,1.15-5.15-3.19-6.66C123.88,418.07,102,393,93.41,356.8c-6.76-28.65.85-54.76,17-78.74,7.78-11.51,17.38-21.54,26-32.4,13.05-16.57,19.47-35.56,21-56.32,2.1-29.23,7-57.79,20.48-84.17C207.6,46.74,254.22,10.94,319.72,1.8,357-3.39,392.67,2.53,425.79,21,437.54,27.57,448,35.89,456,47a5.53,5.53,0,0,0,2.8,2.44c23,7,39.31,22.54,51.53,42.36C532.81,128.29,534.66,166,514,204c-6.28,11.53-7.29,22.61-2.06,34.61,3.22,7.41,6.27,15,5.75,23.4-.2,3.21,2.58,2.18,4.17,2.36,20.76,2.45,39.95,9.17,57,21.33,30.24,21.54,44.17,51.17,43.09,88.06-.38,13-3.5,25.48-8.12,37.57-3.24,8.46-2.83,15.92,2.77,23.72,8.77,12.19,10.86,25.83,5.38,40.23a24.12,24.12,0,0,1-13.44,14.09,7.91,7.91,0,0,0-4.81,4.67c-3.59,8.91-10,15.05-19.37,17.64-2.87.79-2.53,1.72-1.63,3.83,5.66,13.25,8,27.05,6.17,41.42-2.61,20.11-15.35,33-31.57,43-24.28,15-51.39,21.69-79.26,25.81C456,629.09,433.73,629.94,411.43,629.93Z"/><path class="cls-2" d="M676.58,207.39c13.34-8.84,27.19-12,42.1-5.09,16.83,7.84,25.15,28.08,19.94,47.36-4.43,16.38-15.2,27.63-28.94,36.46-20.64,13.26-43.26,22.11-66.54,29.43-2.53.8-4.71.84-6.3-1.62-14.77-23-30.15-45.68-36.57-72.84-2.78-11.79-3.15-23.58.75-35.3,5.73-17.24,20.07-28.64,36.84-29.09,17.16-.45,30.62,9.3,37.4,27.1C675.7,204.94,676.11,206.1,676.58,207.39Z"/><path class="cls-3" d="M58.57,460.34c-4.52-.48-9.12-.23-13.41-2.39-3.37-1.71-6.54-3.76-8.17-7.05s-3.61-3.3-6.68-2.91c-9,1.14-17.16-1-23.78-7.35C2.18,436.45-1.13,431.43.36,425c1.61-7,7-10.33,13.35-12.31a61.63,61.63,0,0,1,6.85-1.29c-2-5-4.73-9.83-5.45-15.34-.69-5.29-.57-10.44,1.58-15.44,4-9.18,13.31-12.12,21.65-6.57,7.64,5.08,11.51,12.87,14.44,21.14,1.14.16,1.45-.71,1.95-1.27,6.63-7.48,15.37-9.76,22.59-5.88,6.66,3.58,10.23,13.41,7.82,22.25A30.33,30.33,0,0,1,73,428c-1.08.74-2.7,1-1.78,3.13,4.69,10.95,1.38,19.79-7.43,27.08C62.6,460.27,60.66,460.49,58.57,460.34Z"/><path class="cls-4" d="M88.6,529.13l-8.59.19c.3-2.38-1.25-1.15-2.16-1.09-16.08,1.08-31.32-1.45-45.12-10.34A47.1,47.1,0,0,1,22,508.47c-4.46-5.35-3.5-8.53,3.26-10.74,8.18-2.68,16.26-1.8,24.33.62,10.67,3.19,19.18,9.72,27,17.35.91.89,2.57,1.82.86,3.46-4.34.68-7.94-1.7-11.77-3S58.09,513.36,54,513c5.27,2.44,10.77,4.29,16.06,6.66,5.06,2.27,10.25,4.25,15.28,6.59C86.61,526.87,88.54,527,88.6,529.13Z"/><path class="cls-5" d="M58.57,460.34a10.2,10.2,0,0,1,5.19-2.16c9.16,24.77,22.49,47.18,38.44,68.11,1,1.37,2.33,2.56,3.5,3.84,2.78,2.08,4.53,5.09,6.75,7.67,7.42,11.05,17.2,19.92,26.84,28.88,9.91,9.21,21,17,32.25,24.39,1.3.85,3.84,1.35,2.51,3.74-1.48,2.67-3.28.57-4.83-.18-9.3-4.55-17.14-11.42-26.06-16.59a23.12,23.12,0,0,1-5.14-5.75,248.21,248.21,0,0,1-31-32,23.16,23.16,0,0,0-7.06-6.18c-1.47-2.94-4.07-5.3-4.55-8.76C79.85,505.57,68.47,483.38,58.57,460.34Z"/><path class="cls-6" d="M650.14,551l2-1.86c5.23-1.8,10.43-3.57,15.22-6.5,10.71-6.55,22.35-8.94,34.73-6.51,3.77.74,8.83,1.2,9.63,5.66.74,4.07-3.42,6.54-6.53,8.67a58.9,58.9,0,0,1-44,9.91c-3.1-.5-6.79.77-9.35-2.2.1-2.39,2.2-2.42,3.71-3,5.47-2.16,11.3-3,16.93-4.66a48.92,48.92,0,0,0,5.74-1.92c-8.24.49-15,2.53-22,4.07C654.1,553.18,651.56,554,650.14,551Z"/><path class="cls-7" d="M673.21,480.5a43.19,43.19,0,0,1-4.62,16.33c-3.54-4.68-2.26-10.37-3.14-15.59-.78-4.68-1.32-9.41-2.33-14.07.46,6.31,1.35,12.58,1,18.93,0,.8,0,1.59-.12,2.38-.11,1.27-.1,3-1.4,3.28-1.61.41-1.59-1.55-2.32-2.47-4.95-6.31-6.53-14.35-8.19-21.52-2.47-10.61-2.75-22.11,2.63-32.61,2.37-4.61,4.74-5.05,8.41-1.46a19.87,19.87,0,0,1,4.66,7.67c3.81,10.43,5.76,21.09,4.65,32.26C672.25,475.83,671.18,478.42,673.21,480.5Z"/><path class="cls-8" d="M697.39,501.66c-3.84,1-7.77.74-11.68.89-.41-3,2.24-3.63,4-4.61,7.59-4.33,14.86-9.23,22.95-12.66a17,17,0,0,0,5-3.15c-7.51,2.36-14.09,6.13-20.9,9.4-1.82.88-3.52,2.31-5.8,1.69-1.43-2.25.5-3.25,1.81-4.06,3.31-2,5.88-4.83,8.61-7.47,8.11-7.83,18-12.32,28.68-15.38a20.76,20.76,0,0,1,8.53-.22c6.24.86,7.94,4.32,4.6,9.61A45.47,45.47,0,0,1,731.35,488c-8.14,6-17.59,8.63-27.27,10.65-4.31.9-8.7,1.44-13.05,2.17C693.16,500.86,695.56,499.44,697.39,501.66Z"/><path class="cls-9" d="M643.62,560.59c-10.4,1.85-18.52,7.5-25.94,14.79-6.94,6.8-15.07,12.2-23.27,17.42a25,25,0,0,1-2.93,1.58c-1.36.61-2.83,1.08-3.66-.73-.75-1.66.78-2.25,1.73-2.92,8.07-5.68,15.9-11.67,23.43-18.05,5.72-4.86,11.41-9.84,15.91-15.77,7.05-9.29,8-20.45,7.71-31.7-.05-2.54-.43-5.07-.66-7.6-.69-1.28-1.36-3.09.36-3.49,2.64-.62,1.78,2.14,2.44,3.45,2.26,8.91,1.85,17.79-.22,26.66-.2.83-1,1.75.39,2.3,2.38.19,4.13.85,2.93,3.81l-6,7.06c2.43.6,3.88-1.58,5.88-1.45,1.23-.71,2.12-.53,2,1.06C643.67,558.2,644.08,559.42,643.62,560.59Z"/><path class="cls-10" d="M77.09,518.86c-1.46-3.93-5.19-5.75-8-8.32-8.7-7.93-19.39-12-30.82-13.32a27.77,27.77,0,0,0-16.09,3.1c-2.39,1.26-2.28,2.71-1.14,4.61a37,37,0,0,0,12.13,11.8c13.66,8.78,28.77,11.56,44.75,10.12,1.56-.15,2.75.46,4.21.7L80,529.32c-21.77,3.24-41.48-.78-57.64-16.69-3.11-3.06-6.79-6.62-5-11.59,1.88-5.17,7-6.14,11.76-6.76,15.13-2,28.13,3.36,40,12.14a70.6,70.6,0,0,1,14.7,14.08C81.61,522.8,80,522.4,77.09,518.86Z"/><path class="cls-11" d="M641.84,550.34c-.69-1.09-.09-3.65-2.93-2.34-.59.27,0-.94,0-1.47,8.49-10.5,17.2-20.85,24-32.64,1.58-3.26,2.9-6.72,6.38-8.57,8.1-14.39,16.08-28.85,22.37-44.16.33-.52.65-1.07,1.41-1,1.23.73,2.71,1.28,2.4,3.17a236.87,236.87,0,0,1-17.51,36.3c-.22,3.36-2,6.08-3.57,8.91-6.23,5.75-10,13.39-15,20C653.73,536,648.22,543.53,641.84,550.34Z"/><path class="cls-12" d="M104.65,522.7c-2.9-8-6.94-15.62-8.2-24.25-2-13.58-1.25-26.67,6-38.76a30.14,30.14,0,0,1,4-5.31c4.2-4.37,8.12-4,11.12,1.33,5,8.93,5.89,18.69,4.9,28.7-1,10.58-4.73,20.4-9,30-1.4,3.22-2.79,6.42-3.09,10-3.69-2.69-3.15-6.34-2.33-10.07,1.88.59,1.61-.52,1.63-1.8,0-2.42,1.08-4.65,2-6.82a87.56,87.56,0,0,0,6.38-24.28,37.45,37.45,0,0,0-4.1-22.17c-1.75-3.21-3.29-2.63-5.35-.41-4.63,5-6,11.45-7.9,17.66a27.59,27.59,0,0,0-.57,15.35c2.14,8.42,3.31,17.07,5.54,25.5C106.09,519.3,106.43,521.22,104.65,522.7Z"/><path class="cls-13" d="M652.21,557.84c18.9,4,36.94,2.71,53.17-8.94,2.5-1.8,6.18-4,5.43-7.2-.63-2.65-4.61-3.33-7.58-4-13.14-2.86-25.17-.35-36.49,6.91-4.29,2.75-9,5.22-14.57,4.53,10.55-7.9,22.05-13.75,35.23-15.63,7.32-1,14.63-.63,21.51,2.41q9.86,4.35,2.49,12.16c-10.43,11.06-24.13,14.23-38.49,15.12a70.74,70.74,0,0,1-26.31-3.37C647.3,555.93,649.61,556.47,652.21,557.84Z"/><path class="cls-14" d="M692.47,460.45l-.86.72c-.6-10.94-1.42-21.89.79-32.74,2.45-12,6.78-23.16,16-31.79a22.27,22.27,0,0,1,4.12-3.19c4.78-2.72,8.16-1.51,10.08,3.64,2.82,7.59,2.07,15.27.32,23-3.57,15.73-12.42,28.31-23.59,39.49a8,8,0,0,1-2.08,1.08c-1.46-2.28-.44-4.19.91-6.05,10.85-12.27,20.17-25.33,21.57-42.41a42,42,0,0,0-.31-9.51c-.32-2.26-1.23-4.53-3.49-5.32s-3.42,1.26-4.73,2.57c-6.2,6.22-9.67,13.95-12.75,22.06-4.06,10.71-2.73,21.8-3.44,32.76A8.11,8.11,0,0,1,692.47,460.45Z"/><path class="cls-15" d="M697.39,501.66l-7.73-.43c5.84-3.82,11.94-3,17.48-4.41,13.78-3.43,26.24-8.92,34.63-21.14,1.26-1.83,3.07-3.75,1.84-6s-3.92-2.49-6.29-2.57c-10.67-.35-19.52,4.63-28.24,9.88-6.54,3.94-10.61,10.91-17.52,14.44a.84.84,0,0,0-.07,1.53c-.69,2.77-2.4,3.05-4.69,1.91,11.4-15.55,25.23-27.58,45-30.94a25,25,0,0,1,9.93.31c5.27,1.22,7,4.41,5.09,9.52a27,27,0,0,1-6.36,9.4C728.63,495.18,713.69,500,697.39,501.66Z"/><path class="cls-16" d="M131.79,577.14c-17.39,7.41-35,10.18-53.19,2.8a24.1,24.1,0,0,1-8.35-5.41c-3.76-3.87-3.51-7.18,1-10.31,9.24-6.49,19.68-6.73,30.25-5.15A57,57,0,0,1,128,570.15c-2,3-4.39,2.92-7,.83.16-1.49,1.12-1.06,2-1.14-7.31-1.45-14.22-4.42-21.5-6.06a38.51,38.51,0,0,0-25.55,2.92c-3.56,1.68-3.71,3.06-.53,5.33,9.72,6.94,20.66,8.76,32.22,6.94,6.74-1.07,13.44-2.47,20.17-3.67C129.44,575.25,130.9,575.58,131.79,577.14Z"/><path class="cls-17" d="M673.21,480.5c-1.31.46-.65,3.52-2.69,2.52-2.22-1.09.39-2.24.46-3.37.6-8.7,1.12-17.39-1.06-26-1.77-7-2.8-14.3-8.34-19.81-2.76-2.75-4.1-1.9-5.48,1.18-3.27,7.24-4.86,14.67-3.43,22.64a13.32,13.32,0,0,1-.45,5.11c-1.29,5.62,4.5,8.92,4.47,14.12,0,5.37,4.28,9.07,5.8,14.7.2-2.24.33-3.82.47-5.39,2.94,3.1,3.13,7.38.51,11.74-10-16.14-16.39-33.26-14.2-52.69a32.22,32.22,0,0,1,3.32-11.36c3.3-6.33,7.48-6.82,12.16-1.35,6.24,7.29,8.19,16.2,9.66,25.41C675.63,465.64,673.67,473,673.21,480.5Z"/><path class="cls-18" d="M77.09,518.86c2.25.57,4,3.26,6.77,1.64,3.11,1.7,6.22,3.41,9.34,5.1.79.43,1.62,1.15,2.24-.22,2,2.69,4.91,4.87,4.55,8.76l-11.39-5C78.28,524.4,67.93,519.78,57.22,516c-2.4-.86-6.83-1.62-6-3.92.94-2.76,4.81-.35,7.09.32C64.63,514.2,70.83,516.65,77.09,518.86Z"/><path class="cls-19" d="M638.74,517.57c-1.22-.57-.53-2.53-2.12-2.9-1.06.78,0,2.07-.68,2.94-2.92-1.13-6.06-1.75-7.87-4.84-2.45-4.18-1.76-9,2-12,3.32-2.68,6.58-1.91,9.55.49a8.93,8.93,0,0,1,1.87,12C640.51,514.66,638.88,515.64,638.74,517.57Z"/><path class="cls-20" d="M686.8,494.87a5.78,5.78,0,0,0,4.69-1.91c9.4-4.56,18.35-10.2,28.89-12-2.6,3.16-6.1,4.82-9.56,6.53a243.7,243.7,0,0,0-23.1,13.16,14.13,14.13,0,0,0-2,1.94c-4.16,1.29-7.49,4.17-11.36,6-.2-3.52,1.75-6.19,3.56-8.91C681.78,499.74,683.82,496.43,686.8,494.87Z"/><path class="cls-21" d="M663.47,498c.06-3.92.93-7.88-.51-11.74.44-7.75-1.93-15.46-.28-23.27,4.29,10.92,3.88,22.62,5.91,33.89.48,2.81-1.53,5.81.65,8.49-2,2.94-3.62,6.19-6.38,8.57Q663.16,505.92,663.47,498Z"/><path class="cls-22" d="M108.84,513.92a21,21,0,0,0,1.62,10.5q1,6.69,2,13.38c-3.5-1.46-5.31-4.4-6.75-7.67l-1-7.43c0-2,0-4,.07-6-1.54-7.79-2-15.6,0-23.39.41-1.67,1-3.7,3.2-3.47s2.79,2.33,2.63,4C109.84,500.49,111.18,507.36,108.84,513.92Z"/><path class="cls-23" d="M652.21,557.84c-2,.26-4.47-.68-5.61,2l-3,.73c-2-1-.34-3.46-1.86-4.64,2.84-1.57,5.89-2.76,8.38-4.92,3.45,2.23,6.79.34,10-.6,5.78-1.7,11.76-2.14,17.61-3.39,1.33-.29,2.72-.51,2.95,1.21.19,1.37-1.18,1.61-2.24,2C669.74,553,660.59,554.07,652.21,557.84Z"/><path class="cls-24" d="M131.79,577.14l-4.14-1c-8.06,0-16-1.44-24-2.37a8.5,8.5,0,0,1-3.17-.92,2.71,2.71,0,0,1-1.76-2.58,2.29,2.29,0,0,1,2.33-2c6.77-.65,13.5-.7,19.89,2.19,2.4,1.49,4.7.89,7-.32,3.2,1.4,6.37,3,10.05,2.14,2.33,1.37,4.47,2.9,5.14,5.75C139.32,578.34,135.57,577.56,131.79,577.14Z"/><path class="cls-25" d="M699.06,454.69c-1.34,1.76-1.4,3.9-1.81,5.94-.61.91-1.22,1.82-1.84,2.72l-2.94-2.9c-.63-2.32,1.89-3.67,1.77-5.82.62-7.68,4.49-14.3,7-21.38a2.54,2.54,0,0,1,3.42-1.75c2.16.89,2.53,2.94,1.85,4.81C704.22,442.52,702.91,449.12,699.06,454.69Z"/><path class="cls-26" d="M651.59,579.89a6.45,6.45,0,0,1,6.59,6.64,7.06,7.06,0,0,1-7.15,6.8,6.56,6.56,0,0,1-6.59-6.67A7,7,0,0,1,651.59,579.89Z"/><path class="cls-27" d="M219.14,376.21c12.58-13,22.88-26.63,30.19-42.4C259.92,311,264,287,262.5,261.94c-.17-2.93-.1-4.57,3.67-4.49a10.89,10.89,0,0,0,8.25-3.23,4.41,4.41,0,0,0,1.05-5.24,3.72,3.72,0,0,0-4.29-2.31c-14.61,3.15-28.65-9.52-32.09-23.54-3.24-13.24,1.23-28.44,11.61-36.51,13-10.1,30.35-5.35,36.57,10,.48,1.18.72,2.45,1.21,3.62,1.1,2.62,2,5.9,5.88,4.69,3.71-1.13,5.4-3.76,4.27-7.76-.17-.59-.22-1.21-.4-2.25,14.09.79,27.78-1,41.34-3.76,31.77-6.39,61.14-18.17,86-39.53,12.17-10.44,22.72-22.22,29.65-37.42,4.79,3.86,7.78,8.87,10.79,13.77,9.39,15.28,14.48,31.84,13.1,49.89-1.13,14.89-5.91,28.49-15.77,40.13-5.86,6.92-11.09,14.28-13.74,23.22a44.61,44.61,0,0,0,3.2,34.19c3.85,7.57,2.53,13-5,16.43-5.17,2.36-7.74,5.32-9.52,11.05-4,12.78-11.9,23.5-21.94,32.43-23.19,20.61-51.65,23.27-81.88,7.88a96.8,96.8,0,0,1-21.77-15.33c-.82-.76-1.64-1.51-2.45-2.28-2.26-2.13-4.72-3.6-7.5-1s-1,5,.52,7.24c3.92,5.72,9.36,9.93,14.49,14.46,3,2.62,8.52,3.49,9.12,6.88.53,3-2.25,7-3,10.75-2.75,14.18-1.43,27.81,8.14,39.2,4.62,5.5,7.47,11.62,9.77,18.08,2.56,7.16-.31,10.9-7.83,10.46s-14.49-3.34-21.27-6.48c-12.45-5.76-23.76-13.49-35.36-20.72C259.18,393.11,240.56,382.5,219.14,376.21Z"/><path class="cls-28" d="M304.53,614.1c-8.77,0-17.21-2.31-25.68-4.05-24.29-5-47.44-13.12-68.24-27a97.65,97.65,0,0,1-34.87-41.34c-1-7.45-5-14-6.5-21.3A151.36,151.36,0,0,1,166.73,475c1.72-17.8,7.32-34.29,15-50.24,2.92-5.45,7-10.2,9.74-15.75a8,8,0,0,1,3.26-3.4,16.15,16.15,0,0,0,7.35-9c1.34-3.64,4.33-6.22,7.17-8.73a4.24,4.24,0,0,1,5.75-.13c3.85,3.59,8.25,4.36,13.38,4.83s10.13,3.61,14.79,6.29c6.6,3.79,13.53,7,19.91,11.19,2.4,1.58,4.87,2.95,6.28,5.64a3.93,3.93,0,0,0,2.87,2.35c6.46.33,11.13,4.45,16.1,7.7,5.71,3.75,11.87,6.58,17.87,9.75,2.64,1.39,5.66,2.25,6.92,5.42.3.76,1.23,1.54,1.86,1.26,4.7-2.1,8.82,2.25,13.38,1.11a16.31,16.31,0,0,0,9.7.71c2.62-.5,4,.19,4.68,2.55,1,3.78,3.37,1.92,5.21,1.19,2.22-.87,4.74-2,2.7-5.17-1.32-2.07-.57-3.53.56-5.56,2.18-3.94,5.81-6.58,8.15-10.3a2.38,2.38,0,0,1,.64-.7c2.3-1.58,4.48,2.83,6.95,0,2.27-2.58,4.52-1.25,6.58.58.36.31.7.79,1.13.85,5.35.71,7.64,3.17,5.4,8.7-.6,1.49.86,2.55,2,3.49,3.22,2.74,6.74,5.11,9.58,8.27,6.87,10.25,14.71,19.57,25.35,26.14,1.89,1.16,2,3.15,2.73,4.84,5.83,13.05,8.52,26.53,6.4,40.89-.41,2.76-1.46,3.85-3.77,4.55-9.61,2.91-19.28,3.71-29.17,1.47-2.87-.65-5.8-1.9-8.88-.66-1.06.42-1.74-.39-2.51-.95A139.65,139.65,0,0,1,349,491.69a28.39,28.39,0,0,0-5.63-6.45c-1.5-1.16-3.2-1.61-4.88-.59a4.37,4.37,0,0,0-2,4.91c.55,3.39,3,5.86,4.32,9-21.21.74-31.4,20.47-24.17,40.58,6.32,17.58,18.77,29.79,34.74,38.35a42.73,42.73,0,0,1,14.24,11.9c4.39,6.34,11.15,9.72,17.48,13.46a86.48,86.48,0,0,0,29.11,10.94,4.5,4.5,0,0,1,2.56,1.13c.67,1,1.29,2,.55,3.29a331.13,331.13,0,0,1-60-2c-11.88-1.46-22.55-7.49-32.86-13.59-28-16.57-51.22-38.63-71.95-63.47-1.43-1.71-2.88-3.4-4.37-5.06-2.11-2.34-4.7-3-7.19-1-2.34,1.86-2.12,4.45-.62,6.88,4,6.53,9.26,12.13,14.06,18.06,1,1.19,2.55,2,2.64,3.78-3.14.55-4.12-2.45-6.12-3.76-.81-.52-1.61-1.3-2.57-.77-1.28.71-.85,1.91-.43,3,2.33,5.92,4.82,11.45,10.2,15.73,4.61,3.66,8.09,8.87,11.77,13.53,5.52,7,11.91,11.65,20.59,13.3,2.73.51,5.58,1.89,7,3.86,4.14,5.85,9.26,4.82,14.75,3.23,1.5.42,2.74,1.19,2.17,2.95-.49,1.54-1.9,1.28-3.19,1.12A9.13,9.13,0,0,0,304.53,614.1Z"/><path class="cls-29" d="M295.94,183.28c-1.75.32-3.29.5-4.71-1.19-16.85-19.91-46-14.16-59.17,9.46-4.38,7.86-5.74,16.41-5.94,25.24-2.19,0-1.93-1.84-2-3.08,0-2.68-1.2-4.92-2.37-7.17-2.61-5-2.24-10.32,2.56-12.22,5.35-2.11,2.4-5.39,1.74-7.28a140.5,140.5,0,0,1-4.66-14.86,49.29,49.29,0,0,1-1.89,6.73c-.39.88-.75,1.84-1.9,1.89S216,180,215.78,179c-.32-1.69-1.3-2.81-3.32-4.08.93,2,3.33,2.54,2.51,4.6a5.22,5.22,0,0,1-4,3.1,11.11,11.11,0,0,0-4.93,2.75c2.39.86,5.28-2.4,6.57,1s-2.16,4-4,5.49c-.62.49-1.29.93-1.9,1.43-1.19,1-2.29,2.62-4.07,1.74s-.88-2.46-.75-3.85.28-3.21-1.79-3.13-1.42,1.73-1.41,3.18c0,2.85.27,5.1,4,4.52,1.6-.24,3.56-.5,3.74,1.7a5.11,5.11,0,0,1-3.08,5.39c-.82.37-2.13-1-2.62.93-.32,1.27-1.61,1.5-2.76,1-1.64-.65-2-1.92-1.15-3.73-3.63,4.34-3.7,4.4-6.42,1.1-.8-1-.64.16-.78.23-2.93,1.54-5.48.81-7.86-1.17,1.17-9.58,1.11-19.28,3.13-28.8,2-9.16,2.9-18.54,5.84-27.48,6.24-19,14.15-37.06,26.33-53.12,10.43-13.77,21.85-26.58,35.83-36.76A144.74,144.74,0,0,1,283,38c11.21-4.61,22.26-9.47,34.25-11.45a182.18,182.18,0,0,1,34.61-2.75,158.71,158.71,0,0,1,36.61,5.76c13.63,3.65,26,10.17,37.74,17.91C433,51.91,438.4,57.66,444.17,63.1c3.7,3.48,8.44,5.14,12.87,7.13,14.48,6.5,25.08,17,33.5,30.2,5.17,8.09,9.62,16.52,12.16,25.76,4.28,15.58,6.2,31.26,2.51,47.41A371.8,371.8,0,0,1,494,211.44c-3.79,11.06-5,22.26-1.34,33.6,1.32,4.11,1.91,8.37,3,12.53.84,3.32,1.2,6.2-3.74,5.76-.42,0-.82.43-1.14.79-8.36,1.83-16.86,3.21-24.81,6.51-2.26.94-3.06.17-4-1.65-4.89-9.39-4.79-18.88-.74-28.46,2.76-6.51,6.94-12.11,11.5-17.43a70.89,70.89,0,0,0,17-38.59c3.77-31.51-6.2-58.13-28.54-80.35-1.1-1.1-1.9-2-1.26-3.65a9.23,9.23,0,0,0,.35-3.29c0-3.42-1.06-6.53-4.66-7.45-3.85-1-4.58,2.41-5.74,4.95-2.5-.63-3.87-4.63-6.16-3.63-2.13.94-3.07,4.22-4.43,6.53-13.07,22.2-31.4,38.89-53.69,51.49-16.7,9.45-34.64,15.52-53,20.94-9.72,2.88-19.28,5-29.37,5.15-3.58.07-7.52.38-6.4,5.92C297,181.84,296.34,182.59,295.94,183.28Z"/><path class="cls-30" d="M527.12,374.46c2.38,11.64,7.31,21.91,16.11,30.11,1.12,1,.83,1.7,0,2.75-1.66,2.08-3,4.36-.31,6.66s4.74.65,6.83-.88c4.3-3.12,9-4.75,14.33-3.65,8.92,1.84,13.57,9.6,11.73,19.24-2.06,10.84-13,20.22-23.95,20.6a18.29,18.29,0,0,1-9.11-2.34c-4.4-2.24-7.52-.51-7.14,4.2.18,2.17-.73,3.2-1.9,4.47-6.35,6.89-13.75,12.73-22.42,15.87-31.07,11.25-61.72,12.29-90.05-7.64-18.36-12.92-28.69-30.6-27.85-53.77.06-1.75,0-3.51,1-5.07,2.84.69,3,3.32,3.89,5.41,1.81,4.49,6.65,8,10.12,6.82,6.8-2.39,11.21-6.95,10.09-12a45.82,45.82,0,0,0-3.81-10.68c-2-4-7.74-5.33-11.69-3.18-1.65.91-2,2.35-2.07,4a4.25,4.25,0,0,1-2.27,3.94c-1.88.89-3.18.61-2.47-2,2.48-9.3,8.24-17.64,9-27.35.8-10.69,5.77-17.72,14.85-23.14,5.66-3.36,10.19-8.61,14.3-13.93,1-1.27,1.88-2.56,3.8-2.4a25.38,25.38,0,0,0,10.28-1.14c3.1-1.06,6.14-2.32,9.2-3.49,4,17.74,14.45,23.34,30.75,16.13,1.2,5.91,2.48,11.8,5.81,16.85,4.41,6.67,9.3,12.88,17.93,14.34C517.05,373.87,522.1,374,527.12,374.46Z"/><path class="cls-31" d="M461,611.17c22.88-7,42.43-19.11,58-37.34,2.53-3,4.74-6.24,1.38-10.13-9.22-6.17-13.81-5.45-20.7,2.66-1.83,2.15-2,3.44-.33,5.67,2.63,3.6,1.22,6.15-3.27,6.4-.54,0-1.08-.67-1.59.15-2.29,3.68-4.09,1.1-5.36-.73-1.88-2.69.25-4,2.62-5.12a10.73,10.73,0,0,0-5.11,2.82c-7.1,5.81-15.42,9.5-23.55,13.48-9.79,4.8-20.43,5.68-31.11,5.73-2.92,0-5.32.5-7.33,2.59a17.88,17.88,0,0,1-3.54,3.19c-1.85,1.11-3.81,1.83-5.84.61a4.08,4.08,0,0,1-1.67-5c1-3.27-1-3.7-3.38-4.32-6.87-1.8-14.09-2.42-19.91-7.37-6.5-5.53-7.38-9.29-2.63-16.36a36,36,0,0,0,4.75-11.4,39.7,39.7,0,0,1,1.8-5.43c1.27-3.11,3.16-5,6.93-4.3a8.4,8.4,0,0,0,5.05-.43.76.76,0,0,0-.85-.34c-2.22.26-5.05.86-5.38-2.18s1.83-5,4.83-5.58c5.74-1.15,7.54-.09,8.73,5.21,2-1.45,4.21-4,5.57.46.82,2.69,2.89,1.37,4.38,1a78.75,78.75,0,0,0,22.28-10.71c3-2,6.31-3.76,8.87-6.44,9.37-8,18.15-16.76,28.06-24.16,1.62-1.79,3.93-2.21,6-3.07,4.55-3.12,9.74-5,14.59-7.54,2.47-.84,4.8-2.08,7.43-2.43,1.7-.22,3.32-.85,5-.91,2.7-.07,5.32-1.23,8.07-.6a15.87,15.87,0,0,0,7,.34c8.65,3,17.39,5.93,22.72,14.25,3.57,3.57,6,8.22,10.5,10.92a10.85,10.85,0,0,0,3.93,1.41c3.64.62,5,4.28,2.86,7.38a12.31,12.31,0,0,1-1.59,2.34c-5.31,4.58-3,9.41-.14,13.82,2.64,4,3.42,8.43,4.24,12.94.17.93.63,2.26,0,2.76-3.14,2.59-2.63,6.43-3.78,9.7-.82,2.33-1.44,4.54-.94,6.92.67,3.15-1.06,4.91-3.54,5.92-3.59,1.46-7.17,3.54-11.39,1.61,4.52,3.39,4.62,4.93.58,8.15a4.22,4.22,0,0,0-1.44,1.84c-6.23,5.07-13.56,8.18-20.83,11.23-18.11,7.57-37.13,11.8-56.54,14.36-4.88-1.2-9.55,1.1-14.39.9-1.22-.06-2.49.25-3.75.11-.8-.09-1.68-.39-1.82-1.21s.81-1.17,1.34-1.72C458,611.94,460.36,613.37,461,611.17Z"/><path class="cls-29" d="M182.29,201.54c3.85.61,7.75,1.44,10.2-3.1,1.29,2.05-.22,2.17-.72,2.77-.93,1.1-.87,2.1.38,2.72a1.27,1.27,0,0,0,2-1.19c.06-2.23,1.89-2.21,3.26-2.91,1.26,1.33-1.56,3.07.48,4.14a2,2,0,0,0,1.77.06c1.44-1,0-2.29.14-3.44,1.63-1.2,2.72,3.85,4.31.43.57-1.22,2.32-2.24,1.56-3.75-1-2-3.06-.7-4.23-.36-3.46,1-4.31-.24-3.87-3.37.15-1,.72-2.08-.15-3.17s-1.35-2.14-.36-3.38c1.65,2,3.05-2.28,4.43-.28.93,1.34,3.63,2.2,1.86,4.68-.64.9-1.63,2-.4,2.86s2.11-.52,2.59-1.39c1.1-2,3.45-2.1,5-3.47.95-.86,2.34-1.26,1.37-2.91-.89-1.5-1.81-.69-2.73,0a3.37,3.37,0,0,1-3.6.37c-.82-.36-2-.58-1.89-1.79.07-1,1.08-.8,1.71-1.14,1.89-1,3.52-2.44,5.87-2.46a3.15,3.15,0,0,0,2.92-2.14c.75-2.09-1.6-1.38-2.28-2.24s-2.6-1.61-1-2.92c.89-.73,2.57-1.54,3.7.3A12.91,12.91,0,0,1,217,181c1.77-2.89,2.82-5,2.68-7.45-.1-1.69-.46-3.73,1.65-3.59,1.52.1,2.88,3.21,2.45,3.86-2,2.94.66,4.25,1.6,6.12.6,1.19,2.16,2.28,0,3.43-.45.23-.63,1-.29,1.06,5.78.12.44,6.06,4,7.58,1,.45,0,2.33-1,2.56a6.1,6.1,0,0,0-4.21,2.37c-1.88,2.38-3,4.13-1.6,7.06a55.47,55.47,0,0,1,3.83,12.83c0,.32,0,.64.08,1-.71,1.16.22,4-3,2.54-1.61-.75-2.76.16-2.65,2.1a6.32,6.32,0,0,1-1.94,5.11,6.48,6.48,0,0,0,2.09-4.22c.14-1.21-.29-2.9,1.48-3a3.44,3.44,0,0,1,3.81,2.82c.5,2.33,1.6,4.46,2.24,6.75,1.72,6.09,5.27,11.08,9.52,15.64l.8.78c1.52,2-1,3.45-.62,5.29,4.1-2.53,11.61,1.23,12.06,6.06.16,1.7-.2,3.47.91,5v1c-.67.69-1.62,1.58-1.26,2.41,2.18,4.95-1.18,5-4.44,5.22,4.6-.5,4.6-.5,4.13,4.26a2.13,2.13,0,0,0,.11.93c2,5.82.21,9.85-4.13,11.23,3.05-1.6,3.49-1.28,3.83,4.64-.17,2,.27,4.1-.9,5.95-2.64,2.6-5.45,3.9-8.6,1-1.65,1.43-.61,2.86-.55,4.18,0,1.15,0,2.24-1,3-1.32.89-1.87-.52-2.8-.9-3.76-1.55-3.95-5.74-6.32-8.38-2.15-2.39,1.74-8.84,5.09-9.29,2.71-.36,3.92,2,2.81,5.57,1.16-3,1.23-4.48-.06-5.18-1.87-1-3.47-.69-5.08,1s-3.54,2.3-5.52.62c-2.26-1.9-1.69-4.47,1.22-6.23,1.58-.95,4-1.78,3.16-4.06-.69-1.84-.53-4.74-4.08-4.8-2.23,0-3.57-2.3-3.5-4.45.09-2.92,2.91-1.57,4.74-2.44-3.08.1-4.37-1.43-4-4.11s.81-4.59-2.56-6.33c-2.49-1.29-2.6-5.59-4.6-8.11-1-1.19-.47-2.44,0-3.58.81-1.94,1.1-3.34-1.25-4.67-2.57-1.46.62-3.27.27-5-2.68,1.9-2.69,4.8-2.92,7.62,0,0,4,5.78,4,5.78,1.58,2.36.68,5,.78,7.47.07,1.52-.63,3.15-2.34,3-2.07-.18-2.07-2-1.51-4.36-.63,1.65-1,2.52-.2,3.48s2.23,1.8,1,3.2-2.58.08-3.92-.57c1.57,2.32,3,1.7,4.75.25,1.19-1,2.49-.9,2.73,1,.4,3-3.85,8.67-6.85,9.27-1.95.39-6.36-4-6.66-7.08a24.48,24.48,0,0,0-1.3-5.53c.1-7.14-1.9-14.19-.91-21.36,1.22-4.06,5.89-3.56,8.72-6.19-3.44,1.26-6.68,1.93-9,4.38-3.35,1.19-2.58,4.12-2.41,6.45,1.21,16.46-2.79,31.68-10.44,46.11-6.95,12-16.74,21.91-24.94,33C154.43,335,149.54,349.52,151,366c.47,5.32,2.93,10,4,15.14.11,2.34.42,4.59,2.76,5.89,2,.83,3.53.15,4.68-1.58.36-.71,1-1.62.63-2.2-2.11-3-2.2-7.11-5.09-9.71a2.71,2.71,0,0,1-.13-2c.38-1.22,2-1.92,1.77-3.26-.34-1.79-.58-3.61,1.88-2.9,1.92.56,5,.58,4.34,4.34s.38,4.36,4,2.87c1.94-.8,4-2.44,5.85.48-.32-2.1-1.95-2.33-3.35-2.85a5.77,5.77,0,0,1-3.78-4c-.38-1.37-.25-2.49,1.65-2.65.54-.05,1.42,2.3,1.55-.07.07-1.24-1.09-.71-1.82-.64a2.21,2.21,0,0,0-2.16,2.11c-.41,2.36-1.86,2.25-3.48,1.21s-2.56-2.65-1.15-4.39a9.8,9.8,0,0,1,6.24-4c3.63-.59,5-3.68,3.7-6.79a1.46,1.46,0,0,0-1.45-.93c-.41-.05-1-.14-.86.56.8,4.68-2.47,5.74-5.87,6.21s-5.64-1.58-7.19-4.44a3.7,3.7,0,0,1,.54-3.22c2.05-2.78,2.69-6.06,3.31-9.35.24-1.5.48-3,1.86-4,3.13-2.15,3.54-6,5.44-8.87a7.24,7.24,0,0,1,.73-1.1,39.08,39.08,0,0,0,7-9.22,7.06,7.06,0,0,1,2.19-2.51c6.26-4.46,11.53-2.47,13.28,5,.29,1.25.1,2.28,2.28,2.61,2.49.37,4.64,2.53,6.84,4.13,3,2.14,5.64,5.37,10.13,3.88,1.07-.35,2.15.48,3,1.2,1.43,1.2,3.56,2.24,2.61,4.54s-3,.23-5,.4a8.65,8.65,0,0,0,8.74,4.16c6.13-.52,6.7,3,5.93,7.51-.27,1.62-1.4,3.18-3.18,3s-4.45,1.52-5.07-1c-1.28-5.36-5.67-3.51-7.44-2.34-3.38,2.25-5.11.4-7.41-1.08a31.17,31.17,0,0,1-3.11-2.08c-1.7.51-.74,2-1.24,2.82.69-.2.75-1.19,1.53-1.27a2.19,2.19,0,0,1,2.14.78c1.22,1.82,0,3.27-.86,4.9,1.67-.43,3.82-3,4.61.91.38,1.88,2.17,2.16,3.64,2.68.9.32,2-.07,2.81.4,1.76,1,5,.35,5.26,2.45s-2.69,3.06-4.21,4.54c-4.38,4.29-5.25-.2-7.32-2.39,1.29,2.6,3.57,4.72,2.1,8.12a14.1,14.1,0,0,1-5.63,6.21,10.87,10.87,0,0,0-2.22,2.44c-1.57,1.87-2.67,1-3.83-.66,1.17,2.28,1.07,4.15-1,6s-4.18,3.48-5.37,6l-.68.84c-1.66,1.29-2.69,3.55-5.35,3.31a1.32,1.32,0,0,0-1.5,1.44c1,4.82-3.54,7-4.87,10.73l-.86,1.68a36,36,0,0,0-6.13,9.41c-1.46,3.17-3.55,4.73-7.1,3.41a3,3,0,0,1-1.6-1.29c.09-3.25.29-6.34-1.2-9.6-1.31-2.88,1.41-6,1.32-9.19-3.35,2.26-8.23,2.2-10.41,6.51-2.12.16-3.57-1.2-5-2.37-14.48-11.43-25.18-25.17-29.58-43.72-2.26-9.54-3.3-19-1.45-28.28,1.81-9,4-18.23,8.78-26.53,7-12.21,15.44-23.16,24.58-33.87,8.47-9.94,16-20.88,21.09-33.31,4.58-11.09,8.47-22.25,10.42-34.07A2.53,2.53,0,0,1,182.29,201.54Z"/><path class="cls-32" d="M527.12,374.46c-5.23,2-10.23,1.28-15.07-1.26,1.1-1.64,2.84-3.08,1.7-5.42,0-2.2.44-3.81,3.37-2.93-2.17-2.73-3.72-5.8-5.63-8.63-.94-1.4-1.77-2.94-3.5-.79-.87,1.09-2.15,2-3.11.56-1.46-2.14-4.38-3.67-3.8-6.75.3-1.57,2-1.08,3.28-.88,2.75.43,3.44-.95,2.91-3.34-1.27-5.72-2.33-11.48-3.48-17.23-.22-1.11-.66-2.65-1.8-2.49-2.68.39-4-2.41-6.48-2.29-4,0-5.41,2.76-6.44,5.91-1.39,4.24-8.86,8-14.16,7-5.49-1-9-5.18-8.69-10.79a38.5,38.5,0,0,1,1.62-7.9c.63-2.23,2.52-4.56-.42-6.31-2.77-1.65-4.56.42-6.64,2.05-5.12,4-11,6.61-18.77,8.39,3.8-6.67,6.81-12.35,8.78-18.48.2-.6,1.1-1.09,1.78-1.41a28.28,28.28,0,0,0,13.34-13.11,83.57,83.57,0,0,0,17.3-3.4c.6-.2,1.23-.33,1.84-.52.92-.29,2-.63,1.91-1.79-.09-1.32-1.23-1.77-2.37-2-2.13-.4-4.08.33-6,1.1-1.6.65-3.44,1-3.93-1-.46-1.92,1.7-1.86,2.9-2.43a14.72,14.72,0,0,1,1.86-.42c5.79-1.94,11.33-3,14.54,5.14,2.79-5.28,7.87-5.47,11.53-8,2.28-1.57,4.65-.07,6.92.07,2,.13,1.7,1.87.77,3.26-1.26,1.89-3.49,2-5.4,3,6.18,1.06,12.32,2.52,18.42,2.87,7.23.4,13.7,3.19,20.11,5.48a83.81,83.81,0,0,1,21.41,11.25,122.4,122.4,0,0,1,17.6,16c-2.09-1.8-3.26-3.59-1.26-6.16s4-1.8,6.23-.52c11.58,12.64,17.38,27.94,20,44.54,2.73,17.32.46,34.28-5.85,50.52-5.12,13.23-4.22,25.05,4.09,36.91a29.59,29.59,0,0,1,3,29.95c-1.63,3.77-3.94,6.84-7.88,8.41-.79.33-1.39-.12-1.18-.78,1-3.12-.33-5.52-2.15-7.85a5.09,5.09,0,0,1-.67-5.39c2.32-5.66,1.3-11.2-.65-16.7-.48-1.34-.85-2.73-1.4-4.05-.79-1.88-.2-4.68-2-5.64-2.23-1.19-3.3,1.88-5.12,2.62-3.27,1.33-5.4-1.21-7.92-2.42a48.18,48.18,0,0,1,2-6.19c6.64-14.07-4.08-34.94-23-35.11-6.67-1-8.89-5.85-10.81-11.51-3.16-9.31-6.92-18.39-7.93-28.31-.27-2.63-1.08-5.42-4.78-2.79-1.49,1.05-3,.61-4.52-.1-4.4-.8-6.26,1.26-6.73,5.52S527.13,370.28,527.12,374.46Z"/><path class="cls-33" d="M163.13,417.43l1,1a1.9,1.9,0,0,1-2.19.1c-9.37-2.22-17.15-7.44-24.41-13.39-22.63-18.55-34.86-42.13-33.85-71.83.75-22,10.2-40.44,23.59-57.17,8.54-10.68,17.81-20.76,25.34-32.25,10.74-16.4,15.72-34.55,17-53.89,2.33-34,9.5-66.64,28.34-95.78C228.52,47,271.23,19.1,327.48,13.25c29.68-3.1,58.42,1.31,85.42,14.37,14.29,6.91,27.1,16,36.14,29.56A7.47,7.47,0,0,0,453.36,60c25.3,7.84,41.35,25.76,52.82,48.62a96,96,0,0,1-2.9,90.59c-8.42,14.48-8.27,28.93-2.24,43.95,2.19,5.44,4.44,10.89,4.25,17-.08,2.6-.83,3.7-3.6,3.62-3.64-.1-7.3.24-10.95.39-2-1.45-.67-1.59.63-1.39,3.93.61,4-1.34,3.26-4.35-2.13-8.71-4.3-17.42-6-26.22a19.34,19.34,0,0,1,.79-8.54c2.8-9.87,5.68-19.72,8.95-29.43a138.42,138.42,0,0,0,7.68-46.54,12.32,12.32,0,0,0-.58-3.73c-2.71-7.95-3.44-16.4-6.39-24.31-3.75-10.06-9.54-18.88-15.89-27.35-8.92-11.9-21.29-19.1-34.74-24.67-4.73-2-8.17-5.81-11.16-9.36-4.23-5-9.56-8.58-14.75-11.76-11.27-6.92-23.1-13-36.24-16.18A166.51,166.51,0,0,0,361,25.65c-7.32-.62-14.82-1.14-22.42-.23C328.65,26.6,318.66,27,309,29.63c-7,1.91-13.95,4-20.38,7.44-3.25,1.73-6.89,2.48-10.09,4.12-12.27,6.31-24.2,13.15-34.49,22.53a197.25,197.25,0,0,0-32.16,37.41,145.76,145.76,0,0,0-15.66,32.3c-2.86,8.21-6,16.29-7.4,24.88C187,169.42,184,180.36,184,191.78c0,3.25-1.12,6.51-1.73,9.76-.86,12.11-4.76,23.28-9.69,34.29-2.25,5-4.27,10.13-7.22,14.83a230.72,230.72,0,0,1-23.29,30.8,108.17,108.17,0,0,0-18.32,29.22c-5.57,12.82-8.82,26.38-6.61,40.1,1.66,10.26,4.47,20.69,10.69,29.62,6.77,9.73,14.71,18.24,24.76,24.65,2,1,1,2.34.36,3.6-.87,1.81-.37,3.67,1.47,3.67C158.52,412.32,160.39,415.49,163.13,417.43Z"/><path class="cls-29" d="M216.62,249.3c2.61.63,2.88,3.07,3.94,4.95.8,1.41.51,4.76,3.88,2.45.83-.57,1.32.49,1.46,1.3,0,.28-.2.6-.21.91-.19,3.63-4.63,9.11,6.17,8.06-3.11,1.65-4.24,2-5,2.72-1.12,1.05-2.55-2-3,.17-.21,1,.88,2.59,1.77,3.56,1.22,1.33,2.56.64,3.71-.46.18-.17.57-.12.93-.19.89,1.3-1,2.87.21,4,5.22,4.75,0,6.81-2.74,8.13-2.23,1.06-2.1,1.59-1.54,3.35.81,2.51,2.88,1.75,3.77.94,2.48-2.28,5.51-2.33,8.93-3-.2,2.53-.25,5-.64,7.37a2.78,2.78,0,0,1-2.27,2.19c-.78.15-1.11-.48-1.36-1.07-.66-1.54,1-1.24,1.49-1.81,1-1,1.5-2.08.2-3.25s-2.17-1.36-3.61,0c-2,2-3.57,4.16-3.19,6.92.31,2.18,2.71,2.32,4.69,2.8-5,5.14,5.14,2.86,2.33,7,2.88-2,.91-3.8.89-5.46,0-1.32-.36-2.58.84-3.41s1.95.35,2.74,1.07c2.67,2.43,4.63,1.54,6.16-1.35.18-.34-.18-1.56.82-.77.35.28.21,1.2.29,1.83-2.32,14.63-8,28-15.16,40.85-8.71,15.62-21.18,28.12-33.71,40.57-2.82,2.8-5.68,5.54-8.52,8.32-.2-1.88,1.21-2.82,2.28-4,2.15-2.31,5.74-4.08,2.79-8.19a1.31,1.31,0,0,1,.94-1.87c1.93-.14.67,2.56,2.75,2.92.87-2.26,2.73-3.53,5.12-4.73,3.79-1.92,4.06-6.8,1.46-10.18-.7-.91-2.2-1.74-1.47-3.2a2.57,2.57,0,0,1,2-1.16c1.62,0,1.79,1.57,2.17,2.72.51,1.56,1.15,2.9,3,3.25.76-1.41-1-2.28-.66-3.53,3.54,1.73,3.54,1.73,6.68-2.24-3.51-1.12-7.15-1.75-10.69-2.78-3.06-.89-1.62-2.5-1.74-4.16-2.25,0-3.64,3.43-7.11,1.25,3.29-.4,3.52-2.66,4.18-4.56.29-.82-.65-1.15-1.16-1.11-2,.15-1.43,2.66-4.33,3.91,2.5-3.16-.24-6.14,2.58-8.93a13.51,13.51,0,0,0,5.69,4.42c1.39.52,2.73,3.79,4.36-.11.17-.4,3.77-1,5.82-2s2,2.68,3.3,3.93c.73.68-.64,3.34,2.09,2.17,2.09-.89,5.89,1.25,5-4.39-.71-4.54-2.59-4.84-5.78-4.13-4.27.94-6.71-1.67-9.18-4.27-.76-.79-1.25-1.94-.11-2.95.94-.83,1.69-.27,2.52.3s1.8,2.65,3,.86c.92-1.45-1.15-1.91-2-2.77-1.54-1.67-2.84-1.82-5.32-1-3.57,1.2-5.56-3.13-8.57-4.53-2.58-1.21-4-4.56-7.83-3.69-1.15.26-1.24-2-1.53-3.1-2-7.51-5.79-9.16-11.94-5-.92-3,1.51-4.7,3-6.43a104.1,104.1,0,0,0,10.9-15.43A93.14,93.14,0,0,0,202,267.37c.46-2.3.42-4.77,2.24-6.6,1,.54,2,1.24,1.51,2.56-1.68,4.25,3,5,4.13,7.71,1.87-1.12,5.67-1.17,5.34-3.28-.42-2.62,1.77-3.42,2.16-5.79-2.88.74-5.52,4.71-8.1.49-.49-.8-2.33-1.19-1.14-2.54.92-1.06,1.95-.48,2.84.42a7.43,7.43,0,0,0,2.85,1.83c-1.25-2.79-3.23-5.37-1.24-8.42,2.16.43,2.35,1.7,1.58,3.5a1.24,1.24,0,0,0,.82,1.87c1.3.21,1.55-.92,1.58-1.84C216.64,254.62,216.61,252,216.62,249.3Z"/><path class="cls-31" d="M488.9,501.52c-1.72,1.32-4.18,1.19-5.71,2.88-1.75,1.22-3.94-1.08-5.4.39-3,3-5.26,4.69-9.44,5.41-2.38.41-7.89,2.39-7,7.15a3.38,3.38,0,0,1-1.4,2.9,13,13,0,0,0-4.46,8c-6.83,6.76-15.18,11.15-23.79,15.06a42.08,42.08,0,0,1-10.33,3.49c-2,.34-4.55,1.79-3.31-2.36a1.61,1.61,0,0,0-.81-2c-1.3-.54-1.57.6-1.86,1.48-.41,1.26-.83,2.68-2.52,2-1.46-.58-1.2-1.89-.94-3.26.78-4-2.07-3.78-4.71-3.87a5.86,5.86,0,0,0-6.44,5.09c-.34,1.62,1.58,1.6,2.84,1.49s2.33-1.23,3.65-.49c.84.47,1.83,1.06,1.72,2.07a1.57,1.57,0,0,1-2.19,1.22c-1.48-.51-2.82.13-4.22.18-6,.17-7.77,1.45-8.85,7.28a33.4,33.4,0,0,1-5.91,14.14c-3.27,4.45-2.54,8.18,1.32,12.16,5.45,5.62,12.72,6.66,19.73,8.43a42.48,42.48,0,0,0,4.17.92c2.67.39,3.87,1.25,2,4a3.59,3.59,0,0,0,.34,4.82c1.55,1.46,3.37.71,4.84-.27a17,17,0,0,0,3.46-3.21,8.22,8.22,0,0,1,7-3.31c14.12.88,27.06-2.49,39.64-9.08,7.19-3.77,13.29-9.08,20.54-12.6,1.05-.51,2-3.12,3.26-.9.88,1.49-.37,3-2.24,3.38s-3.71.95-1.91,3.35c.63.84,1.73,2,2.54,1.91,2.09-.15.56-2.46,1.65-3.49,1.45,1.54,2.92,3.06,5.06.82,2-2.05,0-3-1-4.29-1.73-2.21-3.81-3.54.23-6.59,2.82-2.13,5-5.38,8.57-6.94,4.51-2,11.11.37,13.38,4.81-3.63-1.42-5.83.68-8.16,3-14.19,14.35-30,26.3-49.59,32.35-32.43,10-62.1,5.29-88.45-16.92-2.38-2-2.76-3.23-.86-6.06,7.45-11.06,11.6-23.54,14.61-36.43.55-2.33.61-4.3,4.34-3.47,23.13,5.14,42.45-2.76,59.47-18,10.35-9.28,20.29-19,32.45-26.13,9.1-5.33,19.47-6.89,28.94-10.82,9-3.74,17-1.81,24.87,1.27,8.94,3.51,17.08,8.72,22.62,17.05l.18.41c-2.78,1.21-5.23,3-7.89,4.45-5.26-7.94-14.14-10.32-22-14.33-.22-.25-.44-.55-.37-.83,1.4-5.14,1.41-5.14-4.25-5.27-.24,4.55-.24,4.55-2.07,6.09l-8.6.94c-2-1.94-3.34-.15-4.77.95-2.8-.36-4.84,2.31-7.64,1.94-4.2-3.62-8.51-4.76-13.67-1.59-2.49,1.52-3.75,2.55-1.68,5.31C488.66,498.64,489.58,500,488.9,501.52Z"/><path class="cls-34" d="M395.94,361c-1.48,19.91-15.57,36-13.7,56.61-13.84-7.1-27.05-13.54-39.89-20.66-5.3-2.93-7-9.16-7.91-14.67-1.27-7.53-.17-15.13,2.16-22.53.89-2.82,2.18-1.95,3.82-1.29a85.47,85.47,0,0,0,34.33,6.34A72.68,72.68,0,0,0,395.94,361Z"/><path class="cls-33" d="M295.94,183.28c-1.15-2,1.75-4.94-1.5-6.73-.46-.25,1.1-1.59,2.27-1.71,6.44-.66,12.87-1.7,19.31-1.78a28.34,28.34,0,0,0,8.63-1.56c16.28-5.46,33-9.7,48.61-17,6.07-2.85,11.59-6.85,17.52-10,10.12-5.41,18.81-12.74,26.83-20.71S432.87,107,438.23,96.85c1.31-2.47,3.86-4.28,3.93-7.46,0-1.21,1.13-1.74,2-.78,1.82,2.14,4.77,3.2,5.75,6.1-3.59,15.37-12.24,27.87-22.91,39-24.49,25.49-55.46,38.66-89.37,45.86C323.88,182.47,310,184.1,295.94,183.28Z"/><path class="cls-35" d="M324.91,527c.11-13.86,11-21.78,23.47-17.71a7.09,7.09,0,0,1,2.67,1.87c8,8.18,15.59,16.83,26.09,22.05,1.36.67,1.42,1.58,1.17,3.09-2,12.22-7.13,23.26-12.79,34.11-.71,1.36-1.43,1.71-3,1-18.06-8.68-32.33-20.71-37.07-41.32C325.18,528.86,325,527.6,324.91,527Z"/><path class="cls-36" d="M582.53,440.4c1.07,1.21,1.91-.95,2.35-.42,3.82,4.54,6.15.86,8.9-1.36,1.87-1.51,3.57-.66,3.72,1.5.42,6.05,4.06,11.17,4.5,17.32a19.11,19.11,0,0,1-1.18,9.1c-.87,2.07-.87,3.61.69,5.08,2.68,2.55,3.17,5.58,2.14,9l-2.08.69c-5.17-.66-5.38-.92-5.25-7.14-3.57,5.13-7.48,9.41-11.1,13.93a31.26,31.26,0,0,1-4.2,4.48c-4.69,4-6.2,4-11,.48-5.33-5.42-10.41-11.05-17.12-15-5.91-3.48-11.95-6.44-19.18-7.81,3.42-3.83,6.53-7.3,9.62-10.81a2.41,2.41,0,0,1,2.49-.94c16.57,3.2,27.61-4.93,36.35-17.78A2.72,2.72,0,0,1,582.53,440.4Z"/><path class="cls-32" d="M590.28,310.28c-.7,1.06-1.28.26-1.94-.1-2.33-1.27-3.13.94-4.1,2.11-1.35,1.62.17,2.68,1.41,3.29.87.42,2,.37,1.43,1.73a3.61,3.61,0,0,1-1.46,1.79c-1.35.69-1.35-.82-1.87-1.45a89,89,0,0,0-27.81-22.13c-6.8-3.54-14-5.5-20.85-8.34-5.93-2.44-12.85-2.65-19.38-3.35-2.56-.27-5.14-1.72-7.91-.36-1.06.52-2.14-.42-2.44-1.67-.36-1.58.89-1.81,2-2.11,2.24-.64,5.1-.22,6.23-4.21-3,1.87-5.08-1.16-7.85.21-2.51,1.24-3.8,4.91-7.67,3.7-.92-.29-1.39,1.45-1.52,2.61s-.51,2.26-1.92,2.3a2.4,2.4,0,0,1-2.2-1.61c-2.31-6-6.66-6.41-11.82-4.28-1.76.72-4.19,0-5.45,2.5,2.64,1.22,4.45-1.05,6.53-1.48a7.44,7.44,0,0,1,5.86,1c2.16,1.46,2.12,4.2-.36,4.77-2.92.66-5.57,2.4-8.64,2.33a7.84,7.84,0,0,0-5.32,1.59c-1.21.93-3.29,2.06-3.95-.13-1-3.16-2.9,2.95-3.33-.58.06-7.58,0-7.69,7.39-9.7,40.62-11.13,77.26-3.65,109.55,23.7C585.59,304.7,587.82,307.63,590.28,310.28Z"/><path class="cls-37" d="M309.33,610.39c-3.88,3.29-10.09,2.16-13.16-1.76a13.7,13.7,0,0,0-7.88-4.76c-8.87-1.75-15.14-6.49-21.1-13.39-5.12-5.92-9.49-12.7-15.92-17.58-4.52-3.43-4.66-9.53-7.38-14.13-.86-1.45.41-2.35,1.4-3.12,1.22-.95,2.33-.49,3.4.43,2.15,1.86,3.71,4.37,6.34,5.69l.72.74c6.61,7.22,12.95,14.71,21,20.43l26,20.69c1,1.57,2.8,2.25,4.21,3.36C308,607.85,309.86,608.33,309.33,610.39Z"/><path class="cls-38" d="M552.9,504.4c.39-.27,1.11-.54,1.11-.79-.08-3.66,2.32-3.73,4.94-3.55.61,0,1.28.2,1.66-.52A75.55,75.55,0,0,1,578.44,548c.21,17.09-8.09,29.88-22,39.27-1.15.77-2.35,1.46-3.53,2.18-.88-.91,0-1.35.5-1.92,1-1.29,4-1.26,2.73-4.18-1-2.3-2.62-2.89-5.2-2,.73-3.1,3.62-3.66,4.46-3.11,4.09,2.7,6.76-1.58,10.24-1.65,1.39,0,2.54-1.52,2.09-3.61-.66-3.07-1.43-6.29,1.4-8.89.93-.86.3-1.78-.06-2.63-.69-1.66-.19-4.09.77-4.31,4.39-1,2.56-4.1,2.09-6.19-.79-3.48-.72-7.38-3.62-10.16a4.83,4.83,0,0,1-.65-1.26c-4.28-8.09-4.11-10.54,2.17-16.67,1.46-1.42,1.8-2.23.94-3.89s-1.77-2.62-3.72-1.62c-1.49.76-2.29-.15-3.1-1.29s-1.74-2.39-3.52-1.61a1.22,1.22,0,0,1-1.83-.91C558.55,509.3,554.17,507.82,552.9,504.4Z"/><path class="cls-30" d="M396.16,397.33c.23.72.26,1.82,1.34,1.56,1.29-.32,2.59-1.42,2.34-2.65-1-5.06,1.94-6.18,5.94-7,5-1.07,8.75,1.31,10.36,5.16,1.35,3.21,3.33,6.34,3.35,10.39,0,5.48-1.42,9.45-6.42,11.7-8.44,3.8-12.54,2-16.18-7a39.67,39.67,0,0,0-2.52-4.48A16.16,16.16,0,0,1,396.16,397.33Z"/><path class="cls-39" d="M437.23,516.24c.75-11.86-.16-22.76-5.14-33.92,11.74,5,23.31,7.15,36.26,7.73C456.83,498,448.25,507.86,437.23,516.24Z"/><path class="cls-32" d="M533.51,356.39c1.25-.17,2.66,0,3.71-.56,5.07-2.62,6.56-2.33,6.93,2.95.84,12.25,6,23.14,10.13,34.34,1,2.61,3,4.74,6.44,4.27,1.76-.23,2.55.17.83,1.71-1.1.1-2.38-.14-3.27.35-6.24,3.43-9.11-1-12.1-5.06-5.57-7.62-9.65-15.87-10.6-25.42-.94-3.52.33-7.2-.73-10.72Z"/><path class="cls-40" d="M328.4,444.2c-2.68.16-5.53,1.83-7.78-1.3-.7-1-2.09-.56-3.07.08-3.07,2-5.13,1.08-6.08-2.28a4.16,4.16,0,0,0-2.76-3c-5.59-2-10.41-5.5-16.14-7.46-3-1-6.16-4.46-9.31-6.68-2.75-1.94-5.39-4.3-9.38-3.66-1.52.25-3.82-.35-4.59-2-2.72-5.78-8.14-8.38-13.26-10.94-8.73-4.35-16.67-10.31-26.2-13.12a15.41,15.41,0,0,0-5.08-.3c-2.34,0-4.54.18-6.63-1.71-5.91-5.32-12.48-3.46-14.75,4.27-1.44,4.89-3.91,8.58-8.53,10.77a5.9,5.9,0,0,0-3.08,3.43c-2.07,5.37-6.18,9.38-9.48,13.93a.78.78,0,0,1-.13-1.24c6.83-14,16.52-25.84,27.28-36.93,1.48-1.54,2.69-.82,4.25-.34,21,6.41,39.81,17.3,58.32,28.75,14.45,8.93,28.58,18.44,44.57,24.55,3.54,1.36,7.26,2.26,10.9,3.37C328.08,442.84,329,443.13,328.4,444.2Z"/><path class="cls-41" d="M328.4,444.2l-.93-1.81a35.49,35.49,0,0,0,11.77.33c11.84-2,17.56-11.47,13.66-22.81-.65-1.9-1.33-3.78-2.28-6.47,9,4.53,17.07,9.06,25.55,12.75,5.65,2.46,9.64,5.43,10.9,11.89.67,3.44,2.94,6.57,4.49,9.84-4.92-2.12-8.57-6-12.64-9.27-1.79-1.44-.08-3.18.45-4.76.95-2.83,1.18-5.41-3.1-4.49-2.11.45-2.8-.93-3.8-2.09-1.69-2-3.26-3.09-5.12,0-1.19,2-2.94,2.4-4.64.41s-1.9-1.31-3,.76c-1.86,3.48-6.06,5.07-7.93,8.92-.94,1.95-1.93,3.33,0,4.88,2.54,2,1.72,3.22-.45,5s-4.88,2.07-7.27,3.21c-2,1-2.31-.86-2.29-2.39,0-2.85-.82-4-4-3.15A16.42,16.42,0,0,1,328.4,444.2Z"/><path class="cls-32" d="M495.51,323c2.28-2.49,3.89,3.05,7,.46,1.11-.93,2.29,3.56,2.7,6,.76,4.5,1.77,9,2.78,13.43,1.62,7.17,1,7.87-6.28,6.19-.35,3.39,4.52,3.45,3.72,7,2.25-1,1.83-4.29,4.18-3.91,1.88.31,2.18,2.54,3.11,4,2.11,3.28,4.24,6.56,6.74,10.41-2.4-.09-4.85-2-5.73,1.17-12.8-9.32-17.66-22.07-16.4-37.56C497.56,327.72,498.44,324.81,495.51,323Z"/><path class="cls-42" d="M570,493.05c7,1.82,9.61.78,14.53-6.08,3.09-4.31,7.78-7.42,9.55-12.74.45-1.35,1.63-.52,2.44-.65,1.63-.25,1.44,1.18,1.13,1.88-1.84,4.12,1.34,4.74,3.9,5.84-3.57.26-5,2.44-6,5.7-2.23,7.78-7.61,12.5-15.3,14.85-2.67.81-4.41.5-5.8-2.18A64.31,64.31,0,0,0,570,493.05Z"/><path class="cls-43" d="M182.15,423c0,.41.08.83.13,1.24-3.11,8.79-7.1,17.22-9.92,26.13-5.35,16.88-6.51,34.22-5.12,51.57.89,11.14,1.93,22.62,8.11,32.74,1,1.57,1.74,4.59.39,7C159.08,501.09,161.84,461.57,182.15,423Z"/><path class="cls-44" d="M461,611.17c.62.1,1.25.18,1.86.31.13,0,.23.2.57.52l-6.95,2.3c3.83.68,7.56,1.34,11.32.48,2.61-.59,5.22-1.18,7.76.26-18.06,2.91-36.33,2.86-54.54,3.65a40.35,40.35,0,0,1-5.66-.51c-.31-1-.61-2-.91-3a2,2,0,0,1,1-1.56C430.79,616.38,445.94,615.06,461,611.17Z"/><path class="cls-45" d="M415.43,613.63c-.35.52-.69,1-1,1.56-5.17-1.23-10.3-2.49-15.4-4.1-9.75-3.09-18.05-8.71-26.7-13.71-2.86-1.66-5.84-4.21-6.69-8C380.08,601.83,396.57,610.15,415.43,613.63Z"/><path class="cls-29" d="M249.18,292.33c-.33-.51-.91-1-.93-1.55-.12-3.09-1-4-3.36-1.33-.68.78-1,2.21-2.52,1.2-.49-.35-1.1-.88-1.18-1.4-.24-1.62,1.21-1.56,2.2-1.84,2.07-.61,3.21-1.74,2-4.4l3.7,2.26c-.2-3.44.91-6.42-1.17-9.13a3.42,3.42,0,0,1-.52-1.75c-.12-1.31,3.95.36,1.77-2.3-1.36-1.68-2.42.89-3.7.76-1.6-.16-2.7-1.25-3.71-2.66,1.81-.93,3.21.36,4.75.18,2.19-.25,4.66.32,2-3.2-2-2.68.76-2.94,2.46-3.53C251.64,273.28,251.55,282.88,249.18,292.33Z"/><path class="cls-29" d="M237.78,245.53c-5.22-3.4-7.86-8.67-9.68-14.28-.94-2.92-3.35-5.28-3.17-8.66,0-1-1.25-1.44-2.17-1.52-1.41-.13-1.19,1.09-1.36,2-1,4.89-2.46,6.43-6.31,6.08,3-1.75,5.11-3.79,4.58-7.44-.36-2.52,2.42-2.73,3.17-2.28,2.43,1.5,2.3-1.08,3.36-1.66,1.72,7.46,2.83,15.09,7.43,21.62C235,241.39,237.3,242.89,237.78,245.53Z"/><path class="cls-46" d="M309.33,610.39c-1.32-2.3-3.75-3.26-5.73-4.76-.65-.49-2-.73-.86-2l19.76,11.85-.26.81-17.71-2.19c1.3-1.26,3-.65,4.48-.85,1-.12,2.54.45,2.67-1.08C311.8,610.87,310.47,610.53,309.33,610.39Z"/><path class="cls-29" d="M250.93,262.65a3.15,3.15,0,0,1-1.81-3.52c.36-2.89-.82-4.54-3.44-5.92-5-2.61-4.85-2.8-8.11,1.34-3.29-3.19.75-5.48,1-8.24,3.58,2.51,7.25,4.9,10.71,7.57C252.33,256.21,250.64,259.67,250.93,262.65Z"/><path class="cls-29" d="M178.49,404.34a4,4,0,0,1,1.12-3c.85-1.13,2.44-2.52,2.24-3.49-1.5-7.16,4.67-6.88,8.36-9A143.29,143.29,0,0,1,178.49,404.34Z"/><path class="cls-28" d="M276.77,582.94c-.93,1-1.71.41-2.42-.29-5.85-5.85-11.72-11.68-17.51-17.59a7.65,7.65,0,0,1-1.09-2.55Z"/><path class="cls-29" d="M162,418.51l2.19-.1c3.89.55,6.15-1.14,7.53-4.81a14,14,0,0,1,5.94-7.58c-2.32,4.15-4.47,8.4-7,12.41C167.94,422.66,164.86,419.4,162,418.51Z"/><path class="cls-32" d="M534.85,358.25c1.76,3.47.54,7.15.73,10.72C534.34,365.47,535.22,361.82,534.85,358.25Z"/><path class="cls-47" d="M606.43,220.51a40,40,0,0,1,10.3-25.67c15.86-17.06,43.2-10.68,50.65,11.67,1,3.14,2.24,6.31,2.17,9.72a4.08,4.08,0,0,0,2.65,4.12c1.9.82,2.9-.73,4-1.79,8.84-8.2,19.13-12.9,31.28-10.79,17.7,3.07,27.69,21,22.77,39.55-4.27,16.12-15.64,26.11-29.15,34.3-17.64,10.69-36.95,17.68-56.08,25.06-1.56.6-2.77,1-4-.93-10.87-17.56-22.38-34.8-29.28-54.47A90.77,90.77,0,0,1,606.43,220.51Z"/><path class="cls-48" d="M52.27,407.91c1.86-3.47,3.07-7.22,5.53-10.44,3.48-4.58,8.15-6.48,13.55-6.76,4.31-.22,8.24,3.94,9.38,9.32,2.17,10.21-3.82,21.78-13.66,25.67-3,1.17-3.74,1.8-1.7,4.82,6.72,9.93,2.08,17.54-4.73,23.92a5.09,5.09,0,0,1-3,1.19c-6,.8-11-1.5-15.37-5.08-3.31-2.71-5-6.34-1.33-10.29a2.6,2.6,0,0,0,.48-.82c.68-1.71,2.44-3.93.56-5.13-1.67-1.06-3,1.5-3.75,2.81-3.74,7-10.2,7.19-16.45,6.11C14.12,441.9,7.64,438,4.87,430.16c-2-5.56,4.49-13,11.57-13.5,3.29-.25,6.64-.61,9.93.56,1.27.46,2.93.84,3.78-.87C30.84,415,30,413.86,29,413c-5.72-5.17-7.91-12.05-9.6-19.25a16,16,0,0,1,5.7-16.57,6.25,6.25,0,0,1,6.19-1.1c8.28,2.64,12.19,9.31,15.38,16.51a33,33,0,0,1,2.76,15.34c1,4-.14,6.13-4.6,6.78-5.3.79-7.53,4.64-6.35,9.68.93,4,4.84,6,9.35,4.92s6.47-6.1,3.89-11.63C50.11,414.17,50,411.05,52.27,407.91Z"/><path class="cls-49" d="M52.27,407.91c-.54,3.87-.66,7.36,1.43,11.24,2.54,4.71-.43,10.2-5,11.54-5,1.44-10.23-1.12-11.6-5.67-1.55-5.19,1.08-10.9,6.45-11.21,4.66-.27,4.87-3,5.94-5.88Z"/><path class="cls-50" d="M108.84,513.92V490.57l-1.68-.06c-3.51,8.39-1.77,17.43-2.44,26.17a2.57,2.57,0,0,1-1.7-2.14c-.78-10-3.51-19.54-5.7-29.23-.67-3,1.48-5,2-7.55,1.77-8.14,3.74-16.4,10.71-22.17,1.51-1.25,2.34-1.87,3.54.33a44.5,44.5,0,0,1,5.69,17.87c1.09,12.85-3.59,24.3-7.68,35.92a23.81,23.81,0,0,0-1.15,6.76C109.65,515.19,109.24,514.56,108.84,513.92Z"/><path class="cls-51" d="M699.06,454.69l4.82-14.28c.56-1.65,1.21-3.27,1.67-4.94.35-1.28.27-2.72-1.14-3.26-1.78-.69-2,.93-2.45,2.08q-3.87,10.17-7.72,20.34c-2.23-2.27.51-4.47.09-6.76a42.84,42.84,0,0,1,.68-19.08c3.36-12.16,7.88-24,18.14-32.49,1.23-1,3.36-1.42,3.93-.52,1.38,2.15,3.57,3.77,3.83,6.77,1.24,14.53-2.67,27.48-11.25,39.15-3.09,4.21-6,8.52-9.09,12.77C700.17,455.05,699.68,455.39,699.06,454.69Z"/><path class="cls-52" d="M121,570.47c-6.31-.21-12.54-1.7-18.9-1.15-1,.09-2.59-.43-2.59,1.18,0,1.27,1.42,1.44,2.52,1.65,8.5,1.61,17.32,1.17,25.63,4-13.78,3.3-27.55,7.07-41.82,2.76a41.11,41.11,0,0,1-13.94-7.81c-2.44-2-.57-3.41,1.1-4.35a37.4,37.4,0,0,1,14.74-5,45,45,0,0,1,19.21,2c5.75,2,11.57,3.82,18.71,6.17Z"/><path class="cls-53" d="M655.19,586.39c-.35,2.4-1.59,4-4,3.89a4.1,4.1,0,0,1-4.2-3.72c-.11-2.21,1.35-4.58,3.89-4.5C653.19,582.14,654.65,584.07,655.19,586.39Z"/><path class="cls-54" d="M254.83,210.41c.06-4.6,2.92-7.86,8.25-9.17,4.64-1.14,7.4,2,9.79,5.07,2.15,2.76,3,6.25,3.79,9.67.49,2.24,0,4.29-2.22,5.23-2.61,1.1-3.18-1.3-4-2.89-1.14-2.1-2-4.33-3.24-6.38s-2.75-3.7-5.59-3.8-3.34,1.38-3.53,3.71a2.63,2.63,0,0,1-2.06,1.61C254.18,213.15,255.08,211.44,254.83,210.41Z"/><path class="cls-55" d="M443.17,284.5c3.05.57,6.76,0,7.71,2.17s-3.11,1.37-4.41,3.14-3.49,2.6-5.34,3.77a7,7,0,0,1-9.81-2.17c-1.58-2.62.36-4.12,2.22-4.74A83.2,83.2,0,0,1,443.17,284.5Z"/><path class="cls-37" d="M285.51,609.43c-1-.07-1.95-.3-1.84-1.6.09-1,.66-1.89,1.76-1.83a2.17,2.17,0,0,1,2.19,2.06C287.63,609.2,286.49,609.38,285.51,609.43Z"/><path class="cls-56" d="M342.53,130.85c-1.88-.12-3.72-.3-4.25-2-.67-2.13,1.34-2.34,2.75-3.06A290.67,290.67,0,0,0,378,104a49.72,49.72,0,0,0,6.32-5.75c1.51-1.53,3-2.38,5-.93,2.25,1.63,1,3.5.07,5a56.16,56.16,0,0,1-15,15.77c-8.86,6.37-18.52,11.42-29.78,12.26A13.42,13.42,0,0,0,342.53,130.85Z"/><path class="cls-57" d="M564.18,424.81c-.36,1.79-1.45,3-2.9,3-4.39,0-6.84,2.87-9.48,5.64-.68.71-.9,2.36-2.44,1.65a3.63,3.63,0,0,1-2.15-2.95c-.55-4.59,9.47-12.3,13.75-10.5A7.13,7.13,0,0,1,564.18,424.81Z"/><path class="cls-38" d="M455.47,528.28c-2.27-3.89.95-6,2.9-8.36.53-.65,1.9-.73,1.79-1.91-.39-3.94,1-6.14,4.54-8.65,2.37-1.68,3.59-2.49,6.18-1.64,1.7.56,4.37,1.55,2.26-2.2-.44-.76.49-1.89,1.11-1.7,3,.9,6.19-2.77,8.94.58-2.47,3.59-6.42,5.47-9.71,8.05C467.17,517.4,462.35,524,455.47,528.28Z"/><path class="cls-38" d="M488.9,501.52c-1.7-1.63-1.6-4.43-3.76-5.8-.81-.52-.74-1.22-.21-2,1.26-1.82,10.29-4.54,12.52-4.47,3.34.1,4.13,2.77,5.79,4.63C498.84,497.14,493.55,498.74,488.9,501.52Z"/><path class="cls-31" d="M482.23,526.22c4.1-2,2.07-6.8,3.57-10.41,1.37-3.27,3.74-.68,5.52.08,2.38,1,1.35,2.51.08,3.64-3,2.69-3.88,5,.73,6.83a1.86,1.86,0,0,1,1.12,2.36c-1,2.66-3.79,3.8-5.82,5.07C485.84,534.78,482.11,529.75,482.23,526.22Z"/><path class="cls-31" d="M436.31,563.61c-.13,2.72-.66,5.11-4.21,4.89-3.38-.21-6.07-3.8-6.15-7.76-.06-2.94,1.39-4,4.05-3.83A6.49,6.49,0,0,1,436.31,563.61Z"/><path class="cls-31" d="M547.82,518.92c2.63,1.19,7-3,7,3,0,3-5.07,7.54-8.23,7.26a3.36,3.36,0,0,1-3.19-4.35C544,522.28,543.63,518.33,547.82,518.92Z"/><path class="cls-31" d="M513.79,510.68c.09,4.33-1.88,6.4-4.68,6.63-2.38.2-4.06-2.07-3.84-4.5.27-3,1.76-6.62,4.47-7S513.82,508.75,513.79,510.68Z"/><path class="cls-38" d="M524.25,490.06c1.46-1.29,1-2.87.62-4.38-.88-3.15-1.17-5.68,3.16-2.89,1.55,1,3.39-1.6,5,1.09,1.94,3.33-1.63,4.08-2,6.19A5.63,5.63,0,0,1,524.25,490.06Z"/><path class="cls-31" d="M531.54,591.82c-1.71-.49-3.6-.94-3.48-3.19.14-2.73,1.53-5.31,4.19-5.67,2.32-.32,3.28,2.2,3.39,4.32C535.78,590,533.85,591.12,531.54,591.82Z"/><path class="cls-31" d="M547.79,563.24c2.06,2,3.22,9.83,1.64,11.46-1.76,1.81-3.81,1.4-5.59.06-2.09-1.58.1-2.26.87-3.22A13.67,13.67,0,0,0,547.79,563.24Z"/><path class="cls-31" d="M410.38,578.81c-2-.18-2.68-1.45-2.72-3.22,0-1.48.54-2.4,2.18-2.39s3.31.34,3.36,2.4C413.25,577.37,412,578.4,410.38,578.81Z"/><path class="cls-31" d="M519.65,597.12a2.92,2.92,0,0,1-3,2.91c-1.44.06-3.36,0-3.41-1.69-.06-2.14,1.72-3.19,3.83-3.33A2.14,2.14,0,0,1,519.65,597.12Z"/><path class="cls-31" d="M554.33,550.63c-.13-2.38.3-4.19-1.15-5.71a1.87,1.87,0,0,1,.84-3.07,2.47,2.47,0,0,1,3.19,2C557.37,546.11,557.27,548.65,554.33,550.63Z"/><path class="cls-31" d="M553.34,568.44c1.14.17.91.95.67,1.71s-.19,2.06-1.59,1.69a1.55,1.55,0,0,1-1.14-1.81A2,2,0,0,1,553.34,568.44Z"/><path class="cls-38" d="M510.88,492c1.17-2.41,2.23-5.42,4.77-.95Z"/><path class="cls-58" d="M193.66,294.18c-3.17,6.84-8.26,12.33-12.85,18.17a23.06,23.06,0,0,0-1.66,2.81L177.41,317c-2.46,3.29-5,6.48-7.68,9.63h0c-2.36,2.9-3.15,6.75-5.73,9.52l-1.74,4c-1.07,3.15-1.78,6.42-3.14,9.48-.94.79-.71,1.89-.74,2.92.9,6.37.25,12.73-.1,19.1l.16,1.9a54,54,0,0,1,4.68,12.4c-1.06,3.13-3,3.73-5.69,1.93-1.39-1.7-2.94-3.31-3-5.7-9.44-21.81-5-41.71,8.34-60.38,8.08-11.32,18.1-21.19,25.24-33.23,1.1-.31,1.59.5,1.35,1.22-1.51,4.55.67,4.58,4,3.4.09,0,.26.14.37.24S193.87,293.87,193.66,294.18Z"/><path class="cls-29" d="M185.69,352.4c2.65-.06,5.18-.51,3.65,3.07-.83,1.94.16,3.47,1.33,4.74.69.74,2.78.58,1.25,2.38s-1.94-.52-2.9-.84c-.29-.1-.57-.23-1.29-.51.19,2.06,2.28,3,2.28,4.87a1.65,1.65,0,0,0,2.79,1.28c2.88-2.51,3.67.08,5.43,1.74-2.85.78-4.88,1.52-5.68,4.58s-2.92.77-3.82-.21c-4.23-4.59-4.15-4.66-8.8-.2-.22-3.36.76-6.33.64-9.37-.09-2.21,2.47-2.85,4.25-3.56,1.56-.61,2.81-1.21,1.6-3-.85-1.25-1.95-2.93-3.55-.52-.64,1-2.23,1-2,0,.72-2.78-6.31-1.68-2.52-4.85,2.47-2.08.29-3.75.3-5.29s-1.73.7-2.82.7c-.94,0-1.89,0-1.19-1.49,2.61-5.65,1.49-12.21,4.46-17.89.95-1.81,1.31-2.62,3.45-2.73,1-.05,3,.83,3.54-1.28.3-1.13.9-2.17,2.35-1.67s.27,2.05.91,2.88c1.75,2.3-.8,1.16-1.29,1.61-1.1,1-3,1.61-2,3.66,1.07,2.27,1.93,5.08,5.21,4.66,1.78-.22,3.13-.22,3.95,1.54a2.08,2.08,0,0,1-.5,2.6c-1.42,1.28-2.61.49-3.8-.45a1.64,1.64,0,0,0-2.17,0c-.52.39-2.3,8.92-1.94,9.54C187.91,350.25,187.91,350.25,185.69,352.4Z"/><path class="cls-58" d="M193.66,294.18c-.61-.72-1.12-.28-1.55.18-1.16,1.29-2.34,2.05-4.05.79s-.6-2.47-.14-3.74c.35-.94,1.45-1.89.08-2.88,6.67-13.11,10.95-26.84,10.45-41.73a56.16,56.16,0,0,1,0-9.79c.48-3.34,1.84-3.22,3.84-1.12a1.17,1.17,0,0,1,.92,1c-.39,8,1.67,15.88,1,23.88C202.68,272.53,200,283.93,193.66,294.18Z"/><path class="cls-29" d="M158.29,371.61a38.84,38.84,0,0,1,.1-19.1c5,4.32,8.28,4.6,11.05.85.44-.6,3.44-2.77-.79-1.7-.94.24-.07-1.1.29-1.6,1.37-1.93,3.71-1.37,5.22-1.07,2.51.49-.74,1.8-.15,2.73,2.94,4.66-1.22,6.87-3.86,7.47a12.56,12.56,0,0,0-4.6,1.74c-3.39,2.24-2.61,3.75,1,5.31-.86-5.3,3.73-4.07,7-5.86-1.44,2.6.31,4.73-.29,6.89-2.54.42-2.07-2.14-3.65-2.73,0,2.06.48,4,2.82,4.57a6.45,6.45,0,0,1,3.59,2c1.17,1.25,2.4,2.72.49,3.9s-1.5-1.23-2.17-1.84c-1.88-1.7-3.92,0-5.24,1.49-.91,1-1.49,2-2.22.33s-5-1.34-3.29-3.66c3.56-4.88-1.55-3.91-3.24-5.61C162.21,368.8,160.9,370.46,158.29,371.61Z"/><path class="cls-29" d="M163.13,417.43a6.76,6.76,0,0,1-3.85-1.54c-1.44-1-2-2.66-4.77-2.15-2.95.55-4.3-3.1-2.33-5.8.76-1,1-1.81.43-2.89-.13-2.59-.48-4.58,3.67-4.57,2.92,0,5.84-2.49,8.74-3.86-.45,5-4.78,9.25-1,14.51C165.35,412.9,164,415.38,163.13,417.43Z"/><path class="cls-29" d="M209.8,246.34c4-2.55-.27-8,4.23-10.29.95-.49.1-3.17,2.21-2.05,1.5.8.57,2.53.56,3.81,0,.85-1.68.9-1.63,2.25,1.57.5,4.7.42,3.81,2.66-1.19,3-1.57,6.86-4.81,8.66-.87.49-1.35-.93-.86-1.92s2.07-2,.92-3.28C212.91,244.74,212,247.8,209.8,246.34Z"/><path class="cls-29" d="M211.46,199.33c1.19-4.7,2.31-9.08,3.55-13.94,2.93,2.52,4.29,6.76,8,8.51.13,0,0,.59,0,.9-3.5-2.69-2.89,5.35-6.75,2.51C214.49,196,213.73,199.23,211.46,199.33Z"/><path class="cls-29" d="M206.79,209.57c.06-.22.09-.5.15-.5,2.41-.33,1.26-4.54,4.4-4-.5,2.75,3.52,5.37.1,8.32-.73.64-.34,2.45-.79,3.59-.6,1.5-1.63,2.81-3.55,2.53a1.79,1.79,0,0,1-1.72-1.93c.34-1.76.13-3.82,1.75-5.09.8-.62,2,2,2.57.14C210.32,210.54,207.81,210.54,206.79,209.57Z"/><path class="cls-29" d="M180.37,391.38a20.63,20.63,0,0,0-3.05-1.5c-1.32-.37-3.26-.07-3.27-2,0-2.18,2.08-1,3.06-1.5,2.87-1.42.53-3.38-.12-5.07-.51-1.34-2.88-1.85-1.78-3.89.14-.26,1-.5,1.15-.36,1.35,1.38,3.91,3.13,3.67,4.23C179.27,384.66,181.11,387.75,180.37,391.38Z"/><path class="cls-29" d="M203.22,236.89l-.92-1c.38-2.63,2-3.75,4.54-3.8.9,0,1.94.28,2.58-.67.48-.7-.34-2.72,1.62-1.83,1.14.51.12,1.67.09,2.53s1.1,2.92-.52,2.54C207.47,233.92,205.79,236.61,203.22,236.89Z"/><path class="cls-29" d="M163.13,385.91c-3-3.58-3.73-8-4.68-12.4,1.39.4,3.41.18,2.92,2.6-.39,1.95.39,3.11,1.9,4.32C165.38,382.12,165.19,384.13,163.13,385.91Z"/><path class="cls-29" d="M153.55,395.58c-.14.41-.48,1.62-1,2.76-.38.86-1.05,1.92-2.1,1.4s-.72-1.71,0-2.44c1.22-1.29,1-2.52.21-3.87s-1.18-3,.91-3.28c1.56-.22,1.92,1.32,2,2.67C153.57,393.45,153.55,394.09,153.55,395.58Z"/><path class="cls-29" d="M238.71,268.57c.68,2.17-1.43,5,2.91,5.6-4,1.68-6.12-1.64-9.11-1.42C234.72,271.5,237.62,271.59,238.71,268.57Z"/><path class="cls-29" d="M205.67,341.33c.6-1.84-2.39-4.79,1-5.35,1.75-.3,1.31,2.72,1.38,4.36.05,1.45-.08,3.22-1.91,3.18S204.91,342.23,205.67,341.33Z"/><path class="cls-29" d="M188.39,318.45c-1.33,2.45-3.56,3.46-5.78,4.3a1.81,1.81,0,0,1-2.45-1.61c-.14-1.51,1.24-1.18,2-1.1C184.43,320.27,186.36,319.37,188.39,318.45Z"/><path class="cls-29" d="M164,336.15c1.47-3.43,2.38-7.21,5.73-9.52C168.31,330.09,168.14,334.31,164,336.15Z"/><path class="cls-29" d="M175.07,360.44a5.75,5.75,0,0,1,5.82-.06c.08,0,.05,2.13-1.06,2.62C177.38,364.08,176.13,362.63,175.07,360.44Z"/><path class="cls-29" d="M169.73,326.64a24.65,24.65,0,0,1,7.68-9.63A19.45,19.45,0,0,1,169.73,326.64Z"/><path class="cls-29" d="M171.58,398.59c-1.25-2.91-.31-5.5-2.52-7.52C173.09,392,173.37,392.81,171.58,398.59Z"/><path class="cls-29" d="M240.27,278.15c-.39,2.5-1.07,4.25-3.06,4.9-.78.26-1.38-.71-1.34-1.54C236,279.07,237.87,278.69,240.27,278.15Z"/><path class="cls-29" d="M229.16,246.21c-1-.26-1.65-.63-1.41-1.61a2.73,2.73,0,0,1,3-2.35c.62.05,1.75,1,1.68,1.2C231.91,245.05,230.36,245.51,229.16,246.21Z"/><path class="cls-29" d="M209.28,225.7c-2.3.64-4.3-1.24-6.5.17C205,222.7,207.25,224.25,209.28,225.7Z"/><path class="cls-29" d="M159.13,349.59a20.64,20.64,0,0,1,3.14-9.48A13,13,0,0,1,159.13,349.59Z"/><path class="cls-29" d="M171.43,385.3c-.57,1.22-.77,2.75-2.39,3.08-.78.16-1-.58-1-1.2a3.42,3.42,0,0,1,2.19-2.74C170.84,384.16,171.4,384.46,171.43,385.3Z"/><path class="cls-29" d="M234.62,260.44c-.11.93-.5,1.8-1.61,1.81s-1.4-1.09-1.64-1.94c-.3-1,.49-1.34,1.31-1.38C233.68,258.88,234.53,259.13,234.62,260.44Z"/><path class="cls-29" d="M222.16,245.86c-.26,1.73,2,3.18.44,4.93-.21.24-1.16.28-1.25.11C220.3,249.06,221.66,247.55,222.16,245.86Z"/><path class="cls-29" d="M202.34,214.08c-1.08-1.58-2.65-2.51-.86-3.89.41-.32,1.46-.52,1.65-.29C204.29,211.26,203.19,212.38,202.34,214.08Z"/><path class="cls-29" d="M221,240.47c2.27,1.77,3.76,2.24,5.85,1C224.06,244.9,224.06,244.9,221,240.47Z"/><path class="cls-29" d="M204.17,361.26c-.57,3.15-1.35,4.27-3.2,4.23-.3,0-.59-.59-.89-.91Z"/><path class="cls-29" d="M154.42,382.14c.89,2,2.65,3.46,3,5.7C154.77,386.82,153.54,385,154.42,382.14Z"/><path class="cls-29" d="M189.89,206.46c-.54.48-1,1.21-1.39,1.18a1.92,1.92,0,0,1-1.84-1.77c0-.38.7-1.1,1.15-1.16C188.92,204.56,189.35,205.46,189.89,206.46Z"/><path class="cls-36" d="M595,432.42c-2.25-1.36-2.72-3.79-5.08-3.59-.39,0-.82-.39-1.23-.6,2.41-4.57-3.28-8.86-.36-13.6,1.45-2.36,3.64-3.93,5.71-3.26,2.25.73,1.76,3,.94,5.5-1,2.91-.06,6.42,0,9.68C595,428.28,595,430,595,432.42Z"/><path class="cls-31" d="M480.2,588.25c-.71,2.32-2.68,3.28-4.84,3.83-1.18.31-2.56-.43-2.3-1.62a3.86,3.86,0,0,1,4.74-3.29C478.78,587.3,480,586.28,480.2,588.25Z"/><path class="cls-31" d="M427.29,540.61a10.64,10.64,0,0,1-6.45-3.09C424.39,536.7,425.72,538.92,427.29,540.61Z"/><path class="cls-31" d="M403.61,597c2.46-1.14,3.84-1.05,4.84,1.12A6.54,6.54,0,0,1,403.61,597Z"/><path class="cls-32" d="M577,299.82c2.39,1.14,3.75,2.1,4.12,4,0,.19-.67.79-.94.73C578.09,304.11,578.05,302.17,577,299.82Z"/><path class="cls-32" d="M541.57,365.48c-3.17-1-4-2.46-3.32-5.87C539.55,361.89,540.37,363.36,541.57,365.48Z"/><path class="cls-59" d="M717.13,238.26a19.86,19.86,0,0,1-3.5,9.19c-1.47,2.17-3.55,2.32-5.92,1.42s-2.9-2.43-2.38-4.87a12.83,12.83,0,0,0-3.67-12.66c-1.12-1.09-3.43-1.85-2.19-4.13a6.46,6.46,0,0,1,5.67-3.8c5-.11,7.78,3.1,9.89,7A16.4,16.4,0,0,1,717.13,238.26Z"/><path class="cls-27" d="M333.78,264.28c-.63,2.13-1.66,3.35-3.43,3.72-.76.16-1-.74-.83-1.35C330.1,264.72,331.53,264.2,333.78,264.28Z"/><path class="cls-27" d="M350.7,238.75c-1.25,2.32-.74,4.22-2.72,4.63-.29.06-1-.44-1-.66C347.05,241,348.43,240.23,350.7,238.75Z"/></svg>