<svg id="Layer_1" data-name="Layer 1" xmlns="http://www.w3.org/2000/svg" viewBox="0 0 736.92 610.14"><defs><style>.cls-1{fill:#f8bb4a;}.cls-2{fill:#3b160d;}.cls-3{fill:#3c160d;}.cls-4{fill:#fff2da;}.cls-5{fill:#fadcb1;}.cls-6{fill:#feeed1;}.cls-7{fill:#fff1d7;}.cls-8{fill:#fadcb0;}.cls-9{fill:#faddb4;}.cls-10{fill:#f8dcb6;}.cls-11{fill:#fef5e3;}.cls-12{fill:#fef5e6;}.cls-13{fill:#fdf0db;}.cls-14{fill:#fff;}.cls-15{fill:#fcead0;}.cls-16{fill:#f9e6ca;}.cls-17{fill:#fffbf5;}.cls-18{fill:#f7d8b1;}.cls-19{fill:#fbdeb6;}.cls-20{fill:#f06d34;}.cls-21{fill:#773919;}.cls-22{fill:#d25027;}.cls-23{fill:#fff6e7;}.cls-24{fill:#c4752f;}.cls-25{fill:#f6905d;}.cls-26{fill:#f68b54;}.cls-27{fill:#e1713b;}.cls-28{fill:#e97a41;}.cls-29{fill:#f79a6d;}.cls-30{fill:#fdd9ba;}</style></defs><path class="cls-1" d="M368.79,167.41c-2-.32-2.44-1.85-2.78-3.57-.81-4.14-1.84-8.25-2.56-12.41C360,131.24,347.2,121,327.67,117.9c-.55-.09-1.11-.09-1.64-.23-1.74-.43-3.93-.44-4-2.93s2.09-2.76,3.83-3.13a113.05,113.05,0,0,0,15.95-4.28c9.59-3.59,15.91-10.28,19.34-19.86,2.19-6.1,3.2-12.46,4.54-18.76.43-2.06.22-5,3.23-5s2.89,2.64,3.22,4.88c.45,3.08,1.29,6.1,1.84,9.17,3.18,18,13.61,28.84,31.59,32.39,2.52.5,5,1.32,7.47,1.94,1.32.32,2.57.73,2.66,2.32.12,1.91-1.34,2.45-2.8,2.85-3.54,1-7.1,1.91-10.65,2.86-14.79,4-23.56,13.7-27.07,28.38-1.2,5-2.16,10-3.13,15.07C371.64,165.5,371.17,167.18,368.79,167.41Z"/><path class="cls-2" d="M463,349.07c-7.62-32.72-27.14-55.57-60.54-64.53-14.31-3.84-28.85-3.37-43.17.41-3.54.94-4.32.2-4.32-3.4,0-10.5-.48-21-.63-31.5-.21-14.76-6.53-26.09-18.68-34.38a103.09,103.09,0,0,0-24-12.27c-26.78-9.42-54.58-13.56-82.73-16-50.93-4.34-101.61-3.21-151.84,7.06-18.8,3.85-37.23,8.88-53.89,18.95C8.75,222.12,1.34,234.5.66,251.54c-1.19,29.68-.59,59.32.33,89,1.34,40.16,3.42,80.28,6.58,120.33,2.07,26.07,4.22,52.14,8.85,77.94,3.65,20.35,14.38,35.52,32.17,45.92C67.82,596,89,601.44,110.66,605c33.8,5.59,67.87,5.94,102,4.18,27-1.39,53.45-5.43,78.77-15.35,20.21-7.91,37.32-19.27,45.18-40.83a82.43,82.43,0,0,0,5-22c.44-6,3-8.42,8.85-10.12,36.77-10.74,68.28-29.68,90.09-61.95C463.13,425.56,472.21,388.8,463,349.07ZM350.73,425.21c1-22.06,2.18-44.11,3-66.19a13,13,0,0,1,4.16-9.7c9.4-9,20.41-12.83,32.9-8.67,13.06,4.36,18.81,15.3,20.1,28,3.61,35.73-10.68,63.26-40,83.39a72.87,72.87,0,0,1-15.59,8.17c-1.85.7-3.54,2-6.33,1.8C349.55,449.71,350.16,437.47,350.73,425.21Z"/><path class="cls-3" d="M601.58,41.73c23.1.18,51.61,1.43,79.64,7.82,1.8.41,3.58.88,5.37,1.32,15.13,3.64,24.9,11.59,28.85,28,12.21,50.64,23.6,101.34,21.15,153.87-1.83,39.43-14.83,74.54-43.35,102.89-18,17.84-39.63,29.76-62.83,39.23-.85.34-1.69.73-2.57,1-5.22,1.68-7.66,4.5-7.9,10.73-1.63,41.66-1.41,83.28.17,124.92.14,3.87,1.51,4.72,5.12,5.15,17.59,2.12,35,5.21,51.44,12.23,9.08,3.89,17.44,8.84,23.31,17.11,7,10,6.18,22-2.26,30.83-6.91,7.26-15.63,11.62-24.93,14.79-32.27,11-65.57,13.09-99.3,11.24-22.52-1.24-44.75-4-65.87-12.56a65.91,65.91,0,0,1-14-7.74c-16.66-12-16.9-30.95-.54-43.49,10.89-8.34,23.52-12.85,36.59-16.31a205.82,205.82,0,0,1,36.45-6.16c3.67-.29,4.46-1.41,4.72-4.82,1.55-20.81,1-41.65,1.1-62.47.08-21.56.28-43.12-1-64.67-.24-4.11-1.53-6.24-5.35-7.73-18.77-7.3-36.75-16.15-52.92-28.3-37-27.82-55.22-65.61-58.53-111.17C451.24,197.3,458,158.09,465.76,119c3-15.36,7.2-30.44,11.29-45.54,2.49-9.16,8-15.05,16.44-18.73,10.77-4.69,22.22-6.66,33.68-8.42C550,42.78,573,41.78,601.58,41.73Z"/><path class="cls-4" d="M163.16,595c-34.47-.43-68.3-4.31-100.16-18.71-18.09-8.17-29.16-21.59-32.52-41.54-5.54-33-7.73-66.23-9.93-99.5q-5.48-83.07-5.16-166.33c0-6.82.44-13.63.54-20.45.11-7.74,3.54-13.67,9.34-18.6,8.91-7.59,19.46-12,30.42-15.2,22.46-6.62,45.37-11.39,68.81-12.48,6.53-.3,13-1.59,19.53-1.32,4.91-1.12,9.95.3,14.85-.81a348.9,348.9,0,0,1,36.59-.05c5.65,1.25,11.44-.31,17.09.85,7,1.73,14.32,1.54,21.34,1.81,7.38.27,14.32,2.77,21.75,2.48,5-.19,10,1.67,15,2.62-2,4.09-5.75,2.65-8.66,2.16-12-2-24.18-1.75-36.08-4.16-9.39-1.89-18.7-.47-28,.54-2,.22-4.1.66-6-.05-11.81-4.42-24.1-2.77-36.1-2.25-16,.69-31.91,2.08-47.82,3.79-6.31.68-11.59,3.44-17.08,5.85-3.4,1.49-6.45,2.08-10.07,1.11-6-1.61-6.48-1.16-8.27,5.2-1.5,3-4.61,3.33-7.33,4.25-6.92,2.33-14,4.36-20.07,8.63-4,2.81-7.32,6.09-8.06,11.23-2,4.64.24,7.86,3.71,10.5,4.6,3.49,9.86,5.73,15.26,7.65,20.68,7.33,42.24,10.06,63.9,12.46,28.67,3.18,57.46,2.79,86.16,1.94,29.11-.86,58-4.59,86.3-12.2a104,104,0,0,0,16.52-6.29,21.8,21.8,0,0,0,9.95-8.47c.74-1.05,1.19-2.28,1.88-3.37s1.86-1.54,2.53-.17c2.45,5,7.64,8.81,6.74,15.28a4.32,4.32,0,0,1-1.37,2.06c-2.73,2-5.43,1.9-8.12-.13a8.34,8.34,0,0,0-3.43-1.71c-1.13-.21-2.29-.22-3,.83s0,2.16.84,2.86c2.09,1.68,4.24,3.26,2.18,6.35-6.16,3.3-7.32,8.57-7.43,15.23q-.68,39.19-3,78.34c-2,32.75-4.63,65.4-10.2,97.76-3.61,21-8.71,41.5-17.43,61-16.69,37.34-46.48,57.88-85.51,66.64-8.45,1.9-17.06,2.81-25.51,4.69A7.53,7.53,0,0,1,163.16,595Z"/><path class="cls-5" d="M163.16,595c24.71-4.88,49.76-8.61,71.85-22.09,23.19-14.15,37.55-35.13,46.9-60,8.95-23.83,13.22-48.7,16.54-73.82,2.59-19.61,4.26-39.28,5.61-59q2.38-34.89,3.42-69.82c.31-10.09.69-20.19.78-30.29.05-6.1,5.12-7,8.88-9.27,2.57-4.18,7.4-5.1,11.06-7.71l1.13-1.1a52.18,52.18,0,0,1,5.8-6.62c.79-.73,1.71-1.61,2.89-1,.9.5.68,1.59.69,2.48,0,4,0,8,0,12-.14-5,.4-9.9-.35-14.84-.31-2.06-.79-4,1.1-5.52,1.22,10.82.86,21.7.89,32.55.11,51.43-1.57,102.82-4.67,154.14-1.79,29.58-3.55,59.2-7.55,88.6a164.23,164.23,0,0,1-3.93,20.56c-4.07,15.1-14.56,24.84-28.05,31.66-18.64,9.42-38.76,13.86-59.23,16.55a437.17,437.17,0,0,1-70.05,3.18A25.79,25.79,0,0,1,163.16,595Z"/><path class="cls-6" d="M339.5,248.39v20.9l-1.07,0V254.37c-3.85,2.39-4.9,7-9.1,7.47.22-6.37-5.5-10-7.23-15.36-.41,1-.87,2.08-1.33,3.18a2.52,2.52,0,0,1-1.42-1.59c-1.47-4.69-4.58-4.91-8.12-2.65-5.17,3.28-10.24,3.65-15.5.39-23.4-8.65-47.83-11.62-72.5-13.32-15.77-1.08-31.54-2.42-47.36-2.14-24.28.42-48.51,1.57-72.58,5a30.35,30.35,0,0,1-5,.43c-2-.37-4.52.31-6-2.72,5-2.73,10.57-2.88,15.88-3.59,20.23-2.74,40.6-3.71,61-4.71,1.61-.08,3.66.34,4.51-1.33,1.05-2.05-.89-3.34-2.09-4.62-4-4.3-9.2-6-14.88-6.19a284.14,284.14,0,0,0-78.23,7.79c-2.29.55-4.56,1.61-7,.43,0-9.68,1.59-10.79,10.59-7.39,2,.75,4,1.43,5.8.13,7.27-5.38,15.68-7.41,24.4-8.08,23.39-1.79,46.77-4.25,70.29-3.42,1.27,0,2.81-.08,3.76.56,6.19,4.19,12.91,2,19.23,1.24,10.53-1.28,20.63.83,31,1.7,11.31,1,22.61,4,34.13,2.15,20.17,3,39.63,8.15,56.79,19.65C334.75,232.31,339.89,238.87,339.5,248.39Z"/><path class="cls-7" d="M350.37,477.62c17.53-5.87,33.37-14.7,46.23-28.1,23.2-24.16,33.53-52.83,27.81-86.23-2.48-14.47-9.76-26.41-23.21-33.83-4.23-2.33-8.82-3.14-13.37-4.25-.08-3.52,3.56-2,5.37-3.66-5.4-2.7-11-2.95-16.34-3.82-6.65-1.07-11-4.27-11.72-11.12-.33-3-3.08-4.42-3.7-7.08,31.54-11.32,68.08,4.77,82.05,36.54,7.91,18,10.74,36.72,6.75,56.36a56.44,56.44,0,0,0-1.42,11.06c-3.81-1.15-2.19-4.13-1.88-6.34,1.08-7.76,2-15.49.85-23.39-2.14,17.78-4.29,35.54-13.17,51.56A159.73,159.73,0,0,1,415.54,455c-11.94,15.08-27.66,24.56-45,31.91a17.75,17.75,0,0,1-5.83,1.64c-4.78.29-4.85-3.18-4.57-6.36.31-3.58-.37-4.83-4.12-3.23C354.17,479.71,351.46,481.44,350.37,477.62Z"/><path class="cls-8" d="M350.37,477.62c3.08,2.81,5.4-.48,8-1.09s5.06-1.6,3.4,2.85a14.38,14.38,0,0,0-.39,3.81c-.31,3.72.94,5.05,4.83,3.71a119,119,0,0,0,29.21-15.08c16-11.05,26.82-26.24,35.76-43.07a34.77,34.77,0,0,1,2.1-3.17c2.54-1.75,4.23-.29,5.81,1.56,1.41,2.17-1,4.06-.46,6.17-13.56,28.89-35.75,49.06-64,63.08a139.7,139.7,0,0,1-29.84,11.16c.82-9.56,1.59-18.68,2.38-27.81C347.39,477.75,348.71,477.43,350.37,477.62Z"/><path class="cls-9" d="M361.44,299.53c2.86,1,4.26,2.62,4.91,6,2.13,10.93,3.84,9.13,15.55,11.66,3.89.84,8,.77,11.6,2.78,1.06.6,2.82.89,2.52,2.46s-1.92,1.35-3.21,1.45c-1.74.13-3.75-.62-5,1.38-11.79-1.42-22.49,1.66-33,8.28,0-10.45-.25-20.39.14-30.31C355.08,299.73,359,300.29,361.44,299.53Z"/><path class="cls-10" d="M438.91,427.82c-1.77-1-3.27-2.67-5.61-2.24,5.46-10.26,7.95-21.49,10.28-32.71,1.14-5.5,1.33-11.2,1.93-16.81a26.44,26.44,0,0,1,.36-3.81c.34-1.27,1.31-2.55,2.63-2.5,1.87.06,1.37,1.84,1.4,3,.17,8.59.22,17.19-1.81,25.64-.42,1.76-1,3.6.73,5.09A49.85,49.85,0,0,1,444.45,419c-1.93,1.79-2,4.47-3.1,6.64C440.83,426.68,440.81,428.34,438.91,427.82Z"/><path class="cls-7" d="M438.91,427.82c2.58-2.43,2.44-6,3.89-9,.77-1.54,1.28-1.64,1.65.17-1,5.14-3.41,9.7-5.8,14.28C436.69,431.39,439.12,429.66,438.91,427.82Z"/><path class="cls-6" d="M212.56,200.85c-5.69-.25-11.48,1.23-17.09-.85C201.18,200,206.92,199.46,212.56,200.85Z"/><path class="cls-6" d="M158.88,200.05c-4.86,1.87-9.89.62-14.84.81C148.93,199.57,153.91,200,158.88,200.05Z"/><path class="cls-11" d="M566.22,543.94c5.28,2.27,8.41,1.39,11.65-3.49,4-6,5.4-12.92,5.88-19.89,2.79-41.22,2.91-82.48,1.52-123.76-.21-6.22-1.07-12.45-.17-18.69a20.09,20.09,0,0,0,20.74,0c1.81,2.18.58,4.63.49,6.92-1.57,40.48-1.35,81-.08,121.43.27,8.38.62,16.9,3.07,25.09,1.27,4.24,2.64,8.43,6,11.53,2.54,2.31,5.4,3.38,8.43,1.06,2.85-2.19,2.42-4.91,1-7.87-.82-1.67-3-3.63-1.7-5.24s3.68.3,5.51.38c5.87.28,11.47,2,17.23,2.72-1.13,3.67-4.13,2.24-6.4,2.09-3.41-.24-6.77-1.23-10.86-1.39,1.71,4,1.5,7-.66,10.29-2,3.11,1.4,4,3.47,4.81,9.52,3.51,19.38,5.84,29.25,8.09,1.79.41,3.6.76,5.39,1.18,8.33,1.94,10.76.69,15.17-6.15,1.09-1.68-2-4.07,1.3-4.71,11,7.47,11,16.07-.34,23.19-11.74,7.39-25.07,10.5-38.52,12.8a296.94,296.94,0,0,1-110.86-1.48c-11-2.27-21.71-5.65-31.05-12.22-7.66-5.39-8.51-10.75-3.09-17.81,2.59,3,4.54,6.5,7.35,9.38,1.65,1.69,3.21,2.31,5.36,1.43,14.65-6,30.27-8.78,45.27-13.64C560.32,548.76,564.66,548.59,566.22,543.94Z"/><path class="cls-12" d="M580.37,368.11c-12.92-6.55-26.84-10.85-39.54-17.95-21.43-12-39.59-27.31-52.48-48.43-.66-1.08-1.16-2.27-1.73-3.4-2.92-6.67-5.26-13.34-5.57-20.87-.16-3.65-3.63-7-5.8-10.4-2.9-4.53-3.28-9.31-.62-14,1.51-2.66,3.95-4.51,7.23-4.11,3.13.39,4.82,2.81,5.43,5.57,1.47,6.64,5.08,12.6,6.07,19.37.23,1.6.74,2.82,2.53,3.06,1.83.85,2.51,2.59,3.32,4.24,17.37,35.35,45.61,56.37,84.48,61.79,25.61,3.57,49.28-3.38,70.55-18.14a113.17,113.17,0,0,0,23.36-21.74,9.34,9.34,0,0,1,3.84-3.06c3.83-1.22,5.93-4,7.17-7.68,1.59-4.75,3.87-9.09,8.34-11.89a4.34,4.34,0,0,0,2-5.23c-1.34-4.72.49-9,1.75-13.4.79-2.77,2.39-5,5.57-5.34,3-.29,4.71,1.63,6.09,3.92.94,1.56,2,3.08,2.76,4.73a33.93,33.93,0,0,1-7.32,20.17c-1.08,1.39-1.95,2.67-1.92,4.4.07,4.41-2.25,8-5.09,10.68-3.71,3.51-5.26,7.76-6.59,12.32-9.19,13.48-21.6,23.47-35.15,32.15-12.9,8.26-26.87,14.37-41.13,19.86-2.56,1-5,2.22-7.53,3.33A163.61,163.61,0,0,1,580.37,368.11Z"/><path class="cls-13" d="M691.45,67.52c-24.21,16.75-165,17.41-191.89.22,4.87-2.7,9.93-4,15.06-5,33.46-7,67.35-7.42,101.3-6.47,21.39.6,42.7,2.17,63.64,7A50.52,50.52,0,0,1,691.45,67.52Z"/><path class="cls-14" d="M694.2,312.7c-.34-4.71-.12-9.15,4.52-12.06,4-2.51,6.12-6.11,5.74-11-.2-2.66-.06-5,3.36-5.94,2.87-.8,2.7-4.16,3.68-6.38a30.4,30.4,0,0,0,2.89-12.16c-3.48-5.3-.81-9.75,2-14.2,1.37-7.12,3-14.2,2-21.53a56.13,56.13,0,0,1,1-12.87c-.27-7.09.41-14.33-3.41-20.83a16.31,16.31,0,0,1-.11-15.34c1.07-7-1.61-13.67-2-20.55-.09-4.46-4.53-7.41-4.19-12,.41-3.85,1.6-7.72-.27-11.53-2.64-6.07-2-12.81-4-19.09-1.35-4.16-5-8-3.2-12.94C703.4,99.85,701,96,700.16,92c-.1-3.41-4.31-3.06-5.23-5.7-3.76-1-6.63,1.44-9.83,2.58-1.8,3-4.21,4.53-7.79,3.12-1.42-.56-3-.91-4.18.19-3.73,3.6-8,2.88-12.4,2-3.23-.24-6.31.7-9.44,1.23-4.39,3.16-9,3-14.13,1.86a40.37,40.37,0,0,0-20.64,1.28c-7.63,2.5-15.18,2.41-22.81,2.5-6.57.08-13-1.19-19.46-2.81a62.07,62.07,0,0,0-22.42-1.54,9.69,9.69,0,0,1-3.83-.16c-1.59-.33-3-1.5-4.79-.94-5.05,4.35-10.34,5.31-16.07,1.28-2.56-1.8-5.57-1.59-8.52-1.72-5.06-.21-9.57-1.38-13.25-5.5-2.44-2.74-6.28-4.29-10-2.84-3.92,1.52-5.37,5.49-4.79,9.15a32,32,0,0,1-5.16,23.55c-1.76,2.68-2,6.49-2.13,9.56-.63,12.11-5.8,23.34-6.25,35.42a38.2,38.2,0,0,1,1,9.76c.77,6-1.93,10.56-5.66,14.79a2,2,0,0,1-2.55-.17c.35-16.12,3.35-31.92,6-47.73,3.2-19.1,7.68-37.94,12.61-56.68,1.32-5,2.57-5.33,6.94-3.1,12.55,6.42,26.62,6.83,40.17,9.2a240.77,240.77,0,0,0,36.16,3.3c15.84.71,31.67.67,47.5,0,16.11-1.57,32.32-2.31,48.32-4.93A105.65,105.65,0,0,0,696,80.48c3.13-1.49,4.45-1.42,5.57,2.61,4.11,14.85,8,29.78,10.55,44.94,2.14,12.67,4.36,25.36,6.08,38.13,1.69,12.6,1.94,25.33,4.08,37.86a32.33,32.33,0,0,1,0,5.48,109.9,109.9,0,0,1,0,20.68c-1.43,16.94-3.4,33.68-9.93,49.68C707.58,291.59,702.14,302.8,694.2,312.7Z"/><path class="cls-15" d="M566.22,543.94c1,3.76-.91,5.35-4.32,6.06-13.78,2.87-26.72,8.84-40.78,10.85-3.3.47-6.37,2.75-9.49,4.31-2.95,1.48-5.29,1.37-6.75-2-.36-.84-.74-2.15-1.36-2.32-4.27-1.15-4.66-4.51-4.91-8,4-4.77,9.46-7.54,15-10,17.28-7.71,35.66-10.68,54.56-12.72C567.64,535.1,562.55,539,566.22,543.94Z"/><path class="cls-16" d="M682.47,548.32c1.64,6.84-6,14.79-13.07,13.18-12.51-2.83-25.08-5.53-37.24-9.73a49.1,49.1,0,0,1-4.55-2c-3.19-1.45-3.69-3.49-1-5.89,2.36-2.14,3.47-4.19.89-7-.77-.83-1.86-2.22-.79-3.42.91-1,2.41-.51,3.69-.37,5.13.55,10.11,3.53,15.44,1C658.86,536.7,671.67,539.92,682.47,548.32Z"/><path class="cls-17" d="M469.82,188.82h2.23a3.81,3.81,0,0,1,1.35,2.91c.64,11.74,1.68,23.46,1.83,35.23,0,1.88-.83,3.57-1.52,5.27a9.36,9.36,0,0,0-.42,7c1.08,2.87,3.1,4.84,6.25,4.31s3-3.33,3-5.73a14.5,14.5,0,0,0-1.39-6.44c-2.85-5.92-.34-10.92,2.28-16.48,4,4,1.19,8.94,3,12.84,2,15.12,3.64,30.29,9,44.75.56,1.52,1.1,3.17,0,4.74-1.45,3.47-2.83.25-2.88-.38-.64-7.23-4.67-13.42-6.07-20.39-.6-3-1.52-6.31-4.9-6.45a6.74,6.74,0,0,0-6.84,6.08c-.54,3.71-.91,7.09,2.24,11s7.53,8.4,6.3,14.91c-.84,4.44.56,8.73,3.23,12.46.92,1.3,1.59,2.51.15,3.86-5.9-7.72-8.81-16.83-11.6-25.9C466.58,245,466.29,217,469.82,188.82Z"/><path class="cls-18" d="M580.37,368.11a81.67,81.67,0,0,1,30-.07c-2.3,3-5.66,5.51-4.55,10-3.84,6.07-16.75,6.09-20.74,0C585.88,373.66,582.93,371,580.37,368.11Z"/><path class="cls-12" d="M619.2,93.83c-1,1.12-2.32,1-3.59,1H575.28c-1.27,0-2.6.16-3.58-1Z"/><path class="cls-12" d="M722.3,230.18l0-20.68A64.06,64.06,0,0,1,722.3,230.18Z"/><path class="cls-3" d="M297.43,245.15c4.79,3.18,9,1.63,13.47-1.11,6.19-3.79,9.23-1.88,9.87,5.62-3,5.65-8.11,8.79-13.8,11.21-17.63,7.49-36.33,10.46-55.1,13.16-40.3,5.78-80.79,6.15-121.29,3.19-26.07-1.91-52-5.23-76.82-14.16C48,261,42.44,258.59,37.86,254.4c-3.51-3.22-5-6.82-1.66-11.11,1.93-3,4.54-2.61,7.24-1.38,3.49,1.6,6.86,3.47,10.57,4.57,3.08,2.28,6.74,3.2,10.29,4.4,27.21,7.2,54.94,10.28,83,11.77,14.75.78,29.49,1.27,44.18.72,33.52-1.27,67-3.5,99.5-12.71,2.28-.46,4.4-1.66,6.81-1.61.37,0,.62.25.8.67-.31-2.16-4.55-1.57-3.12-4.64C295.78,244.4,296.77,244.82,297.43,245.15Z"/><path class="cls-19" d="M53.86,247.39c-3.67.67-6.18-1.87-8.94-3.46-2.91-1.67-5.66-2.39-8.72-.64-.32-5.65,3.76-8.5,7.57-11.24,8.29-6,18.14-8.29,27.73-11.18,12.74-4.17,26-5.83,39.17-7.85C125.83,210.71,141,211,156.25,211A23.29,23.29,0,0,1,175,219.8c1.3,1.56,2,3.16,1.4,5-.67,2.18-2.68,1.51-4.23,1.55-21.42.6-42.78,2.23-64.07,4.56-4.87.53-9.67,1.69-14.62,2.58,1.54,1.21,3.29.28,4.81.79-.2,1.61-1.47,2-2.73,2.24-13.27,2.54-26.45,5.4-39,10.5C55.71,247.4,54.73,247.07,53.86,247.39Z"/><path class="cls-20" d="M270.52,398.13c-.17,8.71-4.14,21-10.95,32.12-18.89,30.87-46,53.66-74.88,74.56-3.95,2.86-7.8,2.7-11.88-.2-26.81-19-51.52-40.31-70.71-67.23-10.18-14.29-16.7-30.45-15.25-48.31,1.47-18.19,10.39-32.22,27.92-39.25,18.69-7.49,35.21-2.54,50,10.08a80.67,80.67,0,0,1,7,7c7.26,7.92,7.34,8,14.56-.44,7.61-8.95,16.89-15.39,28.17-18.44C244.13,340,270.52,361.54,270.52,398.13Z"/><path class="cls-14" d="M66,302c.29,1.84-.38,3.76-1,5.68-3.87,11.44-5.53,23.57-10.83,34.59-.79,1.66-1,4-3.11,4-1.74.07-2.48-2-3.17-3.47-6.44-14.2-9-29-6.3-44.43,1.37-7.81,6.79-11.87,13.3-11.08C60.78,288,66,294.78,66,302Z"/><path class="cls-6" d="M328.2,262.94c-3.06,3.46-7.08,5.55-11.06,7.71,0-1.51-.09-2.73-1.92-3.4-2.61-.95-4.78-2.95-2.94-5.74s4.92-2.47,7.25-.59C322.22,263.09,324.72,264.78,328.2,262.94Z"/><path class="cls-21" d="M53.86,247.39c10.82-6.19,22.92-8.35,34.85-11,3.19-.72,6.4-1.36,9.6-2,19.11-2.35,38.24-4.43,57.5-5,39.46-1.18,78.75.25,117.56,8.21,8.25,1.7,16.48,3.7,24.06,7.63-1.81,2.83,2.27,1.75,2.24,4l-6.9,2.67c-23.64-7.48-47.89-11.28-72.61-12.94C206,238,191.83,237,177.74,237.17c-31.46.45-62.89,2.26-93.85,8.75-7.23,1.52-13.83,5.12-21.22,6C59.7,250.45,55.74,251,53.86,247.39Z"/><path class="cls-22" d="M495.39,277.2c-6.07-16-9-32.65-10.12-49.68-1.12-4.42-.48-9-.6-13.43-.1-3.82,2.82-6.47,6.36-8,4,.55,1.79,2.76.81,4-2.24,2.92-2.88,6.13-2.95,9.69,0,2.08.57,3.48,2.41,4.39,3.31,7.6,2.51,15.9,4,23.83,6.16,32.89,21.89,59.07,51.54,75.91,39.12,24.46,86.69,14.4,116.73-14.78a103.59,103.59,0,0,0,29.73-53.71,180.69,180.69,0,0,0,4.16-26.17c.57-5.58,2.53-7.66,7.39-8.17,2,3.59.77,7.5,1.13,11.25-1.82,21.08-6.36,41.37-17.44,59.73-1.79,3-3,6.39-6.45,8.06-14.66,18.71-32.69,33-55.57,40.06-40,12.33-74.74,1.86-105.14-25.6C509.85,304.17,502.1,291,495.39,277.2Z"/><path class="cls-23" d="M682.08,300.13c8.08-13.06,15.11-26.52,18.44-41.73,1.84-8.4,2.48-16.94,4-25.36,1.36-5-.53-10.3.85-15.1.83-.3,1.24-.26,1.42.11,2.95,6.14,2.92,6.12,8,.85,1.66-1.72,3.49-3.3,6.22-2.42a48.17,48.17,0,0,0-1.12,13.28c-3,3.66-7.06,6.2-10.18,9.76a11.18,11.18,0,0,0-3,6.22c-.62,4.89.23,5.81,5.3,5.28,2-.2,4-.77,5.68.86-3.06,3.94-4.59,8.26-3.32,13.28-1.74-.66-2.23-2.33-3-3.76-1.15-2.19-2.44-4.29-5.34-3.85s-3.74,2.71-4.24,5.11c-1,4.5-3.55,8.83-.94,13.7,1,1.8-.25,3.83-2,4.63-6,2.78-7.92,8.3-9.72,13.87C688,298.45,685.82,300.21,682.08,300.13Z"/><path class="cls-23" d="M491.87,206.44c-4.94,2.89-7,7.17-6.51,12.86.22,2.72,0,5.48-.09,8.22-2.3-3.34-.21-7.21-1.48-11.35-1.42,5.79-4.2,10.78-.67,16.34,1.14,1.79,1.16,4.17,1.18,6.43,0,3-.8,6.34-3.49,6.69-2.93.39-6.61-.22-8.38-4-1.14-2.43-2.24-5-1.23-7.42,4.41-10.47,1.79-21,1-31.63-.33-4.59-.13-9.21-.17-13.81,0-1.28-.16-2.77,1-3.56,3.93-2.77,3.63-6.79,3.48-10.82.91-3.46,2.5-7-1.11-10,1.69-7.25.46-15.19,5.13-21.75a2.1,2.1,0,0,0,.34-1.58c-2.24-7.26,1.94-13.78,2.45-20.75.29-4.06,4.29-6.84,5.3-11.2.75-3.3,1.62-6.44.66-9.54-1.13-3.67-.33-6.91,1-10.14,1.87-4.57,5.43-5.52,10.1-4.52,4.88,1,6.75,6,11.42,7.33,2.29.66,4.46,1.48,6.82,1.31a16.31,16.31,0,0,1,11.33,3c4,2.89,8.34,1.65,13-3,1.94,1,2.84,2.87,4.06,4.89-.29-1.53-.89-2.77.36-3.78a234.89,234.89,0,0,1,24.45,1.06,14.21,14.21,0,0,1,6.17,1.59c6,3.36,12.9,1.61,19.39,2.1,11.32.85,22-4.36,33.22-4.61,1.83,0,3.87-.46,5.46.17,5.44,2.17,10.52,2.34,15.32-1.42,2.16,5.28,3.75,5.59,7.89,1.46.78-.77,1.27-1.8,2.07-2.57,4.05,1.15,8.05,2.43,11.17-2.07a2.79,2.79,0,0,1,3.94-.72c4.29,3.49,6.36.94,8.13-2.74a6.43,6.43,0,0,1,2.09,2.45c2.14,4.62,5.23,8,10.44,9.42,2.4.69,5.14,1.89,6.28,4.72-1.94,5.8,3.69,9.67,3.81,15.29.08,4.18,3.3,8.23,2,13.05-.27,1,1.27,2.48,2,3.75-1.44,1.33-3,1.17-4.58.31-7.55-4-15.27-7.16-24.17-6-3.78.48-6.81-2.4-10.37-3.24-1.26-.29-1.62-1.91-1.33-3.31.25-1.2,1.11-2.58-.89-3.08a2.71,2.71,0,0,0-3.34,1.29,8.6,8.6,0,0,1-6.75,5c-2.91.49-2.23,4.37-4.63,5.63,7,3.37,7.22,3.85,4.28,10.6-2.28,5.25-4.42,10.53-10.38,13-5.11,2.08-8.81.33-9.82-5-1.14-6.08-6.32-8.39-11.77-5.4-3.45,1.9-4.51,5.76-7.21,8.26-1.45,1.33.32,1.76,1,2.44,1.59,1.64,1.41,3.28-.05,4.87-2.63,2.87-9.16,4-12.81,2.09-1.8-.92-3.44-2.16-5.48-2.58-3.46-.72-7.13-2.16-7,3.95.07,3-2.41,2.87-4.45,2.13-3.28-1.18-6.52-2.48-9.81-3.65-4-1.41-4.53-7.24-.71-10.69,4.85-4.39,9.13-9.43,14.71-13,2.52-1.62,4.23,0,6,1.11,3.05,2,6.12,3.31,9.87,2.24a7.9,7.9,0,0,0,5-4c.52-1,1.28-2,.5-3.05a2.36,2.36,0,0,0-3.47-.46c-4.39,3.55-9.84-.21-14.4,2.24a1.91,1.91,0,0,1-2.59-1.46c-.62-4.16-4-8.23-.53-12.59-2.32,2.48-2.45,2.51-1.81,6.17.39,2.27-.18,4-2.46,4-4.51,0-9,2.4-13.56,0-2.67-1.45-4.36.09-6,2.25-4.33,5.82-4.24,5.52-10.08,1.54-2.48-1.69-5.21-3.66-9-2.6-2.93.82-4.6,1.83-4.41,5a6.19,6.19,0,0,1-.95,4.26c-5.12,6.28-4.3,13.87-4.38,21.07,0,5.29-2.51,9.12-5.43,12.91-1.16,1.5-2.81,2.63-4.59.5-.93-8.14.87-16.06,2-24,1.45-10.2,3.43-20.31,5.21-30.46.22-1.26.48-2.53.59-3.81.59-6.62-2.86-12.3-8.09-13.36s-10.06,2.4-12.07,9c-3.24,10.6-4.42,21.6-5.82,32.54a385.11,385.11,0,0,0-2.92,50,1.8,1.8,0,0,1-.93,1.37C504.6,201.31,498.5,204.61,491.87,206.44Z"/><path class="cls-12" d="M534.05,178.86c4.53-1.8,6.48-6.08,7.46-10,1.18-4.68.9-9.87.94-14.72,0-3.42.45-5.77,2.48-8.29,1.22-1.5,2.41-3.12,2.46-5.41.06-3.37-1.61-8.49,5.33-6.74.39.1,1.32-1.93,2.22-3.3,1.66,1.4,1.88,5.18,5.5,3.52,1.24-.57,2.17,1.08,3,2.06,3.65,4.44,4.53,4.5,7.27-.77,2.12-4.08,4.44-5.52,8.67-2.88s8.69-1.21,13.19-.3c1.19.24.63-1.64,0-2.57-1.94-2.9.18-5.28,1.17-7.69.9-2.19,2.69-1.49,4.14-.5,2.11,1.44.58,2.32-.58,3.31-1,.86-.69,10.37.27,11.33.12.13.35.34.39.31,4.1-2.66,9.35.7,12.62-1.37,3-1.9,5-2.24,7.78-1.12.94.37,1.84,1.22,1.21,2.06-2,2.67-2.28,6.47-6.27,7.82a12.52,12.52,0,0,1-12.85-2.31c-1.75-1.4-2.8-.86-5.26.23-5,2.26-6.6,7.51-11.15,9.66a7.1,7.1,0,0,0-4.42,7.57c.38,3.42,3.11,3.25,5.75,3.72,2.24.39,4.23,2.07,6.42,3s3.61.6,2.92-2.34c-1.16-5,.88-5.64,5.36-4.59a24.37,24.37,0,0,1,9.07,3.59c4.44,3.15,9.23,0,11.26-2.37,3.42-4-2.72-2.54-4.88-4.89,6-1.41,6.07-7.9,10.78-10.59,3.39-1.93,6.5-1.82,10-.8,4.07,1.19,4.34,3.89,4.16,7.6-.19,3.93,3.71,5.45,7.66,3.86,5.49-2.22,7.42-7.15,9.77-11.83s2.9-8.24-3.7-9.88c-1.77-.44,1.33-1.57,1.44-2.92.31-3.62,1.18-6.54,6.13-5.3,1.58.4,2.36-1.83,3-3.44,1.25-3.12,6.56-4,8.76-1.57,1,1.13.67,1.91-.64,2.46-1.92.82-1.55,3.41-.71,3.24,4.37-.9,6.8,4.19,11.3,3,3.92-1.07,8.27-2.22,11.68,1.91.61.74,2.4.62,3.65.69,3,.17,6.22-.79,7.72,3.34.61,1.68,3,1,4.56,1.12,1.84,4,.8,8.11,0,12.17-1.61,6.52-1.26,7.39,4.43,11.06.16,7.43,3.06,14.59,2.21,22.13-9.38,3.91-9.54,4.8-2.36,12.59.5.54.79,1.23,1.28,1.79,2.21.17,3.37,1.42,3.27,3.59-.27,5.86,1.9,11.55,1.14,17.44-2.8,1.33-5.51,2.55-6.9,5.79-.8,1.84-2.22,4.19-4.84,3.67-3.2-.63-2.6-3.44-2.68-5.77a7.21,7.21,0,0,0-.56-1.75c-1.54,5,.88,10.06-1.5,14.62q-.06-6.07-.13-12.14a2.93,2.93,0,0,1-1.07-1.87c0-10.23-7.51-13.55-15.28-16.34a121,121,0,0,0-20.74-5.52c-1.9-.32-4.17-.1-5.2-2.41-6.56-2.31-13.5-2.45-20.27-3.2A375,375,0,0,0,582,189.47c-12,.6-24.2.62-36.15,2.87a16.63,16.63,0,0,1-4.4.2c-3.17-.24-7.2,1.22-9-2.39C530.43,186.33,531.22,182.29,534.05,178.86Z"/><path class="cls-12" d="M717.71,251.88a26.43,26.43,0,0,0-6.47.81c-4.71,1.14-6.64-1.1-6.09-5.81,1.07-9.15,7.79-13.19,14.77-17.12C721,237.31,719,244.56,717.71,251.88Z"/><path class="cls-12" d="M703.34,103.62c-3.8-1.62-7.36-3.7-11.2-5.31-4.56-1.9-6.24-6.71-7.61-11.28,3.89.29,6.84-4.16,11.06-2.21,1.1,2.83,2.29,5.57,5.52,6.63C702.28,95.43,705.06,99.11,703.34,103.62Z"/><path class="cls-23" d="M716.63,195.45a22.33,22.33,0,0,1-2.44-1.24c-3.35-2.28-6.1-5.16-5.1-9.49,1.09-4.71,5.28-3.49,8.62-3.65C713.69,185.59,716.08,190.59,716.63,195.45Z"/><path class="cls-12" d="M661.29,92.56c.63,5.26-4.16,6.73-7.06,7.25-4.07.73-3.79-3.12-2.9-6.14C654.66,93.4,657.87,92,661.29,92.56Z"/><path class="cls-23" d="M715.5,158.94c-7.14-.57-8.7-4.48-4.43-11.06C710.57,152.36,715.26,154.76,715.5,158.94Z"/><path class="cls-12" d="M547.32,94.78C546.6,97.2,549.13,98,550,100c-4.93.4-5.5-3.58-7.14-6.34A7.2,7.2,0,0,1,547.32,94.78Z"/><path class="cls-17" d="M475.39,164.47c6.32,2.66,2.54,6.44,1.11,10A26.64,26.64,0,0,0,475.39,164.47Z"/><path class="cls-23" d="M701.11,91.45c-4.63.12-5.23-3.13-5.52-6.63C696.74,87.6,700.85,87.92,701.11,91.45Z"/><path class="cls-24" d="M62.67,251.88c8.49-5,18-7.06,27.49-8.77,23.91-4.28,48-6.13,72.28-7.13,16.24-.68,32.38-.07,48.49.7,26.57,1.27,53.06,3.95,78.49,12.73,1.4.48,2.91.71,3.35,2.45-20.56,6.09-41.69,9-63,10.95a539.63,539.63,0,0,1-70.67,2.09C126.6,263.64,94.13,261.36,62.67,251.88Z"/><path class="cls-25" d="M131,355.14c18.65,0,30.82,10.6,40.62,25.05,6.65,9.81,8.39,9.49,15-.69,10.59-16.37,25-26,45.48-24.3,13.57,1.12,26.23,14.18,29.23,28,4,18.58-3,33.93-12.38,48.5-17,26.34-41,45.73-65.77,64.24-2.39,1.79-4.89,2.76-7.59.65-28.66-22.44-57.82-44.47-74.54-78.23-5.87-11.86-7.75-24.36-4-37.46C101.57,364.73,114,355.15,131,355.14Z"/><path class="cls-26" d="M546.15,325c-29.74-16.23-45.35-42.35-51.8-74.66-1.72-8.59-2.39-17.38-3.55-26.08a3,3,0,0,1,3.63.08c11.95,7.43,25.65,9.17,39.05,11.23,29.6,4.58,59.52,4.41,89.34,3.35a304.54,304.54,0,0,0,49.33-6c6.11-1.24,8,.4,7,6.56-1.09,6.72-2.51,13.41-5.28,19.7-4.85,13.86-11.63,26.7-21.3,37.77-18.54,21.24-41.4,33.63-70.25,34.05C569.79,331.11,557.75,329.73,546.15,325Z"/><path class="cls-27" d="M672.35,259.62c1.69-6.36,3.48-12.69,5-19.08,1.65-6.68.78-7.38-5.66-6-13.43,2.77-27.06,4-40.7,5.36-17.63,1.79-35.25,1-52.87.88a296.88,296.88,0,0,1-71.68-8.94c-5.7-1.44-10.57-4.8-15.68-7.56-1.42,0-3.33,1.27-3.29-1.74.06-5-.76-10.24,4-13.9.67-.51,1.44-1.25.33-2.15,5.55-4.43,12.22-6.11,18.93-7.68,2.39,3.58.9,5.87-2.54,7.4-3.19,1.43-6.6,2.39-9.59,4.25-2,1.27-4.35,2.57-4.3,5.32s2.5,4,4.66,4.94a98.46,98.46,0,0,0,21.08,6.47,394.16,394.16,0,0,0,90.76,6.4c25.34-1.13,50.87-1.94,75.13-10.95.35-.12.71-.21,1-.36,3.42-1.52,8.6-1.88,8.53-6.55-.07-4.3-4.82-5.71-8.34-7.12-11.57-4.63-23.81-6.57-36.07-8-21-2.46-42.18-4.26-63.37-3.38-15.25.64-30.53,1.16-45.71,3.19-4.4.59-6.63,2.34-6.61,7a53.27,53.27,0,0,1-1.34,9.85c-.19,1-.48,2.43-1.83,2.39s-1.52-1.4-1.75-2.44c-.38-1.81-.2-3.68-.4-5.52,0-4,0-8.1,0-12.15s1.58-6.53,6-6.93c9.14-.83,18.26-1.85,27.4-2.63,4.37-.23,8.78.54,13.11-.58a305,305,0,0,1,40.56,0c3.94,1,8,.37,11.93.54,11.08,1,22.25,1.39,33,4.49,8.31,2.13,16.62,4.24,24.93,6.39a37.27,37.27,0,0,1,9.52,4.13c6.14,3.59,9.36,8.6,7.72,16-8,4-5.13,12.07-6.45,18.42-1.17,5.66-1.82,11.43-3.5,17-5.72,3.91-12.51,4.81-19,6.59C673.75,263.39,671.29,262.77,672.35,259.62Z"/><path class="cls-28" d="M672.35,259.62c.76,3.34,3.32,2.55,5.12,1.72,5.45-2.52,11.22-3.76,17-5-5.65,27.43-20.4,48.92-43.2,64.81-18,12.51-38.08,18.95-60.07,18.09A86.06,86.06,0,0,1,546.15,325c5.87-.59,11,2.53,16.59,3.37,34.08,5.08,63.18-4.46,86.55-29.81A100.32,100.32,0,0,0,670.71,263C671.11,261.83,671.08,260.39,672.35,259.62Z"/><path class="cls-29" d="M531.71,211.91c.18,2.18.36,4.36.67,8,.64-5.65,1.8-9.92,1.43-14-.46-5.06,1.92-6.51,6.07-6.94,7.67-.78,15.31-1.95,23-2.22,15.44-.54,30.89-2.13,46.34-1.13,24.86,1.62,49.85,2.35,74,9.72a37.23,37.23,0,0,1,11.44,5.26c5.28,3.9,5.08,7.81-1,10.65a108.48,108.48,0,0,1-27.25,8.54c-14.66,2.6-29.43,3.75-44.29,4.72a411.63,411.63,0,0,1-45.24.56C552,233.92,527.07,232,503.1,224.1a28.05,28.05,0,0,1-8-3.64c-4.17-3-4.42-5.81-.49-9.3a26.44,26.44,0,0,1,11.71-5.86c3.89-.9,5.15-2.87,4.48-6.54a2.06,2.06,0,0,1,1.07.13c2.3,2.49,1.4,5.58,1.47,8.43.11,4.86.71,9.58,3.31,13.78,1.6,2.59,3.67,4.82,7.13,4.15,3.63-.7,4.86-3.42,5.42-6.79C529.58,216.16,528.26,213.07,531.71,211.91Z"/><path class="cls-14" d="M531.71,211.91c-1.2,2-.58,4.3-.75,6.45-.36,4.57-2.66,7.6-7.06,8.7s-6.89-1.93-8.74-5.11c-3-5.22-3.4-11.13-3.44-17,0-2,.1-4,.15-6,.14-1.34-3.34-.59-1.54-3.49,1.25-2,.42-5.36.47-8.11a346,346,0,0,1,7.8-69.62c1.76-7.94,6.09-12.53,11.65-12.94,8.41-.62,14.18,7.68,12.26,17.31-3.5,17.54-6.27,35.2-8.44,53a33.12,33.12,0,0,0,0,3.86c0,.37,0,.74,0,1.1-1.31,11.57.16,12.9,11.93,10.93a153,153,0,0,1,22.92-2.11c8.61-.13,17.16-1.26,25.82-1.16,23.82.29,47.55,1.26,71.07,5.94-1,1.34-2.4.44-3.51.86l-33.1-3.53c-3.71-1.17-7.62.28-11.33-.83l-41.52,0c-4.06,1.17-8.3-.32-12.35.82-9.27,1-18.53,2.22-27.82,3.07-3.24.29-4.5,1.49-4.38,4.75C531.93,203.08,531.74,207.5,531.71,211.91Z"/><path class="cls-12" d="M559.38,129.63c1.74-6,6.87-6.76,8.59-10.8.56-1.3,2.46.41,2.12,1.65-.67,2.52-.54,5-.71,7.55-.08,1.31-.91,2.29-2.08,1.36C565,127.59,562.7,127.68,559.38,129.63Z"/><path class="cls-12" d="M655.68,110.11c-1.35,1.54-1.36,4.38-3.66,5.34-1.27.53-2-1-1.48-2,1.08-2-.19-5.17,2.8-6C654.87,107,655.45,108.43,655.68,110.11Z"/><path class="cls-12" d="M669.17,97.37A14.3,14.3,0,0,1,672,95.14a1.36,1.36,0,0,1,1.87,1.3,2.28,2.28,0,0,1-2.1,2.12C671.09,98.62,670.31,97.92,669.17,97.37Z"/><path class="cls-30" d="M536.31,285.22a10.27,10.27,0,0,1-6.65-3.68c-7.84-8.6-11.48-19.12-13.15-30.34-.73-4.92,3-9.66,7.14-10.44,4.39-.83,8.73,2,10.36,7.09,2.87,8.9,5.69,17.82,8.36,26.78C544.23,280.9,541.76,285.39,536.31,285.22Z"/><path class="cls-12" d="M564,190.86c4-2,8.22-.67,12.35-.82C572.25,191.16,568.1,191,564,190.86Z"/><path class="cls-12" d="M617.83,190.06c3.79.11,7.68-1.16,11.33.83C625.36,190.9,621.54,191.29,617.83,190.06Z"/><path class="cls-2" d="M198.45,9.18c-.31,7.61-4.8,14.48-12.08,20.35-3.08,2.49-6.41,4.78-9.08,7.56-6,6.22-5.68,14.36.9,20.22,3.48,3.1,7.36,5.93,10.79,9.06,12.94,11.8,12.86,28.46-.2,40.23-3.22,2.9-6.82,5.53-10.1,8.39-7.63,6.68-7.56,15.62.14,22.26,3.63,3.13,7.57,6.05,11.07,9.26a25.26,25.26,0,0,1,8.6,18.38c.16,4.52-3.55,7.85-8.82,8-5.48.14-9.28-2.74-9.43-7.4s-2.42-8.22-6.27-11.41c-3.21-2.65-6.57-5.2-9.66-7.93-12.73-11.26-12.81-28.75-.15-40.05,3.48-3.11,7.38-5.92,10.84-9,7.06-6.35,7-15,0-21.36-2.65-2.39-5.62-4.56-8.42-6.86-16-13.14-15.88-31.33.29-44.36,2.49-2,5-4,7.47-6,3.58-3,5.64-6.47,5.88-10.63.27-5,3.83-7.93,9.31-7.84S198.57,3.33,198.45,9.18Z"/><path class="cls-2" d="M216.08,138.54c-.18-6.57,3-12,8.74-16.66,2-1.59,4-3.13,5.83-4.81,3.66-3.37,3.73-7.65.17-11.12a65.18,65.18,0,0,0-5-4.2c-13.17-10.43-13.29-24.26-.12-34.75,4-3.18,7.73-6.14,8.09-11.17.28-3.89,4.91-6.13,9.76-5.77s8,3.31,8.09,7.31c.17,6.34-2.94,11.65-8.35,16.19-1.84,1.55-3.87,3-5.63,4.55-4.67,4.26-4.52,8.52.34,12.64,1.58,1.35,3.25,2.63,4.84,4,12,10.05,12,23.58-.13,33.52-1.27,1.05-2.57,2.07-3.86,3.09-6.16,4.9-6.19,9.34-.09,14.39,2.87,2.37,6,4.57,8.27,7.35a18.27,18.27,0,0,1,4.6,12.88c-.16,3.67-3.34,6.42-7.86,6.88s-9.5-1.63-9.8-5.29c-.45-5.55-4.69-8.85-9.09-12.36C218.57,150.16,216.08,145.21,216.08,138.54Z"/><path class="cls-2" d="M101.66,138.7c-.2-6.33,2.73-11.69,8.12-16.27,2.08-1.76,4.33-3.41,6.33-5.23,3.8-3.47,3.88-7.81.16-11.34-1.87-1.78-4-3.37-6-5-11.53-9.62-11.69-22.9-.36-32.65,1.65-1.42,3.45-2.74,5.14-4.13,2.35-1.93,3.8-4.08,4-6.92.27-4.47,4.33-7.29,9.55-7.08s8.67,3.29,8.66,7.75c0,5.9-2.76,10.92-7.73,15.22-2,1.71-4.11,3.32-6.1,5-4.72,4-4.73,8.71,0,12.66,3.28,2.73,6.87,5.25,9.48,8.45,6.92,8.48,5.69,19.92-3,27.71-2.18,2-4.63,3.72-6.82,5.67-4.26,3.77-4.29,8.21-.07,12,2.81,2.54,6,4.86,8.61,7.51a17.73,17.73,0,0,1,5.58,14.07c-.23,3.7-3.75,6.5-8.4,6.81-4.42.29-9.11-2-9.31-5.5-.32-5.47-4.53-8.7-8.89-12.12C104.76,150.74,101.54,145.27,101.66,138.7Z"/></svg>