<?xml version="1.0" encoding="UTF-8"?>
<svg id="Layer_1" data-name="Layer 1" xmlns="http://www.w3.org/2000/svg" viewBox="0 0 1117.57 811.62">
  <defs>
    <style>
      .cls-1 {
        fill: #975023;
      }

      .cls-2 {
        fill: #f9a889;
      }

      .cls-3 {
        fill: #461b10;
      }

      .cls-4 {
        fill: #653316;
      }

      .cls-5 {
        fill: #a55525;
      }

      .cls-6 {
        fill: #f69671;
      }

      .cls-7 {
        fill: #f8a98b;
      }

      .cls-8 {
        fill: #7d8f58;
      }

      .cls-9 {
        fill: #ee6434;
      }

      .cls-10 {
        fill: #f07b56;
      }

      .cls-11 {
        fill: #675d55;
      }

      .cls-12 {
        fill: #3c2213;
      }

      .cls-13 {
        fill: #6a6057;
      }

      .cls-14 {
        fill: #fcead2;
      }

      .cls-15 {
        fill: #a15325;
      }

      .cls-16 {
        fill: #9e867f;
      }

      .cls-17 {
        fill: #f9bba5;
      }

      .cls-18 {
        fill: #ed6131;
      }

      .cls-19 {
        fill: #a25525;
      }

      .cls-20 {
        fill: #311b10;
      }

      .cls-21 {
        fill: #7d8e5a;
      }

      .cls-22 {
        fill: #ee6536;
      }

      .cls-23 {
        fill: #f8ac8f;
      }

      .cls-24 {
        fill: #f8ae91;
      }

      .cls-25 {
        fill: #dc7a49;
      }

      .cls-26 {
        fill: #f89b6c;
      }

      .cls-27 {
        fill: #997f74;
      }

      .cls-28 {
        fill: #f06b43;
      }

      .cls-29 {
        fill: #89441f;
      }

      .cls-30 {
        fill: #a65726;
      }

      .cls-31 {
        fill: #f8a07d;
      }

      .cls-32 {
        fill: #f06e44;
      }

      .cls-33 {
        fill: #f2724a;
      }

      .cls-34 {
        fill: #f58960;
      }

      .cls-35 {
        fill: #a75926;
      }

      .cls-36 {
        fill: #ee6c43;
      }

      .cls-37 {
        fill: #f9aa8c;
      }

      .cls-38 {
        fill: #89461f;
      }

      .cls-39 {
        fill: #f4845c;
      }

      .cls-40 {
        fill: #6f655c;
      }

      .cls-41 {
        fill: #f58861;
      }

      .cls-42 {
        fill: #f9b9a1;
      }

      .cls-43 {
        fill: #f69069;
      }

      .cls-44 {
        fill: #f9baa4;
      }

      .cls-45 {
        fill: #a35425;
      }

      .cls-46 {
        fill: #a85a26;
      }

      .cls-47 {
        fill: #7e756e;
      }

      .cls-48 {
        fill: #9f5324;
      }

      .cls-49 {
        fill: #7e756f;
      }

      .cls-50 {
        fill: #7c8d58;
      }

      .cls-51 {
        fill: #a05324;
      }

      .cls-52 {
        fill: #974c22;
      }

      .cls-53 {
        fill: #f79569;
      }

      .cls-54 {
        fill: #f17e54;
      }

      .cls-55 {
        fill: #4e1d11;
      }

      .cls-56 {
        fill: #f9a98a;
      }

      .cls-57 {
        fill: #eb6c3e;
      }

      .cls-58 {
        fill: #ed5f31;
      }

      .cls-59 {
        fill: #2b2f19;
      }

      .cls-60 {
        fill: #aa5a26;
      }

      .cls-61 {
        fill: #f1714a;
      }

      .cls-62 {
        fill: #9c7b71;
      }

      .cls-63 {
        fill: #f69067;
      }

      .cls-64 {
        fill: #ef6637;
      }

      .cls-65 {
        fill: #ae5d27;
      }

      .cls-66 {
        fill: #f3784c;
      }

      .cls-67 {
        fill: #633215;
      }

      .cls-68 {
        fill: #a75626;
      }

      .cls-69 {
        fill: #f9ae91;
      }

      .cls-70 {
        fill: #f8b094;
      }

      .cls-71 {
        fill: #ed6231;
      }

      .cls-72 {
        fill: #f8a889;
      }

      .cls-73 {
        fill: #512a14;
      }

      .cls-74 {
        fill: #ef7d4e;
      }

      .cls-75 {
        fill: #f8bca8;
      }

      .cls-76 {
        fill: #6a5c5a;
      }

      .cls-77 {
        fill: #f06f45;
      }

      .cls-78 {
        fill: #ec6231;
      }

      .cls-79 {
        fill: #70645d;
      }

      .cls-80 {
        fill: #f68b65;
      }

      .cls-81 {
        fill: #f08154;
      }

      .cls-82 {
        fill: #f9ab8c;
      }

      .cls-83 {
        fill: #a85926;
      }

      .cls-84 {
        fill: #2a1911;
      }

      .cls-85 {
        fill: #f8a98c;
      }

      .cls-86 {
        fill: #ecb69f;
      }

      .cls-87 {
        fill: #f69169;
      }

      .cls-88 {
        fill: #2e1b11;
      }

      .cls-89 {
        fill: #ee6334;
      }

      .cls-90 {
        fill: #70655e;
      }

      .cls-91 {
        fill: #f0936a;
      }

      .cls-92 {
        fill: #f17046;
      }

      .cls-93 {
        fill: #552c14;
      }

      .cls-94 {
        fill: #7e8f59;
      }

      .cls-95 {
        fill: #f27448;
      }

      .cls-96 {
        fill: #6e645e;
      }

      .cls-97 {
        fill: #934a21;
      }

      .cls-98 {
        fill: #f8bba7;
      }

      .cls-99 {
        fill: #ac5b27;
      }

      .cls-100 {
        fill: #7b8c57;
      }

      .cls-101 {
        fill: #ee6636;
      }

      .cls-102 {
        fill: #de5726;
      }

      .cls-103 {
        fill: #6a3616;
      }

      .cls-104 {
        fill: #756e66;
      }

      .cls-105 {
        fill: #f37d51;
      }

      .cls-106 {
        fill: #ee683f;
      }

      .cls-107 {
        fill: #a95926;
      }

      .cls-108 {
        fill: #f5865e;
      }

      .cls-109 {
        fill: #f7aa8c;
      }

      .cls-110 {
        fill: #f4a283;
      }

      .cls-111 {
        fill: #481c11;
      }

      .cls-112 {
        fill: #f9bca4;
      }

      .cls-113 {
        fill: #a15425;
      }
    </style>
  </defs>
  <path class="cls-95" d="M755.54,224.42c-11.78,7.77-24.41,13.82-37.47,18.62l-24.25,8.91c-1.47.54-3.58-.84-4.06-2.33-4.37-13.63-9.73-26.2-15.72-39.21-8.77-19.06-13.46-38.47-3.2-57.31,4.26-7.82,10.94-13.29,18.92-13.91,9.49-.74,17.07,3.31,22.74,10.86,4.56,6.07,6.03,13.34,6.97,21.03l.88,7.2c9.24-6.62,19.78-13.35,31.15-12.59,14.28.95,22.55,12.39,21.8,25.51-.38,6.63-.85,12.36-4.29,18-3.52,5.77-7.12,11.02-13.47,15.21Z"/>
  <path class="cls-11" d="M391.42,200.33l-21.95-.08c-.69,0-1.09-.55-1.04-.95l21.94-.03c.68,0,1.12.63,1.05,1.06Z"/>
  <path class="cls-13" d="M126.62,373.15c-.4.06-.98-.35-.98-1.04v-21.95c.63.17,1.03.88,1.03,1.94l-.05,21.05Z"/>
  <path class="cls-79" d="M351.45,784.83l-19.05.04c-1.07,0-1.82-.38-1.93-1.05l19.95.02c.7,0,1.11.59,1.04.99Z"/>
  <path class="cls-90" d="M127.62,404.12c-.41.06-.98-.35-.98-1.04v-18.92c.62.16,1.03.87,1.03,1.91l-.05,18.05Z"/>
  <path class="cls-76" d="M128.64,438.1c-.43.05-1-.36-1-1.04v-18.94c.67.12,1.02.86,1.02,1.93l-.02,18.06Z"/>
  <path class="cls-104" d="M125.62,337.17c-.39.07-.99-.36-.99-1.04l.02-17.95c.64.11,1.03.86,1.03,1.94l-.06,17.05Z"/>
  <path class="cls-27" d="M713.16,484.06c-.66-.1-1.06-.86-1.06-1.93l.06-16.05c.66.1,1.05.85,1.04,1.92l-.05,16.06Z"/>
  <path class="cls-79" d="M377.42,783.82c-.1.66-.86,1.05-1.93,1.05l-13.06-.06c.11-.67.86-1.05,1.93-1.05l13.06.06Z"/>
  <path class="cls-62" d="M714.16,511.04c-.67-.12-1.06-.87-1.06-1.94l.05-13.06c.71.13,1.03.86,1.03,1.92l-.03,13.08Z"/>
  <path class="cls-96" d="M630.22,296.18l-13.99.05c3.39-1.58,10.59-1.58,13.99-.05Z"/>
  <path class="cls-40" d="M131.64,508.05c-.69-.12-1.08-.87-1.07-1.94l.44-12.11c1.19,4.67.55,9.28.64,14.05Z"/>
  <path class="cls-16" d="M1015.9,404.12l-.05-11.06c0-1.07.41-1.83,1.03-1.94l.09,11.08c0,1.06-.41,1.83-1.07,1.92Z"/>
  <g>
    <path class="cls-14" d="M571.97,527.91c21-5.54,38.35-16.58,53.81-31.33,18.14-17.3,31.82-38.22,38.27-62.62,8.58-32.47,1.91-73.58-31.99-83.72-19.02-4.1-38.13,1.98-51.95,16.36l1.46-53.37c17.77-7.49,36.9-10.29,56-7.55,24.14,4.26,43.99,18.06,55.55,39.57,9.28,16.5,13.1,34.34,13.51,53.61.84,39.16-12.82,76.9-36.48,108.16-18,23.5-40.27,42.11-65.66,57.18l-39.53,19.95,7.01-56.25Z"/>
    <path class="cls-49" d="M627.18,358.34c-3.68-.58-8.19-.46-11.92-.05,2.69-1.71,9.26-1.71,11.92.05Z"/>
  </g>
  <path class="cls-53" d="M363.73,190.09c-2.54,4.76-9.23-2.37-14.56-7.57-6.26-6.1-12.24-13.2-13.45-22.27-2.43-18.33,5.98-32.93,18.23-46.45,7.88-8.69,15.4-17.62,17.16-29.64,2.22-15.19-3.93-29.38-13.27-41.12-.88-1.11-.53-2.94.02-3.66,2.92-3.85,16.79,4.54,23.52,12,19.98,22.19,20.92,53.98-2.32,74.66l-8.94,7.96c-10.64,9.47-14.89,23.2-11.63,37.25,2.31,9.95,7.26,15.06,5.24,18.83Z"/>
  <path class="cls-26" d="M432.9,181.48c-1.43,7.79,3.7,12.47,2.08,15.82-3.31,6.83-31.63-21.19-8.74-54.19,6.39-9.21,13.48-17.5,17.91-27.8,6.99-16.24,5.69-34.58-5.51-48.1-1.67-2.02-3.29-3.38-1.75-5.88,1.17-1.91,4.14-2.82,6.74-.97,16.7,11.87,27.51,31.94,26.42,52.55-.68,12.88-6.48,23.44-14.09,32.89-5.3,6.58-11.24,8.05-20.12,23.82-2.02,3.59-2.17,7.58-2.96,11.86Z"/>
  <g>
    <g>
      <path class="cls-59" d="M1010,760.86c-3.98.81-8.17.81-12.17.03-14.29.04-28.69-7.32-38.46-18.32-1.59-1.79-1.88-3.88-4.47-3.84l-1.83.79c-4.28-1.1-8.72-1.87-13.33-2.29l-.4-1.62-7.59-.69-1.01,2.09c-5.88,1.77-11.77,3.44-17.68,5.02.27.73.62,1.84.18,2.16-3.39,2.51-13.36,7.69-17.21,6.99-.11-.02,1.77-.58,1.04,1.18-1.16,2.9-4.94.87-6.9,1.46l-28.54,8.64c-2.39.72-4.74.66-6.13-1.61-.84-1.36-.58-3.55.57-5.09.2-.76.92-1.1,2.17-1,9.77-.4,17.76-8.2,25.73-7.96.69.02,1.15-.5.98-1.19.44-1.98,2.16-3.38,5.16-4.21l1.18-12.49-6.08-7.26.64-2.34c-2.01-2.4-3.1-5.39-3.89-8.58-4.88-4.77-4.66-15.26-4.45-22.18.13-4.35.98-16.69,3.73-19.12.52-.46,1.13-.82,1.76-1.15-1.63-.28-1.74-.71-.17-1.17.47-2.96,4.34-12.66,6.43-13.77.76-.41,1.63-.32,2.44-.11-.39-3.26,1.49-5.98,4.09-7.73,11.53-7.77,21.65,3.73,22.09,15.19,2.08.61,2.58,1.91,3.24,3.65,2.84,7.45,2.39,32.95-1.31,39.71-.59,1.08-1.72,1.69-2.8,2.18,2.74,2.36-1.1,7.92-4.22,8.8,1.04,2.86-.07,5.77-3.34,8.72-4.2,2.91-6.18,6.53-5.93,10.87,16.93-7.38,33.1-16.37,48.51-26.99l3.09-.81c-.35-3.02-.43-6.17-.25-9.44l2.21-1.57-1.78-1.26,3.5-15.42c-2-1.41-2.77-2.69-2.87-5.24-3.67,1.01-6.25-5.71-5.73-9.07-.67-.25-1.32-.52-1.89-.91-5.42-3.64-7.52-26.76-7.1-33.8.42-7.14,5.26-29.61,11.35-32.5.63-.3,1.31-.48,2.01-.62,1.16-3.38,3.23-9.27,7.36-7.79,2.22-8.17,14.29-1.87,14.16,4.91,4.91-.19,6.28,5.89,6.45,10.15,4.7,2.51,5.74,10.55,6.35,15.81,1.45,12.59-.52,30.16-8.42,40.21l.84,3.33c-1.93,3.31-3.75,6.6-5.49,9.86-4.83,4.75-6.25,9.05-7.33,15.49,2.88-1.68,5.02-1.93,6.41-.74.34-2.49,3.17-5.85,5.76-5.32,5.71-2.72,11.64-7.52,14.1-13.94l.72-5.29c.38,1.64.09,3.18.76,5.34,8.51-10.36,16.32-21.04,22.21-33.43,1.45-3.05-.01-6.5-.52-9.8-5.48-35.6,9.16-72.29,42.15-88.42,8.29-4.06,9.47,11.26,9.84,22.73,1.06,33.46-12.84,59.59-42.71,75.37-7.67,16.06-17.62,30.06-29.54,43.17,4.08.55,9.17.54,12.28-1.5,18.24-26.45,56.91-32.92,80.55-11.99,3.31,2.93,2.61,6.77.58,10.05-8.74,14.18-23.4,23.16-40.19,23.83-15.18.61-29.27-3.52-40.58-14.13l-16.63,2.81c-2.79,5.48-7.11,9.55-12.27,12.83l-3.68,16.45c19.69-7,40.55-1.13,55.93,12.03,3.62,3.1,7.71,5.88,9.66,10.22.74,1.65,1.32,5.56-.22,6.96-9.25,8.4-21.09,14.64-33.17,14.67Z"/>
      <path class="cls-55" d="M954.9,738.73c-.88,1.23-2.46,2.13-4.27,2.85-13.38,5.35-27.13,8.52-41.5,10.48-4.32.59-8.1,1.47-12.06.3-.67-.43-1.69-.07-1.89-2.12,3.96.48,6.25-2.12,8.6-3.35l9.28-4.87c6.1-1.55,12.26-3.17,18.49-4.88l.2-2.23c4.81-.33,16.87,1.22,17.64,1.64,1.8.99,3.79,2.2,5.51,2.18Z"/>
      <path class="cls-57" d="M986.35,669.01c-.99,0-1.88.98-2.68,2.97l-3.68-.13c-.69,6.04-1.72,11.36-5.04,16.35-2.72,1.4-5.28,3.26-9.17,3.63l3.17-12.98c5.19-5.64,9.08-11.69,11.57-18.59l8.25-6.56-2.41,15.3Z"/>
      <path class="cls-110" d="M986.35,669.01l-5.63,13.87c-1.09,2.7-3.28,4.05-5.76,5.32-1.07-.25-1.23-1.26-.99-1.74l1.22-2.47c2.16-4.36,2.11-9.92,3.32-14.71l4.05.81c1.33.27,2.5-1.17,2.92-2.33.72.54.64,1.03.88,1.25Z"/>
      <path class="cls-21" d="M1050.87,606.43c-6.21,9.77-15.41,15.59-25.09,21.91-3.89-18.55-1.55-36.81,5.71-53.64,6.54-13.17,15.78-23.68,30.11-30.23,3.93,20.87,1.08,43.38-10.74,61.96Z"/>
      <path class="cls-8" d="M1036.4,741.88c-23.37,18.85-53.69,15.5-73.5-6.38,22.27-21.41,53.55-17.64,73.5,6.38Z"/>
      <path class="cls-100" d="M965.49,673.33c-6.05-5.44-8.96-11.59-11.46-18.54-7.49-20.88-3.38-43.58,12.15-60.27,21.47,20.14,14.18,53.75-.7,78.8Z"/>
      <path class="cls-50" d="M1085.63,670.78c-15.7,25.03-46.77,28.19-69.23,10.22,16.35-23.27,47.22-28.55,69.23-10.22Z"/>
      <path class="cls-94" d="M902.85,651.41c18.54,16.76,12.95,54.74-5.35,71.39-16.31-18.99-13.32-53.19,5.35-71.39Z"/>
      <path class="cls-81" d="M955.16,706.82c-16.59,12.6-34.45,23.11-54,31.65l1.05-10.43c4.53-3.67,8.22-8.03,10.61-13.02l5.04-2.69c12.11-1.74,24.05-4.7,35.63-8.4,2.39-.11,3.11.9,1.67,2.89Z"/>
      <path class="cls-111" d="M957.13,695.8c-.9,4.25,1.22,8.59-1.97,11.01.14-.58-.28-.86-.77-.94-.7-.11-1.16.19-1.98.45-13.14,4.22-26.24,7.08-39.59,8.69l4.22-8.8c2.12-.16,4.17-.3,5.98-1.18l.91-2.29c5.81-1.48,11.62-2.96,17.43-4.43l1.89,1.58c.58-3.05,6.83-5.54,8.7-2.79-.18-2.92,3.92-3.9,5.17-1.3Z"/>
      <path class="cls-74" d="M972.6,703.31c1.36,15.53-7.3,18.66-18.69,26.54-5.61,0-10.41.06-16.38-1.23l35.06-25.31Z"/>
      <path class="cls-91" d="M957.13,695.8l-5.17,1.3c-.5-.03-.83-.42-.68-.96,2.11-7.57,3.83-14.76,4.7-22.26,1.04,1.65,3.83,2.51,4.76,4.95l-3.61,16.97Z"/>
      <path class="cls-25" d="M931.75,734.91c2.03,1.71,4.6.78,7.74,1.12-6.9,3.89-14.31,4.4-22.1,6.29-1.65.4-3.57.87-4.33-.3l10.14-4.93c3.15-1.53,5.66-1.97,8.55-2.17Z"/>
    </g>
    <g>
      <path class="cls-20" d="M394.43,782.8c-3.67.33-7.33.67-11.01,1.02h-6c-5.01.31-10.01.64-14.99.99l-10.99.02c-6.95-.32-13.94-.66-20.98-1.01h-9.99c-5.67-.34-11.33-.67-16.98-1l-13.82-.33c-52.53-4.88-112.13-13.91-160.6-35.13-23.21-10.16-51.61-30.29-51.5-55.39-.68-3.63-.69-7.42.05-11.06.06-15.17,8.87-26.41,19.99-36.17,3.28-2.22,8.24.98,7.09,4.98v2.74c-4.95,4.07-8.94,8.87-11.99,14.39,7.38-4.17,15.26-4.82,23.35-2.47,4.84-5.45,10.37-10.15,16.57-14.08-.71-7.04-12.47-8.61-17.68-5.36l-2.05-1.03c-2.24,1.83-6.59-1.77-6.42-4.13.09-1.3,7.26-5.91,7.59-5.56.07.07-1.2,1.5-.52-.3.54-.21,1.71-.59,2.12-1.05.09,1.36,2.25.39,2.91.61,1.79,1.68,4.75,4.72,7.85,4.27,1.65-.24,2.31-2.09,3.2-2.57,6.15-1.09,11.4,4.33,13.73,9.7,5.92-2.49,11.67-3.52,17.24-3.08l7.45-3.91,3.7,2.49c14.28,24.51,38.03,40.9,64.17,50.86l3.01,3.27c-.56.32-1.49-.45-2.91.62,1.25,1.41,2.91,1.8,4.52,2.76l-.04,6.14c-.31.54-.65.52-.99-.03-.83.37-1.66.65-2.48.64-6.4-.11-33.83-12.78-36.96-17.66-.45-.7-.79-1.48-1.09-2.28-4-.7-9.18-2.5-8.53-6.74l-3.8-.55c-7.78-5.48-19.44-18.5-23.04-27.16-15,3.59-29.85,8.37-39.76,20.95,4.51,4.69,6.66,10.85,6.43,18.47,2.39.13,11.86,1.33,12.89,2.82.53.77.68,1.64.59,2.56,2.07-2.02,4.62-.62,3.89,2.26l2.8-.61c3,1.92,11.43,9.74,10.91,12.84,0,.06-.03-.67.72-.95,4.66-1.72,11.12-2.34,16.05-1.71,3.83.49,11,1.71,10.97,6.08,4.36-.2,6.22,1.05,5.57,3.74,3.34.62,6.27,2.53,8.8,5.71,6.05-2.74,12.41-4.59,19.07-5.56l1.9.98c2.16-2.1,6.76-.58,6.43,2.63l2.83-1.37c5.16.9,20.88,9.14,21.33,13.8,0,.06-.21-.73.31-1.09,6.86-4.74,17.7-8.15,25.73-5.69,1.86-3.04,4.46-5.66,7.8-7.87l-14.55-2.82-1-2.23c.99-.02,2.34-.32,2.74-1.02.29-.51.1-2.7.56-3.06,2.64-2.02,8.32-1.51,10.46,1.14,1.18,1.46,2.34,6.18,4.93,5.04,3.01-1.52,5.39-5.05,9.41-4.43,1.86.29,4.66.97,4.31,2.49l-1.1,4.73c1.71-.09,4.76-1.03,6.1.89l-.42,1.34c-6.86-.17-12.09,2.42-17.33,7.44,7.31,3.2,15.48,7.83,19.74,14.48,7.31-7.14,19.61-10.45,29.71-9.92.83-3.17,2.79-6.15,5.9-8.95-11.51-.21-23.02-.86-34.53-1.94l-1.13-2.12c2.33.24,5.86-1.57,8.28-1.88,5.09,3.7,13.93,2.55,14.22,1.95l1.84-3.86,19.14-.99c5.77-1.2,11.87-.33,13.89,5.83,4.17-.77,7.31-.61,10.96.07l-.79,2.04c-10.52-.24-19.12.39-25.86,9.44,10.18,1.96,19.14,5.83,26.88,11.61,2.85-4.43,7.06-7.77,12.64-10.02,4.66-2.81,8.72-3.36,12.2-1.65,2.74-.19,4.32-1.01,4.74-2.45,4.18-.08,8.5.7,12.94,2.33,1.42-1.46,2.6-1.27,4.3-.96,4.56.82,10.94,4,14.47,6.76,12.85-17.6,35.37-18.04,53.85-9.61,11.34-14.2,32.37-17.6,49.13-13.94,2.24-5.97,8.84-15.85,15.76-15.13.25-5.07,6.4-4.81,10.52-4.48,1.96-2.67,5.49-3.52,10.58-2.55.93-1.59,1.42-3.73,1.49-6.41,1.41-5.28,3.94-9.8,7.61-13.57-11.82-14.56-30.05-22.32-48.3-23.78l-1.47-1.71c-2.15-2.92-3.63-6.33-1.53-10.47,2.42,2.19,4.15,2.87,6.19,3.42l1.59-1.64,13.14,3.51c3.94-12.98,11.4-7.86,11.38,3.27,2.01,1.71,4.31,3,6.89,3.88l5.4-5.5c5.94-2.63,6.84-4.38,2.68-5.25-3.61-1.1-5.98-2.89-7.12-5.37.36-2.94,1.74-5.52,4.32-7.57,10.88,3.82,20.93,9.91,30.25,17.82,10.54,8.94,18.27,21.49,20.21,35.43l.33,11.86c.98,34.75-45.35,57.3-76.31,67.07-25.99,8.2-51.78,14.4-78.85,17.97l-44.05,5.81-12.84,1.01-13.98,1.05-14.97.19Z"/>
      <path class="cls-84" d="M113.54,633.91c.28,0,.71-.05,1.08.58-2.19,1.22-4.98,2.8-6.36,5.25,1.13,2.58,3.63,2.35,4.64,4.16,1.33,2.89-5.77,7.76-8.2,5.83-1.65-.03-1.72-2.49-2.76-2.94l-4.33-2.04c4.7-4.13,10.07-8.58,15.94-10.84Z"/>
      <path class="cls-47" d="M77.57,691.97c-1.38-3.3-1.38-7.86.05-11.06l-.05,11.06Z"/>
      <path class="cls-19" d="M561.25,698.81c-6.56,3.84-11.36,9.74-14.97,16.71-18.39-2.68-37.46-.05-49.09,14.03-3.79.01-6.64-1.48-9.83-2.68-16.35-6.18-33.4-.8-44.59,12.33-6.51-3.45-12.83-6.19-19.02-7.5-4.37,1.72-19.59-10.66-19.68-12.22-.05-.84,1.07-1.3,2.07-1.31,26.25-2.67,52.15-9.36,76.21-20.14,8.35-1.43,17.03-1.65,26.05-.68l8.26-.55c4.16-1.23,7.78-1.13,10.84.3.39-2.15,4.62-3.78,6.96-4.09,6.42.13,12.8.29,19.14.49,2.35.51,9.76,2.67,7.66,5.31Z"/>
      <path class="cls-51" d="M571.77,694.32c-4.57.68-7.67-.07-11.97-1.28-2-.56-12.16-4.85-13-5.84-1.87-2.21-2.14-5.96,1.33-6.16.29-1.55.93-2.72,1.91-3.52-10.5.31-20.99.3-31.46-.05l-.29-2.44c9.09-8.24,17.37-17.85,23.38-28.74,3.6-1.04,7.61.19,11.83,1.36,8.31,2.31,16.94,3.94,23.89,9.13l6.36,4.75c4.06,3.03,7.73,6.75,10.67,10.89-7.07,5.51-9.88,12.91-9.02,21.52-5.03-.37-9.4-.49-13.63.36Z"/>
      <path class="cls-15" d="M310.72,718.97c.93-.05,1.32.27,1.95.33l11.21,1.12,29.2,1.13c-4.06,4.35-7.83,7.2-9.75,12.3-11.48.19-21.73,3.34-30.7,10.06-6.8-6.76-13.84-12.43-23.38-15.3,3.86-4.07,8.18-7.34,13.5-9.57,2.42-1.02,5.66.06,7.97-.08Z"/>
      <path class="cls-83" d="M257.52,710.13c.74-2.47,1.66-2.41,2.76.18,3.36-1,10.57-1.54,12.16,2.71l.88.18,21.29,4.13c-5.26,3.17-9.61,5.88-12.9,10.48-10.14-1.98-18.73,1.42-26.99,6.74-6.66-7.6-14.95-12.18-23.86-14.09-.86-.29-1.88-1.04-1.63-1.71,2.72-7.19,21.16-12.05,28.28-8.63Z"/>
      <path class="cls-65" d="M392.73,719.83c3.22-3.84,18.41,7.88,18.69,9.06-.16,1.71-1.94,2.69-5.35,2.93-9.66,1.71-18.01,5.84-24.68,13.36-9.5-6.44-19.6-9.72-30.56-11.58,3.78-6.62,9.11-9.72,14.9-12.48l15.27-.71,11.74-.59Z"/>
      <path class="cls-38" d="M511.97,681.02c1.21-.96,2.62-1.7,4.15-2.01,3.19-.65,27.86-.45,30.71.22l1.31,1.81c-.91,1.24-.68,2.74-.37,3.79.47,1.59,2.11,2.66,3.82,2.86,3.62.42,6.09,2.69,9.35,3.6l10.83,3.02c-3.81.77-7.21,2.55-10.52,4.48-.63-1.77-3.5-1.35-4.65-1.96-5.21-2.75-8.87-1.98-14.43-1.23-2.66.36-6.34-1.75-9.21-.02-1.84,1.11-3.8,1.14-5.47,1.5l-2.19-1.49-29.43.28c-3.13-.94-4.64-1.86-1.6-4.06l17.7-10.8Z"/>
      <path class="cls-46" d="M580.31,632.16c5.19,1.83,10.07,4.38,15,8.23-6.46,1-11.61,4.76-15.15,10.51-3.06-1.64-6.52-2.51-8.93-4.89-2.59-2.56-.11-8.66-3.17-10.24-2.62-1.35-4.94,2.71-4.87,7.99l-16.85-4.5,6.96-15.43c6.1,1.21,11.59,2.9,17.23,4.89l9.78,3.44Z"/>
      <path class="cls-93" d="M243.4,705.08c4.66-.03,9.16.87,13.49,2.7l.63,2.35c-6-1.16-26.28,4.05-26.65,10.33l-6.43-2.63-.24-2.77-25.92,3.21-3.61-1.57-5.57-3.74c1.79-1.38,3.7-2.69,5.9-3.28,10.58-2.82,34.87-6.75,44.9-4.89.13.02-2.36,1.09-.4-.8l.99.03,2.9,1.06Z"/>
      <path class="cls-48" d="M160.6,641.79c-.59.31-1.22,1.53-2.54,1.65-5.37.47-10.26,1.93-15.51,4.03l-4.17-7.2-8.77-5.11c7.16-3.88,14.69-6.23,23.19-8.54l7.79,15.17Z"/>
      <path class="cls-73" d="M548.14,681.04c-2.69.6-5.66-.08-8.86-.08l-27.31.05c1.48-2.77,4.25-4.09,6.33-5.98,1.12,1.1,3.03.81,4.98.79l27.3-.3c1.4-.02,1.87,2.74,1.21,3.39-.98.98-2.26,1.81-3.66,2.12Z"/>
      <path class="cls-4" d="M527.48,697.09c-24.54,5.21-42.44-.29-45.15.92.73-1.25,3.1-.86,4.48-1.69l7.46-4.5c-.06.53-.15,1.22.08,1.5.27.31,1.2.59,1.94.59l28.96-.29c.92,0,1.87.7,2.59,1.23.56.41.36,1.35-.35,2.25Z"/>
      <path class="cls-67" d="M406.13,718.16c-.11.35-.15.54-.49.93-.25.28,1.14.5,1.64.92l12.5,10.43c.96.8,2.97,1.05,3.96,1.26l-10.36-.56-7.32.69c1.2-.21,2.36-1.7,4.47-1.16l-11.29-8.65c-1.98-1.52-3.69-2.32-6.51-2.18-.45-.36.06-.91.7-.94l12.7-.72Z"/>
      <path class="cls-20" d="M272.44,713.02l-14.92-2.89-14.12-5.05c1.19.26,3.55.92,4.32-.12l2.08-2.82c1.28-1.74,10.36-.76,11.01,3.02.22,1.3.29,3.12-1.35,4.33,1.15,1.06,2.73.5,2.86-.16,1.02-5.1,9.53-4.09,11.13-2.58,1.85,1.74-.09,5.25-1.01,6.29Z"/>
      <path class="cls-20" d="M344.45,712.87l-10.08.07c-1.12,0-1.84-.4-1.94-1.18l10.1.06c1.06,0,1.82.4,1.92,1.06Z"/>
      <path class="cls-107" d="M357.57,775.43c-17.65-.54-29.71-11.16-39.74-25.49,16.59-14.39,46.4-10.81,62.65,2.84,8.18,6.87,15.22,14.14,24.97,19.7-15.59,1.57-31.36,3.45-47.88,2.95Z"/>
      <path class="cls-113" d="M190.45,677.95c1.8,1.91,2.33,2.74-.33,3.59-7.83-.17-15.54.7-23.15,2.61-2.97.62-5.51,2.15-7.61,4.59-5.11.59-9.6,2.62-13.06,6.49l-2.54-.16c-4.73-2.75-10.42-3.26-16.22-3.54,1.29-8.13-.72-14.62-5.45-20.26,8-13.56,26.98-20.5,42.37-22.56,6.87,12.01,15.83,21.02,25.99,29.25Z"/>
      <path class="cls-68" d="M309.47,773.94l-18.11-1.91c-12.56-1.32-32.01-17.69-31.47-31.81,7.18-8.09,19.19-8.15,28.72-4.72,21.24,7.66,22.64,24.79,39.91,36.86-6.55,1.88-12.56,2.25-19.06,1.57Z"/>
      <path class="cls-60" d="M227.91,764.05c-4.24-1.07-6.98-4.41-9.87-6.65-6.98-5.44-11.34-13.18-13.23-21.77,3.93-6.65,10.65-9.45,18.47-9.27,11.78.04,21.66,6.57,28.87,16.06,2.82,10.64,8.42,19.5,18.06,26.79-14.54.47-28.27-1.63-42.31-5.16Z"/>
      <path class="cls-65" d="M529.91,754.68c-12.99,4.53-25.92,6.07-39.11,7.98,6.48-8.46,10.24-16.14,8.19-25.76l10.32-10c12.59-7.35,27.22-9.23,41.28-3.82-1.18,11.75-10.64,28.1-20.67,31.59Z"/>
      <path class="cls-97" d="M198.98,684.69c12.52,8.09,26,15.01,40.53,19.3l1.05,1.68c-17.74,1.33-34.7,3.59-51.45,7.29-8.19-5.49-18.45-5.35-28.35-1.82-3.62-6.1-7.6-10.63-13.11-13.83-.6-.64-1.11-1.41-.96-2.27.13-.78,12.65-6.46,14.21-7,5.68-1.96,10.48-2.98,16.38-3.9,6.18-.96,15.93-1.52,21.71.54Z"/>
      <path class="cls-48" d="M427.08,771.83l10.35-7.92c4.48-3.43,10.75-13.61,10.32-19.82,9.66-15.42,36.12-17.37,42.79-5.85,2.09,3.6,1.75,7.39.36,11.23-3.3,7.43-9.23,12.81-16.46,16.57l-47.37,5.79Z"/>
      <path class="cls-113" d="M572.51,742.41l-26.27,7.8c4.99-7.3,8.24-14.45,10.5-22.93,1.01-3.81.55-6.95-3.25-9.34,5.02-11.49,17.44-19.45,30.27-16.61,5.85,1.3,9.99,5,11.07,11.07,1.53,8.54-1.53,18.67-9.05,23.88-3.77,2.61-8.57,4.73-13.28,6.12Z"/>
      <path class="cls-45" d="M195.12,758.6l-17.81-4.62c-10.72-5.3-22.92-20.65-19.36-29.88,4.15-10.76,22.67-11.78,34.38-1.11,3.82,3.48,6.12,7.6,4.85,12.95,1.79,9.33,6.72,17.09,13.42,23.65-5.23.62-10.05.41-15.48-1Z"/>
      <path class="cls-5" d="M157.84,747.65c-11.28-3.12-22.23-6.74-32.36-12.65-8.72-5.08-13.24-26.55-5.79-32.05,11.81-8.71,29.34-2.1,35.27,10.75-4.08,4.04-6.29,8.51-5.67,14.23.31,7.36,3.96,12.98,8.55,19.71Z"/>
      <path class="cls-99" d="M416.76,771.67c-9.51-3.39-16.6-9.09-23.26-15.91-2.19-2.24-5.46-3.47-6.6-7.07,13.88-13.91,41.1-15.36,53.01.41-4.67,9.98-12.56,18.06-23.15,22.57Z"/>
      <path class="cls-30" d="M625.36,699.29c-4.61,11.8-12.32,20.13-23.91,26.45,3.93-12.54.49-22.61-8.88-30.34-3.92-3.23-.68-11.86,2.08-15.22,3.13-3.82,8.58-7.1,14.2-5.78,10.92,2.58,17.01,13.45,16.52,24.88Z"/>
      <path class="cls-52" d="M119.27,691.11c-12.45,6.38-12.59,22.83-7.85,35.68-5.21-2.04-7.64-5.42-11.09-8.69-8.19-7.76-13.91-18.52-12.77-30.14.67-6.87,6.32-11.42,12.16-13.85,6-2.5,12.52-2.45,17.13,2.78,2.72,3.08,4.77,10.93,2.43,14.21Z"/>
      <path class="cls-35" d="M104.69,649.72l8.2-5.83c4.07-2.89,6.98-2.89,11.97-2.25,4.35.56,11.61,4.74,9.37,9.73-5.91,4.97-13.11,8.73-17.68,15.77-10.17-4.67-19.53-1.3-28.19,4.71,2.93-9.94,9.72-15.97,16.33-22.14Z"/>
      <path class="cls-113" d="M625.9,678.33c-7.85-6.95-15.84-11.61-25.75-9.04l-13.24-14.19c-3.69-3.96,10.78-12.51,18.31-8.02,10.88,6.5,18.77,18.31,20.68,31.25Z"/>
      <path class="cls-103" d="M198.98,684.69l-12.36,1.03c-12.41-.19-23.89,2.53-34.57,8.78-1.49.87-3.81.74-4.4,2.82l-3.89-2.26c3.94-4.58,8.33-7.51,14.9-8.13.91-.08,2.02-2.78,2.88-3.1,15.32-5.76,27.76-3.45,29.06-4.49.28-.23-.03-1.27-.15-1.39l8.53,6.74Z"/>
      <path class="cls-1" d="M224.44,717.83c-2.33,2.91-11.81,1.04-21.38,7.16l-8.38-8.29,34.09-4.22c-1.17,2.6-3.04,3.75-4.32,5.35Z"/>
    </g>
  </g>
  <g>
    <path class="cls-3" d="M1016.89,391.12c-.34,4.32-.67,8.66-.98,13l-1.56,25.74-.2,7.21-.69,11.47-2.88,37.91-1.28,12.32.02,5.49-1.94,27.15-2.87,34.15c-.34,4.02-.82,8.09-1.1,12.03l-.89,12.8-1.17,11.52c-.33,3.27-.34,5.51-.59,8.91l-1.23,16.7-2.29,23.68c-.41,4.29-1.16,8.56-1.69,12.46-.47,2.58-.07,4.53,1.19,5.83-.36,3.82-10.94,14.65-13.7,14.46-.9-.06-1.66-.47-2.31-1.07-2.72-1.17.85-8.38,2.16-10.64.84-1.43,1.8-2.48,3.47-3.24l-1.8-1.4c.14-5.33,1.54-9.97,4.21-13.9l-1.93-.86c4.34-52.12,8.64-104.29,12.9-156.54l2.37-4.54c-3.92-1.44-1.05-8.72.93-11.67l-1.94-.82,5.7-83.67c-2.92,4.12-5.91,5.86-8.95,5.22.94,2.83-3.89,5.93-6.1,3.8l-1.36,2.82c-1.4,1.14-14.48,6.73-15.45,6.38-.44-.16-.81-.52-1.15-.94-.44,3.15-6.88,5.43-8.72,2.74.09.78.15,1.93-.39,2.15-3.72,1.52-19.81,5.46-23.83,5.83l-1.88-1.6c.09,2.03-1.94,3-6.09,2.91-1.37-1.15-3.06-1.57-5.08-1.28,0,.78-.13,1.98-.67,2.08-3.02.57-26.13,3.32-27.46,2.96-.78-.21-1.25-1.09-1.64-1.83.06,3.02-6.32,3.07-6.92.2-.08.78-.3,1.95-.86,2.01-5.04.6-13.48.5-18.68.3-3.72.73-6.18.11-7.39-1.88-2.47-.23-3.99.42-4.58,1.94-4.21.73-7,.02-8.35-2.11-.06.77-.31,1.94-.8,1.95-6.36.16-25.85-.7-31.49-2.07l-1.04-2.07c-.66,3-7.42,2.16-7.71-.81l-1.48,1.78c-11.54-1.93-23.08-3.85-34.63-5.78l-1.11-2.21c-1.33,2.87-7.46.83-7.48-2.13l-3.29,1.14-12.39-3.88c-4.89-1.02-8.1-3.21-9.64-6.59-2.1,2.65-7.63-1.37-8.03-4.62l-2.75.67-8.79-7.13,2.29,77.54-1.96,1.27c2.41,3.52,3.99,12.07.32,14.48l2.08,2.63c2.28,56.13,4.64,111.97,7.06,167.5,1.28,9.9,6.86,18.42,14.8,24.33l.55,2.85c.81-.74,1.39-1.19,2.41-1,2.19.41,13.52,6.26,13.02,9.02.34-.7.92-1.72,1.47-1.61,1.48.29,15.14,4.84,15.75,5.41s.68,1.48.69,2.31c.78-2.96,8.87-1.1,8.97,2.02.36-.72.89-1.77,1.52-1.73,2.9.19,19.02,3.31,21.31,4.3l1.01,2.24c2.72-1.24,7.52-3.39,9.13.93.28-.76.71-1.88,1.32-1.89,4.59-.05,14.59.79,19.05,1.67,3.05-.34,4.86.48,5.46,2.49,2.39.28,3.89-.32,4.49-1.79,3-.46,4.82.3,5.45,2.26.21-.78.51-1.91,1.14-2.01,3.27-.49,19.54-.66,22.62-.14l1.45,1.99c2.82.42,5.25,6.15,3.89,8.58-1.13.56-2.27,1.08-3.45,1.46s-2.32.73-3.48.77c-44.27,1.5-93.15-3.2-133.18-22.6-.84.67,1.01,20,1.89,21.28,2.77,4.04,8.75,7,13.27,8.86,38.46,15.9,82.59,15.21,122.87,14.54l1.19,1.99c1.53,2.16-.59,3.55-6.34,4.16l-12.7,5.43c-3.59,1.81-6.15,1.66-7.68-.44-4.68-.18-9.4-.48-14.18-.88l-5.99-.05c-3.64-.37-7.32-.65-11.06-.83-24.37-.74-48.88-5.52-71.81-15.08-20.85-8.7-19.1-19.34-19.07-36.97-.35-4.03-.65-8.09-.89-12.17-8.52-7.73-13.9-17.78-14.84-30.01l-1.06-13.79-.18-15.99c-.34-3.66-.67-7.33-1.01-11v-8.99c-.3-4.98-.59-9.98-.89-15.01l-1.01-9.94-.62-20.5-.93-22.96-.54-29.51c-.33-5.01-.66-10.01-1-15v-11.99c-.31-5.98-.64-11.98-.99-17.98l-.1-27.08-1.71,2.17,1.15-6.18.53-7.98-.29-34.75c-.04-5.3-.69-9.77.34-15.3.29-1.56-.03-4.44-.3-5.78,4.49-8.49,10.04-15.77,18.58-20.83,24.59-14.59,65.35-21.99,94.07-23.71l16.17-.97,50.87.02,18.15.92c27.4,1.4,70.05,9.94,92.07,25.8,7.31,5.26,14.87,12.47,14.99,21.75l.21,16.96Z"/>
    <path class="cls-37" d="M765.49,416.03l1.89,1.12c2.17,83.13,5.44,166.26,9.81,249.39l-1.93,1.28c.47,2.51,1.14,6.98-.53,8.62-.58.57-15.15,3.49-15.84,3.07l-1.63-2.42c-3.41-3.5-5.23-8.35-5.46-14.55-4.87-53.73-7.79-108.34-10.07-161.69l2.42-1.7c.44,1.1,15.12,4.18,12.57,1.72-5.15-2.89-10.23-5.88-15.22-8.98-2.02-28.14-3.33-56.36-3.92-84.67.72-.68,1.59-.82,2.58-.52,7.83,4.5,16.64,6.85,25.33,9.32Z"/>
    <path class="cls-105" d="M885.87,719.29l7.53,8.99-1.39,14.4c-2.54,1.03-4.85,2.9-7.04,2.91l-43.94.26c-23.93.14-95.63-10.7-96.44-28.55l-.99-21.94c12.44,6.74,24.19,11.47,37.46,14.66,34.61,8.32,69.91,10.69,104.82,9.26Z"/>
    <path class="cls-44" d="M853.77,333.86l1.97,1.2-1.69,81.82c-2.41,1.98-5.78,2.44-10.11,1.37l-26.72-1.77c-.79-.08-1.98-.37-2-.92-.72-25.16-.8-52.6-.25-77.72l1.98-1.45,36.83-2.53Z"/>
    <path class="cls-23" d="M735.26,497.17l2.04.74,9.45,160.07c1.26,8.18,3.04,16.25,5.35,24.21-1.76,3.2-3.88,4.54-6.37,4.04-10.09-6.86-17.1-17.33-17.62-30.3l-1.17-29.15-5.7-137.86,2.62-.76,10.54,6.56.86,2.45Z"/>
    <path class="cls-2" d="M991.73,404.65l1.93.86c-5.66,62.46-10.81,124.97-15.43,187.54l-2.09,1.06c-2.19-2.96-5.24-6.04-9.33-6.81-1.42-.27-3.96.98-4.83,1.9l-1.89-1.3c4.23-57.46,8.09-115.2,11.57-173.21l2.12-1.76,17.96-8.27Z"/>
    <path class="cls-112" d="M809.26,337.24l2.01.9c.38,25.49.77,50.99,1.16,76.49l-1.98,1.24-37.47-6.83-2.05-1.44c-.75-20.76-1.49-41.53-2.24-62.3l1.95-1.28,38.62-6.79Z"/>
    <path class="cls-75" d="M883.12,334.05l11.1.32,1.97.74s-1,27.38-3.01,82.14l-2.04,1.11-31.37.59-1.99-.71,1.12-83.58c1.92-1.54,20.6-.83,24.22-.6Z"/>
    <path class="cls-98" d="M935.19,338.5c1.31.41,2.22,1.09,2.74,2.03-1.33,24.1-2.58,48.19-3.76,72.27l-2.06,1.32-33.27,3.9-1.97-.96c.81-26.96,1.79-53.95,2.95-80.98l2.04-1.12,33.33,3.54Z"/>
    <path class="cls-89" d="M740.16,406.71c-.72.52-.84,1.24-.78,2.46l3.55,81.61,15.2,8.39c1.2.66.46,2.76-.04,3.52-2.01,3.07-8.11.75-14.67-2.01l1.2,24.44,6.91,114.69c.8,13.26,1.95,25.2,5.75,37.3l2.4.98c.63.61,4.55,14.09,3.94,15.15-.43.75-1.54.91-2.45,1.01l-15.43-8.03c1.26-1.79,2.81-2.88,4.66-4.37-2.94-9.02-5.3-17.13-5.86-26.63l-8.35-142.06-.92-15.99c-2.91-1.79-3.34-9.67-.16-10.95-1.06-.61-1.76-1.6-2.13-2.95-1.43-26.64-2.38-53.25-2.85-79.83l2.01-1.35,8.03,4.62Z"/>
    <path class="cls-82" d="M810.19,424.37c.79.08,1.98.37,2,.92.62,16.16,1.08,36.56.04,52.53.66,3.38,0,5.45-1.99,6.21l-3.49,2.67c-10.4,2.19-20.74,5.59-29.99,10.64-1.01-.3-1.41-1.06-1.31-2.18-.79-.06-1.99-.31-2.03-.86-1.36-22.64-2.55-48.34-2.29-70.95-.69-2.81-.08-4.54,1.83-5.19l37.22,6.21Z"/>
    <path class="cls-71" d="M772.97,418.16l2.48,77,2.03.8c.65,2.95,1.36,12.07-1.45,13.28l2.05,1.13c1.7,53.98,4.26,107.72,7.66,161.19l-1.92,1.31c.8.07,2.02.21,2.16.79.76,3.09,4.99,25.93,4.29,27.11-.5.85-1.3,1.35-2.23,1.62l-8.97-2.02c-3.03-4.84-5.7-19.79-4.78-25.2,2-2,1.63-4.85.98-7.33l-2.2-39.94-4.04-94.84-2.25-71.96-1.28-45.05,7.48,2.13Z"/>
    <path class="cls-22" d="M864.17,427.54c.1,1.3-.63,2.31-2.18,3.05l-.93,46.53-2.02,1.15,1.99,1.19c-.11,12.7-.22,25.4-.34,38.11l-2.01,1.45,1.99.94c-1.11,97.32-1.67,145.97-1.67,145.97l-2.01,1.18,2,.68s-.06,13.97-.19,41.92l-2,1.16-9.94-.47c1.03-2.92,1.14-6.34.33-10.25l.6-32.58,1.65-.94c-.21-30.31,0-60.53.66-90.67-3.15-.67-3.03-10.01-.02-10.96.71-14.62.88-30.16.49-45.14-.01-.39-.66-.76-1.5-1.13v-39.4s2-1.21,2-1.21l-1.33-.1c-.35-15.91-.35-32.05.01-48.42l1.51-2.24,12.92.17Z"/>
    <path class="cls-101" d="M817.91,425.18l2,.92c.04,17.96.08,35.93.12,53.91l-2,1.2c.47-.05.93-.06,1.33.07,1.68.55,1.67,33.48.86,35.05l-1.99,1.81c.78-.01,1.99.2,2,.69.89,48.84,1.12,99.12.7,147.61l-1.98,1.46,2.02.84c-.09,12.92.63,25.75,2.16,38.47l-2.13.92-9.13-.93.59-2.15c-.13,1.08-.48,1.61-1.03.63-1.69-3.04-2.47-30.68-2.3-36.13l1.94-1.53-2-.91c-.17-25.27-.33-50.55-.5-75.83l1.99-1.21-.2-74.61-1.64-1.2-.46-28.74,1.97-1.48-.05-59.66,7.71.81Z"/>
    <path class="cls-64" d="M938.95,422.05c.88.04,1.82.22,2.36.93,1.58,2.06-1.9,45.68-2.47,51.88l-2.06,1.08c-.5,3.48-.6,6.97-.3,10.47l1.2,1.1-1.38,24.75c-1.3,1.23-2.08,3.16-2.32,5.79l1.94,1.04-8.35,147.59-2.06,1.1c-.32,1.95.26,3.13,1.74,3.54-.6,10.9-1.38,21.78-2.34,32.65l-1.89,1.06c.65,3.31-5.13,4.28-5.98,1.18,5.01-14.64,6.14-30.82.88-45.54l-1.46-7.43,7.59-127.04,2.07-1.09c.52-2.92.77-6.88.53-9.86-.03-.38-.68-.72-1.51-1.04l1.16-28.49,2.06-1.37-1.95-1.02,3.03-56.67c-.59-.75-1.14-1.74-1.64-2.96l11.16-1.64Z"/>
    <path class="cls-85" d="M965.05,415.66c1.19-.33,2.13-.17,2.81.47-1.15,26.61-2.78,53.27-4.9,79.97l-2.08,1.06c-1.71,1.81-4.04,1.06-7-2.24l-17.2-6.53c-1.03-1.58-.16-10.01.1-12.44l2.68-51.02c.06-1.17-.18-2.06-.52-2.87l26.1-6.39Z"/>
    <path class="cls-17" d="M947.25,340.81l24.71,6.52,1.87,1.65c-1.55,18.46-3.1,36.92-4.65,55.39l-2.14,1.65-24.9,6.35c-2.72.49-4.06-.03-4.03-1.55l3.71-68.94c.83-1.55,2.64-1.9,5.44-1.06Z"/>
    <path class="cls-70" d="M927.79,423.69l3.77.48-3.21,60.17c-4.87.88-10.05.49-15.54-1.18-5.66-.3-11.02-1.2-16.09-2.69-.28-4.56-.19-9.04.27-13.44l-1.98-.73s.33-12.76.98-38.28l2.03-1.13,29.77-3.21Z"/>
    <path class="cls-9" d="M898.02,426.9l-1.03,40.13c-.65,3.7-.59,8.54-.25,12.41.02.26.66.46,1.48.65l-1.16,37.14-2.04,1.39,1.97.98-4.06,129.15-1.19,4.45-8.87,13.88-1.97-.98c2.78-97.49,4.17-146.24,4.17-146.24l2.03-1.14-1.95-1.24c.49-12.63.99-25.26,1.48-37.9l2.05-1.38-1.95-1.01c.77-16.33,1.55-32.66,2.33-49l2.05-1.1,6.92-.2Z"/>
    <path class="cls-82" d="M851.24,427.37c.37,1.23.72,2.85.69,4.69l-.88,46.07c-.25,1.59-.91,2.79-2.5,2.73l-28.93,2.21-1.59-1.87-.13-56.03,33.34,2.19Z"/>
    <path class="cls-56" d="M891.1,427.1l-2.43,51.11c-.23,2.24-1.87,3.15-4.93,2.73l-23.37-.64-1.34-2.04,1-49.91,4.13-.81,26.93-.44Z"/>
    <path class="cls-58" d="M997.82,400.85l2.57.91c-1.78,28.1-3.8,56.25-6.08,84.48-.42,1.22-1.15,2.04-2.19,2.48,3.16.76,2.62,8.84-.31,9.99.78.05,1.97.36,1.94.84-1.98,34.36-5.3,69.54-8.99,103.64l-2.18,1.06c-1.5-3.58-4.11-6.98-6.45-10.15l7.14-90.63c-1.09-3.62.4-6.94.73-10.62l7.72-88.21,6.1-3.8Z"/>
    <path class="cls-42" d="M763.2,345.87l2.03.85,1.91,57.66c.29,2.05-1.13,2.73-4.24,2.03-8.56-2.23-17.43-5.1-24.72-10.09l-1.97-2.7c-.08-11.33-.48-22.61-1.2-33.85l1.85-2.9c7.96-5.17,17.07-8.71,26.34-11Z"/>
    <path class="cls-18" d="M973.77,412.92l-10.02,155.9-1.77,20.37-7.36,7.79-1.95-.81c1.73-29.16,3.48-58.32,5.25-87.49l2.04-1.1c-3.17-.52-2.08-9.9.93-10.42l5.38-79.03c.08-1.2-.67-2.07-1.22-2.47l8.72-2.74Z"/>
    <path class="cls-24" d="M988.76,653.71c-1.42,3.25-4.43,8.53-8.25,6.56l4.11-12.73c4.45-14.47,3.7-29.62-2.04-43.29l1.91-12.97,7.32-92.57c.47-1.89,2.04-3.27,4.7-4.13,1.82-2.13,3.68-3.06,5.58-2.8l-13.33,161.93Z"/>
    <path class="cls-63" d="M846.84,710.39l-25.83-2.27c.69-3.51-1.15-7.02-1.25-10.79l-.8-29.44.84-2.02,27.09-.66.15-87.46c-.04-2.3,1.04-3.12,3.02-1.79l-.27,86.91-.25,27.07c-.06,6.53-1.43,13.07,1.35,19.56-1.25.57-2.53.5-4.07.89Z"/>
    <path class="cls-72" d="M732.13,402.09l-.11,12.09,3.08,72.04c-.49.79-1.24,1.7-2.03,1.54-2.17-.42-12.12-10.09-12.15-13.33l-2.5-84.5c4.47,5.42,8.56,9.2,13.71,12.16Z"/>
    <path class="cls-43" d="M883.03,668.27c-4.54,13.68-4.49,28.49-1.05,42.44l-25.21.15.2-43.76c.09-.52.22-1,.53-1.31.89-.93,21.27.05,24.17.41l1.35,2.06Z"/>
    <path class="cls-72" d="M1003.02,480.12c-.81,3.56-5.78,9.58-9.29,10.48-.59.15-1.27-1.03-1.61-1.88l5.97-79.51c.23-3.03,1.44-5.64-.28-8.36,4.33-2.7,7.42-6.78,11.33-11.13l-3,47.34-3.13,43.06Z"/>
    <path class="cls-6" d="M811.08,668.01l.95,23.86c.18,4.4-.6,8.71,1.25,13.02.32.71.98,1.63.25,1.91-.68.26-1.29.21-1.65.39l-23.84-4.81c.22-1.16.37-2.32.18-3.43l-4.4-26.09.61-2.21c8.25-2.63,16.64-4.15,25.17-4.55l1.47,1.92Z"/>
    <path class="cls-17" d="M1000.01,362.12c.96,1.87.95,4.23-.03,7.07l-1.67,19.86-2.29,3.48c-6.48,4.49-13.59,8.13-21.15,10.76l-1.92-1.07c1.32-17.07,2.64-34.16,3.96-51.24l2.08-1.04c7.66,2.84,14.82,6.83,21.02,12.19Z"/>
    <path class="cls-33" d="M883.12,334.05l-22.34.31-1.02,84.59-10.77.1c-2,.02-3.8.36-5.06-.79l8.09-.2,1.06-59.86.69-24.33,24.34-.67c1.87-.05,3.82-.47,5.01.85Z"/>
    <polygon class="cls-77" points="901.87 334.96 899.91 384.13 898.85 418.02 891.13 418.35 892.77 375.14 894.21 334.36 901.87 334.96"/>
    <polygon class="cls-28" points="816.94 336.39 817.24 362.19 817.21 416.48 810.45 415.88 809.26 337.24 816.94 336.39"/>
    <path class="cls-92" d="M947.25,340.81c-.9.08-2.07-.49-3.38-.03l-3.82,71.06c.24.46,1.96.47,2.09.52l-10.02,1.75.9-19.04,2.6-48.12c.17-3.06,1.06-6.07-.41-8.46l12.06,2.3Z"/>
    <path class="cls-61" d="M770.64,344.03l2.33,65.02-10.08-2.63c.57.12,2.29-.08,2.26-1.33l-1.96-59.21,7.44-1.84Z"/>
    <polygon class="cls-32" points="978.99 349.93 974.87 403.29 967.04 406.01 971.96 347.33 978.99 349.93"/>
    <path class="cls-87" d="M779.07,700.36l-17.91-6.12c.61-1.16.77-2.29.38-3.56l-4.26-13.58c.73.53,1.77.52,3.07.26l14.85-3.04.08-6.49c.8.6.83,1.61.86,2.97.21,9.31,1.29,17.91,3.22,26.96.19.9.93,1.88-.27,2.6Z"/>
    <path class="cls-106" d="M736.86,356.87l1.19,23.26.13,16.2-7.22-4.95-2-3.21c-.13-8.08-.4-16.16-.8-24.22l.88-1.98,7.83-5.09Z"/>
    <path class="cls-109" d="M730.96,391.38c-4.8-3.29-9.72-8.42-10.03-15.23-.28-6.23,3.88-11.44,8.11-14.19.81.7,1.34,1.7,1.37,2.9l.55,26.52Z"/>
    <path class="cls-54" d="M735.1,486.22l.16,10.95c-5.09-1.85-9.27-5.55-14.02-8.26l-.32-14.48,11.96,10.92c.7.66,1.65.81,2.21.87Z"/>
    <path class="cls-36" d="M1005.8,369.11c-.06,5.44-.68,10.88-1.89,16.22-2.24,3.1-4.91,5.13-7.9,7.2l1.69-20.63c.37-3.55.44-7.02,2.3-9.78,2.36,2.04,4.36,4.27,5.79,6.99Z"/>
    <path class="cls-10" d="M1002.09,491.78c-2.33,3.59-6.19,6.01-10.28,6.93l.31-9.99c1.04.23,2.04-.26,3.12-1.31l7.78-7.29-.93,11.67Z"/>
    <path class="cls-86" d="M1005.8,369.11c2.98,5.67,1.67,11.29-1.89,16.22-.82-.65-1.03-1.85-.89-3.14l1.42-13.21,1.35.13Z"/>
    <path class="cls-69" d="M887.09,518.73l-2.15,70.26-2.08,78.11c.17.24.26.88.17,1.17l-26.05-1.17.93-73.14.76-74.96c.08-.78.32-1.96.87-2.01,2.94-.26,25-.98,26.08-.25.73.5,1.25,1.1,1.46,1.98Z"/>
    <path class="cls-69" d="M926.12,525.1l-7.91,132.37c-.08,1.32.76,2.99-.29,3.2-2.25-6.31-6.95-14.43-14.02-16.18-5.2-.43-10.03,5.22-12.17,8.72-.47-.77-.88-1.92-.84-3.31l1.89-65.93,2.23-65.35.68-2.09c3.47-.6,28.75-4.05,30.02-3.24,1.6,1.03.9,9.5.41,11.8Z"/>
    <path class="cls-69" d="M959.95,507.58l-5.34,89.4c-13.88,20.32-14.99,45.71-4.37,67.84.68,3.27,1.62,10.32-2.17,11.15-.27.73-.78,1.82-1.31,1.74-2.2-.32-19.74-4.1-20.44-4.88-.71-1.51-.99-3.19-.82-5.03l4.11-76.04,4.36-73.69c.36-2.35.9-4.54,1.62-6.58l22.5-5.5,1.86,1.6Z"/>
    <path class="cls-78" d="M955.98,673.89c.81,1.22,1.44,2.55,1.47,4.03.11,5.11-2.76,14.9-5.49,19.19l-8.7,2.79c-2.41-.61-2.55-2.79-.42-6.55l3.03-16.37,2.22-1c.68-3.69.32-7.54,2.17-11.15l5.73,9.07Z"/>
    <path class="cls-41" d="M810.24,484.03l.48,30.21-.16,75.82-2-.68-.53-72.26-30.97-5.67-1.01-2.23-.58-14.07c1.09,1.18,1.82-.52,2.73-.95,10.43-4.89,21-8.37,32.05-10.17Z"/>
    <polygon class="cls-37" points="810.57 590.06 811.08 668.01 801.05 668.57 783.83 672.86 780.6 622.11 776.04 509.23 796.92 513.3 810.01 515.24 810.57 590.06"/>
    <path class="cls-7" d="M850.06,565l.02,10.96c-.29,0-1.03.37-1.03,1.17v90.03s-30.08.73-30.08.73l-.37-25.84-.36-123.91,1.2-3.13c1.06-1.08,29.04.98,30.18,1.97.38.33.67.77.93,1.25.26,15.68.09,31.27-.49,46.77Z"/>
    <path class="cls-39" d="M850.06,565v-45.99s-29.02-2.23-29.02-2.23c-1.28-.1-2.39.74-2.8,1.36l-.21-36.93,24.02-2.13c3.26-.31,6.43.35,9-.95v85.71c0,.82-.74,1.17-1,1.15Z"/>
    <path class="cls-108" d="M888.68,478.21l-1.58,40.52-28.41.27.36-40.74,20.94.6c3.2.09,6.29.29,8.7-.65Z"/>
    <path class="cls-34" d="M928.35,484.34l-1.41,34.71c-.09,2.25.68,4.67-.82,6.05l.08-9.97-31.18,3.49,1.2-38.55-.15-11.94c0-.73.6-1.06.93-1.11l.28,12.58c10.86.61,21.01,2.01,31.08,4.73Z"/>
    <path class="cls-31" d="M948.08,675.97l-3.31,17.83c-.41,2.2-2.23,3.97-1.52,6.09l-20.23,5.14,2.48-37.25c.16.19.06,2.8.71,2.95l21.87,5.22Z"/>
    <path class="cls-80" d="M960.89,497.16l-.93,10.42-24.99,6.11c.33,2.24-.07,3.55-.99,4.36l2.01-36.01c.13-2.29-.5-4.56.8-6.11l.05,10.37,17.34,6.56c2.53.96,4.05,4,6.7,4.3Z"/>
  </g>
  <g>
    <path class="cls-84" d="M368.43,199.3c7.65.3,15.32.65,23,1.03l12.87.23c3.79.07,7.32.59,11.1.94l12.76,1.17c42.82,3.91,103.09,15.79,136.11,42.24,9.92,7.95,15.66,18.79,16.41,30.7l.67,10.63c.43,5.45.72,10.47.89,15.08.37,1.56,1.21,1.38,2.46.95,6.02-2.25,16.1-5.9,23.28-5.96l8.27-.06c4.58-.83,9.38-.83,13.99-.05,20.48-.08,43.96,11.57,57.95,26.87,12.6,13.79,20.09,30.51,23.61,48.12l2.18.99c-.29,18.31-.27,36.6.07,54.9l-1.17,11.54c-1.27.05-2.11.91-2.51,2.57-14.56,65.16-63.97,113.62-123.35,142.48l-24.5,10.62-6.06,20.42,28.18,9.9c.81,2.27-1.92,7.2-4.32,7.57l-.51,1.23c-8.08-2.14-16.45-4.56-25.12-7.26l-5.94,12.67-2.4.45c-1.19,1.4-2.93,1.57-5.22.51.97,2.48,1.15,4.66.55,6.54.15.77.26,1.54.23,2.3-.17,4.52-16.97,25.02-21.33,26.16-.73.19-1.5.25-2.27.28.48,2.85-1.63,4.84-6.33,5.98.32.71.72,1.8.28,2.17-1.68,1.39-15.46,9.65-16.72,9.42-.45-.08-.86-.4-1.26-.79.31,2.14-1.13,3.78-4.31,4.94l-7.63,1.26c-1.33,1.72-2.9,3.21-4.81,4.26-11.81,6.51-33.31,11.61-46.91,14.23-6.03,1.16-12.08,2.19-18.18,2.94-1,.12-2.04-.08-3.11-.3s-2.14-.59-3.19-1l-.75,2.04c-4.32-.15-8.53-.28-12.65-.38-.27,3.26-10.59,3.52-11.74.59-4.45.03-8.85-.08-13.2-.33-.32-6.06-27.91-3.37-29.27-2.65-.82,2.11-2.2,3.05-4.13,2.84l-8.13-.21c-4.45-1.15-8.98-1.41-13.59-.76-.84,2.54-1.3,2.19-1.95-.33-2.4-.67-4.91-.95-7.54-.83,1.17-4.67-.28-6.33-4.34-5-5.38,4.64-10.73,3.92-14.08-2.29-3.25-1.48-6.81-1.97-7.09,2.31l-4.36.04c-.37.82-.66.74-.88-.18l-1.2-1.71c3.45-4.96-3.27-4.32-6.48-2.63-1.01,2.19-3.24,2.51-6.69.98,3.86-6.53-6.6-8.88-9.1-3.42l-5.58-1.16c-1.25,2.7-2.74,1.83-2.9-1.06-1.86-.45-2.52-2.1-1.97-4.95-5.07-2.07-5.48-6.31.4-4.57l1.42-1.67c27.52,8.6,56.67,15.93,86.67,16.82l5.41,2.1c3.96.47,7.97.84,12.02,1.11.09-.78.31-1.92.88-2.01,2.96-.44,10.13-.34,13.35-.11,3.42-.7,5.62-.06,6.61,1.94,4.87.15,9.58-.17,14.11-.98l5.4-2.32c45.58-4.04,96.87-13.47,130.57-46.74,32.95-32.53,40.73-82.09,45.07-126.61,5.77-88.18,10.47-174.98,9.68-260.68-3.69-23.13-32.42-36.64-52.72-43.08-88.35-28.05-200.41-29.17-290.66-8.41-34.36,7.9-91.8,22.71-91.74,65.7l8.03,241.89c2.4,34.83,9.22,69.85,24.64,101.35l.39,5.06c1.76,2.55-5.58,6.25-7.45,3.91l-2.29-.09-6.69-12.72-10.9,3.45c-3.83,2.21-7.53,3.12-11.1,2.74,2.2,2.98-1.96,4.91-5.08,4.46-1.23-.18-9.17-4.56-9.22-5.1s.11-1.1.34-1.67c1.9-2.11,5.67-3.86,8.8-5.11l24.99-10.05c-8.22-22.72-13.67-45.2-15.56-68.78l-1.03-12.91c-.36-4.46-.85-8.64-.93-13.11l-.28-14.85c-.41-4.61-.62-9.3-.64-14.05-1.44-5.63-1.7-11.68-1.3-17.91.31-4.9-.83-9.3-.87-13.98l-.19-24.01c-.32-6.62-.66-13.28-1-19.99l-.02-13.99c-.3-6.61-.62-13.27-.97-19.96l-.03-11.01c-.32-7.64-.64-15.3-.98-22.99l-.02-12.98c-.29-6.31-.62-12.64-.97-18.99l.35-36.64c.22-22.75,21.84-39.62,41.74-49.12,17.93-8.56,35.79-14.34,55.25-18.8,25.44-5.83,50.51-10.34,76.61-12.04l15.81-1.03,16.03-.95,37.98-.3ZM571.97,527.91l-7.01,56.25,39.53-19.95c25.39-15.07,47.66-33.68,65.66-57.18,23.66-31.26,37.32-69,36.48-108.16-.41-19.27-4.23-37.11-13.51-53.61-11.56-21.51-31.41-35.31-55.55-39.57-19.1-2.74-38.22.06-56,7.55l-1.46,53.37c13.81-14.38,32.93-20.46,51.95-16.36,33.91,10.14,40.58,51.25,31.99,83.72-6.45,24.39-20.14,45.31-38.27,62.62-15.46,14.75-32.81,25.79-53.81,31.33ZM615.25,358.29c-12.87,1.4-24.88,8.5-32.86,18.85-2.87,3.73-3.24,6.85-3.19,11.02-.62.08-1,.83-1,1.89l.05,10.07v8.99c-.67.11-1.06.86-1.05,1.92l.05,12.06v14.99c-.67.11-1.06.85-1.06,1.91l.02,9.09-.2,10.86c-.05,2.81-.02,4.63-.28,7.39l-.78,8.53c-.65,7.02.21,12.76-1.15,18.75-.71,3.13,0,4.92.03,7.75.07,5.21-1.7,10.78-.04,16.03,18.98-6.13,34.06-16.72,47.79-30.06,20.21-19.65,34.31-45.38,36.7-73.14,1.63-3.21,1.16-10.12.27-15.16-1.21-6.87-2.68-13.74-5.68-20.66-4.7-10.86-14.18-19.24-25.72-21.05,0,0-8.34-.32-11.92-.05Z"/>
    <path class="cls-14" d="M379.4,711.71c-4.55.8-9.25,1.13-14.11.98l-20.84.18c-4.02-.35-8.02-.72-12.02-1.11-21-.11-41.84-3.66-62.79-8.29l-30.71-8.97c-30.04-10.99-55.44-28.1-70.88-56.62-17.77-32.83-26.23-77.62-27.49-116.01l-7.54-229.46c-.58-17.79,6.23-32.14,20.82-42.15,34.73-23.83,89.9-33.18,132.66-38.14,44.97-5.21,88.86-5.54,133.9-1.09,30.4,3,59.57,7.61,88.59,16.43,24.84,7.55,63.34,23.16,63.28,50.84l-.12,57.95-5.34,134.19c-1.33,33.37-3.58,65.64-8.43,98.59-2.85,19.34-7.49,37.16-14.97,54.92-9.7,23.04-24.57,41.84-45.76,55.36-21.75,13.87-45.7,22.1-71.23,26.56-16.07,2.8-31.27,5.11-47.02,5.84Z"/>
    <path class="cls-20" d="M379.4,711.71c.13.5-.23,1.11-.98,1.1l-13.14-.12,14.11-.98Z"/>
    <path class="cls-88" d="M187.69,275.68c3.48.19,2.85,1.95-1.89,5.29-.84,1.96-1.98,3.7-3.44,5.23.18,1.94-.9,3.53-3.22,4.8,5.4,4.3,13.28,7.17,20.21,9.45,71.94,23.69,161.22,28.9,236.33,18.32,32.68-4.6,69.26-12.07,96.6-29.26l2.17-.35c-2.55-1.57-.86-6.4,2.12-6.06,1.18.82,2.18,1.57,3.54,2.04,11.96-14.06-4.61-21.83-1.41-26,1.11-1.45,3.31-1.65,4.98-.35,10.71,8.35,11.41,23.2,2.15,33-5.55,5.87-11.9,10.12-19.42,13.61-41.78,19.4-102.87,26.73-149.63,28.25-60.63,1.98-142.15-5.55-197.48-30.09-12.94-5.74-27.19-16.01-25.06-28.98.8-4.86,3.64-9.81,8.48-12.2,1.47-.72,3.31.38,3.94,1.14,2.7,3.27-6.12,6.44-4.57,14.67.72,3.84,3.58,7.44,7.31,9.96,5.04-5.96,11.27-9.39,18.29-12.48Z"/>
    <path class="cls-12" d="M536.57,283.1l-2.12,6.06-4.16-.21c-50.58-25.54-112.62-31.7-169.24-31.88-58.04-.19-120.61,5.23-173.77,28.8l-4.92.33c-.05-9.79,7.98-8.17,5.33-10.52,19.24-8.48,39.26-14.09,60.51-17.74,36.58-6.29,72.94-9.03,110.16-9.43,23.76-.26,45.99,2.26,69.44,4.27,29.16,2.51,57.38,7.83,84.65,18.22,8.72,3.32,16.69,6.91,24.11,12.11Z"/>
    <path class="cls-29" d="M534.45,289.16c-.29,1.17-.65,2.38-2.05,3.2-9.32,5.45-18.53,9.64-29.02,13.05-63.56,20.62-127.84,22.46-194.32,18.17-35-2.26-68.84-7.99-102.19-18.55-11.14-3.53-21.19-7.11-31.44-13.07,2.09-2.37,4.42-4.38,6.95-5.76,11.98-6.52,24.58-11.29,38.38-14.87,39.32-10.19,78.85-15.37,119.7-16.15,50.79-.97,112.25,3.01,160.03,18.89,12.15,4.04,23.58,8.44,33.98,15.09Z"/>
    <g>
      <path class="cls-102" d="M366.49,630.17c-3.12,2.51-5.28,4.15-9.03,4.09-5.11-.09-35.45-26.63-45.51-36.77l-21.68-21.85c-36.57-36.86-73.29-97.73-44.6-145.35,16.54-27.46,49.51-35.62,77.5-20.05,15.22,8.47,26.21,21.52,35.4,37.18,19.34-34.53,55.6-56.55,90.57-39.55,15.38,7.48,27.97,22.93,31.97,42.41,8.2,39.98-14,77.12-39.77,107.7-22.56,26.77-47.67,50.28-74.86,72.2Z"/>
      <path class="cls-66" d="M416.64,570.66l-12.49,12.2-24.12,22.09-21.72,17.96c-16.22-11.44-30.12-23.44-43.4-37.02l-8.69-8.88c-21.21-21.68-40.35-44.85-52.61-72.74-13.87-31.53-9.69-75.54,23.78-88.31,31.91-12.18,61.81,13,75.95,41.74,1.08,2.2,2.54,3.32,4.31,3.57,2.07.29,4.48-.65,5.83-3,13.03-22.59,30.84-43.79,58.18-45.62,24.69-1.65,45.2,16.11,49.54,40.05,6.27,34.6-14.08,72-36.97,98.01l-17.57,19.96Z"/>
    </g>
  </g>
</svg>