<svg id="Layer_1" data-name="Layer 1" xmlns="http://www.w3.org/2000/svg" viewBox="0 0 712.77 739.71"><defs><style>.cls-1{fill:#f8bb4a;}.cls-2{fill:#41220f;}.cls-3{fill:#fbbc9d;}.cls-4{fill:#fbbe9f;}.cls-5{fill:#fdd3b8;}.cls-6{fill:#fdc05a;}.cls-7{fill:#673d1e;}.cls-8{fill:#fdd4b8;}.cls-9{fill:#fabe57;}.cls-10{fill:#f7a682;}.cls-11{fill:#f7a681;}.cls-12{fill:#f4a138;}.cls-13{fill:#fabd53;}.cls-14{fill:#f7a17c;}.cls-15{fill:#facf69;}.cls-16{fill:#f6a47f;}.cls-17{fill:#f6936d;}.cls-18{fill:#f6ab44;}.cls-19{fill:#fade91;}.cls-20{fill:#e4734a;}.cls-21{fill:#f38961;}.cls-22{fill:#f5d8be;}.cls-23{fill:#f79e7a;}.cls-24{fill:#f09c31;}.cls-25{fill:#f6a37d;}.cls-26{fill:#f9e095;}.cls-27{fill:#f7a986;}.cls-28{fill:#f6a783;}.cls-29{fill:#fab999;}.cls-30{fill:#fabe5a;}.cls-31{fill:#f6a641;}.cls-32{fill:#f5ac41;}.cls-33{fill:#f8b390;}.cls-34{fill:#f5d273;}.cls-35{fill:#f4a580;}.cls-36{fill:#f0875e;}.cls-37{fill:#f29f37;}.cls-38{fill:#fbdd8e;}.cls-39{fill:#f0a434;}.cls-40{fill:#3b220f;}.cls-41{fill:#fbc4a5;}.cls-42{fill:#fdd3b6;}.cls-43{fill:#f79d79;}.cls-44{fill:#f18159;}.cls-45{fill:#feedd9;}</style></defs><path class="cls-1" d="M670.65,455c-1.81-.29-2.19-1.66-2.5-3.2-.73-3.72-1.65-7.41-2.3-11.15-3.14-18.14-14.6-27.37-32.14-30.12-.49-.08-1-.08-1.47-.2-1.57-.39-3.53-.4-3.62-2.64s1.88-2.47,3.44-2.81A100.34,100.34,0,0,0,646.39,401c8.61-3.22,14.28-9.22,17.37-17.83,2-5.48,2.87-11.2,4.07-16.85.4-1.85.2-4.49,2.91-4.49s2.59,2.37,2.89,4.38c.4,2.77,1.16,5.48,1.65,8.24,2.86,16.15,12.23,25.9,28.38,29.09,2.27.45,4.47,1.19,6.71,1.74,1.19.29,2.3.66,2.39,2.09.1,1.71-1.21,2.2-2.52,2.56-3.18.88-6.38,1.71-9.57,2.57-13.28,3.56-21.16,12.3-24.31,25.48-1.07,4.48-1.94,9-2.81,13.54C673.21,453.3,672.79,454.8,670.65,455Z"/><path class="cls-2" d="M631,556.26c-2.64-2.3-2.48-3.43,0-5.55q11.52-9.84,22.72-20c6.78-6.2,8.22-12.52,4.79-21.07-3.31-8.28-7.07-16.39-10.37-24.68a21.17,21.17,0,0,0-15.33-13.51c-17.74-4.54-35.44-9.28-53.22-13.69-6.17-1.54-12.17-.71-17.33,3.55-7.4,6.11-15,12-22.2,18.33-7.92,6.86-9,11.68-5.39,21.57q4.79,13,9.84,25.94c1.1,2.83,1.06,4.3-2.6,4.74a60.64,60.64,0,0,0-12.56,2.78c-4.25,1.44-5.19.12-5.45-4-2.4-38.2-3.43-76.42-2.84-114.69.07-4.65,0-9.31,0-15.06l3.29,2.43c13.52,10,23.63,9.94,35.92-1.55a568.13,568.13,0,0,0,66-73.42c10.28-13.6,9.42-23.52-1.81-36.57-9.49-11.06-19.78-21.4-29.59-32.16C562.38,224,523.92,199,475.66,191a4.61,4.61,0,0,1-3.07-2.12c-6.48-8.4-16.32-10.4-25.49-4.85-2.77,1.68-4.65,1.75-7.51.3-33-16.7-65.8-33.76-99.24-49.52-10-4.72-14-10.22-12.27-20.79.44-2.57.77-4.27,3.49-5.08,5.12-1.52,9.62-4.38,14.07-7.24,21.2-13.66,30.79-42.48,21.83-65.51-10.53-27-37.81-41.08-66.26-34.57-27.54,6.3-45.06,30.41-45,55.12,0,7,4.88,11.88,11.3,12s11.17-4.37,11.82-11.46c1.37-15.12,8.9-25.83,23.31-30.92,12.19-4.3,23.94-3,34,5.68,9,7.79,12.33,18.08,9.77,29.59-3.41,15.24-14.28,23.22-28.78,26.84-7.78,1.94-11.54,5.66-12.88,13.69-1.25,7.56-.4,15.19-.5,22.79,0,2.71-.84,4.07-3.24,5.27q-53.79,27-107.49,54.24c-2.4,1.21-4.1,1.38-6.65-.18-8.27-5.1-18.77-4-24.42,2.88-2.59,3.13-5.52,4.09-9.1,4.84-30,6.33-57.95,17.19-81.75,37-24,20-45.1,42.86-65.56,66.36a24.55,24.55,0,0,0-5.2,10c-2.59,9.77,1.65,17.6,7.28,24.74a681.8,681.8,0,0,0,64.29,71c9.78,9.33,21.46,13.74,35.22,3.81.21-.15.6-.05,1.41-.1.57,40.18-1,80-3.84,119.85q-3.09,43.58-7.88,87c-1.57,13.89,3.93,23.53,16.26,29.94,19.9,10.37,41.36,15.77,63.08,20.24,42.3,8.71,85.16,12.21,128.29,12.61,49.62.46,99-2.48,147.65-12.74,4.62-1,5.77.38,7,4.37a99.22,99.22,0,0,0,40,54.55c45.38,31,104,23.51,140.63-17.7C678,660.35,673.91,593.74,631,556.26ZM504.68,646.37a51.06,51.06,0,0,0,15.83-8c8.32-5.91,11.47-14.17,10.59-24.15-.82-9.21-1.57-18.43-2.53-27.64-.31-3,.52-4.79,3.44-6.12,9.15-4.19,18.67-6.54,26.51-6.71,34.42-.12,61.14,24.37,63.27,55.93S600,690.29,568.32,694.3c-29.5,3.74-57.68-13.93-66.8-41.61C500.29,649,500.94,647.41,504.68,646.37ZM320.26,156.61q37.53,19.06,75.15,38,17.65,8.93,35.32,17.9c5.34,2.72,6,7.58,1.31,11.69-21.21,18.68-44.6,33.51-72,41.68-14.1,4.2-28.37,6.28-45.51,6.62-36.83-.25-71.05-14.25-101.46-38.54-3.35-2.69-6.42-5.75-9.87-8.3-3.16-2.33-3.59-5.78-4.58-9.05-.83-2.71,1.56-2.94,3-3.68q41.88-21.48,83.79-42.86c8.69-4.44,17.48-8.65,26.05-13.3A8.48,8.48,0,0,1,320.26,156.61Z"/><path class="cls-3" d="M517.8,359.9c-1.3-1.76-2.6-3.63-5.21-2.82s-3.05,2.92-3.22,5.11c-.9,11.7-2,23.4-2.53,35.12a1082.87,1082.87,0,0,0,2.64,135.4,16.69,16.69,0,0,0,.19,2.47c1.23,5.13-1.22,7.61-5.51,10.36-35.09,22.43-51.68,54.64-49.48,96.28.18,3.43-.6,4.52-3.79,5.17a620.18,620.18,0,0,1-63.33,9.13,770,770,0,0,1-95.69,3c-42.6-1.13-84.84-5.51-126.4-15.25-10.42-2.44-20.8-5.2-30.67-9.51-3.25-3.23-3.33-7.26-3.05-11.48,1.41-21.12,3.19-42.21,4.9-63.3,1.86-23,1.54-46,2-68.93.6-32.85-.84-65.5-8-97.68-1.75-7.9-3.17-15.92-6.77-23.3-1.07-2.19-.62-4.55-.79-6.84-.2-2.71-.5-5.41-4-5.82-3.7-.51-5.05,1.92-6,4.81-6.14,7.06-13.47,13-19.13,20.53-.79,1.05-1.63,2.06-2.41,3.12-3.11,4.24-2.82,5.21,2,6.85,1.07.36,2.32.32,3,1.43-4.14,3.6-7.69,1.41-11-1.31-8.27-6.88-15.53-14.8-22.83-22.67C52.17,358.45,41.42,347.27,31.9,335c-1.82-3.68.08-6.7,1.89-9.61,6.64-10.7,14.73-20.32,22.61-30.09a458.73,458.73,0,0,1,40.09-43.2,221,221,0,0,1,43.8-32.27c5.31-3,10.45-6.34,15.8-9.31a19.62,19.62,0,0,1,7.87-2.79c6.54,23.19,13.77,46.18,22.16,68.76,22.44,60.35,50.61,117.79,87.26,170.9a18.82,18.82,0,0,1,.93,1.72,5.81,5.81,0,0,0,.49,4c5.28,9,11.75,17.13,17.62,25.7.61.89,1.68,1,2.55,1.42,1.89,4.36,1.2,7-3.52,9.73-25.34,14.66-33.72,47.07-19.23,72.49.73,1.28,1.43,2.58,2.14,3.88,4.84,15,15.06,25.11,29.46,30.77,20.36,8,44.45,1.67,59.11-15.32,14.22-16.48,19-35.16,12.46-56.34-1.19-3.83-3.28-7.22-4.84-10.86a1.22,1.22,0,0,0-2-.61,68.59,68.59,0,0,0-20.8-23.88c-1.11-3.72.24-6.86,2.46-9.69,10.39-13.32,20-27.18,29.14-41.39,9.33-14.48,17.77-29.47,26.16-44.48,16.27-29.12,28.72-59.94,40.45-91.09,7.47-19.84,14-40,19.87-60.33a165.91,165.91,0,0,0,6.43-31.45c-2.31,5.21-3.23,10.81-4.75,16.23-.45,1.59-.72,3.33-2.1,4.4-.89.7-1.91.86-1.62-.91,2.06-8.27,4.16-16.52,6.13-24.81.44-1.86,1.49-1.91,2.9-1.56,6.34,1.61,12.87,2.47,19,4.93,3.88,4.39,8.95,7.35,13.61,10.7,17,12.24,32.12,26.66,46.16,42.06,17.16,18.82,33.65,38.28,47.7,59.62a22.44,22.44,0,0,0,6.94,7c-13.76,17.84-29.37,34.05-44.84,50.37-3.64,3.84-7.35,7.64-11.27,11.19-7,6.3-8.71,6.3-16.62.86.13-2.26,1.58-1.43,2.74-1.12s2.41,1.66,3.53.18a4.6,4.6,0,0,0,.29-4.69,6.29,6.29,0,0,0-1.75-2.36C530.44,376.69,524.32,368.12,517.8,359.9Z"/><path class="cls-4" d="M214.69,265.41c-1.83-4.84-3.67-9.68-5.91-15.57l19.86,13.49c8.33,6.81,18.4,10.2,28.18,14,17.6,6.87,35.83,10.91,54.83,11a29.89,29.89,0,0,1,6.87.9c11.53,2.81,22.19-.14,33.27-3.44a348.22,348.22,0,0,0,34.59-12.62c10.39-4.34,20.05-10.08,29.5-16.17,1.83-1.18,3.44-4.11,5.88-2.58,2.08,1.3-.2,4,.34,6-9.56,30.15-21.74,59.26-35.52,87.68-16.7,34.44-36.16,67.25-59.48,97.67-3.8,5-13.18,5-17-.06A544.07,544.07,0,0,1,269,382.59c-10-17.71-19.68-35.56-27.84-54.21-.27-1.08.14-1.69,1.2-1.17,1.24.61,1.35,2.21,1.58,2.44-10.66-21.72-18.46-45.59-26.87-69.44C215.28,261.92,217.81,264.82,214.69,265.41Z"/><path class="cls-5" d="M119,357.06c2.7-.34,4.48.51,4.67,3.49.66,10.05,5.85,18.8,7.69,28.53,3.42,18.09,6.58,36.15,7.81,54.59.75,11.25.64,22.45.74,33.66.17,18.63.71,37.29-.18,55.87-.8,16.73-1.65,33.49-3.59,50.18-1.28,10.94-1.58,22-2.1,33-.21,4.27-1.72,8.43-.89,12.78.34,1.82,1.9,3.24,1.61,5.23-6.19-1.46-11.63-4.52-17-7.75-7.37-4.41-6.25-11.39-5.48-18.11,2.87-24.94,5-49.94,7-75,3.33-40.73,5-81.52,4.66-122.39-.12-12.9-.52-25.8-.95-38.69-.12-3.59-1.2-7.1-1-10.76C122.2,359.58,120.53,358.31,119,357.06Z"/><path class="cls-6" d="M509.82,710.73C488.44,697.51,475.61,678.3,470,654c.42-2.32,1.19-4.64-.54-6.85a2.87,2.87,0,0,1-.23-2.4c2.94-13.37,4-27.15,9.1-40a88.48,88.48,0,0,1,28.51-38A119.57,119.57,0,0,1,534.34,551c3.7-1.54,7.51-2.81,9.87-6.38,6.94-2.12,7-2.11,9.37,4.52.67,1.83,1.25,3.68,1.88,5.52-2.58,2.81-6.55,2.45-9.59,4.22-19.65,2.53-43.8,19.75-53.17,36.92,2.34-3.06,3.74-5.87,5.76-8.22,1.35-1.57,2.68-3.4,5.23-2.88.09,0,.17.24.18.37a1.78,1.78,0,0,1-.1.49,78.88,78.88,0,0,0-17.88,37.72c-4.07-.25-5.4,1.18-5.28,5.67.35,13.19,2.45,25.8,9.26,37.31.16.27.15.86.63.77-.08-1.51-1.53-3.3,1.2-3.92,11.08,23.24,28.95,37.91,54.36,43,2.89.58,5.82,1,8.73,1.5a76,76,0,0,0,24.68.16c19.77-3.51,35.17-14.19,44.89-31.45,5.27-9.37,9.7-19.76,9.67-31.15,2.41-19.83-1.32-38.2-13.24-54.51-2.62-3.59-5.77-6.8-8.67-10.18,2.47-7.31,6.54-8.56,11.82-3.3a66.16,66.16,0,0,1,15.9,24.93,111.83,111.83,0,0,1,6.28,31c.76,13.22-2.62,25.7-8.22,37.46-13.56,28.44-36.9,44-67.46,48.73-11.19,1.73-22.77,1.9-34-1.29-7.78-2.21-16-3.15-23.22-7C512.11,710.43,511,710.8,509.82,710.73Z"/><path class="cls-7" d="M313.59,8c23.7.48,44.86,17.68,48.34,40.7,3.37,22.24-13.05,45.68-32,51.67-10.12,3.2-10.07,3.38-10.06,13.85,0,5.63.1,11.27,0,16.89-.08,3.18,1,4.88,4.08,6.4,17.48,8.56,34.76,17.55,52.16,26.27,16.21,8.13,32.5,16.1,48.73,24.18,4.73,2.35,9.37,4.87,14.08,7.26,4.35,2.21,1.13,5.25.59,7.65-.74,3.26-2.71.86-4.09.17C413.68,192.1,392,181.2,370.3,170.17c-11.75-6-23.43-12.11-35.45-17.55q-7.65-3.48-15-7.54a7.24,7.24,0,0,0-7.46-.07q-22.47,11.52-45,23c-11.2,5.67-22.48,11.2-33.68,16.89-11.65,5.92-23.21,12-34.87,17.89-1.36.69-3.46,3.75-4.48,0-.63-2.33-3.68-5.4.66-7.62,5.74-2.92,11.37-6.07,17.11-9,27-13.85,54.06-27.74,81.19-41.4,5.6-2.81,11.37-5.27,16.8-8.46a5.07,5.07,0,0,0,2.9-5.12c-.13-8.12-.05-16.23-.06-24.35,0-7,1.43-9,8.25-10.9A49.53,49.53,0,0,0,340,86.34c10.24-8.66,16.31-20.13,15.23-33.36C354,37.26,346,25.2,330.44,18.92c-23.54-9.51-47.94,2.66-56.93,25.47A33.1,33.1,0,0,0,271.23,56c-.05,2.41-1,3.75-3.54,3.74s-3.47-1.43-3.45-3.8c.06-10,3.92-18.68,9.38-26.69C283.58,14.62,298.43,9.35,313.59,8Z"/><path class="cls-8" d="M164,207.73c-6.82,3.92-13.58,8-20.48,11.75-20.38,11.16-38.34,25.34-54.7,41.83a516.58,516.58,0,0,0-39.49,44.84c-5,6.31-10.28,12.41-14.36,19.41-1.71,2.94-3.11,5.94-3,9.43A154.65,154.65,0,0,1,17.5,317.3c-3.35-4.71-3.57-8.52.13-12.65,22.52-25.15,44.62-50.78,72.14-70.8,21.26-15.46,45.65-23.46,71.07-28.78C163.27,204.56,164.32,205.2,164,207.73Z"/><path class="cls-9" d="M298.44,462.68a248.43,248.43,0,0,1-20.65-27c-30.36-44.89-54.44-93.06-74.51-143.3a772.37,772.37,0,0,1-29.85-89.87c-.76-2.89-3.81-6.82,1.64-8.63,3.46-1.15,6.14,1.24,7.57,6.4,21.44,77.72,53.12,151,96.28,219.11,6.73,10.62,13.55,21.23,21.7,30.84,2.55,3,3.93,5.37.34,8.46C299.92,459.58,299.41,461.1,298.44,462.68Z"/><path class="cls-10" d="M606.24,329.3c-2.78.45-4.21-.87-5.77-3.21a465.93,465.93,0,0,0-39.39-50.72q-9.86-11.13-20-22c-14.32-15.25-30.85-27.82-47.56-40.21-1.19-.89-2.85-1.31-1.67-3.3a158.56,158.56,0,0,1,67.06,35.84c19.81,17.64,37.85,37,55.26,56.95,5.54,6.35,5.49,9.88.24,16.67C611.77,322.75,609,326,606.24,329.3Z"/><path class="cls-11" d="M463.81,231.35c2.23.5,1.89-1.43,2.17-2.5,1.58-6,3-12.13,4.6-18.17.25-1,.17-2.72,1.87-2.37,1.27.27,1.49,1.62,1.51,2.84.07,3.67-1.14,7.12-1.8,10.67-3.88,20.79-10.83,40.7-17.29,60.75-6,18.65-13.42,36.79-20.78,54.92a587.58,587.58,0,0,1-37.38,75.32,675,675,0,0,1-37,57.26,85,85,0,0,1-7.25,9.34c-3,3.07-3.54,6.93-4.69,10.65-3-1.83-8.17-1.84-6.11-7.85,1.16-3.4-.19-7.06,2.79-10.55,20.59-24.1,37.31-50.87,52.8-78.43C425.67,342.7,446.36,289,462.84,233.56A17.87,17.87,0,0,1,463.81,231.35Z"/><path class="cls-12" d="M509.82,710.73c.53-2.4,1.82-1.94,3.54-1.17a109.51,109.51,0,0,0,54.54,9c12.63-1.06,24.29-5.7,35.34-11.84,16.52-9.2,27.56-23.14,35-40.23,8.45-19.36,7.79-38.91,2-58.83a72,72,0,0,0-16.55-28.89c-4.91-5.35-5.13-5.19-10.12.39a16.45,16.45,0,0,1-1.46,1.31l-9-7.19c4-3.31,7.91-6.17,11.41-9.43,2.23-2.08,3.58-1.72,5.71.13,23.57,20.39,34.61,46.3,32,77.13-3.66,44-36,77.82-79.68,83.87C550.18,728.1,528.77,724.22,509.82,710.73Z"/><path class="cls-13" d="M310.78,493.86c10.12-1.79,19.91-1.46,28.88,4.34.75,2.72,2.92,4.37,4.81,6.18,7.68,7.34,12.83,16.23,13.91,26.74,1.38,13.43-3.26,25-13.4,34.14-7.77,7-16.81,11-28.68,10.6,3.17.66,6.26-1.57,6.5,2.62-23.68,2.24-45.63-15.55-46.57-37.75,0-6.22-.25-12.67,2.41-18.33,5.29-11.25,13.61-19.71,25.7-23.71C307.18,497.75,309.48,496.6,310.78,493.86Z"/><path class="cls-14" d="M584.26,470.33c16,3.71,32.11,7.23,47.64,12.81.33,1.71-1.09,1.83-2.09,2.14-1.88.59-3.69,1.53-5.59,1.92-6.38,1.31-10.77,4.29-10.64,11.53-1.65,1.22-2.19-.28-2.33-1.26-.5-3.5-3-4.38-5.87-5.05a74.15,74.15,0,0,1-11-2.95c-3-1.18-5.12-.4-6.86,2.1-3.67,5.28-7.51,10.46-11.14,15.78-.77,6.52,1.76,12.7,1.92,19.15.08,3,.52,5.92.4,8.9-.26,6.49-1.79,7.69-8.35,6.65a9.14,9.14,0,0,1-2.12-6.45c0-6-1.16-11.87-1.14-17.81,0-4.15-1-7.5-4.69-9.6a242.56,242.56,0,0,0,3.81,28.22c.61,3.46.64,6.77-4,7.61-6.67-16-12.07-32.39-18-48.63-.75-2.06-.72-3.85,1.22-5.25,2.94,0,5.09,1.9,7.52,3.1,4.06,2.18,8.21,4.19,12.13,6.59,2.42,1.48,4.3,1.38,5.9-1,2.76-4.09,5.81-8,8.72-11.95,1.51-2.07,1.43-3.82-.46-5.64a48.16,48.16,0,0,1-6.35-6.88c-1-1.58-3-3-1.57-5.1,1.35-1.89,3.28-.09,4.94-.17C579.05,469,581.41,471.18,584.26,470.33Z"/><path class="cls-15" d="M336,458.16c-2.76-2.09-2.61-3.83-.43-6.74,41-54.45,71.11-114.57,93.49-178.75,8.45-24.23,16-48.72,22.27-73.61,1.52-6.09,5.3-7.33,9.78-3.37-4,6.06-5.85,13-7.42,19.95-7.12,31.79-19.38,61.86-30.69,92.26-8.56,23-19.39,45-30.9,66.64-6.29,11.82-13.28,23.28-20.05,34.84-8.71,14.9-17.82,29.45-28.74,42.82C341.32,454.67,340,458.05,336,458.16Z"/><path class="cls-16" d="M368.57,513.94c.08-.65-.07-1.66.28-1.88,1.52-.95,2,.65,2.45,1.46,4.51,7.61,7.75,15.83,8.12,24.62,1.1,25.84-10,45.58-32.68,57.54-22.35,11.78-49.51,7.32-66.59-15.06a61.08,61.08,0,0,1-5.87-9.7,4.15,4.15,0,0,1,.08-4.62C285.47,581,300,589.35,318.68,589.46c34.39.2,60.42-32.7,52.54-66.2C370.48,520.12,369.46,517.05,368.57,513.94Z"/><path class="cls-17" d="M570.46,541.82c7-2.16,7.34-2.19,6.74-10.34-.44-6.16-.39-12.46-2.34-18.45a8.6,8.6,0,0,1,.52-7.15c2.36-.72,4.52.25,6.73.81,8.58,2.17,17.06,4.72,25.71,6.63,3.21.7,5,0,5.91-3.15,1.71-1,2,.47,2.27,1.49a11.72,11.72,0,0,1-1,8.62c-8.1,14-17,27.44-25.55,41.13-.93,1.51-1.76,3.68-4.32,3.31l-15.7-3.93c.5-4.38-.8-8.69-.45-13.07C569.12,545.67,568.65,543.45,570.46,541.82Z"/><path class="cls-18" d="M336,458.16c6.53-5.48,10.65-13,16-19.41,8.15-9.86,13.39-21.59,20.17-32.33,12.53-19.81,23.39-40.54,33.68-61.57a460.18,460.18,0,0,0,21.45-51.67c6.59-19,14.57-37.52,19.84-57,3-11.13,5.18-22.47,8.88-33.42,1-2.92,1.71-5.93,5.1-7.08.42,7.57-2.7,14.45-4.6,21.48-15.07,55.63-35.31,109.29-62.37,160.25-15.17,28.55-32.1,56-52.3,81.34-1,1.25-1.6,2.92-3.56,3.65Z"/><path class="cls-19" d="M544.21,544.6c-2.21,4.81-2.27,4.66-5.74,6-24.87,9.74-45.49,24.6-56.76,49.65-4.63,10.3-8,21.18-8.88,32.69-.28,3.81,0,7.91-2.28,11.44a3.13,3.13,0,0,0-.32,2.37c1.31,3.85,1.36,3.83-.21,7.25-4.56-18.2-3.07-36,3.78-53.37,11.32-28.64,32.67-46.11,61.85-54.57A75.73,75.73,0,0,1,544.21,544.6Z"/><path class="cls-20" d="M585.1,564.72c6.33-7.45,10.68-16.22,16.11-24.27,4.32-6.42,7.89-13.34,12.07-19.86a10.85,10.85,0,0,0,1-10.71c-2.16-3.41-3.19-6.95-1.19-10.83,0-1.8,0-3.61,0-5.41-.11-3.29,1.24-4.87,4.67-5.68,4.85-1.14,9.49-3.17,14.21-4.82,3.64-.25,4.57,2.19,5.06,5.07-2.58,3.38-6.7,3.23-10.23,4.31-5.91,1.8-5.92,1.62-5.44,7.61.27,3.46.59,6.92.84,10.37.29,4.18,2.29,5.31,6.09,5.08,3.46-.21,6.94-.06,10.41-.07,3.26.22,6.49.3,9.37-1.64,1.74,3.2,1.5,6-1.72,8.15s-6.79,2.52-10.41,2.11c-11-1.22-18.71,2.2-23.92,12.76-4.42,9-10.12,17.37-15.36,26-1.28,2.09-2.58,3.82-5.28,3.74A16.39,16.39,0,0,1,585.1,564.72Z"/><path class="cls-21" d="M591.31,566.59c4.34-2.56,6.1-7.2,8.36-11.21a293,293,0,0,1,18.9-30.07c2.4-3.27,6.92-1.9,10.45-2.27,5.72-.59,11.56.34,17.26-1-12.2,12.27-25.54,23.29-38.39,34.85-3.43,3.09-7,6-10.43,9.1C595.53,567.68,593.56,568.43,591.31,566.59Z"/><path class="cls-22" d="M422.1,260.43c-1.62-1.64-.45-3.7-.54-6.22a192,192,0,0,1-21.85,13.57c-11.88,6.15-24.31,11-36.73,15.94-10.92,4.35-22.11,6.52-33.5,8.49-4.49.78-8.37-1.5-12.61-1.92-12.42-1.23-24.89-2-37.11-4.9a188.5,188.5,0,0,1-50.38-20c-.77-.44-2-.86-.74-2.1,14.9,8,30.23,15,46.73,19,53.95,13.12,102.51.6,147-31.21,1.15-.82,1.95-2.24,4.05-2.39Z"/><path class="cls-23" d="M638.92,516.88c-4.78,0-9.56,0-14.34.12-2.45.07-3.34-.78-3.66-3.35-.72-5.68-.42-11.46-1.77-17.08-.57-2.35.21-4,3.07-4.56,5-1,9.83-2.51,14.74-3.8,2.53,3.49,3.73,7.56,5.11,11.56.41,1.2-.18,1.34-1.2,1.24-4-.38-4.61.38-3,4.14a55.54,55.54,0,0,0,3.41,6.59C643.83,515.94,643.81,516,638.92,516.88Z"/><path class="cls-24" d="M322.8,578.48c-1.12-2.69-3.71-1.51-6.72-2.45,4.42-1,7.93-1.56,11.31-2.54,19.05-5.52,29.15-19.8,30.06-37.86.52-10.5-4.22-19.86-11.33-27.73a80.84,80.84,0,0,0-6.71-6.64c-1.53-1.34-.84-2.13.25-3.06,16.06,8.25,25.2,27.14,21.77,45C357.8,562,342.1,577,324.26,578.65A7.35,7.35,0,0,1,322.8,578.48Z"/><path class="cls-25" d="M514.68,592.61c1.19,9.16,2.3,17.28,2.21,25.5,0,3.81-2.22,6.48-5.27,8.47a62.64,62.64,0,0,1-13.27,6.33C498.28,617.26,504,604.52,514.68,592.61Z"/><path class="cls-26" d="M634,645.18c2.33,3.9.64,8.14-.62,11.36-3.83,9.83-6,20.29-13.39,28.8-13.44,15.56-29.87,24.13-50.37,24.27-5.64,0-11.3-1.22-17.07-1.42l2.21-.57c23.17.87,43.19-6.47,59.44-23.2C624.9,673.45,631.06,660.1,634,645.18Z"/><path class="cls-27" d="M96.53,393.8c-.82-.05-1.65-.11-2.48-.14-2.59-.1-5.21-1.19-6.28-3.15s1.39-3.7,2.62-5.43c5.68-8,12.78-14.7,19.66-21.6a4.3,4.3,0,0,1,3-1.61c-.25,6.05-.54,12.11-.72,18.17a4,4,0,0,1-1.5,3.43C106.1,387,101.92,391.23,96.53,393.8Z"/><path class="cls-16" d="M517.8,359.9c5.38,1.54,6.55,7.06,9.69,10.65,3.78,4.35,8,8.27,11.86,12.48,1.11,1.22,2.76,2.41,2.51,4.05-.31,2,.58,4.63-1.52,5.92-1.86,1.14-3.27-.78-4.74-1.69a1.37,1.37,0,0,0-2.09.41,21.31,21.31,0,0,0-2-1.42c-9.12-5.21-15.25-12-13-23.57C518.92,364.58,518.07,362.19,517.8,359.9Z"/><path class="cls-28" d="M214.69,265.41c1.56-1.36.22-2.71,0-4.08s-.16-2.88,1.37-3.32c1.72-.5,2.11,1,2.54,2.3,3.61,10.93,7.33,21.8,11.46,32.55,4.91,12.75,9.52,25.6,15.58,37.86a2.64,2.64,0,0,1,.26,2.67c-2.39-1.15-2.19-4.15-4-5.54-.07-.06-.31.06-.44.15a2,2,0,0,0-.31.39c-8.79-17.25-15.91-35.21-23-53.19C216.92,272,215.85,268.68,214.69,265.41Z"/><path class="cls-29" d="M570.46,541.82c0,5-.6,10.08.66,15.08.39,1.54.57,3.36-1.72,3.89-4.3-4.77-5-11.07-7.15-16.77,2.83-2.07,3.25-4.44,2.55-8-1.6-8.33-3.51-16.68-3.37-25.25,0-2.15-1.32-3.53-2.9-5.33,6.56,1.27,9.56,4.94,9.88,10.5C568.91,524.54,569.76,533.18,570.46,541.82Z"/><path class="cls-30" d="M309.81,464.24c6-6.8,14.88-5.88,19.11,2,.8,1.24.15,2.24-.68,3.07a23.42,23.42,0,0,0-6.12,10c-.79,2.59-2.82,3.4-5.21,3.73-3.17-.13-7.49,2.74-9.16.23-2.17-3.27-2.45-8-.89-12.24.93.43,1.32,1.48,2.19,2,3,1.63,4.77-.46,6.08-2.52,1.47-2.29-.61-3.15-2.29-3.92C311.65,466,310.28,465.72,309.81,464.24Z"/><path class="cls-31" d="M491.7,663.09c-2.44,2.65,2.13,4.63.58,7.45-5-3.7-6.47-9.31-8.58-14.58-3.95-9.9-3.93-20.39-4.64-30.76-.24-3.59,2.14-4.18,6.83-1.94C485,637,486.38,650.31,491.7,663.09Z"/><path class="cls-32" d="M503.77,585.54c-3.31.25-4.68,2.66-6.15,5.19-1.69,2.92-3.71,5.63-5.87,8.85-1.35-13.68,26.31-34.85,53.78-41.89,1.17,1.26,2.69.43,4,.71,1.51.32,3.7-.37,3.9,2.26l-11.9,2.16c-3.24.06-6.42.31-8.89,2.81A89.81,89.81,0,0,0,503.77,585.54Z"/><path class="cls-33" d="M584.26,470.33c-2.4,2.18-4.67-.51-7.06-.21-1.72.22-3.85-2-5.08-.3s2,2.67,2.15,4.49a6.62,6.62,0,0,1-2.22,4.27c-6.34,5.43-12.62,11-19.65,15.52l-6.94-4c7.67-7.52,16.13-14.13,24.25-21.14,2.54-2.2,4.9-1.26,7.4-.68S581.88,469.65,584.26,470.33Z"/><path class="cls-34" d="M310.78,493.86c.59,3.12-.3,4.83-3.83,5.41-8,1.3-13.39,6.73-19.21,12-8.55,7.68-10.89,17.08-10.68,27.8,0,.56-.54,1.13-.83,1.7C272.17,519.8,289.75,496,310.78,493.86Z"/><path class="cls-35" d="M295,480.2c-1.16,1.58-2.27,1.62-3.32-.1-5.48-9-12.57-16.89-17.62-26.16-.87-1.6-2.88-3.4.28-4.83,6.55,7.82,12.17,16.41,19.48,23.6C296.06,474.94,294.81,477.67,295,480.2Z"/><path class="cls-36" d="M638.92,516.88c.67-1.39,2.53-.41,3.4-1.78-2.5-2.65-3.87-6-5.42-9.26-.92-1.94-2.46-3.54-.32-6.15,2.35-2.88,3.7.54,5.49.08a73.62,73.62,0,0,1,5.93,14.1c0,2.24-1,3.21-3.26,3.07C642.81,516.81,640.86,516.89,638.92,516.88Z"/><path class="cls-37" d="M316.91,483c.91-1.11,2.88-.84,3.32-2.61,1.4-5.64,5.17-9.84,8.69-14.19,2.76,4.74,2.09,9.84,1.43,14.9-.26,2-1,3.17-3.58,2.66C323.56,483.14,320.2,483.23,316.91,483Z"/><path class="cls-38" d="M309.81,464.24c1.07.34,2.13.77,3.22,1,2.38.57,5,2,4.28,4.25-.86,2.51-3.08,5.2-6.22,5.59-2.61.33-4.24-1.28-4.23-4.11S308.05,466.15,309.81,464.24Z"/><path class="cls-39" d="M553.46,560.66c-1.27-1.56-3-.86-4.62-1s-3.09.15-3.31-2c3.45-.55,6.13-3.6,9.93-3.05l2.58,5.55A7.48,7.48,0,0,1,553.46,560.66Z"/><path class="cls-6" d="M532.67,565.63l-1.2-.62c3.09-2,6.21-3.85,10.09-2.19Z"/><path class="cls-40" d="M319.05,569c-18.6,0-33.75-15-33.74-33.26,0-17.64,15.88-33.61,33.32-33.51,18.86.1,33.85,14.83,33.78,33.16C352.33,553.91,337.35,569,319.05,569Z"/><path class="cls-41" d="M613.06,499.05q.6,5.42,1.19,10.83C614,516,614,516.06,608,514.7c-11-2.53-21.93-5.31-32.66-8.82,4.32-4.73,7.55-10.26,11.27-15.42,2.08-2.88,4.29-4,7.93-2.31a29.42,29.42,0,0,0,9.41,2.63C609.26,491.34,612.8,493.26,613.06,499.05Z"/><path class="cls-42" d="M552.4,494.1c3.69-5.25,9.41-8.2,14.13-12.27a70.55,70.55,0,0,0,7.74-7.52,7.75,7.75,0,0,0,.56.81c8.6,9.1,8.6,9.1,1.08,18.89-7,9.17-7,9.18-17.1,3.68C556.66,496.52,554.54,495.3,552.4,494.1Z"/><path class="cls-43" d="M307.76,560.69c-13.25-5.45-19.9-21-15-34.5,4.6-12.75,21-22.27,33.55-16.55a8.21,8.21,0,0,0,2.41.34c1.37,3.67,4.54,6,6.66,9.19,2.31,3.43,4,6.85,2.15,11.08a8.12,8.12,0,0,0-.43,3.92c.68,9.75-4.38,16-12.61,20-4.75,2.28-9.76,4-14.39,6.6A2.09,2.09,0,0,1,307.76,560.69Z"/><path class="cls-44" d="M307.76,560.69c6-4.27,13.48-5.66,19.64-9.7,5.67-3.72,8.77-8.67,8.49-15.63-.11-2.56-.19-5.05,1.11-7.65,1.21-2.42-.55-5.06-2.13-7.15a73.54,73.54,0,0,0-6.09-7.1c-1.32-1.33-1.53-2.28-.07-3.48,10.58,3.64,16.61,11.25,17.7,22.14,1.16,11.53-2.93,21.17-13.22,27.29C325.06,564.25,316.47,565,307.76,560.69Z"/><path class="cls-45" d="M306.66,534c-5.5-.05-8.71-4.11-7.35-8.21,1.65-5,5-8.5,10.35-9.61,2.94-.61,5.11.79,6.79,3.07a4.89,4.89,0,0,1-.4,6.76C313,529.24,310.71,533.72,306.66,534Z"/></svg>